<svg xmlns="http://www.w3.org/2000/svg" xmlns:xlink="http://www.w3.org/1999/xlink" xmlns:lucid="lucid" width="770" height="1121.63"><g transform="translate(-360 -41.736111111111086)" lucid:page-tab-id="0_0"><path d="M380 300h300v60H380z" stroke="#000" stroke-width="2" fill="#99d2f2"/><use xlink:href="#a" transform="matrix(1,0,0,1,385,305) translate(17.900390625 33.127170138888886)"/><path d="M380 419.13h300V500H380z" stroke="#000" stroke-width="2" fill="#99d2f2"/><use xlink:href="#b" transform="matrix(1,0,0,1,385,424.13194444444446) translate(17.900390625 29.50217013888889)"/><use xlink:href="#c" transform="matrix(1,0,0,1,385,424.13194444444446) translate(11.2109375 55.37022569444444)"/><path d="M530 362v37.63" stroke="#000" stroke-width="2" fill="none"/><path d="M531 362.03h-2V361h2z"/><path d="M530 414.9l-4.64-14.27h9.28z" stroke="#000" stroke-width="2"/><path d="M430 180.87h200v60H430z" stroke="#000" stroke-width="2" fill="#99d2f2"/><use xlink:href="#d" transform="matrix(1,0,0,1,435,185.86805555555554) translate(8.037109375 33.127170138888886)"/><path d="M530 242.87v37.63" stroke="#000" stroke-width="2" fill="none"/><path d="M531 242.9h-2v-1.03h2z"/><path d="M530 295.76l-4.64-14.26h9.28z" stroke="#000" stroke-width="2"/><path d="M758 61.74c17.67 0 32 13.43 32 30 0 16.56-14.33 30-32 30h-96c-17.67 0-32-13.44-32-30 0-16.57 14.33-30 32-30z" stroke="#000" stroke-width="2" fill="#c1e4f7"/><use xlink:href="#e" transform="matrix(1,0,0,1,635,66.73611111111109) translate(30.555555555555557 30.27777777777778)"/><use xlink:href="#f" transform="matrix(1,0,0,1,635,66.73611111111109) translate(52.77777777777778 30.27777777777778)"/><use xlink:href="#g" transform="matrix(1,0,0,1,635,66.73611111111109) translate(75 30.27777777777778)"/><use xlink:href="#h" transform="matrix(1,0,0,1,635,66.73611111111109) translate(97.22222222222221 30.27777777777778)"/><path d="M709.92 123.73v.13l-.07.28-.06.28-.1.28-.08.28-.1.3-.14.3-.14.3-.16.3-.2.32-.2.33-.24.35-.27.36-.3.38-.37.4-.42.42-.48.45-.56.47-.66.53-.8.57-.93.62-1.14.68-1.4.78-1.77.87-2.26 1-2.97 1.18-4.04 1.4-5.76 1.74-8.86 2.26-15.87 3.33-95 16.68-8.87 2.27-5.76 1.73-4.04 1.4-2.97 1.17-.08.04" stroke="#000" stroke-width="2" fill="none"/><path d="M710.98 123.78l-2-.04.02-1h2z"/><path d="M532.37 177.66l7.28-13.1 6.32 6.77z" stroke="#000" stroke-width="2"/><use xlink:href="#i" transform="matrix(1,0,0,1,552.9906345267934,122.57582073087364) translate(0 17.77777777777778)"/><use xlink:href="#j" transform="matrix(1,0,0,1,552.9906345267934,122.57582073087364) translate(22.22222222222222 17.77777777777778)"/><use xlink:href="#k" transform="matrix(1,0,0,1,552.9906345267934,122.57582073087364) translate(44.44444444444444 17.77777777777778)"/><use xlink:href="#l" transform="matrix(1,0,0,1,552.9906345267934,122.57582073087364) translate(66.66666666666666 17.77777777777778)"/><path d="M760 420h280v80.87H760z" stroke="#000" stroke-width="2" fill="#83bbe5"/><use xlink:href="#m" transform="matrix(1,0,0,1,765,425) translate(14.58984375 29.50217013888889)"/><use xlink:href="#n" transform="matrix(1,0,0,1,765,425) translate(14.58984375 55.37022569444444)"/><path d="M682 459.57h58.5" stroke="#000" stroke-width="2" fill="none"/><path d="M682.03 460.57H681v-2h1.03z"/><path d="M755.76 459.57l-14.26 4.63v-9.27z" stroke="#000" stroke-width="2"/><path d="M710.02 123.74l.13 6.03.4 6.63.67 6.3.9 6 1.1 5.76 1.3 5.57 1.5 5.4 1.72 5.3 1.93 5.17 2.15 5.13 2.4 5.1 2.68 5.1 2.97 5.17 3.33 5.24 3.75 5.4 4.26 5.6 4.9 5.9 5.75 6.4 6.96 7.1 8.92 8.33 13 11.2 61.56 49.8 8.9 8.34 6.97 7.1 5.75 6.4 4.9 5.9 4.25 5.6 3.75 5.4 3.33 5.24 2.97 5.15 2.68 5.1 2.4 5.1 2.15 5.13 1.93 5.2 1.72 5.27 1.5 5.4 1.3 5.57 1.1 5.77.9 6 .15 1.5" stroke="#000" stroke-width="2" fill="none"/><path d="M711.02 123.75l-2 .04-.02-1.06h2z"/><path d="M899.8 415.77l-5.44-13.98 9.26-.54z" stroke="#000" stroke-width="2"/><use xlink:href="#o" transform="matrix(1,0,0,1,815.2093177898328,255.96717885706445) translate(0 17.77777777777778)"/><use xlink:href="#p" transform="matrix(1,0,0,1,815.2093177898328,255.96717885706445) translate(22.22222222222222 17.77777777777778)"/><path d="M758 579.13c17.67 0 32 14.2 32 31.7 0 17.48-14.33 31.67-32 31.67h-96c-17.67 0-32-14.2-32-31.68 0-17.5 14.33-31.7 32-31.7z" stroke="#000" stroke-width="2" fill="#7ab648"/><use xlink:href="#q" transform="matrix(1,0,0,1,635,584.1319444444445) translate(30.555555555555557 31.27777777777778)"/><use xlink:href="#r" transform="matrix(1,0,0,1,635,584.1319444444445) translate(52.77777777777778 31.27777777777778)"/><use xlink:href="#s" transform="matrix(1,0,0,1,635,584.1319444444445) translate(75 31.27777777777778)"/><use xlink:href="#t" transform="matrix(1,0,0,1,635,584.1319444444445) translate(97.22222222222221 31.27777777777778)"/><path d="M899.95 502.87l-.04.4-.06.48-.1.46-.1.47-.12.47-.16.47-.17.48-.22.5-.23.48-.26.5-.3.52-.35.54-.4.55-.43.58-.5.6-.57.64-.66.66-.77.7-.88.78-1.04.82-1.22.9-1.46.96-1.78 1.07-2.18 1.2-2.72 1.34-3.5 1.55-4.6 1.8-6.34 2.2-9.33 2.8-15.8 4.03-93.14 20.36-9.33 2.8-6.34 2.2-4.6 1.8-3.5 1.56-2.72 1.35-2.18 1.2-1.33.8" stroke="#000" stroke-width="2" fill="none"/><path d="M900.98 502.92l-2-.05.02-1h2z"/><path d="M711.93 575.53l4.76-14.22 7.44 5.52z" stroke="#000" stroke-width="2"/><path d="M380 579.13h180v63.37H380z" stroke="#000" stroke-width="2" fill="#a3d977"/><use xlink:href="#u" transform="matrix(1,0,0,1,385,584.1319444444445) translate(24.794921875 20.62717013888889)"/><use xlink:href="#v" transform="matrix(1,0,0,1,385,584.1319444444445) translate(18.10546875 46.49522569444444)"/><use xlink:href="#w" transform="matrix(1,0,0,1,385,584.1319444444445) translate(85 72.36328125)"/><path d="M628 610.78l-2.2-.07-2.98-.3-2.83-.47-2.74-.65-2.68-.84-2.7-1.05-2.76-1.3-2.93-1.62-3.24-2.1-3.84-2.84-5.38-4.63-24.17-22.5-5.44-4.04-4.97-3.2-4.5-2.5-4.54-2.16-5.2-2.12-5.77-1.96-6.18-1.7-6.36-1.35-6.24-.95-5.92-.55-5.42-.18-4.85.12-4.27.36-3.73.54-3.25.67-2.83.75-2.48.82-2.16.87-1.9.9-1.68.9-1.5.93-1.3.94-1.2.96-1.07.97-.03.04" stroke="#000" stroke-width="2" fill="none"/><path d="M629.07 609.82l-.07.96v.35l.06.7-1.12-.05.07-2z"/><path d="M471.22 575.13l1.07-14.96 8.58 3.5z" stroke="#000" stroke-width="2"/><use xlink:href="#x" transform="matrix(1,0,0,1,405.42280421496764,529.6122218970239) translate(0 17.77777777777778)"/><use xlink:href="#y" transform="matrix(1,0,0,1,405.42280421496764,529.6122218970239) translate(22.22222222222222 17.77777777777778)"/><use xlink:href="#z" transform="matrix(1,0,0,1,405.42280421496764,529.6122218970239) translate(44.44444444444444 17.77777777777778)"/><use xlink:href="#A" transform="matrix(1,0,0,1,405.42280421496764,529.6122218970239) translate(66.66666666666666 17.77777777777778)"/><path d="M470.02 644.5l.03 1.38.14 2.3.23 2.24.32 2.2.4 2.13.5 2.1.58 2.07.67 2.04.75 2.02.84 2 .93 2 1.03 1.98 1.15 1.98 1.27 2 1.38 1.98 1.52 2 1.67 2.02 1.83 2.02 2 2.05 2.2 2.08 2.44 2.1 2.68 2.1 2.94 2.15 3.25 2.15 3.58 2.17 3.97 2.18 4.38 2.18 4.85 2.16 5.35 2.12 5.9 2.05 6.47 1.95 7.06 1.8 7.65 1.64 8.2 1.38 8.7 1.1 9.1.76 9.32.4h9.42l9.33-.4 9.1-.76 8.68-1.1 8.2-1.4 7.66-1.6 7.05-1.82 6.47-1.95 5.9-2.06 5.34-2.1 4.85-2.17 4.4-2.17 3.96-2.18 3.58-2.17 3.25-2.16 2.93-2.14 2.67-2.1 2.42-2.1 2.2-2.07 2.02-2.04 1.82-2.03 1.67-2 1.52-2 1.38-2 1.26-2 1.14-1.97 1.04-2 .93-1.98.86-2 .5-1.34" stroke="#000" stroke-width="2" fill="none"/><path d="M471.02 644.5l-2 .05-.02-1.05h2z"/><path d="M709.45 646.7l2.13 14.84-9.14-1.6z" stroke="#000" stroke-width="2"/><path d="M860 579.13h180v63.37H860z" stroke="#000" stroke-width="2" fill="#a3d977"/><use xlink:href="#B" transform="matrix(1,0,0,1,865,584.1319444444445) translate(24.794921875 20.62717013888889)"/><use xlink:href="#C" transform="matrix(1,0,0,1,865,584.1319444444445) translate(18.10546875 46.49522569444444)"/><use xlink:href="#D" transform="matrix(1,0,0,1,865,584.1319444444445) translate(85 72.36328125)"/><path d="M950 700l110 40-110 40-110-40z" stroke="#000" stroke-width="2" fill="#b391b5"/><use xlink:href="#E" transform="matrix(1,0,0,1,845,705) translate(25.2265625 42.693142361111114)"/><path d="M792 610.78l2.16-.07 2.97-.28 2.84-.47 2.75-.65 2.73-.84 2.75-1.05 2.85-1.3 3.03-1.63 3.36-2.12 4-2.92 5.68-4.75 24.96-22.6 5.6-4.06 5.06-3.2 3.93-2.15 4.72-2.26 5.36-2.16 5.9-2 6.24-1.7 6.34-1.3 6.17-.9 5.8-.5 5.24-.15 4.67.15 4.12.4 3.58.54 3.12.67 2.72.76 2.37.83 2.1.86 1.83.9 1.62.92 1.45.93 1.3.95 1.15.96.9.84" stroke="#000" stroke-width="2" fill="none"/><path d="M792.06 611.78l-1.14.04.08-.97v-.34l-.06-.68 1.05-.04z"/><path d="M948.8 575.13l-9.6-11.54 8.62-3.44z" stroke="#000" stroke-width="2"/><use xlink:href="#F" transform="matrix(1,0,0,1,946.6120233105776,540.7428894693246) translate(0 17.77777777777778)"/><use xlink:href="#j" transform="matrix(1,0,0,1,946.6120233105776,540.7428894693246) translate(22.22222222222222 17.77777777777778)"/><use xlink:href="#G" transform="matrix(1,0,0,1,946.6120233105776,540.7428894693246) translate(44.44444444444444 17.77777777777778)"/><use xlink:href="#H" transform="matrix(1,0,0,1,946.6120233105776,540.7428894693246) translate(66.66666666666666 17.77777777777778)"/><path d="M950 644.5v35.93" stroke="#000" stroke-width="2" fill="none"/><path d="M951 644.53h-2v-1.03h2z"/><path d="M950 695.7l-4.64-14.27h9.28z" stroke="#000" stroke-width="2"/><path d="M950 782.06V818" stroke="#000" stroke-width="2" fill="none"/><path d="M951 782.1h-2v-1.4l1 .36 1-.36z"/><path d="M950 833.26L945.36 819h9.28z" stroke="#000" stroke-width="2"/><g><use xlink:href="#I" transform="matrix(1,0,0,1,958.0000000000001,795.4491142461554) translate(0 17.77777777777778)"/></g><path d="M790 955h320v60H790z" stroke="#000" stroke-width="2" fill="#ccc"/><g><use xlink:href="#J" transform="matrix(1,0,0,1,795,960) translate(1.142578125 33.127170138888886)"/></g><path d="M836.07 739.98l-6.82-.14-7.74-.5-7.58-.8-7.4-1.08-7.1-1.36-6.82-1.6-6.48-1.8-6.13-2-5.8-2.14-5.4-2.27-5.06-2.4-4.72-2.46-4.4-2.54-4.1-2.6-3.8-2.64-3.54-2.68-3.28-2.72-3.04-2.74-2.83-2.77-2.62-2.8-2.42-2.8-2.26-2.85-2.08-2.86-1.93-2.9-1.76-2.93-1.63-2.96-1.5-3-1.35-3.07-1.23-3.12-1.1-3.18-1-3.24-.84-3.33-.4-1.83" stroke="#000" stroke-width="2" fill="none"/><path d="M839.67 739.05l-2.6.95 2.92 1.06-3.97-.08.04-2z"/><path d="M710.33 646.72l6.07 13.72-9.22.94z" stroke="#000" stroke-width="2"/><g><use xlink:href="#K" transform="matrix(1,0,0,1,753.2423861692321,691.2142022727644) translate(0 17.77777777777778)"/></g><path d="M758 1080c17.67 0 32 14.2 32 31.68 0 17.5-14.33 31.7-32 31.7h-96c-17.67 0-32-14.2-32-31.7s14.33-31.68 32-31.68z" stroke="#000" stroke-width="2" fill="#ccc"/><g><use xlink:href="#q" transform="matrix(1,0,0,1,635,1085) translate(30.555555555555557 31.27777777777778)"/><use xlink:href="#r" transform="matrix(1,0,0,1,635,1085) translate(52.77777777777778 31.27777777777778)"/><use xlink:href="#L" transform="matrix(1,0,0,1,635,1085) translate(75 31.27777777777778)"/><use xlink:href="#M" transform="matrix(1,0,0,1,635,1085) translate(97.22222222222221 31.27777777777778)"/></g><path d="M949.92 1017v.03l-.06.25-.06.26-.07.26-.08.27-.1.27-.12.27-.13.3-.16.28-.17.3-.2.32-.22.32-.26.34-.3.36-.35.38-.4.4-.46.43-.54.47-.64.5-.76.55-.9.6-1.12.67-1.37.76-1.72.85-2.2.98-2.92 1.16-3.96 1.37-5.6 1.7-8.46 2.14-14.05 2.96-29.92 4.95-115.18 16.6-14.06 2.95-8.46 2.15-5.6 1.7-3.97 1.36-2.25.9" stroke="#000" stroke-width="2" fill="none"/><path d="M950.98 1017.05l-2-.04.02-1h2z"/><path d="M712.42 1076.85l7.58-12.95 6.16 6.93z" stroke="#000" stroke-width="2"/><path d="M870 837.5h160v60H870z" stroke="#000" stroke-width="2" fill="#ccc"/><g><use xlink:href="#N" transform="matrix(1,0,0,1,875,842.5) translate(1.416015625 33.127170138888886)"/></g><path d="M950 899.5v36" stroke="#000" stroke-width="2" fill="none"/><path d="M951 899.53h-2v-1.03h2z"/><path d="M950 950.76l-4.64-14.26h9.28z" stroke="#000" stroke-width="2"/><defs><path d="M930-1047c0-180-114-280-297-280H399v561h234c182 2 297-102 297-281zm211 0c0 308-189 448-508 447H399V0H197v-1493h436c317-2 508 140 508 446" id="O"/><path d="M1153-1120C1010-750 884-433 741-52c-66 176-110 283-133 322-55 94-138 156-276 156H184V272c97 0 188 7 236-47 29-33 70-112 117-243L104-1120h195l332 876 327-876h195" id="P"/><path d="M47-1493h1139v170H719V0H516v-1323H47v-170" id="Q"/><path d="M674 29c-147 0-246-68-299-170v567H190v-1546h185v143c55-101 152-170 299-170 300 0 434 263 434 592 0 325-137 584-434 584zm174-265c87-125 87-521 0-646-48-70-112-109-201-109s-154 38-203 109c-89 127-89 518 0 645 49 71 114 110 203 110s153-39 201-109" id="R"/><path d="M651-1147c298 0 466 229 461 541v90H315c-4 242 129 392 365 389 156-2 268-51 389-113v183C949-8 828 27 678 29c-351 3-555-232-555-588 0-338 200-588 528-588zm277 487c-4-201-91-331-285-331-193 0-305 144-321 332" id="S"/><path d="M1233 403v80H0v-80h1233" id="T"/><path d="M489-305h252V0H489v-305" id="U"/><path d="M807 0C529-4 430-92 430-369v-608H131v-143h299v-318h184v318h418v143H614v608c2 165 49 222 211 222h207V0H807" id="V"/><path d="M748-127c144 0 233-46 313-121v191C974-6 875 28 748 29c-351 3-553-232-553-588 0-357 202-591 553-588 129 2 222 35 313 86v193c-88-76-165-123-313-123-245 0-359 174-359 432 0 257 115 432 359 432" id="W"/><path d="M547-125c229-2 340-186 327-438H641c-189 0-321 55-324 225-3 137 91 215 230 213zm-332-944c167-71 431-115 615-37 106 45 186 120 213 246 11 49 16 123 16 221V0H874v-166C800-42 695 26 508 29c-220 3-378-138-375-355 4-274 199-382 494-381h247c6-204-80-285-282-284-149 1-272 46-377 106v-184" id="X"/><path d="M801 0C570 0 455-164 455-406v-1017H160v-144h479v1161c0 147 46 250 180 250h215V0H801" id="Y"/><g id="a"><use transform="matrix(0.010850694444444444,0,0,0.010850694444444444,0,0)" xlink:href="#O"/><use transform="matrix(0.010850694444444444,0,0,0.010850694444444444,13.37890625,0)" xlink:href="#P"/><use transform="matrix(0.010850694444444444,0,0,0.010850694444444444,26.7578125,0)" xlink:href="#Q"/><use transform="matrix(0.010850694444444444,0,0,0.010850694444444444,40.13671875,0)" xlink:href="#P"/><use transform="matrix(0.010850694444444444,0,0,0.010850694444444444,53.515625,0)" xlink:href="#R"/><use transform="matrix(0.010850694444444444,0,0,0.010850694444444444,66.89453125,0)" xlink:href="#S"/><use transform="matrix(0.010850694444444444,0,0,0.010850694444444444,80.2734375,0)" xlink:href="#T"/><use transform="matrix(0.010850694444444444,0,0,0.010850694444444444,93.65234375,0)" xlink:href="#Q"/><use transform="matrix(0.010850694444444444,0,0,0.010850694444444444,107.03125,0)" xlink:href="#P"/><use transform="matrix(0.010850694444444444,0,0,0.010850694444444444,120.41015625,0)" xlink:href="#R"/><use transform="matrix(0.010850694444444444,0,0,0.010850694444444444,133.7890625,0)" xlink:href="#S"/><use transform="matrix(0.010850694444444444,0,0,0.010850694444444444,147.16796875,0)" xlink:href="#U"/><use transform="matrix(0.010850694444444444,0,0,0.010850694444444444,160.546875,0)" xlink:href="#V"/><use transform="matrix(0.010850694444444444,0,0,0.010850694444444444,173.92578125,0)" xlink:href="#R"/><use transform="matrix(0.010850694444444444,0,0,0.010850694444444444,187.3046875,0)" xlink:href="#T"/><use transform="matrix(0.010850694444444444,0,0,0.010850694444444444,200.68359375,0)" xlink:href="#W"/><use transform="matrix(0.010850694444444444,0,0,0.010850694444444444,214.0625,0)" xlink:href="#X"/><use transform="matrix(0.010850694444444444,0,0,0.010850694444444444,227.44140625,0)" xlink:href="#Y"/><use transform="matrix(0.010850694444444444,0,0,0.010850694444444444,240.8203125,0)" xlink:href="#Y"/></g><path d="M233-1493h879v170H436v440h613v170H436V0H233v-1493" id="Z"/><path d="M616-991c-93 0-161 39-212 109-92 126-92 520 0 646 52 70 119 109 212 109 94 0 161-39 213-109 93-126 92-520 0-646-52-70-119-109-213-109zM137-559c0-353 146-588 479-588s480 235 480 588c0 355-145 588-480 588-334 0-479-234-479-588" id="aa"/><path d="M711-1147c253 0 340 178 340 453V0H866v-694c-1-183-51-293-219-293-189 0-268 148-268 354V0H195v-1120h184v168c60-118 165-195 332-195" id="ab"/><path d="M0-1120h182l195 905 160-578h157l162 578 195-905h182L971 0H795L616-614 438 0H262" id="ac"/><g id="b"><use transform="matrix(0.010850694444444444,0,0,0.010850694444444444,0,0)" xlink:href="#O"/><use transform="matrix(0.010850694444444444,0,0,0.010850694444444444,13.37890625,0)" xlink:href="#P"/><use transform="matrix(0.010850694444444444,0,0,0.010850694444444444,26.7578125,0)" xlink:href="#Z"/><use transform="matrix(0.010850694444444444,0,0,0.010850694444444444,40.13671875,0)" xlink:href="#Y"/><use transform="matrix(0.010850694444444444,0,0,0.010850694444444444,53.515625,0)" xlink:href="#aa"/><use transform="matrix(0.010850694444444444,0,0,0.010850694444444444,66.89453125,0)" xlink:href="#X"/><use transform="matrix(0.010850694444444444,0,0,0.010850694444444444,80.2734375,0)" xlink:href="#V"/><use transform="matrix(0.010850694444444444,0,0,0.010850694444444444,93.65234375,0)" xlink:href="#T"/><use transform="matrix(0.010850694444444444,0,0,0.010850694444444444,107.03125,0)" xlink:href="#Q"/><use transform="matrix(0.010850694444444444,0,0,0.010850694444444444,120.41015625,0)" xlink:href="#P"/><use transform="matrix(0.010850694444444444,0,0,0.010850694444444444,133.7890625,0)" xlink:href="#R"/><use transform="matrix(0.010850694444444444,0,0,0.010850694444444444,147.16796875,0)" xlink:href="#S"/><use transform="matrix(0.010850694444444444,0,0,0.010850694444444444,160.546875,0)" xlink:href="#U"/><use transform="matrix(0.010850694444444444,0,0,0.010850694444444444,173.92578125,0)" xlink:href="#V"/><use transform="matrix(0.010850694444444444,0,0,0.010850694444444444,187.3046875,0)" xlink:href="#R"/><use transform="matrix(0.010850694444444444,0,0,0.010850694444444444,200.68359375,0)" xlink:href="#T"/><use transform="matrix(0.010850694444444444,0,0,0.010850694444444444,214.0625,0)" xlink:href="#ab"/><use transform="matrix(0.010850694444444444,0,0,0.010850694444444444,227.44140625,0)" xlink:href="#S"/><use transform="matrix(0.010850694444444444,0,0,0.010850694444444444,240.8203125,0)" xlink:href="#ac"/></g><path d="M256-1120h471v977h365V0H178v-143h365v-834H256v-143zm287-436h184v233H543v-233" id="ad"/><g id="c"><use transform="matrix(0.010850694444444444,0,0,0.010850694444444444,0,0)" xlink:href="#O"/><use transform="matrix(0.010850694444444444,0,0,0.010850694444444444,13.37890625,0)" xlink:href="#P"/><use transform="matrix(0.010850694444444444,0,0,0.010850694444444444,26.7578125,0)" xlink:href="#Z"/><use transform="matrix(0.010850694444444444,0,0,0.010850694444444444,40.13671875,0)" xlink:href="#Y"/><use transform="matrix(0.010850694444444444,0,0,0.010850694444444444,53.515625,0)" xlink:href="#aa"/><use transform="matrix(0.010850694444444444,0,0,0.010850694444444444,66.89453125,0)" xlink:href="#X"/><use transform="matrix(0.010850694444444444,0,0,0.010850694444444444,80.2734375,0)" xlink:href="#V"/><use transform="matrix(0.010850694444444444,0,0,0.010850694444444444,93.65234375,0)" xlink:href="#T"/><use transform="matrix(0.010850694444444444,0,0,0.010850694444444444,107.03125,0)" xlink:href="#Q"/><use transform="matrix(0.010850694444444444,0,0,0.010850694444444444,120.41015625,0)" xlink:href="#P"/><use transform="matrix(0.010850694444444444,0,0,0.010850694444444444,133.7890625,0)" xlink:href="#R"/><use transform="matrix(0.010850694444444444,0,0,0.010850694444444444,147.16796875,0)" xlink:href="#S"/><use transform="matrix(0.010850694444444444,0,0,0.010850694444444444,160.546875,0)" xlink:href="#U"/><use transform="matrix(0.010850694444444444,0,0,0.010850694444444444,173.92578125,0)" xlink:href="#V"/><use transform="matrix(0.010850694444444444,0,0,0.010850694444444444,187.3046875,0)" xlink:href="#R"/><use transform="matrix(0.010850694444444444,0,0,0.010850694444444444,200.68359375,0)" xlink:href="#T"/><use transform="matrix(0.010850694444444444,0,0,0.010850694444444444,214.0625,0)" xlink:href="#ad"/><use transform="matrix(0.010850694444444444,0,0,0.010850694444444444,227.44140625,0)" xlink:href="#ab"/><use transform="matrix(0.010850694444444444,0,0,0.010850694444444444,240.8203125,0)" xlink:href="#ad"/><use transform="matrix(0.010850694444444444,0,0,0.010850694444444444,254.19921875,0)" xlink:href="#V"/></g><path d="M494-1120c-16-286 77-439 348-436h221v153H854c-136 2-174 46-176 184v99h385v143H678V0H494v-977H195v-143h299" id="ae"/><path d="M426-643c0-377 131-645 299-911h160c-153 264-264 539-264 911 0 371 112 648 264 913H725C557 0 426-263 426-643" id="af"/><path d="M702-1493v555H528v-555h174" id="ag"/><path d="M1044-1120c-1 183-111 281-268 321 181 46 302 172 303 387 1 289-218 445-522 441-155-2-297-31-420-74v-201c118 61 239 103 398 105 208 2 343-93 344-291 1-181-141-287-330-283H395v-166h154c169 2 295-74 295-231 0-161-111-239-279-238-146 2-264 35-383 80v-186c132-34 244-61 383-64 268-6 481 146 479 400" id="ah"/><path d="M270-170h314v-1141l-338 76v-184l336-74h202v1323h310V0H270v-170" id="ai"/><path d="M735-1309L264-520h471v-789zm-33-184h234v973h199v164H936V0H735v-356H102v-191" id="aj"/><path d="M612-643c0-370-112-648-264-911h160c168 267 299 533 299 911 0 379-131 646-299 913H348C499 3 612-272 612-643" id="ak"/><g id="d"><use transform="matrix(0.010850694444444444,0,0,0.010850694444444444,0,0)" xlink:href="#ae"/><use transform="matrix(0.010850694444444444,0,0,0.010850694444444444,13.37890625,0)" xlink:href="#Y"/><use transform="matrix(0.010850694444444444,0,0,0.010850694444444444,26.7578125,0)" xlink:href="#aa"/><use transform="matrix(0.010850694444444444,0,0,0.010850694444444444,40.13671875,0)" xlink:href="#X"/><use transform="matrix(0.010850694444444444,0,0,0.010850694444444444,53.515625,0)" xlink:href="#V"/><use transform="matrix(0.010850694444444444,0,0,0.010850694444444444,66.89453125,0)" xlink:href="#af"/><use transform="matrix(0.010850694444444444,0,0,0.010850694444444444,80.2734375,0)" xlink:href="#ag"/><use transform="matrix(0.010850694444444444,0,0,0.010850694444444444,93.65234375,0)" xlink:href="#ah"/><use transform="matrix(0.010850694444444444,0,0,0.010850694444444444,107.03125,0)" xlink:href="#U"/><use transform="matrix(0.010850694444444444,0,0,0.010850694444444444,120.41015625,0)" xlink:href="#ai"/><use transform="matrix(0.010850694444444444,0,0,0.010850694444444444,133.7890625,0)" xlink:href="#aj"/><use transform="matrix(0.010850694444444444,0,0,0.010850694444444444,147.16796875,0)" xlink:href="#ag"/><use transform="matrix(0.010850694444444444,0,0,0.010850694444444444,160.546875,0)" xlink:href="#ak"/></g><path d="M130-231c1-10 28-11 11-19-6-2-12-6-19-11-30 67-49 89-105 128l1 4c15-6 29-14 43-24L62 9c1 22 2 34 22 34h107c12 0 16-6 19-17-12-5-13-28-13-53h-3c-5 23 7 61-29 53H91c-12 0-13-6-13-17v-145h85v88c-1 22-31 7-46 7v3c21 6 31 13 38 25 11-4 25-12 25-31 0-33-9-83 11-97-4-8-14-9-21-18l-9 14c-33-2-79 7-97-10 26-19 45-44 64-72 29 20 50 37 61 52 8 11 14 16 18 16 5 0 9-4 9-12-14-30-32-30-86-60zm119 24c-2-9 11-15 0-18-8-2-15-2-20-4 8 59-1 144 4 208 5-3 13-4 16-9v-177zm67-32c-1-7 16-10 1-14-6 0-13-2-20-5 8 85 1 187 3 278-4 11-32 5-42 2v4c18 4 26 15 32 27 12-1 26-15 26-33v-259" id="al"/><use transform="matrix(0.06172839506172839,0,0,0.06172839506172839,0,0)" xlink:href="#al" id="e"/><path d="M286-199c-1-7 21-10 8-18-5-4-10-8-14-13-11 13-39 8-62 9-5-15 13-25 1-30-8-1-15-2-20-4 2 7 3 18 3 34h-59l5 10h54v33h-85l5 10h80v34h-59l5 10h54v34h-67l5 9h62v33h-82l5 10h77c1 17-2 38 1 53 5-3 14-2 15-8v-45h98c9 0 10-10 1-11-8-5-15-10-19-16l-16 17h-64v-33h74c9 1 11-8 3-9-7-4-12-9-16-14l-14 14h-47v-34h51c-3 11 5 11 14 7 8-10 1-35 3-51 14-2 56 7 42-11-8-4-14-9-18-14-8 5-9 17-24 15v-21zm-68-12h51v33h-51v-33zm0 43h51v34h-51v-34zM19 49C55 28 67 21 85-6c57 49 95 47 221 50 7-11 15-18 26-22v-4C243 28 133 31 90-15c20-33 25-60 35-107 1-5 16-7 7-12-5-3-10-8-14-15-9 9-27 9-45 8l36-74c5-6 20-8 9-16-4-2-9-5-14-10l-10 9H22l5 10h67L43-116c4 2 14 1 19 0l7-15h37c-6 47-11 74-26 104-11-13-22-32-32-55 4 27 17 50 27 64C61 6 47 21 18 46" id="am"/><use transform="matrix(0.06172839506172839,0,0,0.06172839506172839,0,0)" xlink:href="#am" id="f"/><path d="M162 22c2-26-21-81-41-109 7-23 16-56 25-98 1-7 26-8 14-18-5-4-11-11-16-19l-16 14H18c3 3 2 10 10 9 38 49 58 80 75 117C83-23 65 8 18 44l3 3C65 20 93-7 112-62c10 24 20 55 31 93 2 5 6 8 10 8 8 0 9-8 9-17zM31-199h99c-8 43-14 75-20 95-20-29-47-60-79-95zM255 51c10 9 28-13 28-31v-183c17-2 45 6 53-5-6-9-23-14-27-24-9 6-10 20-26 19 2-26-6-64 8-75-6-6-20-2-29-8 5 20 2 57 3 83H154l5 10h106V20c-4 11-31 5-41 2v4c16 4 27 13 31 25zM202-53c7 15 21 8 19-9-3-25-19-39-38-59 4 26 16 34 19 68" id="an"/><use transform="matrix(0.06172839506172839,0,0,0.06172839506172839,0,0)" xlink:href="#an" id="g"/><path d="M177-184l63-35c-3-10-13-11-17-22-16 18-59 9-91 11 6-5 9-16 22-15 5-2 6-7-2-8-6-1-12-4-19-10-31 52-54 66-110 96l2 4c15-5 28-10 40-16 5 20-2 56 4 76 7-2 19-1 16-13h75C123-93 84-80 34-70l3 6c49-8 83-18 118-33 5 5 9 10 13 15-43 27-91 47-143 59l1 4c62-9 99-22 152-46 4 6 5 13 7 21C135-12 80 11 19 25l2 4C89 17 130 3 188-24c-2 24 5 48-14 49-11 0-24-1-41-5l-1 4c20 4 33 17 42 31 23-15 32-30 32-64 0-48-14-66-46-91 14-6 22-19 45-16 16 74 50 117 97 148 8-8 19-12 32-12l1-3c-43-14-71-36-94-68 21-7 38-18 53-31 8 0 8-6 0-8-5-2-11-6-18-10-10 23-18 31-37 46-11-17-20-37-28-62h66c-2 12 9 6 15 4 7-10 2-33 3-48 1-10 24-15 6-23-5-3-11-7-17-13l-11 12h-96zm-92 58v-48h85v48H85zm103 0v-48h89v48h-89zM78-186c15-11 29-19 45-35h84c-9 11-21 24-35 37-31-1-67 3-94-2" id="ao"/><use transform="matrix(0.06172839506172839,0,0,0.06172839506172839,0,0)" xlink:href="#ao" id="h"/><path d="M305-152c1-7 19-14 7-20-5-3-10-7-14-13l-12 11h-59c6-5 7-16-2-22 25-7 49-23 80-29 19-11-11-17-15-29l-13 10H118l6 10h153l-56 35c-8-6-26-15-53-27l-2 2c28 19 39 32 53 50-32-1-72 6-90-10 10 58 1 133 4 198 2 7 15-1 17-4v-66h59c2 22-4 53 3 70 4-3 13-2 13-8v-62h63c-2 14 5 43-5 48-9 0-21-1-36-3v3c16 5 26 12 33 23 9-1 28-14 25-27v-140zM150-65v-47h59v47h-59zm75-47h63v47h-63v-47zm-75-10v-43h59v43h-59zm75-43h63v43h-63v-43zM70-189c6 16 23 10 21-8-7-19-29-34-54-43 19 20 24 23 33 51zm18 93c0-11 21-11 6-20-3-2-8-6-12-11-8 16-37 10-60 11l5 9h44V5C55 17 38 26 18 31c9 8 11 16 18 22 1-1 1-4 1-7C53 34 68 21 80 9c35 51 142 30 228 35 8-12 16-19 24-22v-4C285 26 115 45 88 5V-96" id="ap"/><use transform="matrix(0.06172839506172839,0,0,0.06172839506172839,0,0)" xlink:href="#ap" id="i"/><path d="M298-210c0-7 18-13 8-19-5-3-10-8-15-14l-12 11H81l-23-13c4 15 5 45 5 93C62-38 58-14 21 50l2 1C54 11 69-12 77-67h89V49c3 5 16-1 17-6V-67h99v80c-1 25-24 9-46 9v4c15 6 25 15 30 28 10-2 36-17 32-33v-231zM78-77c2-18 3-39 3-65h85v65H78zm105-65h99v65h-99v-65zM81-152v-70h85v70H81zm102-70h99v70h-99v-70" id="aq"/><use transform="matrix(0.06172839506172839,0,0,0.06172839506172839,0,0)" xlink:href="#aq" id="j"/><path d="M40-243c24 16 31 33 45 47 12 0 14-22 3-28-7-7-22-15-45-23zm-18 83c22 15 28 32 40 45 11 0 12-21 3-27-6-7-19-15-40-23zM70-16c12-63 24-89 41-149l-2-1C89-121 72-83 59-50c-7 14-14 12-26 16v4c39 0 0 70 36 76 21-7-3-44 1-62zm144-198c-2-18 2-28 7-37l-26-8c4 10 3 30 3 45h-83l6 10h66c-8 20-19 40-36 60l-33-1c7 4 9 39 19 24 38-13 89-9 148-25 7 7 9 28 21 32 16-5 9-27-5-38-11-10-28-22-51-36 9 16 26 25 33 38-50 4-91 6-125 6 20-18 36-37 50-60h109c11 0 12-8 3-12s-17-11-22-17l-18 19h-66zM159-89c0-6 15-11 1-13-6-1-13-3-20-6 3 85-4 122-51 158l2 3c52-33 64-51 68-142zm51 4c-1-9 13-14 1-17-8-2-15-3-19-5 6 44-1 104 3 150 5-3 13-3 15-8V-85zm58-1c0-8 16-11 2-15-6-1-13-3-20-6 2 35 0 80 1 117 1 32 6 34 40 34 28 0 32 0 41-12-7-7-10-22-9-37h-3c-6 19 1 37-29 33-20-3-23 2-23-18v-96" id="ar"/><use transform="matrix(0.06172839506172839,0,0,0.06172839506172839,0,0)" xlink:href="#ar" id="k"/><path d="M106-227l44-18c-3-7-11-9-17-17-17 19-52 36-107 52 17 4 44-8 63-12v60H22l5 10h61C67-75 54-67 19 5c32-36 52-64 70-113V51c2 6 16 0 17-5v-172c19 9 18 34 37 44 5 0 8-7 8-15-5-16-25-24-45-34v-21c17-3 45 6 52-6-6-8-20-14-25-22-8 7-10 20-27 18v-65zm199 5c0-9 21-14 5-21-5-3-10-7-15-12l-11 8c-41-3-95 8-122-9 9 36 2 85 4 127 2 7 15-1 17-4v-20h105c1 5-3 15 3 15 4-2 12-3 14-7v-77zm-122 59v-74h105v74H183zm119 34l-15 17H151l5 9h68v57h-63l5 9h58v66h-94l6 10h188c8 0 10-8 2-11-8-5-14-9-18-15l-16 16h-52v-66h70c8 1 9-8 2-10-8-5-14-10-18-16l-15 17h-39v-57h79c9 1 9-9 1-10-8-5-14-10-18-16" id="as"/><use transform="matrix(0.06172839506172839,0,0,0.06172839506172839,0,0)" xlink:href="#as" id="l"/><path d="M915-1147c102 0 174 26 240 70v188c-71-55-140-88-254-88-243 0-354 165-354 420V0H362v-1120h185v219c55-146 178-246 368-246" id="at"/><path d="M471-1147c112 0 171 55 205 141 41-85 99-141 213-141 90 0 154 35 191 105s55 200 55 393V0H967v-641c0-158-12-256-27-295-31-81-176-72-206 4-17 42-29 138-29 291V0H537v-641c0-160-10-259-29-296s-53-56-102-56-83 20-102 61-28 138-28 291V0H109v-1120h167v96c38-70 97-123 195-123" id="au"/><path d="M893-745c0-411-75-571-457-582h-96v1161h96c379-11 457-171 457-579zm213 0C1106-253 917-4 440 0H137v-1493h303c477 4 666 255 666 748" id="av"/><path d="M535 29c-255 0-340-177-340-453v-694h184v694c1 183 52 293 219 293 191 0 268-148 268-354v-633h185V0H866v-168C807-50 701 29 535 29" id="aw"/><path d="M850-236c87-126 87-521 0-646-49-70-112-109-201-109s-154 38-203 109c-89 127-89 518 0 645 49 71 114 110 203 110s152-39 201-109zM676 29c-146 0-244-69-299-170V0H193v-1556h184v579c53-101 154-170 301-170 297 0 434 260 434 584 0 329-136 592-436 592" id="ax"/><g id="m"><use transform="matrix(0.010850694444444444,0,0,0.010850694444444444,0,0)" xlink:href="#O"/><use transform="matrix(0.010850694444444444,0,0,0.010850694444444444,13.37890625,0)" xlink:href="#P"/><use transform="matrix(0.010850694444444444,0,0,0.010850694444444444,26.7578125,0)" xlink:href="#Z"/><use transform="matrix(0.010850694444444444,0,0,0.010850694444444444,40.13671875,0)" xlink:href="#Y"/><use transform="matrix(0.010850694444444444,0,0,0.010850694444444444,53.515625,0)" xlink:href="#aa"/><use transform="matrix(0.010850694444444444,0,0,0.010850694444444444,66.89453125,0)" xlink:href="#X"/><use transform="matrix(0.010850694444444444,0,0,0.010850694444444444,80.2734375,0)" xlink:href="#V"/><use transform="matrix(0.010850694444444444,0,0,0.010850694444444444,93.65234375,0)" xlink:href="#T"/><use transform="matrix(0.010850694444444444,0,0,0.010850694444444444,107.03125,0)" xlink:href="#Z"/><use transform="matrix(0.010850694444444444,0,0,0.010850694444444444,120.41015625,0)" xlink:href="#at"/><use transform="matrix(0.010850694444444444,0,0,0.010850694444444444,133.7890625,0)" xlink:href="#aa"/><use transform="matrix(0.010850694444444444,0,0,0.010850694444444444,147.16796875,0)" xlink:href="#au"/><use transform="matrix(0.010850694444444444,0,0,0.010850694444444444,160.546875,0)" xlink:href="#av"/><use transform="matrix(0.010850694444444444,0,0,0.010850694444444444,173.92578125,0)" xlink:href="#aa"/><use transform="matrix(0.010850694444444444,0,0,0.010850694444444444,187.3046875,0)" xlink:href="#aw"/><use transform="matrix(0.010850694444444444,0,0,0.010850694444444444,200.68359375,0)" xlink:href="#ax"/><use transform="matrix(0.010850694444444444,0,0,0.010850694444444444,214.0625,0)" xlink:href="#Y"/><use transform="matrix(0.010850694444444444,0,0,0.010850694444444444,227.44140625,0)" xlink:href="#S"/></g><path d="M631-1520c144 2 262 34 381 78v205c-106-67-218-116-371-119-174-3-308 84-309 246 0 66 20 114 54 151 44 48 204 86 310 111 250 58 402 161 402 440 0 301-201 439-516 437-164-1-298-37-424-90v-215c130 81 244 137 424 141 187 4 323-84 323-260 0-181-93-224-262-262-271-61-502-123-504-422-2-273 211-447 492-441" id="ay"/><path d="M790-254c87-126 81-501 0-630-88-140-313-134-402 0-86 129-92 505 0 630 51 70 117 109 208 109 85 0 146-39 194-109zm-237-893c158 0 247 65 305 176v-145h184V-72c1 325-152 512-469 512-118-1-228-23-325-55V203c107 49 197 90 325 90 215 0 286-119 285-346v-125C804-62 712 8 553 8 267 8 123-257 123-569c0-313 143-578 430-578" id="az"/><g id="n"><use transform="matrix(0.010850694444444444,0,0,0.010850694444444444,0,0)" xlink:href="#O"/><use transform="matrix(0.010850694444444444,0,0,0.010850694444444444,13.37890625,0)" xlink:href="#P"/><use transform="matrix(0.010850694444444444,0,0,0.010850694444444444,26.7578125,0)" xlink:href="#Z"/><use transform="matrix(0.010850694444444444,0,0,0.010850694444444444,40.13671875,0)" xlink:href="#Y"/><use transform="matrix(0.010850694444444444,0,0,0.010850694444444444,53.515625,0)" xlink:href="#aa"/><use transform="matrix(0.010850694444444444,0,0,0.010850694444444444,66.89453125,0)" xlink:href="#X"/><use transform="matrix(0.010850694444444444,0,0,0.010850694444444444,80.2734375,0)" xlink:href="#V"/><use transform="matrix(0.010850694444444444,0,0,0.010850694444444444,93.65234375,0)" xlink:href="#T"/><use transform="matrix(0.010850694444444444,0,0,0.010850694444444444,107.03125,0)" xlink:href="#Z"/><use transform="matrix(0.010850694444444444,0,0,0.010850694444444444,120.41015625,0)" xlink:href="#at"/><use transform="matrix(0.010850694444444444,0,0,0.010850694444444444,133.7890625,0)" xlink:href="#aa"/><use transform="matrix(0.010850694444444444,0,0,0.010850694444444444,147.16796875,0)" xlink:href="#au"/><use transform="matrix(0.010850694444444444,0,0,0.010850694444444444,160.546875,0)" xlink:href="#ay"/><use transform="matrix(0.010850694444444444,0,0,0.010850694444444444,173.92578125,0)" xlink:href="#V"/><use transform="matrix(0.010850694444444444,0,0,0.010850694444444444,187.3046875,0)" xlink:href="#at"/><use transform="matrix(0.010850694444444444,0,0,0.010850694444444444,200.68359375,0)" xlink:href="#ad"/><use transform="matrix(0.010850694444444444,0,0,0.010850694444444444,214.0625,0)" xlink:href="#ab"/><use transform="matrix(0.010850694444444444,0,0,0.010850694444444444,227.44140625,0)" xlink:href="#az"/></g><path d="M213 54c23-9-2-35-16-42 30-19 57-41 80-65 3-6 27-10 12-19-5-3-11-9-17-18l-16 15H114c9-18 16-36 23-56h186c8-2 7-10-2-13-6-4-12-10-20-19l-19 22H141c7-19 13-38 18-58h141c9-2 4-9-2-12s-13-10-21-19l-19 22h-97c4-15 7-36 16-43-5-6-18-5-26-12-3 19-6 37-10 55H50l5 9h84c-5 19-11 39-18 58H21l5 10h92c-8 23-19 45-29 67l14 10c4 1 6-9 11-11h145c-20 29-42 53-68 73-18-11-43-23-73-36l-3 5c36 19 64 42 83 67 4 6 9 10 15 10" id="aA"/><use transform="matrix(0.06172839506172839,0,0,0.06172839506172839,0,0)" xlink:href="#aA" id="o"/><path d="M81-9v9H4v-9l26-5 81-224h33l83 224 30 5v9h-99v-9l31-5-23-68H73L49-14zm38-203L78-98h82" id="aB"/><path d="M75-108c48 3 76-12 76-58s-28-57-76-54v112zm111-58c-1 60-46 78-111 74v78l37 5v9H13v-9l28-5v-208l-31-4v-10c81 1 178-14 176 70" id="aC"/><path d="M77-14l30 5v9H13v-9l30-5v-208l-30-4v-10h94v10l-30 4v208" id="aD"/><g id="p"><use transform="matrix(0.06172839506172839,0,0,0.06172839506172839,0,0)" xlink:href="#aq"/><use transform="matrix(0.06172839506172839,0,0,0.06172839506172839,22.22222222222222,0)" xlink:href="#aB"/><use transform="matrix(0.06172839506172839,0,0,0.06172839506172839,38.20987654320987,0)" xlink:href="#aC"/><use transform="matrix(0.06172839506172839,0,0,0.06172839506172839,50.55555555555555,0)" xlink:href="#aD"/></g><use transform="matrix(0.06172839506172839,0,0,0.06172839506172839,0,0)" xlink:href="#an" id="q"/><use transform="matrix(0.06172839506172839,0,0,0.06172839506172839,0,0)" xlink:href="#ao" id="r"/><path d="M99-129c11-26 30-42 43-72h174c11 0 10-8 2-12-9-4-16-11-21-17l-18 19H147c6-12 11-28 22-36-6-5-20-8-29-15-3 17-8 34-14 51H30l6 10h87c-8 18-17 36-28 53-8-1-13-3-18-4 2 5 4 14 4 25-16 22-36 43-59 65l3 3c19-14 37-31 56-52l1 165c6-3 15-3 17-10v-173zm133 24c21-7 31-27 58-31 11-1 13-8 5-13-6-4-12-11-18-21l-13 12H140l6 10h120c-14 17-28 31-42 42-6-1-11-3-18-5 3 10 3 30 3 46h-99l5 9h94v74c-2 12-32 6-44 6v4c17 4 24 13 30 25 13-2 32-16 32-35v-74h96c9 0 11-9 2-11-9-5-15-12-20-18l-17 20h-61c-1-17 0-32 8-38 0-1-1-2-3-2" id="aE"/><use transform="matrix(0.06172839506172839,0,0,0.06172839506172839,0,0)" xlink:href="#aE" id="s"/><path d="M38-244c26 16 33 33 47 47 12 0 14-22 3-28-7-7-23-15-47-23zm-19 82c24 16 30 32 44 46 12 0 13-22 3-28-7-7-22-14-44-22zM74-16c12-69 24-98 41-162l-3-2C92-131 76-87 62-51c-6 16-14 13-26 17v4c38 1 0 74 37 79 21-7-1-47 1-65zm224-40c0-8 25-13 8-21-4-3-10-6-15-12l-11 11h-59v-67h105c9 0 11-9 2-11-9-5-17-12-22-18l-18 19h-67v-61c32-4 62-14 89-20-4-9-15-10-23-20-39 26-94 37-165 44l2 4c28 0 55-2 81-5v58h-88l5 10h83v67c-28 0-61 4-76-10 9 39 2 92 4 138 7 7 21-2 17-17h132c1 6-3 16 2 18 4-2 12-3 14-7V-56zM150 24v-92h132v92H150" id="aF"/><use transform="matrix(0.06172839506172839,0,0,0.06172839506172839,0,0)" xlink:href="#aF" id="t"/><path d="M201-1493h829v170H717v1153h313V0H201v-170h313v-1153H201v-170" id="aG"/><path d="M139-1493h256L899-264v-1229h195V0H838L334-1229V0H139v-1493" id="aH"/><path d="M743-135c139 0 246-55 330-125v207C978-3 879 29 743 29c-415 0-604-328-604-774 0-244 53-435 159-571s255-204 445-204c135 1 236 32 330 82v207c-84-70-192-125-330-125-131 0-224 54-295 152-125 174-126 743 0 917 71 98 164 152 295 152" id="aI"/><path d="M1067-1061c0 204-122 332-307 356 52 13 96 38 133 75s82 111 137 222L1233 0h-217L838-377c-51-107-99-174-138-207-75-63-222-43-354-47V0H143v-1493h416c308-2 507 137 508 432zm-213 0c0-178-111-266-295-266H346v530h221c188 0 287-80 287-264" id="aJ"/><path d="M197-1493h886v170H399v442h654v170H399v541h703V0H197v-1493" id="aK"/><g id="u"><use transform="matrix(0.010850694444444444,0,0,0.010850694444444444,0,0)" xlink:href="#O"/><use transform="matrix(0.010850694444444444,0,0,0.010850694444444444,13.37890625,0)" xlink:href="#P"/><use transform="matrix(0.010850694444444444,0,0,0.010850694444444444,26.7578125,0)" xlink:href="#T"/><use transform="matrix(0.010850694444444444,0,0,0.010850694444444444,40.13671875,0)" xlink:href="#aG"/><use transform="matrix(0.010850694444444444,0,0,0.010850694444444444,53.515625,0)" xlink:href="#aH"/><use transform="matrix(0.010850694444444444,0,0,0.010850694444444444,66.89453125,0)" xlink:href="#aI"/><use transform="matrix(0.010850694444444444,0,0,0.010850694444444444,80.2734375,0)" xlink:href="#aJ"/><use transform="matrix(0.010850694444444444,0,0,0.010850694444444444,93.65234375,0)" xlink:href="#aK"/><use transform="matrix(0.010850694444444444,0,0,0.010850694444444444,107.03125,0)" xlink:href="#Z"/></g><path d="M86-1493h217l328 563 334-563h217L735-791 1214 0H997L631-643 236 0H18l500-791" id="aL"/><g id="v"><use transform="matrix(0.010850694444444444,0,0,0.010850694444444444,0,0)" xlink:href="#O"/><use transform="matrix(0.010850694444444444,0,0,0.010850694444444444,13.37890625,0)" xlink:href="#P"/><use transform="matrix(0.010850694444444444,0,0,0.010850694444444444,26.7578125,0)" xlink:href="#T"/><use transform="matrix(0.010850694444444444,0,0,0.010850694444444444,40.13671875,0)" xlink:href="#aL"/><use transform="matrix(0.010850694444444444,0,0,0.010850694444444444,53.515625,0)" xlink:href="#aG"/><use transform="matrix(0.010850694444444444,0,0,0.010850694444444444,66.89453125,0)" xlink:href="#aH"/><use transform="matrix(0.010850694444444444,0,0,0.010850694444444444,80.2734375,0)" xlink:href="#aI"/><use transform="matrix(0.010850694444444444,0,0,0.010850694444444444,93.65234375,0)" xlink:href="#aJ"/><use transform="matrix(0.010850694444444444,0,0,0.010850694444444444,107.03125,0)" xlink:href="#aK"/><use transform="matrix(0.010850694444444444,0,0,0.010850694444444444,120.41015625,0)" xlink:href="#Z"/></g><path d="M110-218c-2-18 3-27 7-36l-26-8c4 10 3 29 3 44H25l5 10h146c9 0 10-10 1-11-8-5-14-11-19-17l-17 18h-31zm-37 71c19-17 0-35-18-53-2 11 12 31 12 49 2 3 4 4 6 4zM168-2c-9-27-21-28-58-55v-17h63c9 1 10-8 2-10-8-5-15-10-19-16l-15 17h-31v-46h70c8 1 9-8 2-10-8-4-13-9-17-14l-15 15h-40c13-13 23-27 30-43 3-1 19-4 6-11-6-2-12-6-18-12-7 34-11 40-25 66H18l5 9h71v46H25l5 9h53C62-21 57-19 18 29l1 2C53 2 73-17 94-60c2 37-4 81 2 114 5-2 14-2 14-8v-97c25 21 33 45 49 61 6 0 9-4 9-12zm-24 49c55-47 64-84 63-192h58V51c2 6 16 0 17-5v-191h46c7 0 9-8 2-11-9-4-16-10-22-18l-18 19h-83v-71c42 0 80-7 110-11-5-8-16-11-23-21-19 14-47 21-83 26l-24-13c3 20 4 62 4 126 0 98-9 115-50 165" id="aM"/><use transform="matrix(0.06172839506172839,0,0,0.06172839506172839,0,0)" xlink:href="#aM" id="x"/><path d="M37 0c22-23 50-27 88-56l-3-3c-17 7-31 13-44 18v-115c14-2 53 6 40-10-7-4-12-9-16-14-7 5-9 16-24 14 1-29-5-67 7-84l-26-8c6 24 2 62 3 92H19c3 15 26 9 43 10v121c-13 5-30 8-41 9 5 5 9 21 16 26zm144-212c5 13 22 9 18-7-4-17-25-29-44-36 16 17 17 19 26 43zm57 9c15-9 29-27 46-41 6-10-15-10-22-17-4 15-12 34-27 55zm75 28c0-6 21-13 5-19-4-3-10-7-15-13l-12 11H147l-19-10c9 33 2 78 4 117 4 5 19 1 16-11h149c-2 12 5 12 13 7 9-20 0-56 3-82zm-165 66v-77h64v77h-64zm80-77h69v77h-69v-77zm-49 59c5 10 18 6 16-7-3-16-18-32-33-40 10 19 12 23 17 47zm83-50c-3 15-10 34-22 56l3 3c11-10 22-24 34-42 7-1 15-6 3-9-6-1-12-4-18-8zm29 128c1-7 19-14 3-19-4-3-9-7-14-13l-12 10c-41-3-97 9-122-10 9 38 2 89 4 134 8 6 20-5 16-20h109c1 5-2 16 2 18 4-2 12-3 14-7v-93zM166 24v-42h109v42H166zm0-51v-35h109v35H166" id="aN"/><use transform="matrix(0.06172839506172839,0,0,0.06172839506172839,0,0)" xlink:href="#aN" id="y"/><path d="M176-136c12-24-9-79 12-91-2-10-14-12-19-21l-15 11H37l6 10h118v65c-37-2-85 7-106-11 0 22-13 96-21 116 12 10 24-9 24-22h108c-7 35 3 107-41 108-4 0-15-1-31-3v5c17 6 28 15 35 26 51-29 39-32 54-122 1-6 26-8 10-18-6-4-12-9-16-17l-15 11H60c4-21 8-42 11-63h90c1 6-2 17 2 19zm116-97c-2-10 17-16 1-19-10-2-17-2-22-4 11 91-1 214 5 311 5-3 14-3 16-9v-279" id="aO"/><use transform="matrix(0.06172839506172839,0,0,0.06172839506172839,0,0)" xlink:href="#aO" id="z"/><use transform="matrix(0.06172839506172839,0,0,0.06172839506172839,0,0)" xlink:href="#aq" id="A"/><g id="B"><use transform="matrix(0.010850694444444444,0,0,0.010850694444444444,0,0)" xlink:href="#O"/><use transform="matrix(0.010850694444444444,0,0,0.010850694444444444,13.37890625,0)" xlink:href="#P"/><use transform="matrix(0.010850694444444444,0,0,0.010850694444444444,26.7578125,0)" xlink:href="#T"/><use transform="matrix(0.010850694444444444,0,0,0.010850694444444444,40.13671875,0)" xlink:href="#av"/><use transform="matrix(0.010850694444444444,0,0,0.010850694444444444,53.515625,0)" xlink:href="#aK"/><use transform="matrix(0.010850694444444444,0,0,0.010850694444444444,66.89453125,0)" xlink:href="#aI"/><use transform="matrix(0.010850694444444444,0,0,0.010850694444444444,80.2734375,0)" xlink:href="#aJ"/><use transform="matrix(0.010850694444444444,0,0,0.010850694444444444,93.65234375,0)" xlink:href="#aK"/><use transform="matrix(0.010850694444444444,0,0,0.010850694444444444,107.03125,0)" xlink:href="#Z"/></g><g id="C"><use transform="matrix(0.010850694444444444,0,0,0.010850694444444444,0,0)" xlink:href="#O"/><use transform="matrix(0.010850694444444444,0,0,0.010850694444444444,13.37890625,0)" xlink:href="#P"/><use transform="matrix(0.010850694444444444,0,0,0.010850694444444444,26.7578125,0)" xlink:href="#T"/><use transform="matrix(0.010850694444444444,0,0,0.010850694444444444,40.13671875,0)" xlink:href="#aL"/><use transform="matrix(0.010850694444444444,0,0,0.010850694444444444,53.515625,0)" xlink:href="#av"/><use transform="matrix(0.010850694444444444,0,0,0.010850694444444444,66.89453125,0)" xlink:href="#aK"/><use transform="matrix(0.010850694444444444,0,0,0.010850694444444444,80.2734375,0)" xlink:href="#aI"/><use transform="matrix(0.010850694444444444,0,0,0.010850694444444444,93.65234375,0)" xlink:href="#aJ"/><use transform="matrix(0.010850694444444444,0,0,0.010850694444444444,107.03125,0)" xlink:href="#aK"/><use transform="matrix(0.010850694444444444,0,0,0.010850694444444444,120.41015625,0)" xlink:href="#Z"/></g><path d="M88-524h1057v172H88v-172zm0-406h1057v170H88v-170" id="aP"/><path d="M614-616c-74 0-131-59-131-134 0-70 61-135 131-135 72 0 136 64 136 135 0 73-63 134-136 134zm2-744c-94 0-159 53-210 152-88 171-88 754 0 925 51 99 116 152 210 152 95 0 161-53 212-152 88-172 88-754 0-925-51-99-117-152-212-152zm0-160c159 0 280 65 362 196s122 324 122 579-40 447-122 578S775 29 616 29 336-36 255-167 133-490 133-745s41-448 122-579 202-196 361-196" id="aQ"/><path d="M633-1520c232-4 414 130 407 353-5 153-63 196-161 299-50 52-151 140-176 194-30 66-15 179-19 273H494c1-116-6-241 30-321 52-115 230-231 290-342 82-153-47-302-216-292-145 9-248 65-354 137v-188c112-67 226-110 389-113zM487-254h203V0H487v-254" id="aR"/><g id="E"><use transform="matrix(0.010850694444444444,0,0,0.010850694444444444,0,0)" xlink:href="#aa"/><use transform="matrix(0.010850694444444444,0,0,0.010850694444444444,13.37890625,0)" xlink:href="#ax"/><use transform="matrix(0.010850694444444444,0,0,0.010850694444444444,26.7578125,0)" xlink:href="#T"/><use transform="matrix(0.010850694444444444,0,0,0.010850694444444444,40.13671875,0)" xlink:href="#at"/><use transform="matrix(0.010850694444444444,0,0,0.010850694444444444,53.515625,0)" xlink:href="#S"/><use transform="matrix(0.010850694444444444,0,0,0.010850694444444444,66.89453125,0)" xlink:href="#ae"/><use transform="matrix(0.010850694444444444,0,0,0.010850694444444444,80.2734375,0)" xlink:href="#W"/><use transform="matrix(0.010850694444444444,0,0,0.010850694444444444,93.65234375,0)" xlink:href="#ab"/><use transform="matrix(0.010850694444444444,0,0,0.010850694444444444,107.03125,0)" xlink:href="#V"/><use transform="matrix(0.010850694444444444,0,0,0.010850694444444444,120.41015625,0)" xlink:href="#aP"/><use transform="matrix(0.010850694444444444,0,0,0.010850694444444444,133.7890625,0)" xlink:href="#aQ"/><use transform="matrix(0.010850694444444444,0,0,0.010850694444444444,147.16796875,0)" xlink:href="#aR"/></g><use transform="matrix(0.06172839506172839,0,0,0.06172839506172839,0,0)" xlink:href="#aO" id="F"/><path d="M78-224c5-11 7-20 17-27-5-6-17-6-25-12-8 51-27 86-55 122 11-1 18-15 28-25 0 70 8 179-26 219l2 1C44 25 53 8 58-37h77c-2 19 6 53-6 62-9 0-20-1-35-4v4c18 6 28 13 35 25 8-2 22-16 22-30v-167c0-7 18-13 8-19-5-3-10-8-15-14l-12 12h-30c13-12 25-35 44-44-4-10-15-10-21-22-6 13-28 10-47 10zM59-46l1-52h29v52H59zm47-52h29v52h-29v-52zm-46-10v-51h29v51H60zm46-51h29v51h-29v-51zm-55-18c9-11 14-23 22-37h42c-5 16-11 31-18 46-19 1-37 0-46-9zm259-41c1-3 17-8 7-14-5-3-10-9-14-15l-13 11H170l6 10h43c-10 51-19 68-54 90l1 3c43-19 58-36 70-93h58c-3 57-4 63-55 55v4c18 4 29 13 38 23 33-14 23-19 33-74zM254-93c0-16-1-34 5-43-3-7-19-4-24-8 3 8 3 34 3 51h-37c7-9 7-26 19-31-4-5-16-7-23-13-2 37-19 63-28 91 9-8 20-25 28-37h41v48h-79l6 9h73l1 80c5-3 13-3 15-8v-72h73c9 1 9-9 1-11-8-5-14-10-19-16l-17 18h-38v-48h56c7 0 8-8 2-11-8-4-15-8-20-15l-16 16h-22" id="aS"/><use transform="matrix(0.06172839506172839,0,0,0.06172839506172839,0,0)" xlink:href="#aS" id="G"/><path d="M128-89c-1-32-14-45-37-67 24-30 25-57 47-72 10-1 10-8 1-10-4-3-9-9-15-16-15 18-72 15-94 2 11 92 1 204 4 303 2 7 15-1 17-4v-280h61c-10 29-19 54-30 77 18 22 28 35 28 67 0 27-20 33-47 21v4c14 6 24 15 29 29 22-11 38-21 36-54zm79-165c-22 64-37 84-81 123l2 4c42-20 69-61 91-103 7 34 54 86 75 97 11-8 22-12 34-12v-3c-55-17-76-35-105-85 8-1 14-7 3-10-5-2-12-6-19-11zm-8 307c34-13 18-85 21-131h85c11 1 10-9 2-11-9-5-15-11-20-18l-16 19h-51v-45h46c8 1 9-7 2-11-8-4-14-10-19-16l-17 18h-77c4 15 31 7 48 9v45h-71l5 10h66v95c0 13-29 8-42 8v4c22 4 31 13 38 24zM161-60c-22 46-34 61-73 89l1 4c36-12 63-38 83-68 3-5 22-9 7-14-5-2-11-6-18-11zm88 4l-3 3c23 25 40 46 48 64 5 11 9 17 12 17 14-2 12-22 2-32-6-10-25-27-59-52" id="aT"/><use transform="matrix(0.06172839506172839,0,0,0.06172839506172839,0,0)" xlink:href="#aT" id="H"/><path d="M147-93v79l38 5v9H76v-9l37-5v-78L31-222l-27-4v-10h100v10l-32 4 68 109 64-109-30-4v-10h77v10l-26 4" id="aU"/><path d="M84-170c49 0 66 33 63 87H46c-8 60 38 80 95 63v10C128-2 108 4 88 4 34 4 14-29 14-84c-1-54 22-86 70-86zm33 73c12-57-57-82-69-24-1 7-2 15-2 24h71" id="aV"/><path d="M41-130c7 48 86 23 86 84 0 56-69 57-112 41v-40c20 0 9 29 31 31 35 19 77-26 41-50-27-18-72-13-72-59 0-50 58-52 100-41v36c-19 1-8-25-28-25-21-7-50-1-46 23" id="aW"/><g id="I"><use transform="matrix(0.06172839506172839,0,0,0.06172839506172839,0,0)" xlink:href="#aU"/><use transform="matrix(0.06172839506172839,0,0,0.06172839506172839,13.76543209876543,0)" xlink:href="#aV"/><use transform="matrix(0.06172839506172839,0,0,0.06172839506172839,23.580246913580247,0)" xlink:href="#aW"/></g><path d="M559-1147c146 0 246 68 299 170v-579h184V0H858v-141C803-40 706 29 559 29c-300 0-436-264-436-592 0-325 139-584 436-584zM385-882c-81 129-87 521 0 646 49 70 112 109 201 109s152-39 202-110c89-127 83-514 0-645-88-139-315-140-403 0" id="aX"/><g id="J"><use transform="matrix(0.010850694444444444,0,0,0.010850694444444444,0,0)" xlink:href="#O"/><use transform="matrix(0.010850694444444444,0,0,0.010850694444444444,13.37890625,0)" xlink:href="#P"/><use transform="matrix(0.010850694444444444,0,0,0.010850694444444444,26.7578125,0)" xlink:href="#Z"/><use transform="matrix(0.010850694444444444,0,0,0.010850694444444444,40.13671875,0)" xlink:href="#Y"/><use transform="matrix(0.010850694444444444,0,0,0.010850694444444444,53.515625,0)" xlink:href="#aa"/><use transform="matrix(0.010850694444444444,0,0,0.010850694444444444,66.89453125,0)" xlink:href="#X"/><use transform="matrix(0.010850694444444444,0,0,0.010850694444444444,80.2734375,0)" xlink:href="#V"/><use transform="matrix(0.010850694444444444,0,0,0.010850694444444444,93.65234375,0)" xlink:href="#T"/><use transform="matrix(0.010850694444444444,0,0,0.010850694444444444,107.03125,0)" xlink:href="#Q"/><use transform="matrix(0.010850694444444444,0,0,0.010850694444444444,120.41015625,0)" xlink:href="#P"/><use transform="matrix(0.010850694444444444,0,0,0.010850694444444444,133.7890625,0)" xlink:href="#R"/><use transform="matrix(0.010850694444444444,0,0,0.010850694444444444,147.16796875,0)" xlink:href="#S"/><use transform="matrix(0.010850694444444444,0,0,0.010850694444444444,160.546875,0)" xlink:href="#U"/><use transform="matrix(0.010850694444444444,0,0,0.010850694444444444,173.92578125,0)" xlink:href="#V"/><use transform="matrix(0.010850694444444444,0,0,0.010850694444444444,187.3046875,0)" xlink:href="#R"/><use transform="matrix(0.010850694444444444,0,0,0.010850694444444444,200.68359375,0)" xlink:href="#T"/><use transform="matrix(0.010850694444444444,0,0,0.010850694444444444,214.0625,0)" xlink:href="#aX"/><use transform="matrix(0.010850694444444444,0,0,0.010850694444444444,227.44140625,0)" xlink:href="#S"/><use transform="matrix(0.010850694444444444,0,0,0.010850694444444444,240.8203125,0)" xlink:href="#X"/><use transform="matrix(0.010850694444444444,0,0,0.010850694444444444,254.19921875,0)" xlink:href="#Y"/><use transform="matrix(0.010850694444444444,0,0,0.010850694444444444,267.578125,0)" xlink:href="#Y"/><use transform="matrix(0.010850694444444444,0,0,0.010850694444444444,280.95703125,0)" xlink:href="#aa"/><use transform="matrix(0.010850694444444444,0,0,0.010850694444444444,294.3359375,0)" xlink:href="#W"/></g><path d="M203-222l-32-4v-10h81v10l-31 4V0h-17L59-212v198l32 5v9H10v-9l31-5v-208l-31-4v-10h72L203-61v-161" id="aY"/><path d="M90-170c52 0 76 32 76 87 0 54-24 87-77 87-51 0-75-34-75-87 0-54 24-87 76-87zM89-10c39 0 46-35 46-73 0-39-7-73-46-73-39 1-44 34-44 73s6 72 44 73" id="aZ"/><g id="K"><use transform="matrix(0.06172839506172839,0,0,0.06172839506172839,0,0)" xlink:href="#aY"/><use transform="matrix(0.06172839506172839,0,0,0.06172839506172839,15.987654320987653,0)" xlink:href="#aZ"/></g><path d="M75-214c5-12 11-21 19-29-5-6-17-6-25-13-9 40-26 78-51 116l3 2c16-17 32-39 48-66h75c7 0 8-8 2-11-8-4-13-8-18-15l-16 16H75zm5 260c25-21 41-27 74-58l-1-4C132-4 112 5 94 11v-85h54c8 1 9-7 2-11-8-4-15-10-20-16l-16 18H94v-62h46c8 1 10-9 2-11-8-5-14-9-18-15l-15 16H36l5 10h36v62H18l5 9h54v91c0 5-2 7-8 7 5 9 9 16 11 22zm164-194c2-34-6-81 7-100-4-5-18-4-26-8 7 29 1 73 3 108-26 0-53 2-66-10 10 62 1 142 4 211 3 5 13-2 17-4v-90h109c-2 20 6 57-6 66-8 0-19 0-33-1v4c14 6 23 14 29 25 9-3 30-17 27-33v-149c0-7 19-14 7-19-5-3-9-8-14-14l-12 14h-46zm-61 98v-43h109v43H183zm0-53v-35h109v35H183zm-33-137c26 26 35 49 50 70 13-1 12-19 4-29-6-7-23-23-53-44zm114 72c20-13 38-40 61-61 7-10-15-9-22-16-6 20-19 45-42 74" id="ba"/><use transform="matrix(0.06172839506172839,0,0,0.06172839506172839,0,0)" xlink:href="#ba" id="L"/><path d="M47-215c21-6 39-15 59-22-3-7-12-8-18-17-12 13-25 24-39 32l-23-11c9 40 2 94 4 141 7 7 21-2 17-17h104c-3 12 6 11 14 7 2-1 3-1 3-3 3-36-7-87 6-112-2-7-12-10-16-17-9 11-32 8-52 8 3 15 29 7 45 9v40h-44l4 10h40v48H47v-47h47c7 0 6-7 2-10-7-3-14-8-18-15l-13 16H47v-40zM19 25c6 4 13 40 24 24 39-18 80-25 141-53-27-1-60 14-81 16v-80h62c8 0 10-10 1-11-8-5-14-11-19-17l-17 18H26l6 10h54v84c-20 4-49 8-67 9zm258-242c2-5 17-9 6-15-4-3-10-7-14-13l-10 11c-25 1-48 0-61-11 5 49 2 112-28 137l3 1c34-27 47-57 44-118h44v83c0 18 4 24 24 24 22 0 43-2 49-15 1-3-14-17-18-16-7 7-10 18-31 16-5 0-8-3-8-9v-75zM244 5c14 16 43 39 59 45 9-8 20-12 31-12v-5c-28-9-60-22-76-41 11-13 24-34 40-64 2-7 26-8 13-17-5-4-11-10-16-18l-15 9H172c2 7 7 11 18 9 12 38 25 58 44 83-28 30-50 38-98 57l1 3c45-12 79-23 107-49zm-49-94h88c-15 35-22 50-38 71-17-15-34-38-50-71" id="bb"/><use transform="matrix(0.06172839506172839,0,0,0.06172839506172839,0,0)" xlink:href="#bb" id="M"/><g id="N"><use transform="matrix(0.010850694444444444,0,0,0.010850694444444444,0,0)" xlink:href="#T"/><use transform="matrix(0.010850694444444444,0,0,0.010850694444444444,13.37890625,0)" xlink:href="#O"/><use transform="matrix(0.010850694444444444,0,0,0.010850694444444444,26.7578125,0)" xlink:href="#P"/><use transform="matrix(0.010850694444444444,0,0,0.010850694444444444,40.13671875,0)" xlink:href="#T"/><use transform="matrix(0.010850694444444444,0,0,0.010850694444444444,53.515625,0)" xlink:href="#av"/><use transform="matrix(0.010850694444444444,0,0,0.010850694444444444,66.89453125,0)" xlink:href="#S"/><use transform="matrix(0.010850694444444444,0,0,0.010850694444444444,80.2734375,0)" xlink:href="#X"/><use transform="matrix(0.010850694444444444,0,0,0.010850694444444444,93.65234375,0)" xlink:href="#Y"/><use transform="matrix(0.010850694444444444,0,0,0.010850694444444444,107.03125,0)" xlink:href="#Y"/><use transform="matrix(0.010850694444444444,0,0,0.010850694444444444,120.41015625,0)" xlink:href="#aa"/><use transform="matrix(0.010850694444444444,0,0,0.010850694444444444,133.7890625,0)" xlink:href="#W"/></g></defs></g></svg>