<svg xmlns="http://www.w3.org/2000/svg" xmlns:xlink="http://www.w3.org/1999/xlink" xmlns:lucid="lucid" width="840" height="240"><g transform="translate(-280 -180)" lucid:page-tab-id="0_0"><path d="M300 200v80h140v-80zM300 240h140" stroke="#000" stroke-width="2" fill="#c1e4f7"/><use xlink:href="#a" transform="matrix(1,0,0,1,314,200) translate(9.173828125 27.69314236111111)"/><use xlink:href="#b" transform="matrix(1,0,0,1,314,240) translate(-4.205078125 27.69314236111111)"/><path d="M520 280v80h140v-80zM520 320h140" stroke="#000" stroke-width="2" fill="#7ab648"/><use xlink:href="#c" transform="matrix(1,0,0,1,534,280) translate(-4.205078125 27.69314236111111)"/><use xlink:href="#d" transform="matrix(1,0,0,1,534,320) translate(9.173828125 27.69314236111111)"/><path d="M520 360h140v40H520z" stroke="#000" stroke-width="2" fill="#c7e8ac"/><use xlink:href="#e" transform="matrix(1,0,0,1,525,365) translate(18.173828125 22.50217013888889)"/><path d="M740 280v80h140v-80zM740 320h140" stroke="#000" stroke-width="2" fill="#7ab648"/><use xlink:href="#c" transform="matrix(1,0,0,1,754,280) translate(-4.205078125 27.69314236111111)"/><use xlink:href="#d" transform="matrix(1,0,0,1,754,320) translate(9.173828125 27.69314236111111)"/><path d="M740 360h140v40H740z" stroke="#000" stroke-width="2" fill="#c7e8ac"/><use xlink:href="#e" transform="matrix(1,0,0,1,745,365) translate(18.173828125 22.50217013888889)"/><path d="M960 280v80h140v-80zM960 320h140" stroke="#000" stroke-width="2" fill="#7ab648"/><use xlink:href="#c" transform="matrix(1,0,0,1,974,280) translate(-4.205078125 27.69314236111111)"/><use xlink:href="#d" transform="matrix(1,0,0,1,974,320) translate(9.173828125 27.69314236111111)"/><path d="M960 360h140v40H960z" stroke="#000" stroke-width="2" fill="#c7e8ac"/><use xlink:href="#e" transform="matrix(1,0,0,1,965,365) translate(18.173828125 22.50217013888889)"/><path d="M442 259.98l5.14-.1 7.8-.5 10.74-1.16 19.67-2.97 44.97-7.43 9.37-1 6.55-.42 5.03-.1 4.05.07 3.36.2 2.85.3 2.46.38 2.17.4 1.9.45 1.7.48 1.55.5 1.4.52 1.28.54 1.18.55 1.1.56 1 .6.95.6.9.6.82.63.8.65.74.67.7.7.67.7.64.75.63.78.58.8.57.85.54.9.35.6" stroke="#000" stroke-width="2" fill="none"/><path d="M442.05 260.98L441 261v-2l1-.02z"/><path d="M589.32 275.84l-7.54-12.97 9.07-1.96z" stroke="#000" stroke-width="2"/><path d="M662 337.3h.22l1.2-.1 1.14-.16 1.14-.22 1.12-.3 1.13-.34 1.12-.42 1.14-.5 1.18-.6 1.2-.68 1.23-.8 1.3-.97 1.38-1.12 1.46-1.35 1.6-1.64 1.76-2.04 2-2.58 2.34-3.4 2.94-4.8 4.26-7.94 19.37-39.45 3.48-5.67 2.86-4.15 2.5-3.23 2.27-2.6 2.1-2.15 1.94-1.8 1.85-1.52.13-.1 2.08-1.5 2.18-1.4 2.27-1.24 2.4-1.12 2.5-1 2.64-.87 2.77-.72 2.93-.57 3.08-.4 3.23-.22 3.38-.03 3.5.2 3.62.44 3.7.67 3.72.92 3.7 1.16 3.62 1.4 3.5 1.57 3.3 1.76 3.07 1.9 2.84 2 2.57 2.05 2.3 2.08 2.04 2.1 1.8 2.08 1.55 2.07 1.04 1.58" stroke="#000" stroke-width="2" fill="none"/><path d="M662.05 338.3l-1.05.03v-2l1-.02z"/><path d="M809.05 275.9l-8.62-12.27 8.87-2.72z" stroke="#000" stroke-width="2"/><path d="M882 339.97h.14l1.1-.1 1.1-.13 1.1-.2 1.1-.27 1.08-.33 1.1-.4 1.13-.47 1.16-.55 1.2-.66 1.25-.77 1.3-.92 1.4-1.08 1.48-1.3 1.62-1.55 1.8-1.92 2-2.4 2.36-3.1 2.85-4.25 3.8-6.33 7.03-13.43 15.15-29.85 4.23-7.07 3.27-4.86 2.75-3.65 2.4-2.87 2.17-2.32 2-1.9 1.84-1.6.43-.37 2.2-1.65 2.3-1.47 2.33-1.3 2.42-1.16 2.5-1 2.6-.84 2.7-.7 2.8-.5 2.9-.36 3.02-.16 3.13.04 3.23.25 3.32.47 3.4.7 3.4.97 3.43 1.2 3.38 1.44 3.27 1.66 3.14 1.85 2.94 2 2.74 2.15 2.5 2.23 2.26 2.3 2 2.32 1.77 2.34 1.54 2.3.55.98" stroke="#000" stroke-width="2" fill="none"/><path d="M882.05 340.97L881 341v-2l1-.03z"/><path d="M1029.13 275.88l-8.3-12.5 8.94-2.48z" stroke="#000" stroke-width="2"/><defs><path d="M711-1147c253 0 340 178 340 453V0H866v-694c-1-183-51-293-219-293-189 0-268 148-268 354V0H195v-1120h184v168c60-118 165-195 332-195" id="f"/><path d="M535 29c-255 0-340-177-340-453v-694h184v694c1 183 52 293 219 293 191 0 268-148 268-354v-633h185V0H866v-168C807-50 701 29 535 29" id="g"/><path d="M471-1147c112 0 171 55 205 141 41-85 99-141 213-141 90 0 154 35 191 105s55 200 55 393V0H967v-641c0-158-12-256-27-295-31-81-176-72-206 4-17 42-29 138-29 291V0H537v-641c0-160-10-259-29-296s-53-56-102-56-83 20-102 61-28 138-28 291V0H109v-1120h167v96c38-70 97-123 195-123" id="h"/><path d="M494-1120c-16-286 77-439 348-436h221v153H854c-136 2-174 46-176 184v99h385v143H678V0H494v-977H195v-143h299" id="i"/><path d="M915-1147c102 0 174 26 240 70v188c-71-55-140-88-254-88-243 0-354 165-354 420V0H362v-1120h185v219c55-146 178-246 368-246" id="j"/><path d="M651-1147c298 0 466 229 461 541v90H315c-4 242 129 392 365 389 156-2 268-51 389-113v183C949-8 828 27 678 29c-351 3-555-232-555-588 0-338 200-588 528-588zm277 487c-4-201-91-331-285-331-193 0-305 144-321 332" id="k"/><g id="a"><use transform="matrix(0.010850694444444444,0,0,0.010850694444444444,0,0)" xlink:href="#f"/><use transform="matrix(0.010850694444444444,0,0,0.010850694444444444,13.37890625,0)" xlink:href="#g"/><use transform="matrix(0.010850694444444444,0,0,0.010850694444444444,26.7578125,0)" xlink:href="#h"/><use transform="matrix(0.010850694444444444,0,0,0.010850694444444444,40.13671875,0)" xlink:href="#i"/><use transform="matrix(0.010850694444444444,0,0,0.010850694444444444,53.515625,0)" xlink:href="#j"/><use transform="matrix(0.010850694444444444,0,0,0.010850694444444444,66.89453125,0)" xlink:href="#k"/><use transform="matrix(0.010850694444444444,0,0,0.010850694444444444,80.2734375,0)" xlink:href="#k"/></g><path d="M1233 403v80H0v-80h1233" id="l"/><path d="M801 0C570 0 455-164 455-406v-1017H160v-144h479v1161c0 147 46 250 180 250h215V0H801" id="m"/><path d="M256-1120h471v977h365V0H178v-143h365v-834H256v-143zm287-436h184v233H543v-233" id="n"/><path d="M637-1147c132 1 237 25 336 66v180c-92-53-190-92-322-92-145 0-248 35-248 164 0 50 15 87 46 112 23 30 197 67 303 86 166 30 278 123 278 307 0 239-191 356-446 353-140-2-251-31-371-70v-190c114 58 228 103 375 106 145 3 253-56 256-188 3-87-90-149-253-179-210-38-374-93-374-319 0-232 173-338 420-336" id="o"/><path d="M807 0C529-4 430-92 430-369v-608H131v-143h299v-318h184v318h418v143H614v608c2 165 49 222 211 222h207V0H807" id="p"/><g id="b"><use transform="matrix(0.010850694444444444,0,0,0.010850694444444444,0,0)" xlink:href="#i"/><use transform="matrix(0.010850694444444444,0,0,0.010850694444444444,13.37890625,0)" xlink:href="#j"/><use transform="matrix(0.010850694444444444,0,0,0.010850694444444444,26.7578125,0)" xlink:href="#k"/><use transform="matrix(0.010850694444444444,0,0,0.010850694444444444,40.13671875,0)" xlink:href="#k"/><use transform="matrix(0.010850694444444444,0,0,0.010850694444444444,53.515625,0)" xlink:href="#l"/><use transform="matrix(0.010850694444444444,0,0,0.010850694444444444,66.89453125,0)" xlink:href="#m"/><use transform="matrix(0.010850694444444444,0,0,0.010850694444444444,80.2734375,0)" xlink:href="#n"/><use transform="matrix(0.010850694444444444,0,0,0.010850694444444444,93.65234375,0)" xlink:href="#o"/><use transform="matrix(0.010850694444444444,0,0,0.010850694444444444,107.03125,0)" xlink:href="#p"/></g><path d="M616-991c-93 0-161 39-212 109-92 126-92 520 0 646 52 70 119 109 212 109 94 0 161-39 213-109 93-126 92-520 0-646-52-70-119-109-213-109zM137-559c0-353 146-588 479-588s480 235 480 588c0 355-145 588-480 588-334 0-479-234-479-588" id="q"/><path d="M850-236c87-126 87-521 0-646-49-70-112-109-201-109s-154 38-203 109c-89 127-89 518 0 645 49 71 114 110 203 110s152-39 201-109zM676 29c-146 0-244-69-299-170V0H193v-1556h184v579c53-101 154-170 301-170 297 0 434 260 434 584 0 329-136 592-436 592" id="r"/><path d="M748-127c144 0 233-46 313-121v191C974-6 875 28 748 29c-351 3-553-232-553-588 0-357 202-591 553-588 129 2 222 35 313 86v193c-88-76-165-123-313-123-245 0-359 174-359 432 0 257 115 432 359 432" id="s"/><g id="c"><use transform="matrix(0.010850694444444444,0,0,0.010850694444444444,0,0)" xlink:href="#q"/><use transform="matrix(0.010850694444444444,0,0,0.010850694444444444,13.37890625,0)" xlink:href="#r"/><use transform="matrix(0.010850694444444444,0,0,0.010850694444444444,26.7578125,0)" xlink:href="#l"/><use transform="matrix(0.010850694444444444,0,0,0.010850694444444444,40.13671875,0)" xlink:href="#j"/><use transform="matrix(0.010850694444444444,0,0,0.010850694444444444,53.515625,0)" xlink:href="#k"/><use transform="matrix(0.010850694444444444,0,0,0.010850694444444444,66.89453125,0)" xlink:href="#i"/><use transform="matrix(0.010850694444444444,0,0,0.010850694444444444,80.2734375,0)" xlink:href="#s"/><use transform="matrix(0.010850694444444444,0,0,0.010850694444444444,93.65234375,0)" xlink:href="#f"/><use transform="matrix(0.010850694444444444,0,0,0.010850694444444444,107.03125,0)" xlink:href="#p"/></g><path d="M1153-1120C1010-750 884-433 741-52c-66 176-110 283-133 322-55 94-138 156-276 156H184V272c97 0 188 7 236-47 29-33 70-112 117-243L104-1120h195l332 876 327-876h195" id="t"/><path d="M674 29c-147 0-246-68-299-170v567H190v-1546h185v143c55-101 152-170 299-170 300 0 434 263 434 592 0 325-137 584-434 584zm174-265c87-125 87-521 0-646-48-70-112-109-201-109s-154 38-203 109c-89 127-89 518 0 645 49 71 114 110 203 110s153-39 201-109" id="u"/><g id="d"><use transform="matrix(0.010850694444444444,0,0,0.010850694444444444,0,0)" xlink:href="#q"/><use transform="matrix(0.010850694444444444,0,0,0.010850694444444444,13.37890625,0)" xlink:href="#r"/><use transform="matrix(0.010850694444444444,0,0,0.010850694444444444,26.7578125,0)" xlink:href="#l"/><use transform="matrix(0.010850694444444444,0,0,0.010850694444444444,40.13671875,0)" xlink:href="#p"/><use transform="matrix(0.010850694444444444,0,0,0.010850694444444444,53.515625,0)" xlink:href="#t"/><use transform="matrix(0.010850694444444444,0,0,0.010850694444444444,66.89453125,0)" xlink:href="#u"/><use transform="matrix(0.010850694444444444,0,0,0.010850694444444444,80.2734375,0)" xlink:href="#k"/></g><path d="M100-1120h191l325 940 326-940h191L735 0H498" id="v"/><path d="M547-125c229-2 340-186 327-438H641c-189 0-321 55-324 225-3 137 91 215 230 213zm-332-944c167-71 431-115 615-37 106 45 186 120 213 246 11 49 16 123 16 221V0H874v-166C800-42 695 26 508 29c-220 3-378-138-375-355 4-274 199-382 494-381h247c6-204-80-285-282-284-149 1-272 46-377 106v-184" id="w"/><g id="e"><use transform="matrix(0.010850694444444444,0,0,0.010850694444444444,0,0)" xlink:href="#q"/><use transform="matrix(0.010850694444444444,0,0,0.010850694444444444,13.37890625,0)" xlink:href="#r"/><use transform="matrix(0.010850694444444444,0,0,0.010850694444444444,26.7578125,0)" xlink:href="#l"/><use transform="matrix(0.010850694444444444,0,0,0.010850694444444444,40.13671875,0)" xlink:href="#i"/><use transform="matrix(0.010850694444444444,0,0,0.010850694444444444,53.515625,0)" xlink:href="#v"/><use transform="matrix(0.010850694444444444,0,0,0.010850694444444444,66.89453125,0)" xlink:href="#w"/><use transform="matrix(0.010850694444444444,0,0,0.010850694444444444,80.2734375,0)" xlink:href="#m"/></g></defs></g></svg>