<svg xmlns="http://www.w3.org/2000/svg" xmlns:xlink="http://www.w3.org/1999/xlink" xmlns:lucid="lucid" width="390" height="280"><g transform="translate(-370 -300)" lucid:page-tab-id="0_0"><path d="M390 320h220v60H390z" fill="none"/><use xlink:href="#a" transform="matrix(1,0,0,1,390,320) translate(5.64453125 39.231770833333336)"/><path d="M420 380v120h160V380zM420 440h160" stroke="#000" stroke-width="2" fill="#7ab648"/><use xlink:href="#b" transform="matrix(1,0,0,1,436,380) translate(3.794921875 37.693142361111114)"/><use xlink:href="#c" transform="matrix(1,0,0,1,436,440) translate(17.173828125 37.693142361111114)"/><path d="M600 380h140v120H600z" fill="none"/><path d="M600 500c4.14 0 7.5-3.36 7.5-7.5v-45c0-4.14 3.36-7.5 7.5-7.5-4.14 0-7.5-3.36-7.5-7.5v-45c0-4.14-3.36-7.5-7.5-7.5" stroke="#000" stroke-width="2" fill="none"/><use xlink:href="#d" transform="matrix(1,0,0,1,627.5,385) translate(0 62.693142361111114)"/><path d="M420 500h160v60H420z" stroke="#000" stroke-width="2" fill="#c7e8ac"/><use xlink:href="#e" transform="matrix(1,0,0,1,425,505) translate(28.173828125 33.127170138888886)"/><defs><path d="M930-1047c0-180-114-280-297-280H399v561h234c182 2 297-102 297-281zm211 0c0 308-189 448-508 447H399V0H197v-1493h436c317-2 508 140 508 446" id="f"/><path d="M1153-1120C1010-750 884-433 741-52c-66 176-110 283-133 322-55 94-138 156-276 156H184V272c97 0 188 7 236-47 29-33 70-112 117-243L104-1120h195l332 876 327-876h195" id="g"/><path d="M233-1493h879v170H436v440h613v170H436V0H233v-1493" id="h"/><path d="M801 0C570 0 455-164 455-406v-1017H160v-144h479v1161c0 147 46 250 180 250h215V0H801" id="i"/><path d="M616-991c-93 0-161 39-212 109-92 126-92 520 0 646 52 70 119 109 212 109 94 0 161-39 213-109 93-126 92-520 0-646-52-70-119-109-213-109zM137-559c0-353 146-588 479-588s480 235 480 588c0 355-145 588-480 588-334 0-479-234-479-588" id="j"/><path d="M547-125c229-2 340-186 327-438H641c-189 0-321 55-324 225-3 137 91 215 230 213zm-332-944c167-71 431-115 615-37 106 45 186 120 213 246 11 49 16 123 16 221V0H874v-166C800-42 695 26 508 29c-220 3-378-138-375-355 4-274 199-382 494-381h247c6-204-80-285-282-284-149 1-272 46-377 106v-184" id="k"/><path d="M807 0C529-4 430-92 430-369v-608H131v-143h299v-318h184v318h418v143H614v608c2 165 49 222 211 222h207V0H807" id="l"/><path d="M838-276c84-151 84-788 0-939-51-91-119-141-222-141-102 0-169 50-220 141-84 151-84 788 0 939 51 91 118 141 220 141 103 0 171-50 222-141zm278-469c0 260-42 454-124 582S785 29 616 29 322-35 240-162 117-484 117-745s41-455 123-583 208-192 376-192c169 0 294 64 376 192s124 322 124 583" id="m"/><path d="M850-236c87-126 87-521 0-646-49-70-112-109-201-109s-154 38-203 109c-89 127-89 518 0 645 49 71 114 110 203 110s152-39 201-109zM676 29c-146 0-244-69-299-170V0H193v-1556h184v579c53-101 154-170 301-170 297 0 434 260 434 584 0 329-136 592-436 592" id="n"/><path d="M420 270c135-3 180-101 180-250v-997H283v-143h501V20c2 243-112 405-344 406H186V270h234zm180-1826h184v233H600v-233" id="o"/><path d="M651-1147c298 0 466 229 461 541v90H315c-4 242 129 392 365 389 156-2 268-51 389-113v183C949-8 828 27 678 29c-351 3-555-232-555-588 0-338 200-588 528-588zm277 487c-4-201-91-331-285-331-193 0-305 144-321 332" id="p"/><path d="M748-127c144 0 233-46 313-121v191C974-6 875 28 748 29c-351 3-553-232-553-588 0-357 202-591 553-588 129 2 222 35 313 86v193c-88-76-165-123-313-123-245 0-359 174-359 432 0 257 115 432 359 432" id="q"/><g id="a"><use transform="matrix(0.013020833333333334,0,0,0.013020833333333334,0,0)" xlink:href="#f"/><use transform="matrix(0.013020833333333334,0,0,0.013020833333333334,16.0546875,0)" xlink:href="#g"/><use transform="matrix(0.013020833333333334,0,0,0.013020833333333334,32.109375,0)" xlink:href="#h"/><use transform="matrix(0.013020833333333334,0,0,0.013020833333333334,48.1640625,0)" xlink:href="#i"/><use transform="matrix(0.013020833333333334,0,0,0.013020833333333334,64.21875,0)" xlink:href="#j"/><use transform="matrix(0.013020833333333334,0,0,0.013020833333333334,80.2734375,0)" xlink:href="#k"/><use transform="matrix(0.013020833333333334,0,0,0.013020833333333334,96.328125,0)" xlink:href="#l"/><use transform="matrix(0.013020833333333334,0,0,0.013020833333333334,112.3828125,0)" xlink:href="#m"/><use transform="matrix(0.013020833333333334,0,0,0.013020833333333334,128.4375,0)" xlink:href="#n"/><use transform="matrix(0.013020833333333334,0,0,0.013020833333333334,144.4921875,0)" xlink:href="#o"/><use transform="matrix(0.013020833333333334,0,0,0.013020833333333334,160.546875,0)" xlink:href="#p"/><use transform="matrix(0.013020833333333334,0,0,0.013020833333333334,176.6015625,0)" xlink:href="#q"/><use transform="matrix(0.013020833333333334,0,0,0.013020833333333334,192.65625,0)" xlink:href="#l"/></g><path fill="#3e4349" d="M616-991c-93 0-161 39-212 109-92 126-92 520 0 646 52 70 119 109 212 109 94 0 161-39 213-109 93-126 92-520 0-646-52-70-119-109-213-109zM137-559c0-353 146-588 479-588s480 235 480 588c0 355-145 588-480 588-334 0-479-234-479-588" id="r"/><path fill="#3e4349" d="M850-236c87-126 87-521 0-646-49-70-112-109-201-109s-154 38-203 109c-89 127-89 518 0 645 49 71 114 110 203 110s152-39 201-109zM676 29c-146 0-244-69-299-170V0H193v-1556h184v579c53-101 154-170 301-170 297 0 434 260 434 584 0 329-136 592-436 592" id="s"/><path fill="#3e4349" d="M1233 403v80H0v-80h1233" id="t"/><path fill="#3e4349" d="M915-1147c102 0 174 26 240 70v188c-71-55-140-88-254-88-243 0-354 165-354 420V0H362v-1120h185v219c55-146 178-246 368-246" id="u"/><path fill="#3e4349" d="M651-1147c298 0 466 229 461 541v90H315c-4 242 129 392 365 389 156-2 268-51 389-113v183C949-8 828 27 678 29c-351 3-555-232-555-588 0-338 200-588 528-588zm277 487c-4-201-91-331-285-331-193 0-305 144-321 332" id="v"/><path fill="#3e4349" d="M494-1120c-16-286 77-439 348-436h221v153H854c-136 2-174 46-176 184v99h385v143H678V0H494v-977H195v-143h299" id="w"/><path fill="#3e4349" d="M748-127c144 0 233-46 313-121v191C974-6 875 28 748 29c-351 3-553-232-553-588 0-357 202-591 553-588 129 2 222 35 313 86v193c-88-76-165-123-313-123-245 0-359 174-359 432 0 257 115 432 359 432" id="x"/><path fill="#3e4349" d="M711-1147c253 0 340 178 340 453V0H866v-694c-1-183-51-293-219-293-189 0-268 148-268 354V0H195v-1120h184v168c60-118 165-195 332-195" id="y"/><path fill="#3e4349" d="M807 0C529-4 430-92 430-369v-608H131v-143h299v-318h184v318h418v143H614v608c2 165 49 222 211 222h207V0H807" id="z"/><g id="b"><use transform="matrix(0.010850694444444444,0,0,0.010850694444444444,0,0)" xlink:href="#r"/><use transform="matrix(0.010850694444444444,0,0,0.010850694444444444,13.37890625,0)" xlink:href="#s"/><use transform="matrix(0.010850694444444444,0,0,0.010850694444444444,26.7578125,0)" xlink:href="#t"/><use transform="matrix(0.010850694444444444,0,0,0.010850694444444444,40.13671875,0)" xlink:href="#u"/><use transform="matrix(0.010850694444444444,0,0,0.010850694444444444,53.515625,0)" xlink:href="#v"/><use transform="matrix(0.010850694444444444,0,0,0.010850694444444444,66.89453125,0)" xlink:href="#w"/><use transform="matrix(0.010850694444444444,0,0,0.010850694444444444,80.2734375,0)" xlink:href="#x"/><use transform="matrix(0.010850694444444444,0,0,0.010850694444444444,93.65234375,0)" xlink:href="#y"/><use transform="matrix(0.010850694444444444,0,0,0.010850694444444444,107.03125,0)" xlink:href="#z"/></g><path fill="#3e4349" d="M1153-1120C1010-750 884-433 741-52c-66 176-110 283-133 322-55 94-138 156-276 156H184V272c97 0 188 7 236-47 29-33 70-112 117-243L104-1120h195l332 876 327-876h195" id="A"/><path fill="#3e4349" d="M674 29c-147 0-246-68-299-170v567H190v-1546h185v143c55-101 152-170 299-170 300 0 434 263 434 592 0 325-137 584-434 584zm174-265c87-125 87-521 0-646-48-70-112-109-201-109s-154 38-203 109c-89 127-89 518 0 645 49 71 114 110 203 110s153-39 201-109" id="B"/><g id="c"><use transform="matrix(0.010850694444444444,0,0,0.010850694444444444,0,0)" xlink:href="#r"/><use transform="matrix(0.010850694444444444,0,0,0.010850694444444444,13.37890625,0)" xlink:href="#s"/><use transform="matrix(0.010850694444444444,0,0,0.010850694444444444,26.7578125,0)" xlink:href="#t"/><use transform="matrix(0.010850694444444444,0,0,0.010850694444444444,40.13671875,0)" xlink:href="#z"/><use transform="matrix(0.010850694444444444,0,0,0.010850694444444444,53.515625,0)" xlink:href="#A"/><use transform="matrix(0.010850694444444444,0,0,0.010850694444444444,66.89453125,0)" xlink:href="#B"/><use transform="matrix(0.010850694444444444,0,0,0.010850694444444444,80.2734375,0)" xlink:href="#v"/></g><g id="d"><use transform="matrix(0.010850694444444444,0,0,0.010850694444444444,0,0)" xlink:href="#f"/><use transform="matrix(0.010850694444444444,0,0,0.010850694444444444,13.37890625,0)" xlink:href="#g"/><use transform="matrix(0.010850694444444444,0,0,0.010850694444444444,26.7578125,0)" xlink:href="#m"/><use transform="matrix(0.010850694444444444,0,0,0.010850694444444444,40.13671875,0)" xlink:href="#n"/><use transform="matrix(0.010850694444444444,0,0,0.010850694444444444,53.515625,0)" xlink:href="#o"/><use transform="matrix(0.010850694444444444,0,0,0.010850694444444444,66.89453125,0)" xlink:href="#p"/><use transform="matrix(0.010850694444444444,0,0,0.010850694444444444,80.2734375,0)" xlink:href="#q"/><use transform="matrix(0.010850694444444444,0,0,0.010850694444444444,93.65234375,0)" xlink:href="#l"/></g><path fill="#3e4349" d="M100-1120h191l325 940 326-940h191L735 0H498" id="C"/><path fill="#3e4349" d="M547-125c229-2 340-186 327-438H641c-189 0-321 55-324 225-3 137 91 215 230 213zm-332-944c167-71 431-115 615-37 106 45 186 120 213 246 11 49 16 123 16 221V0H874v-166C800-42 695 26 508 29c-220 3-378-138-375-355 4-274 199-382 494-381h247c6-204-80-285-282-284-149 1-272 46-377 106v-184" id="D"/><path fill="#3e4349" d="M801 0C570 0 455-164 455-406v-1017H160v-144h479v1161c0 147 46 250 180 250h215V0H801" id="E"/><g id="e"><use transform="matrix(0.010850694444444444,0,0,0.010850694444444444,0,0)" xlink:href="#r"/><use transform="matrix(0.010850694444444444,0,0,0.010850694444444444,13.37890625,0)" xlink:href="#s"/><use transform="matrix(0.010850694444444444,0,0,0.010850694444444444,26.7578125,0)" xlink:href="#t"/><use transform="matrix(0.010850694444444444,0,0,0.010850694444444444,40.13671875,0)" xlink:href="#w"/><use transform="matrix(0.010850694444444444,0,0,0.010850694444444444,53.515625,0)" xlink:href="#C"/><use transform="matrix(0.010850694444444444,0,0,0.010850694444444444,66.89453125,0)" xlink:href="#D"/><use transform="matrix(0.010850694444444444,0,0,0.010850694444444444,80.2734375,0)" xlink:href="#E"/></g></defs></g></svg>