<?xml version="1.0" encoding="UTF-8"?>
<svg xmlns="http://www.w3.org/2000/svg" xmlns:xlink="http://www.w3.org/1999/xlink" width="240pt" height="184pt" viewBox="0 0 240 184" version="1.1">
<g id="surface1">
<path style="fill-rule:nonzero;fill:rgb(22.745098%,65.098039%,86.666667%);fill-opacity:1;stroke-width:2;stroke-linecap:butt;stroke-linejoin:miter;stroke:rgb(0%,0%,0%);stroke-opacity:1;stroke-miterlimit:4;" d="M 880.000651 880 C 880.000651 1012.550102 736.729167 1119.996603 560 1119.996603 C 383.270833 1119.996603 239.999349 1012.550102 239.999349 880 C 239.999349 747.449898 383.270833 640.003397 560 640.003397 C 736.729167 640.003397 880.000651 747.449898 880.000651 880 Z M 880.000651 880 " transform="matrix(0.352941,0,0,0.353846,-77.647059,-219.384615)"/>
<path style="fill-rule:nonzero;fill:rgb(60%,82.352941%,94.901961%);fill-opacity:1;stroke-width:2;stroke-linecap:butt;stroke-linejoin:miter;stroke:rgb(0%,0%,0%);stroke-opacity:1;stroke-miterlimit:4;" d="M 760.004557 840.004246 C 760.004557 928.37466 652.548177 999.998302 520.001302 999.998302 C 387.454427 999.998302 279.998047 928.37466 279.998047 840.004246 C 279.998047 751.633832 387.454427 679.999151 520.001302 679.999151 C 652.548177 679.999151 760.004557 751.633832 760.004557 840.004246 Z M 760.004557 840.004246 " transform="matrix(0.352941,0,0,0.353846,-77.647059,-219.384615)"/>
<path style=" stroke:none;fill-rule:nonzero;fill:rgb(0%,0%,0%);fill-opacity:1;" d="M 129.722656 115.367188 C 130.082031 115.367188 130.320312 115.285156 130.523438 115.121094 L 130.523438 113.582031 L 129.691406 113.582031 L 129.691406 112.945312 L 131.261719 112.945312 L 131.261719 115.414062 C 130.886719 115.761719 130.398438 115.996094 129.722656 115.996094 C 128.144531 115.996094 127.425781 114.730469 127.425781 113.023438 C 127.425781 112.089844 127.628906 111.355469 128.039062 110.832031 C 128.449219 110.308594 129.015625 110.050781 129.742188 110.050781 C 130.296875 110.050781 130.703125 110.214844 131.066406 110.460938 L 131.066406 111.253906 C 130.710938 110.921875 130.34375 110.679688 129.742188 110.679688 C 129.242188 110.679688 128.867188 110.871094 128.613281 111.261719 C 128.359375 111.652344 128.234375 112.242188 128.234375 113.023438 C 128.234375 113.820312 128.351562 114.410156 128.597656 114.796875 C 128.84375 115.179688 129.21875 115.367188 129.722656 115.367188 "/>
<path style=" stroke:none;fill-rule:nonzero;fill:rgb(0%,0%,0%);fill-opacity:1;" d="M 135.332031 114.234375 C 135.332031 113.445312 134.90625 113.152344 134.085938 113.148438 L 133.167969 113.148438 L 133.167969 115.246094 L 134.085938 115.246094 C 134.925781 115.242188 135.332031 115.023438 135.332031 114.234375 Z M 135.128906 111.609375 C 135.128906 110.964844 134.761719 110.789062 134.070312 110.789062 L 133.167969 110.789062 L 133.167969 112.519531 L 134.070312 112.519531 C 134.78125 112.515625 135.128906 112.292969 135.128906 111.609375 Z M 136.109375 114.3125 C 136.09375 115.453125 135.3125 115.890625 134.085938 115.886719 L 132.390625 115.886719 L 132.390625 110.152344 L 134.085938 110.152344 C 135.15625 110.140625 135.910156 110.605469 135.910156 111.609375 C 135.910156 112.332031 135.554688 112.722656 134.910156 112.816406 C 135.636719 112.917969 136.121094 113.484375 136.109375 114.3125 "/>
<path style=" stroke:none;fill-rule:nonzero;fill:rgb(0%,0%,0%);fill-opacity:1;" d="M 137.003906 110.152344 L 137.78125 110.152344 L 137.78125 112.703125 L 140.195312 110.152344 L 141.105469 110.152344 L 138.878906 112.496094 L 141.171875 115.886719 L 140.234375 115.886719 L 138.371094 113.011719 L 137.78125 113.644531 L 137.78125 115.886719 L 137.003906 115.886719 L 137.003906 110.152344 "/>
<path style="fill-rule:nonzero;fill:rgb(75.686275%,89.411765%,96.862745%);fill-opacity:1;stroke-width:2;stroke-linecap:butt;stroke-linejoin:miter;stroke:rgb(0%,0%,0%);stroke-opacity:1;stroke-miterlimit:4;" d="M 659.996745 799.997452 C 659.996745 855.227582 588.366536 900.003397 500.001953 900.003397 C 411.626302 900.003397 339.996094 855.227582 339.996094 799.997452 C 339.996094 744.767323 411.626302 700.002548 500.001953 700.002548 C 588.366536 700.002548 659.996745 744.767323 659.996745 799.997452 Z M 659.996745 799.997452 " transform="matrix(0.352941,0,0,0.353846,-77.647059,-219.384615)"/>
<path style="fill-rule:nonzero;fill:rgb(78.039216%,90.980392%,67.45098%);fill-opacity:1;stroke-width:2;stroke-linecap:butt;stroke-linejoin:miter;stroke:rgb(0%,0%,0%);stroke-opacity:1;stroke-miterlimit:4;" d="M 560 760.001698 C 560 782.102582 524.184896 799.997452 480.002604 799.997452 C 435.820312 799.997452 400.005208 782.102582 400.005208 760.001698 C 400.005208 737.900815 435.820312 719.994905 480.002604 719.994905 C 524.184896 719.994905 560 737.900815 560 760.001698 Z M 560 760.001698 " transform="matrix(0.352941,0,0,0.353846,-77.647059,-219.384615)"/>
<path style=" stroke:none;fill-rule:nonzero;fill:rgb(0%,0%,0%);fill-opacity:1;" d="M 82.320312 47.144531 L 81.503906 50.078125 L 83.132812 50.078125 Z M 81.851562 46.460938 L 82.789062 46.460938 L 84.539062 52.191406 L 83.738281 52.191406 L 83.320312 50.699219 L 81.316406 50.699219 L 80.902344 52.191406 L 80.101562 52.191406 "/>
<path style=" stroke:none;fill-rule:nonzero;fill:rgb(0%,0%,0%);fill-opacity:1;" d="M 87.097656 46.355469 C 87.648438 46.363281 88.101562 46.488281 88.558594 46.65625 L 88.558594 47.445312 C 88.152344 47.1875 87.722656 47 87.136719 46.988281 C 86.46875 46.976562 85.957031 47.308594 85.953125 47.929688 C 85.953125 48.183594 86.03125 48.367188 86.160156 48.511719 C 86.328125 48.695312 86.941406 48.839844 87.347656 48.9375 C 88.304688 49.160156 88.886719 49.554688 88.886719 50.625 C 88.886719 51.78125 88.117188 52.3125 86.910156 52.304688 C 86.28125 52.300781 85.769531 52.164062 85.285156 51.957031 L 85.285156 51.132812 C 85.785156 51.445312 86.222656 51.660156 86.910156 51.675781 C 87.625 51.691406 88.148438 51.351562 88.148438 50.675781 C 88.148438 49.980469 87.792969 49.816406 87.144531 49.671875 C 86.105469 49.4375 85.222656 49.199219 85.214844 48.050781 C 85.207031 47.003906 86.023438 46.335938 87.097656 46.355469 "/>
<path style=" stroke:none;fill-rule:nonzero;fill:rgb(0%,0%,0%);fill-opacity:1;" d="M 92.25 51.675781 C 92.78125 51.675781 93.191406 51.464844 93.511719 51.195312 L 93.511719 51.988281 C 93.148438 52.179688 92.769531 52.304688 92.25 52.304688 C 90.660156 52.304688 89.9375 51.046875 89.9375 49.332031 C 89.9375 48.394531 90.140625 47.664062 90.546875 47.140625 C 90.949219 46.617188 91.523438 46.355469 92.25 46.355469 C 92.765625 46.359375 93.152344 46.480469 93.511719 46.671875 L 93.511719 47.464844 C 93.191406 47.199219 92.777344 46.988281 92.25 46.988281 C 91.746094 46.988281 91.390625 47.195312 91.121094 47.570312 C 90.640625 48.238281 90.636719 50.421875 91.121094 51.089844 C 91.390625 51.46875 91.746094 51.675781 92.25 51.675781 "/>
<path style=" stroke:none;fill-rule:nonzero;fill:rgb(0%,0%,0%);fill-opacity:1;" d="M 94.894531 46.460938 L 98.070312 46.460938 L 98.070312 47.113281 L 96.871094 47.113281 L 96.871094 51.539062 L 98.070312 51.539062 L 98.070312 52.191406 L 94.894531 52.191406 L 94.894531 51.539062 L 96.09375 51.539062 L 96.09375 47.113281 L 94.894531 47.113281 L 94.894531 46.460938 "/>
<path style=" stroke:none;fill-rule:nonzero;fill:rgb(0%,0%,0%);fill-opacity:1;" d="M 99.617188 46.460938 L 102.792969 46.460938 L 102.792969 47.113281 L 101.59375 47.113281 L 101.59375 51.539062 L 102.792969 51.539062 L 102.792969 52.191406 L 99.617188 52.191406 L 99.617188 51.539062 L 100.816406 51.539062 L 100.816406 47.113281 L 99.617188 47.113281 L 99.617188 46.460938 "/>
<path style=" stroke:none;fill-rule:nonzero;fill:rgb(0%,0%,0%);fill-opacity:1;" d="M 101.464844 79.984375 C 101.824219 79.984375 102.0625 79.902344 102.265625 79.738281 L 102.265625 78.195312 L 101.433594 78.195312 L 101.433594 77.558594 L 103.003906 77.558594 L 103.003906 80.027344 C 102.628906 80.378906 102.136719 80.613281 101.464844 80.613281 C 99.886719 80.613281 99.164062 79.34375 99.164062 77.640625 C 99.164062 76.703125 99.367188 75.96875 99.777344 75.449219 C 100.1875 74.925781 100.753906 74.664062 101.484375 74.664062 C 102.039062 74.664062 102.445312 74.828125 102.808594 75.074219 L 102.808594 75.871094 C 102.453125 75.535156 102.085938 75.292969 101.484375 75.292969 C 100.980469 75.292969 100.605469 75.488281 100.351562 75.878906 C 100.101562 76.269531 99.972656 76.855469 99.972656 77.640625 C 99.972656 78.433594 100.09375 79.027344 100.335938 79.410156 C 100.582031 79.792969 100.957031 79.984375 101.464844 79.984375 "/>
<path style=" stroke:none;fill-rule:nonzero;fill:rgb(0%,0%,0%);fill-opacity:1;" d="M 107.074219 78.851562 C 107.074219 78.058594 106.644531 77.765625 105.824219 77.761719 L 104.910156 77.761719 L 104.910156 79.863281 L 105.824219 79.863281 C 106.667969 79.855469 107.074219 79.640625 107.074219 78.851562 Z M 106.871094 76.222656 C 106.871094 75.578125 106.503906 75.40625 105.808594 75.40625 L 104.910156 75.40625 L 104.910156 77.132812 L 105.808594 77.132812 C 106.523438 77.128906 106.871094 76.90625 106.871094 76.222656 Z M 107.851562 78.925781 C 107.835938 80.066406 107.050781 80.503906 105.824219 80.5 L 104.132812 80.5 L 104.132812 74.769531 L 105.824219 74.769531 C 106.898438 74.757812 107.652344 75.222656 107.652344 76.222656 C 107.652344 76.949219 107.296875 77.335938 106.648438 77.433594 C 107.375 77.53125 107.863281 78.101562 107.851562 78.925781 "/>
<path style=" stroke:none;fill-rule:nonzero;fill:rgb(0%,0%,0%);fill-opacity:1;" d="M 110.375 74.664062 C 111.417969 74.644531 112.261719 75.28125 112.238281 76.285156 C 112.21875 76.992188 111.921875 77.351562 111.511719 77.835938 C 110.914062 78.539062 110.492188 78.953125 109.648438 79.847656 L 112.273438 79.847656 L 112.273438 80.5 L 108.800781 80.5 L 108.800781 79.847656 C 109.496094 79.113281 110.261719 78.316406 110.792969 77.695312 C 111.054688 77.386719 111.222656 77.128906 111.308594 76.9375 C 111.398438 76.746094 111.445312 76.546875 111.445312 76.34375 C 111.453125 75.707031 111.03125 75.300781 110.390625 75.316406 C 109.761719 75.332031 109.316406 75.550781 108.847656 75.828125 L 108.847656 75.042969 C 109.304688 74.828125 109.773438 74.675781 110.375 74.664062 "/>
<path style=" stroke:none;fill-rule:nonzero;fill:rgb(0%,0%,0%);fill-opacity:1;" d="M 116.9375 76.199219 C 116.933594 76.902344 116.515625 77.28125 115.914062 77.433594 C 116.605469 77.609375 117.070312 78.09375 117.074219 78.917969 C 117.078125 80.027344 116.238281 80.628906 115.074219 80.613281 C 114.480469 80.605469 113.9375 80.492188 113.464844 80.328125 L 113.464844 79.554688 C 113.917969 79.789062 114.382812 79.953125 114.988281 79.960938 C 115.785156 79.96875 116.304688 79.601562 116.308594 78.84375 C 116.3125 78.148438 115.765625 77.738281 115.042969 77.753906 L 114.453125 77.753906 L 114.453125 77.117188 L 115.042969 77.117188 C 115.691406 77.125 116.171875 76.835938 116.171875 76.230469 C 116.171875 75.613281 115.75 75.3125 115.105469 75.316406 C 114.546875 75.324219 114.09375 75.453125 113.636719 75.625 L 113.636719 74.910156 C 114.144531 74.78125 114.574219 74.675781 115.105469 74.664062 C 116.132812 74.640625 116.945312 75.226562 116.9375 76.199219 "/>
<path style=" stroke:none;fill-rule:nonzero;fill:rgb(0%,0%,0%);fill-opacity:1;" d="M 118.695312 79.847656 L 119.898438 79.847656 L 119.898438 75.46875 L 118.605469 75.757812 L 118.605469 75.050781 L 119.890625 74.769531 L 120.664062 74.769531 L 120.664062 79.847656 L 121.851562 79.847656 L 121.851562 80.5 L 118.695312 80.5 L 118.695312 79.847656 "/>
<path style=" stroke:none;fill-rule:nonzero;fill:rgb(0%,0%,0%);fill-opacity:1;" d="M 124.542969 74.664062 C 125.582031 74.644531 126.429688 75.28125 126.402344 76.285156 C 126.382812 76.992188 126.089844 77.351562 125.679688 77.835938 C 125.082031 78.539062 124.660156 78.953125 123.8125 79.847656 L 126.441406 79.847656 L 126.441406 80.5 L 122.96875 80.5 L 122.96875 79.847656 C 123.660156 79.113281 124.425781 78.316406 124.957031 77.695312 C 125.21875 77.386719 125.386719 77.128906 125.476562 76.9375 C 125.5625 76.746094 125.609375 76.546875 125.609375 76.34375 C 125.617188 75.707031 125.195312 75.300781 124.554688 75.316406 C 123.929688 75.332031 123.484375 75.550781 123.011719 75.828125 L 123.011719 75.042969 C 123.46875 74.828125 123.941406 74.675781 124.542969 74.664062 "/>
<path style=" stroke:none;fill-rule:nonzero;fill:rgb(0%,0%,0%);fill-opacity:1;" d="M 141.457031 150.75 C 141.816406 150.75 142.054688 150.671875 142.257812 150.507812 L 142.257812 148.964844 L 141.425781 148.964844 L 141.425781 148.328125 L 142.996094 148.328125 L 142.996094 150.796875 C 142.621094 151.148438 142.128906 151.382812 141.457031 151.382812 C 139.878906 151.382812 139.15625 150.113281 139.15625 148.410156 C 139.15625 147.472656 139.359375 146.738281 139.769531 146.21875 C 140.179688 145.695312 140.746094 145.433594 141.476562 145.433594 C 142.03125 145.433594 142.4375 145.597656 142.800781 145.84375 L 142.800781 146.640625 C 142.445312 146.304688 142.074219 146.0625 141.476562 146.0625 C 140.972656 146.0625 140.597656 146.253906 140.34375 146.648438 C 140.09375 147.039062 139.964844 147.625 139.964844 148.410156 C 139.964844 149.203125 140.085938 149.796875 140.328125 150.179688 C 140.574219 150.5625 140.949219 150.75 141.457031 150.75 "/>
<path style=" stroke:none;fill-rule:nonzero;fill:rgb(0%,0%,0%);fill-opacity:1;" d="M 147.066406 149.617188 C 147.066406 148.828125 146.636719 148.535156 145.816406 148.53125 L 144.902344 148.53125 L 144.902344 150.632812 L 145.816406 150.632812 C 146.660156 150.625 147.066406 150.410156 147.066406 149.617188 Z M 146.863281 146.992188 C 146.863281 146.347656 146.496094 146.175781 145.800781 146.175781 L 144.902344 146.175781 L 144.902344 147.902344 L 145.800781 147.902344 C 146.515625 147.898438 146.863281 147.675781 146.863281 146.992188 Z M 147.84375 149.695312 C 147.828125 150.835938 147.042969 151.273438 145.816406 151.269531 L 144.125 151.269531 L 144.125 145.539062 L 145.816406 145.539062 C 146.890625 145.527344 147.644531 145.992188 147.644531 146.992188 C 147.644531 147.71875 147.289062 148.105469 146.640625 148.203125 C 147.367188 148.300781 147.855469 148.871094 147.84375 149.695312 "/>
<path style=" stroke:none;fill-rule:nonzero;fill:rgb(0%,0%,0%);fill-opacity:1;" d="M 149.246094 150.617188 L 150.449219 150.617188 L 150.449219 146.238281 L 149.152344 146.527344 L 149.152344 145.820312 L 150.441406 145.539062 L 151.214844 145.539062 L 151.214844 150.617188 L 152.402344 150.617188 L 152.402344 151.269531 L 149.246094 151.269531 L 149.246094 150.617188 "/>
<path style=" stroke:none;fill-rule:nonzero;fill:rgb(0%,0%,0%);fill-opacity:1;" d="M 156.375 149.65625 C 156.375 148.964844 155.976562 148.546875 155.292969 148.546875 C 154.601562 148.546875 154.210938 148.960938 154.210938 149.65625 C 154.210938 150.347656 154.609375 150.773438 155.292969 150.773438 C 155.988281 150.773438 156.375 150.363281 156.375 149.65625 Z M 153.433594 149.738281 C 153.433594 148.882812 153.890625 148.378906 154.617188 148.226562 C 154.015625 148.078125 153.574219 147.625 153.570312 146.917969 C 153.566406 145.96875 154.300781 145.433594 155.292969 145.433594 C 156.289062 145.433594 157.023438 145.96875 157.019531 146.917969 C 157.015625 147.625 156.566406 148.082031 155.96875 148.226562 C 156.695312 148.378906 157.148438 148.878906 157.152344 149.730469 C 157.15625 150.796875 156.394531 151.382812 155.292969 151.382812 C 154.1875 151.382812 153.429688 150.804688 153.433594 149.738281 Z M 155.292969 146.03125 C 154.675781 146.03125 154.339844 146.378906 154.339844 146.992188 C 154.339844 147.605469 154.679688 147.9375 155.292969 147.9375 C 155.910156 147.9375 156.253906 147.605469 156.25 146.992188 C 156.25 146.367188 155.917969 146.03125 155.292969 146.03125 "/>
<path style=" stroke:none;fill-rule:nonzero;fill:rgb(0%,0%,0%);fill-opacity:1;" d="M 160.007812 148.90625 C 159.722656 148.90625 159.503906 148.679688 159.503906 148.390625 C 159.503906 148.121094 159.738281 147.871094 160.007812 147.871094 C 160.28125 147.871094 160.527344 148.117188 160.527344 148.390625 C 160.527344 148.671875 160.285156 148.90625 160.007812 148.90625 Z M 160.015625 146.046875 C 159.652344 146.046875 159.40625 146.25 159.210938 146.632812 C 158.871094 147.289062 158.871094 149.527344 159.210938 150.183594 C 159.40625 150.5625 159.652344 150.765625 160.015625 150.765625 C 160.378906 150.765625 160.628906 150.5625 160.824219 150.183594 C 161.164062 149.523438 161.164062 147.289062 160.824219 146.632812 C 160.628906 146.25 160.378906 146.046875 160.015625 146.046875 Z M 160.015625 145.433594 C 160.625 145.433594 161.085938 145.683594 161.402344 146.1875 C 161.714844 146.691406 161.867188 147.429688 161.867188 148.410156 C 161.867188 149.386719 161.714844 150.125 161.402344 150.628906 C 161.085938 151.132812 160.625 151.382812 160.015625 151.382812 C 159.40625 151.382812 158.941406 151.132812 158.632812 150.628906 C 158.320312 150.125 158.164062 149.386719 158.164062 148.410156 C 158.164062 147.429688 158.320312 146.691406 158.632812 146.1875 C 158.941406 145.683594 159.40625 145.433594 160.015625 145.433594 "/>
<path style=" stroke:none;fill-rule:nonzero;fill:rgb(0%,0%,0%);fill-opacity:1;" d="M 166.375 146.96875 C 166.371094 147.671875 165.949219 148.046875 165.347656 148.203125 C 166.042969 148.378906 166.503906 148.863281 166.507812 149.6875 C 166.511719 150.796875 165.675781 151.398438 164.511719 151.382812 C 163.917969 151.375 163.371094 151.261719 162.902344 151.097656 L 162.902344 150.324219 C 163.355469 150.558594 163.816406 150.722656 164.425781 150.730469 C 165.222656 150.734375 165.738281 150.371094 165.742188 149.613281 C 165.746094 148.917969 165.203125 148.507812 164.480469 148.523438 L 163.890625 148.523438 L 163.890625 147.886719 L 164.480469 147.886719 C 165.125 147.894531 165.609375 147.601562 165.609375 147 C 165.609375 146.382812 165.183594 146.082031 164.539062 146.085938 C 163.980469 146.09375 163.53125 146.222656 163.074219 146.394531 L 163.074219 145.679688 C 163.578125 145.550781 164.007812 145.445312 164.539062 145.433594 C 165.566406 145.410156 166.382812 145.996094 166.375 146.96875 "/>
<path style=" stroke:none;fill-rule:nonzero;fill:rgb(0%,0%,0%);fill-opacity:1;" d="M 169.449219 148.90625 C 169.167969 148.90625 168.949219 148.679688 168.949219 148.390625 C 168.949219 148.121094 169.183594 147.871094 169.449219 147.871094 C 169.726562 147.871094 169.972656 148.117188 169.972656 148.390625 C 169.972656 148.671875 169.730469 148.90625 169.449219 148.90625 Z M 169.457031 146.046875 C 169.097656 146.046875 168.847656 146.25 168.652344 146.632812 C 168.316406 147.289062 168.316406 149.527344 168.652344 150.183594 C 168.847656 150.5625 169.097656 150.765625 169.457031 150.765625 C 169.820312 150.765625 170.074219 150.5625 170.269531 150.183594 C 170.605469 149.523438 170.605469 147.289062 170.269531 146.632812 C 170.074219 146.25 169.820312 146.046875 169.457031 146.046875 Z M 169.457031 145.433594 C 170.066406 145.433594 170.53125 145.683594 170.84375 146.1875 C 171.160156 146.691406 171.3125 147.429688 171.3125 148.410156 C 171.3125 149.386719 171.160156 150.125 170.84375 150.628906 C 170.53125 151.132812 170.066406 151.382812 169.457031 151.382812 C 168.847656 151.382812 168.386719 151.132812 168.074219 150.628906 C 167.765625 150.125 167.609375 149.386719 167.609375 148.410156 C 167.609375 147.429688 167.765625 146.691406 168.074219 146.1875 C 168.386719 145.683594 168.847656 145.433594 169.457031 145.433594 "/>
</g>
</svg>
