<svg xmlns="http://www.w3.org/2000/svg" xmlns:xlink="http://www.w3.org/1999/xlink" xmlns:lucid="lucid" width="680" height="520"><g transform="translate(-220.00000000000003 -620)" lucid:page-tab-id="0_0"><path d="M880 880c0 132.55-143.27 240-320 240s-320-107.45-320-240 143.27-240 320-240 320 107.45 320 240z" stroke="#000" stroke-width="2" fill="#3aa6dd"/><path d="M760 840c0 88.37-107.45 160-240 160s-240-71.63-240-160 107.45-160 240-160 240 71.63 240 160z" stroke="#000" stroke-width="2" fill="#99d2f2"/><path d="M520 900h160v80H520z" stroke="#000" stroke-opacity="0" stroke-width="2" fill="#fff" fill-opacity="0"/><use xlink:href="#a" transform="matrix(1,0,0,1,525,905) translate(54.931640625 42.502170138888886)"/><path d="M660 800c0 55.23-71.63 100-160 100s-160-44.77-160-100 71.63-100 160-100 160 44.77 160 100z" stroke="#000" stroke-width="2" fill="#c1e4f7"/><path d="M560 760c0 22.1-35.82 40-80 40s-80-17.9-80-40 35.82-40 80-40 80 17.9 80 40z" stroke="#000" stroke-width="2" fill="#c7e8ac"/><use xlink:href="#b" transform="matrix(1,0,0,1,405,725) translate(41.552734375 42.502170138888886)"/><path d="M460 800h160v80H460z" stroke="#000" stroke-opacity="0" stroke-width="2" fill="#fff" fill-opacity="0"/><use xlink:href="#c" transform="matrix(1,0,0,1,465,805) translate(34.86328125 42.502170138888886)"/><path d="M580 1000h160v80H580z" stroke="#000" stroke-opacity="0" stroke-width="2" fill="#fff" fill-opacity="0"/><use xlink:href="#d" transform="matrix(1,0,0,1,585,1005) translate(28.173828125 42.502170138888886)"/><defs><path d="M702-135c94 0 156-21 209-64v-401H694v-166h410v643C1006-32 878 29 702 29c-412 0-600-330-600-774 0-244 53-435 160-571s255-204 445-204c145 0 251 43 346 107v207c-93-87-189-150-346-150-131 0-229 50-295 152s-99 255-99 459c0 207 31 361 95 461s162 149 294 149" id="e"/><path d="M934-430c0-206-112-282-326-283H369v547h239c220-2 326-58 326-264zm-53-684c0-168-96-213-277-213H369v450h235c186-1 277-59 277-237zm256 704C1133-113 928 1 608 0H166v-1493h442c280-3 477 118 477 379 0 189-93 290-262 315 190 26 317 174 314 389" id="f"/><path d="M137-1493h203v664l631-664h237L627-883 1225 0H981L494-748 340-584V0H137v-1493" id="g"/><g id="a"><use transform="matrix(0.010850694444444444,0,0,0.010850694444444444,0,0)" xlink:href="#e"/><use transform="matrix(0.010850694444444444,0,0,0.010850694444444444,13.37890625,0)" xlink:href="#f"/><use transform="matrix(0.010850694444444444,0,0,0.010850694444444444,26.7578125,0)" xlink:href="#g"/></g><path d="M616-1315L403-551h426zm-122-178h245L1196 0H987L877-389H354L246 0H37" id="h"/><path d="M631-1520c144 2 262 34 381 78v205c-106-67-218-116-371-119-174-3-308 84-309 246 0 66 20 114 54 151 44 48 204 86 310 111 250 58 402 161 402 440 0 301-201 439-516 437-164-1-298-37-424-90v-215c130 81 244 137 424 141 187 4 323-84 323-260 0-181-93-224-262-262-271-61-502-123-504-422-2-273 211-447 492-441" id="i"/><path d="M743-135c139 0 246-55 330-125v207C978-3 879 29 743 29c-415 0-604-328-604-774 0-244 53-435 159-571s255-204 445-204c135 1 236 32 330 82v207c-84-70-192-125-330-125-131 0-224 54-295 152-125 174-126 743 0 917 71 98 164 152 295 152" id="j"/><path d="M201-1493h829v170H717v1153h313V0H201v-170h313v-1153H201v-170" id="k"/><g id="b"><use transform="matrix(0.010850694444444444,0,0,0.010850694444444444,0,0)" xlink:href="#h"/><use transform="matrix(0.010850694444444444,0,0,0.010850694444444444,13.37890625,0)" xlink:href="#i"/><use transform="matrix(0.010850694444444444,0,0,0.010850694444444444,26.7578125,0)" xlink:href="#j"/><use transform="matrix(0.010850694444444444,0,0,0.010850694444444444,40.13671875,0)" xlink:href="#k"/><use transform="matrix(0.010850694444444444,0,0,0.010850694444444444,53.515625,0)" xlink:href="#k"/></g><path d="M563-1520c272-5 493 161 486 422-5 184-82 278-189 404-156 183-266 291-487 524h686V0H152v-170c181-191 381-399 520-561 68-80 112-147 135-197s35-102 35-155c2-166-108-271-275-267-164 4-280 61-403 133v-204c119-56 242-96 399-99" id="l"/><path d="M1044-1120c-1 183-111 281-268 321 181 46 302 172 303 387 1 289-218 445-522 441-155-2-297-31-420-74v-201c118 61 239 103 398 105 208 2 343-93 344-291 1-181-141-287-330-283H395v-166h154c169 2 295-74 295-231 0-161-111-239-279-238-146 2-264 35-383 80v-186c132-34 244-61 383-64 268-6 481 146 479 400" id="m"/><path d="M270-170h314v-1141l-338 76v-184l336-74h202v1323h310V0H270v-170" id="n"/><g id="c"><use transform="matrix(0.010850694444444444,0,0,0.010850694444444444,0,0)" xlink:href="#e"/><use transform="matrix(0.010850694444444444,0,0,0.010850694444444444,13.37890625,0)" xlink:href="#f"/><use transform="matrix(0.010850694444444444,0,0,0.010850694444444444,26.7578125,0)" xlink:href="#l"/><use transform="matrix(0.010850694444444444,0,0,0.010850694444444444,40.13671875,0)" xlink:href="#m"/><use transform="matrix(0.010850694444444444,0,0,0.010850694444444444,53.515625,0)" xlink:href="#n"/><use transform="matrix(0.010850694444444444,0,0,0.010850694444444444,66.89453125,0)" xlink:href="#l"/></g><path d="M899-420c0-180-104-289-283-289-180 0-282 108-282 289 0 180 104 291 282 291 182 0 283-107 283-291zm-768 21c0-223 119-354 309-394-157-38-273-156-274-340-1-248 191-387 450-387 260 0 452 139 451 387-1 184-118 303-274 340 189 40 308 170 309 392 1 278-198 430-486 430S130-121 131-399zm485-965c-161 0-249 90-249 250s89 246 249 246c161 0 251-86 250-246 0-163-87-250-250-250" id="o"/><path d="M614-616c-74 0-131-59-131-134 0-70 61-135 131-135 72 0 136 64 136 135 0 73-63 134-136 134zm2-744c-94 0-159 53-210 152-88 171-88 754 0 925 51 99 116 152 210 152 95 0 161-53 212-152 88-172 88-754 0-925-51-99-117-152-212-152zm0-160c159 0 280 65 362 196s122 324 122 579-40 447-122 578S775 29 616 29 336-36 255-167 133-490 133-745s41-448 122-579 202-196 361-196" id="p"/><g id="d"><use transform="matrix(0.010850694444444444,0,0,0.010850694444444444,0,0)" xlink:href="#e"/><use transform="matrix(0.010850694444444444,0,0,0.010850694444444444,13.37890625,0)" xlink:href="#f"/><use transform="matrix(0.010850694444444444,0,0,0.010850694444444444,26.7578125,0)" xlink:href="#n"/><use transform="matrix(0.010850694444444444,0,0,0.010850694444444444,40.13671875,0)" xlink:href="#o"/><use transform="matrix(0.010850694444444444,0,0,0.010850694444444444,53.515625,0)" xlink:href="#p"/><use transform="matrix(0.010850694444444444,0,0,0.010850694444444444,66.89453125,0)" xlink:href="#m"/><use transform="matrix(0.010850694444444444,0,0,0.010850694444444444,80.2734375,0)" xlink:href="#p"/></g></defs></g></svg>