<svg xmlns="http://www.w3.org/2000/svg" xmlns:xlink="http://www.w3.org/1999/xlink" xmlns:lucid="lucid" width="360" height="200"><g transform="translate(-220 -220)" lucid:page-tab-id="0_0"><path d="M560 320c0 44.18-71.63 80-160 80s-160-35.82-160-80 71.63-80 160-80 160 35.82 160 80z" stroke="#000" stroke-width="2" fill="#c1e4f7"/><path d="M440 300c0 22.1-35.82 40-80 40s-80-17.9-80-40 35.82-40 80-40 80 17.9 80 40z" stroke="#000" stroke-width="2" fill="#c7e8ac"/><use xlink:href="#a" transform="matrix(1,0,0,1,285,265) translate(48.7421875 40.564236111111114)"/><path d="M360 320h160v80H360z" stroke="#000" stroke-opacity="0" stroke-width="2" fill="#fff" fill-opacity="0"/><use xlink:href="#b" transform="matrix(1,0,0,1,365,325) translate(34.86328125 42.502170138888886)"/><defs><path d="M616-1315L403-551h426zm-122-178h245L1196 0H987L877-389H354L246 0H37" id="c"/><path d="M631-1520c144 2 262 34 381 78v205c-106-67-218-116-371-119-174-3-308 84-309 246 0 66 20 114 54 151 44 48 204 86 310 111 250 58 402 161 402 440 0 301-201 439-516 437-164-1-298-37-424-90v-215c130 81 244 137 424 141 187 4 323-84 323-260 0-181-93-224-262-262-271-61-502-123-504-422-2-273 211-447 492-441" id="d"/><path d="M743-135c139 0 246-55 330-125v207C978-3 879 29 743 29c-415 0-604-328-604-774 0-244 53-435 159-571s255-204 445-204c135 1 236 32 330 82v207c-84-70-192-125-330-125-131 0-224 54-295 152-125 174-126 743 0 917 71 98 164 152 295 152" id="e"/><path d="M201-1493h829v170H717v1153h313V0H201v-170h313v-1153H201v-170" id="f"/><g id="a"><use transform="matrix(0.008680555555555556,0,0,0.008680555555555556,0,0)" xlink:href="#c"/><use transform="matrix(0.008680555555555556,0,0,0.008680555555555556,10.703125,0)" xlink:href="#d"/><use transform="matrix(0.008680555555555556,0,0,0.008680555555555556,21.40625,0)" xlink:href="#e"/><use transform="matrix(0.008680555555555556,0,0,0.008680555555555556,32.109375,0)" xlink:href="#f"/><use transform="matrix(0.008680555555555556,0,0,0.008680555555555556,42.8125,0)" xlink:href="#f"/></g><path d="M801 0C570 0 455-164 455-406v-1017H160v-144h479v1161c0 147 46 250 180 250h215V0H801" id="g"/><path d="M547-125c229-2 340-186 327-438H641c-189 0-321 55-324 225-3 137 91 215 230 213zm-332-944c167-71 431-115 615-37 106 45 186 120 213 246 11 49 16 123 16 221V0H874v-166C800-42 695 26 508 29c-220 3-378-138-375-355 4-274 199-382 494-381h247c6-204-80-285-282-284-149 1-272 46-377 106v-184" id="h"/><path d="M807 0C529-4 430-92 430-369v-608H131v-143h299v-318h184v318h418v143H614v608c2 165 49 222 211 222h207V0H807" id="i"/><path d="M256-1120h471v977h365V0H178v-143h365v-834H256v-143zm287-436h184v233H543v-233" id="j"/><path d="M711-1147c253 0 340 178 340 453V0H866v-694c-1-183-51-293-219-293-189 0-268 148-268 354V0H195v-1120h184v168c60-118 165-195 332-195" id="k"/><path d="M270-170h314v-1141l-338 76v-184l336-74h202v1323h310V0H270v-170" id="l"/><g id="b"><use transform="matrix(0.010850694444444444,0,0,0.010850694444444444,0,0)" xlink:href="#g"/><use transform="matrix(0.010850694444444444,0,0,0.010850694444444444,13.37890625,0)" xlink:href="#h"/><use transform="matrix(0.010850694444444444,0,0,0.010850694444444444,26.7578125,0)" xlink:href="#i"/><use transform="matrix(0.010850694444444444,0,0,0.010850694444444444,40.13671875,0)" xlink:href="#j"/><use transform="matrix(0.010850694444444444,0,0,0.010850694444444444,53.515625,0)" xlink:href="#k"/><use transform="matrix(0.010850694444444444,0,0,0.010850694444444444,66.89453125,0)" xlink:href="#l"/></g></defs></g></svg>