<svg xmlns="http://www.w3.org/2000/svg" xmlns:xlink="http://www.w3.org/1999/xlink" xmlns:lucid="lucid" width="760" height="160"><g transform="translate(-140 -300)" lucid:page-tab-id="0_0"><path d="M160 320h80v40h-80z" stroke="#000" stroke-width="2" fill="#c1e4f7"/><use xlink:href="#a" transform="matrix(1,0,0,1,165,325) translate(-2.460937500000007 20.38519965277778)"/><path d="M240 320h80v40h-80z" stroke="#000" stroke-width="2" fill="#c1e4f7"/><use xlink:href="#b" transform="matrix(1,0,0,1,245,325) translate(-2.460937500000007 20.38519965277778)"/><path d="M320 320h80v40h-80z" stroke="#000" stroke-width="2" fill="#c1e4f7"/><use xlink:href="#c" transform="matrix(1,0,0,1,325,325) translate(-2.460937500000007 20.38519965277778)"/><path d="M400 320h80v40h-80z" stroke="#000" stroke-width="2" fill="#c1e4f7"/><use xlink:href="#c" transform="matrix(1,0,0,1,405,325) translate(-2.460937500000007 20.38519965277778)"/><path d="M480 320h80v40h-80z" stroke="#000" stroke-width="2" fill="#c1e4f7"/><use xlink:href="#d" transform="matrix(1,0,0,1,485,325) translate(-2.460937500000007 20.38519965277778)"/><path d="M560 320h80v40h-80z" stroke="#000" stroke-width="2" fill="#3aa6dd"/><use xlink:href="#e" transform="matrix(1,0,0,1,565,325) translate(-2.460937500000007 20.38519965277778)"/><path d="M640 320h80v40h-80z" stroke="#000" stroke-width="2" fill="#3aa6dd"/><use xlink:href="#f" transform="matrix(1,0,0,1,645,325) translate(-2.460937500000007 20.38519965277778)"/><path d="M720 320h80v40h-80z" stroke="#000" stroke-width="2" fill="#3aa6dd"/><use xlink:href="#g" transform="matrix(1,0,0,1,725,325) translate(-2.460937500000007 20.38519965277778)"/><path d="M800 320h80v40h-80z" stroke="#000" stroke-width="2" fill="#3aa6dd"/><use xlink:href="#h" transform="matrix(1,0,0,1,805,325) translate(-2.460937500000007 20.38519965277778)"/><path d="M180 360h40v40h-40z" stroke="#000" stroke-opacity="0" stroke-width="2" fill="#fff" fill-opacity="0"/><use xlink:href="#i" transform="matrix(1,0,0,1,185,365) translate(8.310546875 22.50217013888889)"/><path d="M260 360h40v40h-40z" stroke="#000" stroke-opacity="0" stroke-width="2" fill="#fff" fill-opacity="0"/><use xlink:href="#j" transform="matrix(1,0,0,1,265,365) translate(8.310546875 22.50217013888889)"/><path d="M340 360h40v40h-40z" stroke="#000" stroke-opacity="0" stroke-width="2" fill="#fff" fill-opacity="0"/><use xlink:href="#k" transform="matrix(1,0,0,1,345,365) translate(8.310546875 22.50217013888889)"/><path d="M420 360h40v40h-40z" stroke="#000" stroke-opacity="0" stroke-width="2" fill="#fff" fill-opacity="0"/><use xlink:href="#k" transform="matrix(1,0,0,1,425,365) translate(8.310546875 22.50217013888889)"/><path d="M500 360h40v40h-40z" stroke="#000" stroke-opacity="0" stroke-width="2" fill="#fff" fill-opacity="0"/><use xlink:href="#l" transform="matrix(1,0,0,1,505,365) translate(8.310546875 22.50217013888889)"/><path d="M620 400h40v40h-40z" stroke="#000" stroke-opacity="0" stroke-width="2" fill="#fff" fill-opacity="0"/><use xlink:href="#m" transform="matrix(1,0,0,1,625,405) translate(4.066666666666666 23.333333333333332)"/><path d="M780 400h40v40h-40z" stroke="#000" stroke-opacity="0" stroke-width="2" fill="#fff" fill-opacity="0"/><use xlink:href="#n" transform="matrix(1,0,0,1,785,405) translate(4.066666666666666 23.333333333333332)"/><g fill="none"><path d="M720 369.33V400H560v-30.67z"/><path d="M560 369.33c0 5.53 4.48 10 10 10h60c5.52 0 10 4.48 10 10 0-5.52 4.48-10 10-10h60c5.52 0 10-4.47 10-10" stroke="#000" stroke-width="2"/></g><g fill="none"><path d="M880 369.33V400H720v-30.67z"/><path d="M720 369.33c0 5.53 4.48 10 10 10h60c5.52 0 10 4.48 10 10 0-5.52 4.48-10 10-10h60c5.52 0 10-4.47 10-10" stroke="#000" stroke-width="2"/></g><defs><path d="M614-616c-74 0-131-59-131-134 0-70 61-135 131-135 72 0 136 64 136 135 0 73-63 134-136 134zm2-744c-94 0-159 53-210 152-88 171-88 754 0 925 51 99 116 152 210 152 95 0 161-53 212-152 88-172 88-754 0-925-51-99-117-152-212-152zm0-160c159 0 280 65 362 196s122 324 122 579-40 447-122 578S775 29 616 29 336-36 255-167 133-490 133-745s41-448 122-579 202-196 361-196" id="o"/><path d="M270-170h314v-1141l-338 76v-184l336-74h202v1323h310V0H270v-170" id="p"/><g id="a"><use transform="matrix(0.007595486111111112,0,0,0.007595486111111112,0,0)" xlink:href="#o"/><use transform="matrix(0.007595486111111112,0,0,0.007595486111111112,9.365234375000002,0)" xlink:href="#p"/><use transform="matrix(0.007595486111111112,0,0,0.007595486111111112,18.730468750000004,0)" xlink:href="#o"/><use transform="matrix(0.007595486111111112,0,0,0.007595486111111112,28.095703125000007,0)" xlink:href="#o"/><use transform="matrix(0.007595486111111112,0,0,0.007595486111111112,37.46093750000001,0)" xlink:href="#p"/><use transform="matrix(0.007595486111111112,0,0,0.007595486111111112,46.82617187500001,0)" xlink:href="#o"/><use transform="matrix(0.007595486111111112,0,0,0.007595486111111112,56.19140625000001,0)" xlink:href="#o"/><use transform="matrix(0.007595486111111112,0,0,0.007595486111111112,65.55664062500001,0)" xlink:href="#o"/></g><g id="b"><use transform="matrix(0.007595486111111112,0,0,0.007595486111111112,0,0)" xlink:href="#o"/><use transform="matrix(0.007595486111111112,0,0,0.007595486111111112,9.365234375000002,0)" xlink:href="#p"/><use transform="matrix(0.007595486111111112,0,0,0.007595486111111112,18.730468750000004,0)" xlink:href="#p"/><use transform="matrix(0.007595486111111112,0,0,0.007595486111111112,28.095703125000007,0)" xlink:href="#o"/><use transform="matrix(0.007595486111111112,0,0,0.007595486111111112,37.46093750000001,0)" xlink:href="#o"/><use transform="matrix(0.007595486111111112,0,0,0.007595486111111112,46.82617187500001,0)" xlink:href="#p"/><use transform="matrix(0.007595486111111112,0,0,0.007595486111111112,56.19140625000001,0)" xlink:href="#o"/><use transform="matrix(0.007595486111111112,0,0,0.007595486111111112,65.55664062500001,0)" xlink:href="#p"/></g><g id="c"><use transform="matrix(0.007595486111111112,0,0,0.007595486111111112,0,0)" xlink:href="#o"/><use transform="matrix(0.007595486111111112,0,0,0.007595486111111112,9.365234375000002,0)" xlink:href="#p"/><use transform="matrix(0.007595486111111112,0,0,0.007595486111111112,18.730468750000004,0)" xlink:href="#p"/><use transform="matrix(0.007595486111111112,0,0,0.007595486111111112,28.095703125000007,0)" xlink:href="#o"/><use transform="matrix(0.007595486111111112,0,0,0.007595486111111112,37.46093750000001,0)" xlink:href="#p"/><use transform="matrix(0.007595486111111112,0,0,0.007595486111111112,46.82617187500001,0)" xlink:href="#p"/><use transform="matrix(0.007595486111111112,0,0,0.007595486111111112,56.19140625000001,0)" xlink:href="#o"/><use transform="matrix(0.007595486111111112,0,0,0.007595486111111112,65.55664062500001,0)" xlink:href="#o"/></g><g id="d"><use transform="matrix(0.007595486111111112,0,0,0.007595486111111112,0,0)" xlink:href="#o"/><use transform="matrix(0.007595486111111112,0,0,0.007595486111111112,9.365234375000002,0)" xlink:href="#p"/><use transform="matrix(0.007595486111111112,0,0,0.007595486111111112,18.730468750000004,0)" xlink:href="#p"/><use transform="matrix(0.007595486111111112,0,0,0.007595486111111112,28.095703125000007,0)" xlink:href="#o"/><use transform="matrix(0.007595486111111112,0,0,0.007595486111111112,37.46093750000001,0)" xlink:href="#p"/><use transform="matrix(0.007595486111111112,0,0,0.007595486111111112,46.82617187500001,0)" xlink:href="#p"/><use transform="matrix(0.007595486111111112,0,0,0.007595486111111112,56.19140625000001,0)" xlink:href="#p"/><use transform="matrix(0.007595486111111112,0,0,0.007595486111111112,65.55664062500001,0)" xlink:href="#p"/></g><g id="e"><use transform="matrix(0.007595486111111112,0,0,0.007595486111111112,0,0)" xlink:href="#p"/><use transform="matrix(0.007595486111111112,0,0,0.007595486111111112,9.365234375000002,0)" xlink:href="#p"/><use transform="matrix(0.007595486111111112,0,0,0.007595486111111112,18.730468750000004,0)" xlink:href="#o"/><use transform="matrix(0.007595486111111112,0,0,0.007595486111111112,28.095703125000007,0)" xlink:href="#p"/><use transform="matrix(0.007595486111111112,0,0,0.007595486111111112,37.46093750000001,0)" xlink:href="#o"/><use transform="matrix(0.007595486111111112,0,0,0.007595486111111112,46.82617187500001,0)" xlink:href="#p"/><use transform="matrix(0.007595486111111112,0,0,0.007595486111111112,56.19140625000001,0)" xlink:href="#p"/><use transform="matrix(0.007595486111111112,0,0,0.007595486111111112,65.55664062500001,0)" xlink:href="#o"/></g><g id="f"><use transform="matrix(0.007595486111111112,0,0,0.007595486111111112,0,0)" xlink:href="#p"/><use transform="matrix(0.007595486111111112,0,0,0.007595486111111112,9.365234375000002,0)" xlink:href="#p"/><use transform="matrix(0.007595486111111112,0,0,0.007595486111111112,18.730468750000004,0)" xlink:href="#o"/><use transform="matrix(0.007595486111111112,0,0,0.007595486111111112,28.095703125000007,0)" xlink:href="#p"/><use transform="matrix(0.007595486111111112,0,0,0.007595486111111112,37.46093750000001,0)" xlink:href="#o"/><use transform="matrix(0.007595486111111112,0,0,0.007595486111111112,46.82617187500001,0)" xlink:href="#o"/><use transform="matrix(0.007595486111111112,0,0,0.007595486111111112,56.19140625000001,0)" xlink:href="#o"/><use transform="matrix(0.007595486111111112,0,0,0.007595486111111112,65.55664062500001,0)" xlink:href="#o"/></g><g id="g"><use transform="matrix(0.007595486111111112,0,0,0.007595486111111112,0,0)" xlink:href="#p"/><use transform="matrix(0.007595486111111112,0,0,0.007595486111111112,9.365234375000002,0)" xlink:href="#o"/><use transform="matrix(0.007595486111111112,0,0,0.007595486111111112,18.730468750000004,0)" xlink:href="#p"/><use transform="matrix(0.007595486111111112,0,0,0.007595486111111112,28.095703125000007,0)" xlink:href="#p"/><use transform="matrix(0.007595486111111112,0,0,0.007595486111111112,37.46093750000001,0)" xlink:href="#p"/><use transform="matrix(0.007595486111111112,0,0,0.007595486111111112,46.82617187500001,0)" xlink:href="#o"/><use transform="matrix(0.007595486111111112,0,0,0.007595486111111112,56.19140625000001,0)" xlink:href="#o"/><use transform="matrix(0.007595486111111112,0,0,0.007595486111111112,65.55664062500001,0)" xlink:href="#p"/></g><g id="h"><use transform="matrix(0.007595486111111112,0,0,0.007595486111111112,0,0)" xlink:href="#p"/><use transform="matrix(0.007595486111111112,0,0,0.007595486111111112,9.365234375000002,0)" xlink:href="#p"/><use transform="matrix(0.007595486111111112,0,0,0.007595486111111112,18.730468750000004,0)" xlink:href="#p"/><use transform="matrix(0.007595486111111112,0,0,0.007595486111111112,28.095703125000007,0)" xlink:href="#p"/><use transform="matrix(0.007595486111111112,0,0,0.007595486111111112,37.46093750000001,0)" xlink:href="#p"/><use transform="matrix(0.007595486111111112,0,0,0.007595486111111112,46.82617187500001,0)" xlink:href="#o"/><use transform="matrix(0.007595486111111112,0,0,0.007595486111111112,56.19140625000001,0)" xlink:href="#p"/><use transform="matrix(0.007595486111111112,0,0,0.007595486111111112,65.55664062500001,0)" xlink:href="#o"/></g><path d="M137-1493h203v612h553v-612h203V0H893v-711H340V0H137v-1493" id="q"/><use transform="matrix(0.010850694444444444,0,0,0.010850694444444444,0,0)" xlink:href="#q" id="i"/><path d="M651-1147c298 0 466 229 461 541v90H315c-4 242 129 392 365 389 156-2 268-51 389-113v183C949-8 828 27 678 29c-351 3-555-232-555-588 0-338 200-588 528-588zm277 487c-4-201-91-331-285-331-193 0-305 144-321 332" id="r"/><use transform="matrix(0.010850694444444444,0,0,0.010850694444444444,0,0)" xlink:href="#r" id="j"/><path d="M801 0C570 0 455-164 455-406v-1017H160v-144h479v1161c0 147 46 250 180 250h215V0H801" id="s"/><use transform="matrix(0.010850694444444444,0,0,0.010850694444444444,0,0)" xlink:href="#s" id="k"/><path d="M616-991c-93 0-161 39-212 109-92 126-92 520 0 646 52 70 119 109 212 109 94 0 161-39 213-109 93-126 92-520 0-646-52-70-119-109-213-109zM137-559c0-353 146-588 479-588s480 235 480 588c0 355-145 588-480 588-334 0-479-234-479-588" id="t"/><use transform="matrix(0.010850694444444444,0,0,0.010850694444444444,0,0)" xlink:href="#t" id="l"/><path d="M866-194H530v294h-80v-294H117v-423h333v-194l80 4v190h336v423zm-416-74v-275H195v275h255zm339-275H530v275h259v-275" id="u"/><use transform="matrix(0.022222222222222223,0,0,0.022222222222222223,0,0)" xlink:href="#u" id="m"/><path d="M182 44v56h-74v-857h770v857h-74V44H182zm0-69h622v-665H182v665zm269-149v-173H260v-64h191v-124H243v-64h497v64H524v124h202v64H524v173h233v65H226v-65h225zm210-11c-23-44-51-88-80-123l49-31c26 30 61 79 81 117" id="v"/><use transform="matrix(0.022222222222222223,0,0,0.022222222222222223,0,0)" xlink:href="#v" id="n"/></defs></g></svg>