<svg xmlns="http://www.w3.org/2000/svg" xmlns:xlink="http://www.w3.org/1999/xlink" xmlns:lucid="lucid" width="1000" height="460"><g transform="translate(-140 -140)" lucid:page-tab-id="0_0"><path d="M160 160h40v40h-40z" stroke="#000" stroke-width="2" fill="#c7e8ac"/><use xlink:href="#a" transform="matrix(1,0,0,1,165,165) translate(8.310546875 22.50217013888889)"/><path d="M200 160h40v40h-40z" stroke="#000" stroke-width="2" fill="#c7e8ac"/><use xlink:href="#b" transform="matrix(1,0,0,1,205,165) translate(6.97265625 19.876302083333336)"/><path d="M240 160h40v40h-40z" stroke="#000" stroke-width="2" fill="#c7e8ac"/><use xlink:href="#c" transform="matrix(1,0,0,1,245,165) translate(6.97265625 19.876302083333336)"/><path d="M280 160h40v40h-40z" stroke="#000" stroke-width="2" fill="#c7e8ac"/><use xlink:href="#d" transform="matrix(1,0,0,1,285,165) translate(6.97265625 19.876302083333336)"/><path d="M320 160h40v40h-40z" stroke="#000" stroke-width="2" fill="#c7e8ac"/><use xlink:href="#e" transform="matrix(1,0,0,1,325,165) translate(6.97265625 19.876302083333336)"/><path d="M360 160h40v40h-40z" stroke="#000" stroke-width="2" fill="#c7e8ac"/><use xlink:href="#f" transform="matrix(1,0,0,1,365,165) translate(6.97265625 19.876302083333336)"/><path d="M400 160h40v40h-40z" stroke="#000" stroke-width="2" fill="#c7e8ac"/><use xlink:href="#g" transform="matrix(1,0,0,1,405,165) translate(6.97265625 19.876302083333336)"/><path d="M440 160h40v40h-40z" stroke="#000" stroke-width="2" fill="#c7e8ac"/><use xlink:href="#h" transform="matrix(1,0,0,1,445,165) translate(6.97265625 19.876302083333336)"/><path d="M160 320h40v40h-40z" stroke="#000" stroke-width="2" fill="#ffeca9"/><use xlink:href="#i" transform="matrix(1,0,0,1,165,325) translate(8.310546875 22.50217013888889)"/><path d="M200 320h40v40h-40z" stroke="#000" stroke-width="2" fill="#ffeca9"/><use xlink:href="#i" transform="matrix(1,0,0,1,205,325) translate(8.310546875 22.50217013888889)"/><path d="M240 320h40v40h-40z" stroke="#000" stroke-width="2" fill="#ffeca9"/><use xlink:href="#a" transform="matrix(1,0,0,1,245,325) translate(8.310546875 22.50217013888889)"/><path d="M280 320h40v40h-40z" stroke="#000" stroke-width="2" fill="#ffeca9"/><use xlink:href="#j" transform="matrix(1,0,0,1,285,325) translate(2.958984375 19.876302083333336)"/><path d="M320 320h40v40h-40z" stroke="#000" stroke-width="2" fill="#ffeca9"/><use xlink:href="#k" transform="matrix(1,0,0,1,325,325) translate(2.958984375 19.876302083333336)"/><path d="M360 320h40v40h-40z" stroke="#000" stroke-width="2" fill="#ffeca9"/><use xlink:href="#l" transform="matrix(1,0,0,1,365,325) translate(6.97265625 19.876302083333336)"/><path d="M400 320h40v40h-40z" stroke="#000" stroke-width="2" fill="#ffeca9"/><use xlink:href="#m" transform="matrix(1,0,0,1,405,325) translate(6.97265625 19.876302083333336)"/><path d="M440 320h40v40h-40z" stroke="#000" stroke-width="2" fill="#ffeca9"/><use xlink:href="#b" transform="matrix(1,0,0,1,445,325) translate(6.97265625 19.876302083333336)"/><path d="M480 320h40v40h-40z" stroke="#000" stroke-width="2" fill="#ffdf71"/><use xlink:href="#i" transform="matrix(1,0,0,1,485,325) translate(8.310546875 22.50217013888889)"/><path d="M520 320h40v40h-40z" stroke="#000" stroke-width="2" fill="#ffdf71"/><use xlink:href="#a" transform="matrix(1,0,0,1,525,325) translate(8.310546875 22.50217013888889)"/><path d="M560 320h40v40h-40z" stroke="#000" stroke-width="2" fill="#ffdf71"/><use xlink:href="#c" transform="matrix(1,0,0,1,565,325) translate(6.97265625 19.876302083333336)"/><path d="M600 320h40v40h-40z" stroke="#000" stroke-width="2" fill="#ffdf71"/><use xlink:href="#d" transform="matrix(1,0,0,1,605,325) translate(6.97265625 19.876302083333336)"/><path d="M640 320h40v40h-40z" stroke="#000" stroke-width="2" fill="#ffdf71"/><use xlink:href="#e" transform="matrix(1,0,0,1,645,325) translate(6.97265625 19.876302083333336)"/><path d="M680 320h40v40h-40z" stroke="#000" stroke-width="2" fill="#ffdf71"/><use xlink:href="#f" transform="matrix(1,0,0,1,685,325) translate(6.97265625 19.876302083333336)"/><path d="M720 320h40v40h-40z" stroke="#000" stroke-width="2" fill="#ffdf71"/><use xlink:href="#g" transform="matrix(1,0,0,1,725,325) translate(6.97265625 19.876302083333336)"/><path d="M760 320h40v40h-40z" stroke="#000" stroke-width="2" fill="#ffdf71"/><use xlink:href="#h" transform="matrix(1,0,0,1,765,325) translate(6.97265625 19.876302083333336)"/><path d="M160 480h40v40h-40z" stroke="#000" stroke-width="2" fill="#c1e4f7"/><use xlink:href="#i" transform="matrix(1,0,0,1,165,485) translate(8.310546875 22.50217013888889)"/><path d="M200 480h40v40h-40z" stroke="#000" stroke-width="2" fill="#c1e4f7"/><use xlink:href="#i" transform="matrix(1,0,0,1,205,485) translate(8.310546875 22.50217013888889)"/><path d="M240 480h40v40h-40z" stroke="#000" stroke-width="2" fill="#c1e4f7"/><use xlink:href="#i" transform="matrix(1,0,0,1,245,485) translate(8.310546875 22.50217013888889)"/><path d="M280 480h40v40h-40z" stroke="#000" stroke-width="2" fill="#c1e4f7"/><use xlink:href="#a" transform="matrix(1,0,0,1,285,485) translate(8.310546875 22.50217013888889)"/><path d="M320 480h40v40h-40z" stroke="#000" stroke-width="2" fill="#c1e4f7"/><use xlink:href="#n" transform="matrix(1,0,0,1,325,485) translate(2.958984375 19.876302083333336)"/><path d="M360 480h40v40h-40z" stroke="#000" stroke-width="2" fill="#c1e4f7"/><use xlink:href="#o" transform="matrix(1,0,0,1,365,485) translate(2.958984375 19.876302083333336)"/><path d="M400 480h40v40h-40z" stroke="#000" stroke-width="2" fill="#c1e4f7"/><use xlink:href="#p" transform="matrix(1,0,0,1,405,485) translate(2.958984375 19.876302083333336)"/><path d="M440 480h40v40h-40z" stroke="#000" stroke-width="2" fill="#c1e4f7"/><use xlink:href="#q" transform="matrix(1,0,0,1,445,485) translate(2.958984375 19.876302083333336)"/><path d="M480 480h40v40h-40z" stroke="#000" stroke-width="2" fill="#99d2f2"/><use xlink:href="#i" transform="matrix(1,0,0,1,485,485) translate(8.310546875 22.50217013888889)"/><path d="M520 480h40v40h-40z" stroke="#000" stroke-width="2" fill="#99d2f2"/><use xlink:href="#a" transform="matrix(1,0,0,1,525,485) translate(8.310546875 22.50217013888889)"/><path d="M800 480h40v40h-40z" stroke="#000" stroke-width="2" fill="#3aa6dd"/><use xlink:href="#i" transform="matrix(1,0,0,1,805,485) translate(8.310546875 22.50217013888889)"/><path d="M840 480h40v40h-40z" stroke="#000" stroke-width="2" fill="#3aa6dd"/><use xlink:href="#a" transform="matrix(1,0,0,1,845,485) translate(8.310546875 22.50217013888889)"/><path d="M880 480h40v40h-40z" stroke="#000" stroke-width="2" fill="#3aa6dd"/><use xlink:href="#c" transform="matrix(1,0,0,1,885,485) translate(6.97265625 19.876302083333336)"/><path d="M920 480h40v40h-40z" stroke="#000" stroke-width="2" fill="#3aa6dd"/><use xlink:href="#d" transform="matrix(1,0,0,1,925,485) translate(6.97265625 19.876302083333336)"/><path d="M960 480h40v40h-40z" stroke="#000" stroke-width="2" fill="#3aa6dd"/><use xlink:href="#e" transform="matrix(1,0,0,1,965,485) translate(6.97265625 19.876302083333336)"/><path d="M1000 480h40v40h-40z" stroke="#000" stroke-width="2" fill="#3aa6dd"/><use xlink:href="#f" transform="matrix(1,0,0,1,1005,485) translate(6.97265625 19.876302083333336)"/><path d="M1040 480h40v40h-40z" stroke="#000" stroke-width="2" fill="#3aa6dd"/><use xlink:href="#g" transform="matrix(1,0,0,1,1045,485) translate(6.97265625 19.876302083333336)"/><path d="M1080 480h40v40h-40z" stroke="#000" stroke-width="2" fill="#3aa6dd"/><use xlink:href="#h" transform="matrix(1,0,0,1,1085,485) translate(6.97265625 19.876302083333336)"/><path d="M600 480h40v40h-40z" stroke="#000" stroke-width="2" fill="#99d2f2"/><use xlink:href="#j" transform="matrix(1,0,0,1,605,485) translate(2.958984375 19.876302083333336)"/><path d="M640 480h40v40h-40z" stroke="#000" stroke-width="2" fill="#99d2f2"/><use xlink:href="#k" transform="matrix(1,0,0,1,645,485) translate(2.958984375 19.876302083333336)"/><path d="M680 480h40v40h-40z" stroke="#000" stroke-width="2" fill="#99d2f2"/><use xlink:href="#l" transform="matrix(1,0,0,1,685,485) translate(6.97265625 19.876302083333336)"/><path d="M720 480h40v40h-40z" stroke="#000" stroke-width="2" fill="#99d2f2"/><use xlink:href="#m" transform="matrix(1,0,0,1,725,485) translate(6.97265625 19.876302083333336)"/><path d="M760 480h40v40h-40z" stroke="#000" stroke-width="2" fill="#99d2f2"/><use xlink:href="#b" transform="matrix(1,0,0,1,765,485) translate(6.97265625 19.876302083333336)"/><path d="M560 480h40v40h-40z" stroke="#000" stroke-width="2" fill="#99d2f2"/><use xlink:href="#r" transform="matrix(1,0,0,1,565,485) translate(2.958984375 19.876302083333336)"/><path d="M160 200h120v60H160z" stroke="#000" stroke-opacity="0" stroke-width="2" fill="#fff" fill-opacity="0"/><use xlink:href="#s" transform="matrix(1,0,0,1,165,205) translate(9.079999999999998 35.79166666666667)"/><use xlink:href="#t" transform="matrix(1,0,0,1,165,205) translate(39.693333333333335 35.79166666666667)"/><use xlink:href="#u" transform="matrix(1,0,0,1,165,205) translate(70.30666666666667 35.79166666666667)"/><path d="M160 360h120v60H160z" stroke="#000" stroke-opacity="0" stroke-width="2" fill="#fff" fill-opacity="0"/><use xlink:href="#v" transform="matrix(1,0,0,1,165,365) translate(9.079999999999998 35.79166666666667)"/><use xlink:href="#t" transform="matrix(1,0,0,1,165,365) translate(39.693333333333335 35.79166666666667)"/><use xlink:href="#u" transform="matrix(1,0,0,1,165,365) translate(70.30666666666667 35.79166666666667)"/><path d="M160 520h120v60H160z" stroke="#000" stroke-opacity="0" stroke-width="2" fill="#fff" fill-opacity="0"/><use xlink:href="#w" transform="matrix(1,0,0,1,165,525) translate(9.079999999999998 35.79166666666667)"/><use xlink:href="#t" transform="matrix(1,0,0,1,165,525) translate(39.693333333333335 35.79166666666667)"/><use xlink:href="#u" transform="matrix(1,0,0,1,165,525) translate(70.30666666666667 35.79166666666667)"/><path d="M280 200h200v60H280z" stroke="#000" stroke-opacity="0" stroke-width="2" fill="#fff" fill-opacity="0"/><g><use xlink:href="#x" transform="matrix(1,0,0,1,285,205) translate(13.72314453125 32.3330078125)"/><use xlink:href="#y" transform="matrix(1,0,0,1,285,205) translate(89.58154296875 32.3330078125)"/><use xlink:href="#z" transform="matrix(1,0,0,1,285,205) translate(111.25537109375 32.3330078125)"/></g><path d="M280 360h200v60H280z" stroke="#000" stroke-opacity="0" stroke-width="2" fill="#fff" fill-opacity="0"/><g><use xlink:href="#A" transform="matrix(1,0,0,1,285,365) translate(13.72314453125 32.3330078125)"/><use xlink:href="#y" transform="matrix(1,0,0,1,285,365) translate(89.58154296875 32.3330078125)"/><use xlink:href="#B" transform="matrix(1,0,0,1,285,365) translate(111.25537109375 32.3330078125)"/></g><path d="M280 520h200v60H280z" stroke="#000" stroke-opacity="0" stroke-width="2" fill="#fff" fill-opacity="0"/><g><use xlink:href="#C" transform="matrix(1,0,0,1,285,525) translate(13.72314453125 32.3330078125)"/><use xlink:href="#y" transform="matrix(1,0,0,1,285,525) translate(89.58154296875 32.3330078125)"/><use xlink:href="#D" transform="matrix(1,0,0,1,285,525) translate(111.25537109375 32.3330078125)"/></g><defs><path d="M614-616c-74 0-131-59-131-134 0-70 61-135 131-135 72 0 136 64 136 135 0 73-63 134-136 134zm2-744c-94 0-159 53-210 152-88 171-88 754 0 925 51 99 116 152 210 152 95 0 161-53 212-152 88-172 88-754 0-925-51-99-117-152-212-152zm0-160c159 0 280 65 362 196s122 324 122 579-40 447-122 578S775 29 616 29 336-36 255-167 133-490 133-745s41-448 122-579 202-196 361-196" id="E"/><use transform="matrix(0.010850694444444444,0,0,0.010850694444444444,0,0)" xlink:href="#E" id="a"/><path d="M850-236c87-126 87-521 0-646-49-70-112-109-201-109s-154 38-203 109c-89 127-89 518 0 645 49 71 114 110 203 110s152-39 201-109zM676 29c-146 0-244-69-299-170V0H193v-1556h184v579c53-101 154-170 301-170 297 0 434 260 434 584 0 329-136 592-436 592" id="F"/><path d="M139-1493h940v86L545 0H334l520-1323H139v-170" id="G"/><g id="b"><use transform="matrix(0.006510416666666667,0,0,0.006510416666666667,0,0)" xlink:href="#F"/><use transform="matrix(0.006510416666666667,0,0,0.006510416666666667,8.02734375,0)" xlink:href="#G"/></g><path d="M700-1520c110 1 208 25 291 60v186c-76-45-168-75-282-76-128 0-225 48-291 144s-99 239-99 426c56-120 164-206 328-207 298-2 453 200 453 508 0 310-163 509-465 508-173 0-300-63-381-187S133-478 133-745c0-252 48-445 145-577s238-198 422-198zM901-479c0-212-74-350-270-350-186 0-277 151-277 350s91 350 277 350c196 0 271-139 270-350" id="H"/><g id="c"><use transform="matrix(0.006510416666666667,0,0,0.006510416666666667,0,0)" xlink:href="#F"/><use transform="matrix(0.006510416666666667,0,0,0.006510416666666667,8.02734375,0)" xlink:href="#H"/></g><path d="M512-817c-121 1-221 29-305 74v-750h756v170H391v367c52-19 108-31 174-31 306-4 504 201 504 508 0 316-212 508-532 508-154 0-286-20-394-64v-205c109 59 223 97 375 99 219 2 348-121 348-338 0-215-137-340-354-338" id="I"/><g id="d"><use transform="matrix(0.006510416666666667,0,0,0.006510416666666667,0,0)" xlink:href="#F"/><use transform="matrix(0.006510416666666667,0,0,0.006510416666666667,8.02734375,0)" xlink:href="#I"/></g><path d="M735-1309L264-520h471v-789zm-33-184h234v973h199v164H936V0H735v-356H102v-191" id="J"/><g id="e"><use transform="matrix(0.006510416666666667,0,0,0.006510416666666667,0,0)" xlink:href="#F"/><use transform="matrix(0.006510416666666667,0,0,0.006510416666666667,8.02734375,0)" xlink:href="#J"/></g><path d="M1044-1120c-1 183-111 281-268 321 181 46 302 172 303 387 1 289-218 445-522 441-155-2-297-31-420-74v-201c118 61 239 103 398 105 208 2 343-93 344-291 1-181-141-287-330-283H395v-166h154c169 2 295-74 295-231 0-161-111-239-279-238-146 2-264 35-383 80v-186c132-34 244-61 383-64 268-6 481 146 479 400" id="K"/><g id="f"><use transform="matrix(0.006510416666666667,0,0,0.006510416666666667,0,0)" xlink:href="#F"/><use transform="matrix(0.006510416666666667,0,0,0.006510416666666667,8.02734375,0)" xlink:href="#K"/></g><path d="M563-1520c272-5 493 161 486 422-5 184-82 278-189 404-156 183-266 291-487 524h686V0H152v-170c181-191 381-399 520-561 68-80 112-147 135-197s35-102 35-155c2-166-108-271-275-267-164 4-280 61-403 133v-204c119-56 242-96 399-99" id="L"/><g id="g"><use transform="matrix(0.006510416666666667,0,0,0.006510416666666667,0,0)" xlink:href="#F"/><use transform="matrix(0.006510416666666667,0,0,0.006510416666666667,8.02734375,0)" xlink:href="#L"/></g><path d="M270-170h314v-1141l-338 76v-184l336-74h202v1323h310V0H270v-170" id="M"/><g id="h"><use transform="matrix(0.006510416666666667,0,0,0.006510416666666667,0,0)" xlink:href="#F"/><use transform="matrix(0.006510416666666667,0,0,0.006510416666666667,8.02734375,0)" xlink:href="#M"/></g><use transform="matrix(0.010850694444444444,0,0,0.010850694444444444,0,0)" xlink:href="#M" id="i"/><g id="j"><use transform="matrix(0.006510416666666667,0,0,0.006510416666666667,0,0)" xlink:href="#F"/><use transform="matrix(0.006510416666666667,0,0,0.006510416666666667,8.02734375,0)" xlink:href="#M"/><use transform="matrix(0.006510416666666667,0,0,0.006510416666666667,16.0546875,0)" xlink:href="#M"/></g><g id="k"><use transform="matrix(0.006510416666666667,0,0,0.006510416666666667,0,0)" xlink:href="#F"/><use transform="matrix(0.006510416666666667,0,0,0.006510416666666667,8.02734375,0)" xlink:href="#M"/><use transform="matrix(0.006510416666666667,0,0,0.006510416666666667,16.0546875,0)" xlink:href="#E"/></g><path d="M326-1012c0 212 72 350 270 350 186 0 276-151 276-350s-90-350-276-350c-196 0-271 139-270 350zM526 29C417 28 318 4 236-31v-186c76 45 168 75 282 76 128 0 224-49 290-145s99-238 99-425c-55 120-164 206-327 207-299 2-453-201-453-510 0-310 162-507 465-506 173 0 300 62 381 187s121 321 121 588c0 251-49 443-146 575S711 29 526 29" id="N"/><g id="l"><use transform="matrix(0.006510416666666667,0,0,0.006510416666666667,0,0)" xlink:href="#F"/><use transform="matrix(0.006510416666666667,0,0,0.006510416666666667,8.02734375,0)" xlink:href="#N"/></g><path d="M899-420c0-180-104-289-283-289-180 0-282 108-282 289 0 180 104 291 282 291 182 0 283-107 283-291zm-768 21c0-223 119-354 309-394-157-38-273-156-274-340-1-248 191-387 450-387 260 0 452 139 451 387-1 184-118 303-274 340 189 40 308 170 309 392 1 278-198 430-486 430S130-121 131-399zm485-965c-161 0-249 90-249 250s89 246 249 246c161 0 251-86 250-246 0-163-87-250-250-250" id="O"/><g id="m"><use transform="matrix(0.006510416666666667,0,0,0.006510416666666667,0,0)" xlink:href="#F"/><use transform="matrix(0.006510416666666667,0,0,0.006510416666666667,8.02734375,0)" xlink:href="#O"/></g><g id="n"><use transform="matrix(0.006510416666666667,0,0,0.006510416666666667,0,0)" xlink:href="#F"/><use transform="matrix(0.006510416666666667,0,0,0.006510416666666667,8.02734375,0)" xlink:href="#M"/><use transform="matrix(0.006510416666666667,0,0,0.006510416666666667,16.0546875,0)" xlink:href="#H"/></g><g id="o"><use transform="matrix(0.006510416666666667,0,0,0.006510416666666667,0,0)" xlink:href="#F"/><use transform="matrix(0.006510416666666667,0,0,0.006510416666666667,8.02734375,0)" xlink:href="#M"/><use transform="matrix(0.006510416666666667,0,0,0.006510416666666667,16.0546875,0)" xlink:href="#I"/></g><g id="p"><use transform="matrix(0.006510416666666667,0,0,0.006510416666666667,0,0)" xlink:href="#F"/><use transform="matrix(0.006510416666666667,0,0,0.006510416666666667,8.02734375,0)" xlink:href="#M"/><use transform="matrix(0.006510416666666667,0,0,0.006510416666666667,16.0546875,0)" xlink:href="#J"/></g><g id="q"><use transform="matrix(0.006510416666666667,0,0,0.006510416666666667,0,0)" xlink:href="#F"/><use transform="matrix(0.006510416666666667,0,0,0.006510416666666667,8.02734375,0)" xlink:href="#M"/><use transform="matrix(0.006510416666666667,0,0,0.006510416666666667,16.0546875,0)" xlink:href="#K"/></g><g id="r"><use transform="matrix(0.006510416666666667,0,0,0.006510416666666667,0,0)" xlink:href="#F"/><use transform="matrix(0.006510416666666667,0,0,0.006510416666666667,8.02734375,0)" xlink:href="#M"/><use transform="matrix(0.006510416666666667,0,0,0.006510416666666667,16.0546875,0)" xlink:href="#L"/></g><path d="M565-670c35-44 69-96 96-148l67 29c-18 35-50 85-74 119h165v420H529v108h393v72H529v178h-74V-70H62v-72h393v-108H165v-420h162c-18-36-46-84-70-113l60-34c30 37 60 83 84 127l-29 20h193zm-326 65v110h216v-110H239zm504 0H529v110h214v-110zM455-320v-110H239v110h216zm288 0v-110H529v110h214" id="P"/><use transform="matrix(0.031111111111111114,0,0,0.031111111111111114,0,0)" xlink:href="#P" id="s"/><path d="M505-811c14 37 27 81 40 120h336v216h-77v-144H179v143h-76v-215h359c-9-32-23-78-35-106zm421 621H539c-6 82 21 198-23 244-32 34-116 24-176 33l-25-73c44-6 104-1 133-21 23-40 7-124 12-183H57v-72h403v-56l174-114H218v-72h543v71L539-289v27h387v72" id="Q"/><use transform="matrix(0.031111111111111114,0,0,0.031111111111111114,0,0)" xlink:href="#Q" id="t"/><path d="M934-682v74H680v108h-75v-108H377v108h-75v-108H47v-74h255v-122l75 3v119h228v-122l75 3v119h254zM727-148c16-62 10-158 14-231H402v483h-79v-483H86v-73h739c-7 121 3 247-22 352-21 88-145 78-255 84l-30-78c79-10 192 15 209-54" id="R"/><use transform="matrix(0.031111111111111114,0,0,0.031111111111111114,0,0)" xlink:href="#R" id="u"/><path d="M341-301c36 63 74 131 102 194l-61 51c-22-55-52-112-81-166C238-111 167-21 81 80L21 31c96-105 172-205 235-332-49-85-113-185-167-256l58-38c47 60 102 142 146 214 34-86 58-175 73-278H72v-74h367v76c-20 139-49 248-98 356zm527-357c-29 177-74 330-156 453 70 95 149 166 248 242l-52 61C814 21 737-51 667-143 587-44 496 28 385 109l-53-64c119-78 211-148 291-250-78-123-119-251-146-427l69-14c26 150 60 265 123 374 65-110 99-233 125-388H468v-73h400v75" id="S"/><use transform="matrix(0.031111111111111114,0,0,0.031111111111111114,0,0)" xlink:href="#S" id="v"/><path d="M858-713v77H126v-77h732zm-55 304v75H182v-75h621zM927-50v76H57v-76h870" id="T"/><use transform="matrix(0.031111111111111114,0,0,0.031111111111111114,0,0)" xlink:href="#T" id="w"/><path d="M147-573v-920h203v1012c-18 236 56 346 266 346 147 0 240-59 261-190 4-31 6-82 6-154v-1014h202v920c-4 268-7 369-127 485C878-11 767 29 616 29c-229 0-384-97-440-277-20-65-29-174-29-325" id="U"/><path d="M700-1171v444h445v170H700v444H532v-444H88v-170h444v-444h168" id="V"/><g id="x"><use transform="matrix(0.0087890625,0,0,0.0087890625,0,0)" xlink:href="#U"/><use transform="matrix(0.0087890625,0,0,0.0087890625,10.8369140625,0)" xlink:href="#V"/><use transform="matrix(0.0087890625,0,0,0.0087890625,21.673828125,0)" xlink:href="#E"/><use transform="matrix(0.0087890625,0,0,0.0087890625,32.5107421875,0)" xlink:href="#E"/><use transform="matrix(0.0087890625,0,0,0.0087890625,43.34765625,0)" xlink:href="#E"/><use transform="matrix(0.0087890625,0,0,0.0087890625,54.1845703125,0)" xlink:href="#E"/></g><path d="M864-657c125-4 198-56 281-123v174c-87 66-164 111-297 114-155 4-302-128-467-122-133 5-209 52-293 122v-174c91-68 169-108 307-114 169-8 315 128 469 123" id="W"/><use transform="matrix(0.0087890625,0,0,0.0087890625,0,0)" xlink:href="#W" id="y"/><path d="M233-1493h879v170H436v440h613v170H436V0H233v-1493" id="X"/><g id="z"><use transform="matrix(0.0087890625,0,0,0.0087890625,0,0)" xlink:href="#U"/><use transform="matrix(0.0087890625,0,0,0.0087890625,10.8369140625,0)" xlink:href="#V"/><use transform="matrix(0.0087890625,0,0,0.0087890625,21.673828125,0)" xlink:href="#E"/><use transform="matrix(0.0087890625,0,0,0.0087890625,32.5107421875,0)" xlink:href="#E"/><use transform="matrix(0.0087890625,0,0,0.0087890625,43.34765625,0)" xlink:href="#G"/><use transform="matrix(0.0087890625,0,0,0.0087890625,54.1845703125,0)" xlink:href="#X"/></g><g id="A"><use transform="matrix(0.0087890625,0,0,0.0087890625,0,0)" xlink:href="#U"/><use transform="matrix(0.0087890625,0,0,0.0087890625,10.8369140625,0)" xlink:href="#V"/><use transform="matrix(0.0087890625,0,0,0.0087890625,21.673828125,0)" xlink:href="#E"/><use transform="matrix(0.0087890625,0,0,0.0087890625,32.5107421875,0)" xlink:href="#E"/><use transform="matrix(0.0087890625,0,0,0.0087890625,43.34765625,0)" xlink:href="#O"/><use transform="matrix(0.0087890625,0,0,0.0087890625,54.1845703125,0)" xlink:href="#E"/></g><g id="B"><use transform="matrix(0.0087890625,0,0,0.0087890625,0,0)" xlink:href="#U"/><use transform="matrix(0.0087890625,0,0,0.0087890625,10.8369140625,0)" xlink:href="#V"/><use transform="matrix(0.0087890625,0,0,0.0087890625,21.673828125,0)" xlink:href="#E"/><use transform="matrix(0.0087890625,0,0,0.0087890625,32.5107421875,0)" xlink:href="#G"/><use transform="matrix(0.0087890625,0,0,0.0087890625,43.34765625,0)" xlink:href="#X"/><use transform="matrix(0.0087890625,0,0,0.0087890625,54.1845703125,0)" xlink:href="#X"/></g><g id="C"><use transform="matrix(0.0087890625,0,0,0.0087890625,0,0)" xlink:href="#U"/><use transform="matrix(0.0087890625,0,0,0.0087890625,10.8369140625,0)" xlink:href="#V"/><use transform="matrix(0.0087890625,0,0,0.0087890625,21.673828125,0)" xlink:href="#E"/><use transform="matrix(0.0087890625,0,0,0.0087890625,32.5107421875,0)" xlink:href="#O"/><use transform="matrix(0.0087890625,0,0,0.0087890625,43.34765625,0)" xlink:href="#E"/><use transform="matrix(0.0087890625,0,0,0.0087890625,54.1845703125,0)" xlink:href="#E"/></g><g id="D"><use transform="matrix(0.0087890625,0,0,0.0087890625,0,0)" xlink:href="#U"/><use transform="matrix(0.0087890625,0,0,0.0087890625,10.8369140625,0)" xlink:href="#V"/><use transform="matrix(0.0087890625,0,0,0.0087890625,21.673828125,0)" xlink:href="#X"/><use transform="matrix(0.0087890625,0,0,0.0087890625,32.5107421875,0)" xlink:href="#X"/><use transform="matrix(0.0087890625,0,0,0.0087890625,43.34765625,0)" xlink:href="#X"/><use transform="matrix(0.0087890625,0,0,0.0087890625,54.1845703125,0)" xlink:href="#X"/></g></defs></g></svg>