<svg xmlns="http://www.w3.org/2000/svg" xmlns:xlink="http://www.w3.org/1999/xlink" xmlns:lucid="lucid" width="700" height="200"><g transform="translate(-140 -180)" lucid:page-tab-id="0_0"><path d="M160 240h40v40h-40z" stroke="#000" stroke-width="2" fill="#e5e5e5"/><use xlink:href="#a" transform="matrix(1,0,0,1,165,245) translate(8.310546875 22.50217013888889)"/><path d="M200 240h40v40h-40z" stroke="#000" stroke-width="2" fill="#99d2f2"/><use xlink:href="#b" transform="matrix(1,0,0,1,205,245) translate(8.310546875 22.50217013888889)"/><path d="M240 240h40v40h-40z" stroke="#000" stroke-width="2" fill="#99d2f2"/><use xlink:href="#a" transform="matrix(1,0,0,1,245,245) translate(8.310546875 22.50217013888889)"/><path d="M280 240h40v40h-40z" stroke="#000" stroke-width="2" fill="#99d2f2"/><use xlink:href="#a" transform="matrix(1,0,0,1,285,245) translate(8.310546875 22.50217013888889)"/><path d="M320 240h40v40h-40z" stroke="#000" stroke-width="2" fill="#c1e4f7"/><use xlink:href="#a" transform="matrix(1,0,0,1,325,245) translate(8.310546875 22.50217013888889)"/><path d="M360 240h40v40h-40z" stroke="#000" stroke-width="2" fill="#c1e4f7"/><use xlink:href="#a" transform="matrix(1,0,0,1,365,245) translate(8.310546875 22.50217013888889)"/><path d="M400 240h40v40h-40z" stroke="#000" stroke-width="2" fill="#c1e4f7"/><use xlink:href="#a" transform="matrix(1,0,0,1,405,245) translate(8.310546875 22.50217013888889)"/><path d="M440 240h40v40h-40z" stroke="#000" stroke-width="2" fill="#c1e4f7"/><use xlink:href="#b" transform="matrix(1,0,0,1,445,245) translate(8.310546875 22.50217013888889)"/><path d="M160 200h40v40h-40z" stroke="#000" stroke-opacity="0" stroke-width="2" fill="#fff" fill-opacity="0"/><use xlink:href="#c" transform="matrix(1,0,0,1,165,205) translate(4.1630859375 20.4580078125)"/><path d="M200 200h40v40h-40z" stroke="#000" stroke-opacity="0" stroke-width="2" fill="#fff" fill-opacity="0"/><use xlink:href="#d" transform="matrix(1,0,0,1,205,205) translate(4.1630859375 20.4580078125)"/><path d="M240 200h40v40h-40z" stroke="#000" stroke-opacity="0" stroke-width="2" fill="#fff" fill-opacity="0"/><use xlink:href="#e" transform="matrix(1,0,0,1,245,205) translate(4.1630859375 20.4580078125)"/><path d="M280 200h40v40h-40z" stroke="#000" stroke-opacity="0" stroke-width="2" fill="#fff" fill-opacity="0"/><use xlink:href="#f" transform="matrix(1,0,0,1,285,205) translate(4.1630859375 20.4580078125)"/><path d="M320 200h40v40h-40z" stroke="#000" stroke-opacity="0" stroke-width="2" fill="#fff" fill-opacity="0"/><use xlink:href="#g" transform="matrix(1,0,0,1,325,205) translate(4.1630859375 20.4580078125)"/><path d="M360 200h40v40h-40z" stroke="#000" stroke-opacity="0" stroke-width="2" fill="#fff" fill-opacity="0"/><use xlink:href="#h" transform="matrix(1,0,0,1,365,205) translate(4.1630859375 20.4580078125)"/><path d="M400 200h40v40h-40z" stroke="#000" stroke-opacity="0" stroke-width="2" fill="#fff" fill-opacity="0"/><use xlink:href="#i" transform="matrix(1,0,0,1,405,205) translate(4.1630859375 20.4580078125)"/><path d="M440 200h40v40h-40z" stroke="#000" stroke-opacity="0" stroke-width="2" fill="#fff" fill-opacity="0"/><use xlink:href="#j" transform="matrix(1,0,0,1,445,205) translate(4.1630859375 20.4580078125)"/><g fill="none"><path d="M320 300v40H200v-40z"/><path d="M200 300c0 4.14 3.36 7.5 7.5 7.5h45c4.14 0 7.5 3.36 7.5 7.5 0-4.14 3.36-7.5 7.5-7.5h45c4.14 0 7.5-3.36 7.5-7.5" stroke="#000" stroke-width="2"/></g><g fill="none"><path d="M480 300v38.67H320V300z"/><path d="M320 300c0 5.52 4.48 10 10 10h60c5.52 0 10 4.48 10 10 0-5.52 4.48-10 10-10h60c5.52 0 10-4.48 10-10" stroke="#000" stroke-width="2"/></g><path d="M200 320h120v40H200z" stroke="#000" stroke-opacity="0" stroke-width="2" fill="#fff" fill-opacity="0"/><use xlink:href="#k" transform="matrix(1,0,0,1,205,325) translate(34.931640625 22.56467013888889)"/><path d="M320 320h160v40H320z" stroke="#000" stroke-opacity="0" stroke-width="2" fill="#fff" fill-opacity="0"/><use xlink:href="#l" transform="matrix(1,0,0,1,325,325) translate(48.2421875 22.56467013888889)"/><path d="M560 240h124v-20l36 40-36 40v-20H560z" stroke="#000" stroke-width="2" fill="#fff"/><use xlink:href="#m" transform="matrix(1,0,0,1,565,225) translate(47.63333333333333 40.83333333333333)"/><use xlink:href="#n" transform="matrix(1,0,0,1,565,225) translate(69.5 40.83333333333333)"/><path d="M740 223.96h80V300h-80z" stroke="#000" stroke-opacity="0" stroke-width="2" fill="#fff" fill-opacity="0"/><use xlink:href="#o" transform="matrix(1,0,0,1,745,228.95833333333331) translate(18.9453125 51.598958333333336)"/><defs><path d="M614-616c-74 0-131-59-131-134 0-70 61-135 131-135 72 0 136 64 136 135 0 73-63 134-136 134zm2-744c-94 0-159 53-210 152-88 171-88 754 0 925 51 99 116 152 210 152 95 0 161-53 212-152 88-172 88-754 0-925-51-99-117-152-212-152zm0-160c159 0 280 65 362 196s122 324 122 579-40 447-122 578S775 29 616 29 336-36 255-167 133-490 133-745s41-448 122-579 202-196 361-196" id="p"/><use transform="matrix(0.010850694444444444,0,0,0.010850694444444444,0,0)" xlink:href="#p" id="a"/><path d="M270-170h314v-1141l-338 76v-184l336-74h202v1323h310V0H270v-170" id="q"/><use transform="matrix(0.010850694444444444,0,0,0.010850694444444444,0,0)" xlink:href="#q" id="b"/><path d="M850-236c87-126 87-521 0-646-49-70-112-109-201-109s-154 38-203 109c-89 127-89 518 0 645 49 71 114 110 203 110s152-39 201-109zM676 29c-146 0-244-69-299-170V0H193v-1556h184v579c53-101 154-170 301-170 297 0 434 260 434 584 0 329-136 592-436 592" id="r"/><path d="M899-420c0-180-104-289-283-289-180 0-282 108-282 289 0 180 104 291 282 291 182 0 283-107 283-291zm-768 21c0-223 119-354 309-394-157-38-273-156-274-340-1-248 191-387 450-387 260 0 452 139 451 387-1 184-118 303-274 340 189 40 308 170 309 392 1 278-198 430-486 430S130-121 131-399zm485-965c-161 0-249 90-249 250s89 246 249 246c161 0 251-86 250-246 0-163-87-250-250-250" id="s"/><g id="c"><use transform="matrix(0.0087890625,0,0,0.0087890625,0,0)" xlink:href="#r"/><use transform="matrix(0.0087890625,0,0,0.0087890625,10.8369140625,0)" xlink:href="#s"/></g><path d="M139-1493h940v86L545 0H334l520-1323H139v-170" id="t"/><g id="d"><use transform="matrix(0.0087890625,0,0,0.0087890625,0,0)" xlink:href="#r"/><use transform="matrix(0.0087890625,0,0,0.0087890625,10.8369140625,0)" xlink:href="#t"/></g><path d="M700-1520c110 1 208 25 291 60v186c-76-45-168-75-282-76-128 0-225 48-291 144s-99 239-99 426c56-120 164-206 328-207 298-2 453 200 453 508 0 310-163 509-465 508-173 0-300-63-381-187S133-478 133-745c0-252 48-445 145-577s238-198 422-198zM901-479c0-212-74-350-270-350-186 0-277 151-277 350s91 350 277 350c196 0 271-139 270-350" id="u"/><g id="e"><use transform="matrix(0.0087890625,0,0,0.0087890625,0,0)" xlink:href="#r"/><use transform="matrix(0.0087890625,0,0,0.0087890625,10.8369140625,0)" xlink:href="#u"/></g><path d="M512-817c-121 1-221 29-305 74v-750h756v170H391v367c52-19 108-31 174-31 306-4 504 201 504 508 0 316-212 508-532 508-154 0-286-20-394-64v-205c109 59 223 97 375 99 219 2 348-121 348-338 0-215-137-340-354-338" id="v"/><g id="f"><use transform="matrix(0.0087890625,0,0,0.0087890625,0,0)" xlink:href="#r"/><use transform="matrix(0.0087890625,0,0,0.0087890625,10.8369140625,0)" xlink:href="#v"/></g><path d="M735-1309L264-520h471v-789zm-33-184h234v973h199v164H936V0H735v-356H102v-191" id="w"/><g id="g"><use transform="matrix(0.0087890625,0,0,0.0087890625,0,0)" xlink:href="#r"/><use transform="matrix(0.0087890625,0,0,0.0087890625,10.8369140625,0)" xlink:href="#w"/></g><path d="M1044-1120c-1 183-111 281-268 321 181 46 302 172 303 387 1 289-218 445-522 441-155-2-297-31-420-74v-201c118 61 239 103 398 105 208 2 343-93 344-291 1-181-141-287-330-283H395v-166h154c169 2 295-74 295-231 0-161-111-239-279-238-146 2-264 35-383 80v-186c132-34 244-61 383-64 268-6 481 146 479 400" id="x"/><g id="h"><use transform="matrix(0.0087890625,0,0,0.0087890625,0,0)" xlink:href="#r"/><use transform="matrix(0.0087890625,0,0,0.0087890625,10.8369140625,0)" xlink:href="#x"/></g><path d="M563-1520c272-5 493 161 486 422-5 184-82 278-189 404-156 183-266 291-487 524h686V0H152v-170c181-191 381-399 520-561 68-80 112-147 135-197s35-102 35-155c2-166-108-271-275-267-164 4-280 61-403 133v-204c119-56 242-96 399-99" id="y"/><g id="i"><use transform="matrix(0.0087890625,0,0,0.0087890625,0,0)" xlink:href="#r"/><use transform="matrix(0.0087890625,0,0,0.0087890625,10.8369140625,0)" xlink:href="#y"/></g><g id="j"><use transform="matrix(0.0087890625,0,0,0.0087890625,0,0)" xlink:href="#r"/><use transform="matrix(0.0087890625,0,0,0.0087890625,10.8369140625,0)" xlink:href="#q"/></g><g id="k"><use transform="matrix(0.010850694444444444,0,0,0.010850694444444444,0,0)" xlink:href="#q"/><use transform="matrix(0.010850694444444444,0,0,0.010850694444444444,13.37890625,0)" xlink:href="#p"/><use transform="matrix(0.010850694444444444,0,0,0.010850694444444444,26.7578125,0)" xlink:href="#p"/></g><g id="l"><use transform="matrix(0.010850694444444444,0,0,0.010850694444444444,0,0)" xlink:href="#p"/><use transform="matrix(0.010850694444444444,0,0,0.010850694444444444,13.37890625,0)" xlink:href="#p"/><use transform="matrix(0.010850694444444444,0,0,0.010850694444444444,26.7578125,0)" xlink:href="#p"/><use transform="matrix(0.010850694444444444,0,0,0.010850694444444444,40.13671875,0)" xlink:href="#q"/></g><path d="M563-800c3 101 8 207 16 302l340-32 6 73-338 31c18 155 47 287 106 377 25 38 56 69 105 46 32-31 44-99 55-152l63 45c-30 94-44 232-182 198-49-12-77-50-104-91-66-105-99-244-118-416l-196 18-7-72 195-18c-8-101-13-206-18-309h77zM27-325c110-128 199-293 260-469l78 15c-26 75-56 142-90 209v670h-74v-539c-38 61-78 114-120 170zm656-439c58 41 118 97 168 146l-47 62c-45-56-108-111-164-155" id="z"/><use transform="matrix(0.022222222222222223,0,0,0.022222222222222223,0,0)" xlink:href="#z" id="m"/><path d="M907 59C705-8 551-94 469-276c-30 29-62 56-96 80V11c66-22 150-48 215-72l11 69C497 41 375 72 285 115l-27-58c21-12 42-28 42-55v-147C226-99 154-63 67-24L26-92c156-59 288-132 399-234H70v-62h384v-91H161v-64h293v-94H121v-62h333v-100l75 3v97h333v62H529v94h293v64H529v91h385v62H521c27 60 56 108 97 152 72-34 146-75 203-124l42 62c-56 40-124 80-188 113C751-70 835-39 943-8" id="A"/><use transform="matrix(0.022222222222222223,0,0,0.022222222222222223,0,0)" xlink:href="#A" id="n"/><path d="M616-1315L403-551h426zm-122-178h245L1196 0H987L877-389H354L246 0H37" id="B"/><use transform="matrix(0.026041666666666668,0,0,0.026041666666666668,0,0)" xlink:href="#B" id="o"/></defs></g></svg>