<svg xmlns="http://www.w3.org/2000/svg" xmlns:xlink="http://www.w3.org/1999/xlink" xmlns:lucid="lucid" width="360" height="200"><g transform="translate(-220 -220)" lucid:page-tab-id="0_0"><path d="M560 320c0 44.18-71.63 80-160 80s-160-35.82-160-80 71.63-80 160-80 160 35.82 160 80z" stroke="#000" stroke-width="2" fill="#c1e4f7"/><path d="M440 300c0 22.1-35.82 40-80 40s-80-17.9-80-40 35.82-40 80-40 80 17.9 80 40z" stroke="#000" stroke-width="2" fill="#c7e8ac"/><use xlink:href="#a" transform="matrix(1,0,0,1,285,265) translate(48.7421875 40.564236111111114)"/><path d="M360 320h160v80H360z" stroke="#000" stroke-opacity="0" stroke-width="2" fill="#fff" fill-opacity="0"/><use xlink:href="#b" transform="matrix(1,0,0,1,365,325) translate(34.86328125 42.502170138888886)"/><defs><path d="M616-1315L403-551h426zm-122-178h245L1196 0H987L877-389H354L246 0H37" id="c"/><path d="M631-1520c144 2 262 34 381 78v205c-106-67-218-116-371-119-174-3-308 84-309 246 0 66 20 114 54 151 44 48 204 86 310 111 250 58 402 161 402 440 0 301-201 439-516 437-164-1-298-37-424-90v-215c130 81 244 137 424 141 187 4 323-84 323-260 0-181-93-224-262-262-271-61-502-123-504-422-2-273 211-447 492-441" id="d"/><path d="M743-135c139 0 246-55 330-125v207C978-3 879 29 743 29c-415 0-604-328-604-774 0-244 53-435 159-571s255-204 445-204c135 1 236 32 330 82v207c-84-70-192-125-330-125-131 0-224 54-295 152-125 174-126 743 0 917 71 98 164 152 295 152" id="e"/><path d="M201-1493h829v170H717v1153h313V0H201v-170h313v-1153H201v-170" id="f"/><g id="a"><use transform="matrix(0.008680555555555556,0,0,0.008680555555555556,0,0)" xlink:href="#c"/><use transform="matrix(0.008680555555555556,0,0,0.008680555555555556,10.703125,0)" xlink:href="#d"/><use transform="matrix(0.008680555555555556,0,0,0.008680555555555556,21.40625,0)" xlink:href="#e"/><use transform="matrix(0.008680555555555556,0,0,0.008680555555555556,32.109375,0)" xlink:href="#f"/><use transform="matrix(0.008680555555555556,0,0,0.008680555555555556,42.8125,0)" xlink:href="#f"/></g><path d="M702-135c94 0 156-21 209-64v-401H694v-166h410v643C1006-32 878 29 702 29c-412 0-600-330-600-774 0-244 53-435 160-571s255-204 445-204c145 0 251 43 346 107v207c-93-87-189-150-346-150-131 0-229 50-295 152s-99 255-99 459c0 207 31 361 95 461s162 149 294 149" id="g"/><path d="M934-430c0-206-112-282-326-283H369v547h239c220-2 326-58 326-264zm-53-684c0-168-96-213-277-213H369v450h235c186-1 277-59 277-237zm256 704C1133-113 928 1 608 0H166v-1493h442c280-3 477 118 477 379 0 189-93 290-262 315 190 26 317 174 314 389" id="h"/><path d="M563-1520c272-5 493 161 486 422-5 184-82 278-189 404-156 183-266 291-487 524h686V0H152v-170c181-191 381-399 520-561 68-80 112-147 135-197s35-102 35-155c2-166-108-271-275-267-164 4-280 61-403 133v-204c119-56 242-96 399-99" id="i"/><path d="M1044-1120c-1 183-111 281-268 321 181 46 302 172 303 387 1 289-218 445-522 441-155-2-297-31-420-74v-201c118 61 239 103 398 105 208 2 343-93 344-291 1-181-141-287-330-283H395v-166h154c169 2 295-74 295-231 0-161-111-239-279-238-146 2-264 35-383 80v-186c132-34 244-61 383-64 268-6 481 146 479 400" id="j"/><path d="M270-170h314v-1141l-338 76v-184l336-74h202v1323h310V0H270v-170" id="k"/><g id="b"><use transform="matrix(0.010850694444444444,0,0,0.010850694444444444,0,0)" xlink:href="#g"/><use transform="matrix(0.010850694444444444,0,0,0.010850694444444444,13.37890625,0)" xlink:href="#h"/><use transform="matrix(0.010850694444444444,0,0,0.010850694444444444,26.7578125,0)" xlink:href="#i"/><use transform="matrix(0.010850694444444444,0,0,0.010850694444444444,40.13671875,0)" xlink:href="#j"/><use transform="matrix(0.010850694444444444,0,0,0.010850694444444444,53.515625,0)" xlink:href="#k"/><use transform="matrix(0.010850694444444444,0,0,0.010850694444444444,66.89453125,0)" xlink:href="#i"/></g></defs></g></svg>