<svg xmlns="http://www.w3.org/2000/svg" xmlns:xlink="http://www.w3.org/1999/xlink" xmlns:lucid="lucid" width="1401.33" height="620"><g transform="translate(-60 -40)" lucid:page-tab-id="0_0"><path d="M240 80h120v40H240z" stroke="#000" stroke-width="2" fill="#ffeca9"/><use xlink:href="#a" transform="matrix(1,0,0,1,245,85) translate(1.484375 22.50217013888889)"/><path d="M360 80h120v40H360z" stroke="#000" stroke-width="2" fill="#ffdf71"/><use xlink:href="#b" transform="matrix(1,0,0,1,365,85) translate(1.484375 22.50217013888889)"/><path d="M480 80h120v40H480z" stroke="#000" stroke-width="2" fill="#c7e8ac"/><use xlink:href="#c" transform="matrix(1,0,0,1,485,85) translate(1.484375 22.50217013888889)"/><path d="M600 80h120v40H600z" stroke="#000" stroke-width="2" fill="#c7e8ac"/><use xlink:href="#d" transform="matrix(1,0,0,1,605,85) translate(1.484375 22.50217013888889)"/><path d="M720 80h120v40H720z" stroke="#000" stroke-width="2" fill="#c7e8ac"/><use xlink:href="#e" transform="matrix(1,0,0,1,725,85) translate(1.484375 22.50217013888889)"/><path d="M840 80h120v40H840z" stroke="#000" stroke-width="2" fill="#c7e8ac"/><use xlink:href="#e" transform="matrix(1,0,0,1,845,85) translate(1.484375 22.50217013888889)"/><path d="M960 80h120v40H960z" stroke="#000" stroke-width="2" fill="#c7e8ac"/><use xlink:href="#c" transform="matrix(1,0,0,1,965,85) translate(1.484375 22.50217013888889)"/><path d="M1080 80h120v40h-120z" stroke="#000" stroke-width="2" fill="#c1e4f7"/><use xlink:href="#f" transform="matrix(1,0,0,1,1085,85) translate(1.484375 22.50217013888889)"/><path d="M1200 80h120v40h-120z" stroke="#000" stroke-width="2" fill="#99d2f2"/><use xlink:href="#g" transform="matrix(1,0,0,1,1205,85) translate(1.484375 22.50217013888889)"/><path d="M1320 80h120v40h-120z" stroke="#000" stroke-width="2" fill="#3aa6dd"/><use xlink:href="#h" transform="matrix(1,0,0,1,1325,85) translate(1.484375 22.50217013888889)"/><g fill="none"><path d="M480 130v40H240v-40z"/><path d="M240 130c0 8.28 6.72 15 15 15h90c8.28 0 15 6.72 15 15 0-8.28 6.72-15 15-15h90c8.28 0 15-6.72 15-15" stroke="#000" stroke-width="2"/></g><path d="M80 60h160v80H80z" stroke="#000" stroke-opacity="0" stroke-width="2" fill="#fff" fill-opacity="0"/><use xlink:href="#i" transform="matrix(1,0,0,1,85,65) translate(29.08 45.79166666666667)"/><use xlink:href="#j" transform="matrix(1,0,0,1,85,65) translate(59.693333333333335 45.79166666666667)"/><use xlink:href="#k" transform="matrix(1,0,0,1,85,65) translate(90.30666666666667 45.79166666666667)"/><path d="M280 180h160v40H280z" stroke="#000" stroke-width="2" fill="#ffeca9"/><use xlink:href="#l" transform="matrix(1,0,0,1,285,185) translate(1.416015625 22.50217013888889)"/><path d="M80 160h160v80H80z" stroke="#000" stroke-opacity="0" stroke-width="2" fill="#fff" fill-opacity="0"/><use xlink:href="#m" transform="matrix(1,0,0,1,85,165) translate(29.08 45.79166666666667)"/><use xlink:href="#n" transform="matrix(1,0,0,1,85,165) translate(59.693333333333335 45.79166666666667)"/><use xlink:href="#o" transform="matrix(1,0,0,1,85,165) translate(90.30666666666667 45.79166666666667)"/><path d="M490 180h100v40H490z" stroke="#000" stroke-width="2" fill="#c7e8ac"/><use xlink:href="#p" transform="matrix(1,0,0,1,495,185) translate(-1.826171875 22.69314236111111)"/><path d="M610 180h100v40H610z" stroke="#000" stroke-width="2" fill="#c7e8ac"/><use xlink:href="#q" transform="matrix(1,0,0,1,615,185) translate(-1.826171875 22.69314236111111)"/><path d="M730 180h100v40H730z" stroke="#000" stroke-width="2" fill="#c7e8ac"/><use xlink:href="#r" transform="matrix(1,0,0,1,735,185) translate(-1.826171875 22.69314236111111)"/><path d="M850 180h100v40H850z" stroke="#000" stroke-width="2" fill="#c7e8ac"/><use xlink:href="#r" transform="matrix(1,0,0,1,855,185) translate(-1.826171875 22.69314236111111)"/><path d="M970 180h100v40H970z" stroke="#000" stroke-width="2" fill="#c7e8ac"/><use xlink:href="#p" transform="matrix(1,0,0,1,975,185) translate(-1.826171875 22.69314236111111)"/><g fill="none"><path d="M600 130v40H480v-40z"/><path d="M480 130c0 4.14 3.36 7.5 7.5 7.5h45c4.14 0 7.5 3.36 7.5 7.5 0-4.14 3.36-7.5 7.5-7.5h45c4.14 0 7.5-3.36 7.5-7.5" stroke="#000" stroke-width="2"/></g><g fill="none"><path d="M720 130v40H600v-40z"/><path d="M600 130c0 4.14 3.36 7.5 7.5 7.5h45c4.14 0 7.5 3.36 7.5 7.5 0-4.14 3.36-7.5 7.5-7.5h45c4.14 0 7.5-3.36 7.5-7.5" stroke="#000" stroke-width="2"/></g><g fill="none"><path d="M840 130v40H720v-40z"/><path d="M720 130c0 4.14 3.36 7.5 7.5 7.5h45c4.14 0 7.5 3.36 7.5 7.5 0-4.14 3.36-7.5 7.5-7.5h45c4.14 0 7.5-3.36 7.5-7.5" stroke="#000" stroke-width="2"/></g><g fill="none"><path d="M960 130v40H840v-40z"/><path d="M840 130c0 4.14 3.36 7.5 7.5 7.5h45c4.14 0 7.5 3.36 7.5 7.5 0-4.14 3.36-7.5 7.5-7.5h45c4.14 0 7.5-3.36 7.5-7.5" stroke="#000" stroke-width="2"/></g><g fill="none"><path d="M1080 130v40H960v-40z"/><path d="M960 130c0 4.14 3.36 7.5 7.5 7.5h45c4.14 0 7.5 3.36 7.5 7.5 0-4.14 3.36-7.5 7.5-7.5h45c4.14 0 7.5-3.36 7.5-7.5" stroke="#000" stroke-width="2"/></g><g fill="none"><path d="M1441.33 128v44H1080v-44z"/><path d="M1080 128c0 12.47 10.1 22.58 22.58 22.58h135.5c12.48 0 22.6 10.1 22.6 22.6 0-12.5 10.1-22.6 22.57-22.6h135.5c12.47 0 22.58-10.1 22.58-22.58" stroke="#000" stroke-width="2"/></g><path d="M1150 180h220v44h-220z" stroke="#000" stroke-width="2" fill="#c1e4f7"/><use xlink:href="#s" transform="matrix(1,0,0,1,1155,185) translate(-2.03125 25.19314236111111)"/><path d="M80 240h160v80H80z" stroke="#000" stroke-opacity="0" stroke-width="2" fill="#fff" fill-opacity="0"/><use xlink:href="#t" transform="matrix(1,0,0,1,85,245) translate(44.38666666666666 45.79166666666667)"/><use xlink:href="#u" transform="matrix(1,0,0,1,85,245) translate(75 45.79166666666667)"/><path d="M300 256.7h120v46.6H300z" stroke="#000" stroke-opacity="0" stroke-width="2" fill="#fff" fill-opacity="0"/><use xlink:href="#v" transform="matrix(1,0,0,1,305,261.70666666666665) translate(6.8359375 27.065104166666668)"/><path d="M480 260h120v46.6H480z" stroke="#000" stroke-opacity="0" stroke-width="2" fill="#fff" fill-opacity="0"/><use xlink:href="#w" transform="matrix(1,0,0,1,485,265) translate(6.8359375 27.065104166666668)"/><path d="M600 260h120v46.6H600z" stroke="#000" stroke-opacity="0" stroke-width="2" fill="#fff" fill-opacity="0"/><use xlink:href="#x" transform="matrix(1,0,0,1,605,265) translate(6.8359375 27.065104166666668)"/><path d="M720 260h120v46.6H720z" stroke="#000" stroke-opacity="0" stroke-width="2" fill="#fff" fill-opacity="0"/><use xlink:href="#y" transform="matrix(1,0,0,1,725,265) translate(6.8359375 27.065104166666668)"/><path d="M840 260h120v46.6H840z" stroke="#000" stroke-opacity="0" stroke-width="2" fill="#fff" fill-opacity="0"/><use xlink:href="#y" transform="matrix(1,0,0,1,845,265) translate(6.8359375 27.065104166666668)"/><path d="M960 260h120v46.6H960z" stroke="#000" stroke-opacity="0" stroke-width="2" fill="#fff" fill-opacity="0"/><use xlink:href="#w" transform="matrix(1,0,0,1,965,265) translate(6.8359375 27.065104166666668)"/><path d="M1200 256.7h120v46.6h-120z" stroke="#000" stroke-opacity="0" stroke-width="2" fill="#fff" fill-opacity="0"/><use xlink:href="#z" transform="matrix(1,0,0,1,1205,261.70666666666665) translate(6.8359375 27.065104166666668)"/><path d="M320 340h80v80h-80z" stroke="#000" stroke-width="2" fill="#fff"/><use xlink:href="#A" transform="matrix(1,0,0,1,325,344.9999999999999) translate(27.333333333333332 45.75)"/><path d="M500 340h80v80h-80z" stroke="#000" stroke-width="2" fill="#fff"/><use xlink:href="#B" transform="matrix(1,0,0,1,505,344.9999999999999) translate(8.759999999999998 45.75)"/><use xlink:href="#C" transform="matrix(1,0,0,1,505,344.9999999999999) translate(35 45.75)"/><path d="M620 340h80v80h-80z" stroke="#000" stroke-width="2" fill="#fff"/><use xlink:href="#D" transform="matrix(1,0,0,1,625,345) translate(27.333333333333332 45.75)"/><path d="M740 340h80v80h-80z" stroke="#000" stroke-width="2" fill="#fff"/><use xlink:href="#E" transform="matrix(1,0,0,1,745,344.9999999999999) translate(27.333333333333332 45.75)"/><path d="M860 340h80v80h-80z" stroke="#000" stroke-width="2" fill="#fff"/><use xlink:href="#E" transform="matrix(1,0,0,1,865,345) translate(27.333333333333332 45.5)"/><path d="M980 340h80v80h-80z" stroke="#000" stroke-width="2" fill="#fff"/><use xlink:href="#B" transform="matrix(1,0,0,1,985,345) translate(8.759999999999998 45.5)"/><use xlink:href="#C" transform="matrix(1,0,0,1,985,345) translate(35 45.5)"/><path d="M1220 340h80v80h-80z" stroke="#000" stroke-width="2" fill="#fff"/><g><use xlink:href="#F" transform="matrix(1,0,0,1,1225,345) translate(21.88 45.5)"/></g><path d="M80 340h160v80H80z" stroke="#000" stroke-opacity="0" stroke-width="2" fill="#fff" fill-opacity="0"/><g><use xlink:href="#G" transform="matrix(1,0,0,1,85,345) translate(44.38666666666666 45.79166666666667)"/><use xlink:href="#H" transform="matrix(1,0,0,1,85,345) translate(75 45.79166666666667)"/></g><g fill="none"><path d="M1300 440v80H320v-80z"/><path d="M320 440c0 33.83 27.42 61.25 61.25 61.25h367.5c33.83 0 61.25 27.42 61.25 61.25 0-33.83 27.42-61.25 61.25-61.25h367.5c33.83 0 61.25-27.42 61.25-61.25" stroke="#000" stroke-width="2"/></g><path d="M730 580h160v60H730z" stroke="#000" stroke-opacity="0" stroke-width="2" fill="#fff" fill-opacity="0"/><g><use xlink:href="#I" transform="matrix(1,0,0,1,735,585) translate(15.919999999999987 35.79166666666667)"/><use xlink:href="#J" transform="matrix(1,0,0,1,735,585) translate(41.804444444444435 35.79166666666667)"/><use xlink:href="#K" transform="matrix(1,0,0,1,735,585) translate(103.46666666666667 35.79166666666667)"/></g><defs><path d="M270-170h314v-1141l-338 76v-184l336-74h202v1323h310V0H270v-170" id="L"/><path d="M614-616c-74 0-131-59-131-134 0-70 61-135 131-135 72 0 136 64 136 135 0 73-63 134-136 134zm2-744c-94 0-159 53-210 152-88 171-88 754 0 925 51 99 116 152 210 152 95 0 161-53 212-152 88-172 88-754 0-925-51-99-117-152-212-152zm0-160c159 0 280 65 362 196s122 324 122 579-40 447-122 578S775 29 616 29 336-36 255-167 133-490 133-745s41-448 122-579 202-196 361-196" id="M"/><g id="a"><use transform="matrix(0.010850694444444444,0,0,0.010850694444444444,0,0)" xlink:href="#L"/><use transform="matrix(0.010850694444444444,0,0,0.010850694444444444,13.37890625,0)" xlink:href="#L"/><use transform="matrix(0.010850694444444444,0,0,0.010850694444444444,26.7578125,0)" xlink:href="#M"/><use transform="matrix(0.010850694444444444,0,0,0.010850694444444444,40.13671875,0)" xlink:href="#M"/><use transform="matrix(0.010850694444444444,0,0,0.010850694444444444,53.515625,0)" xlink:href="#M"/><use transform="matrix(0.010850694444444444,0,0,0.010850694444444444,66.89453125,0)" xlink:href="#M"/><use transform="matrix(0.010850694444444444,0,0,0.010850694444444444,80.2734375,0)" xlink:href="#L"/><use transform="matrix(0.010850694444444444,0,0,0.010850694444444444,93.65234375,0)" xlink:href="#M"/></g><g id="b"><use transform="matrix(0.010850694444444444,0,0,0.010850694444444444,0,0)" xlink:href="#L"/><use transform="matrix(0.010850694444444444,0,0,0.010850694444444444,13.37890625,0)" xlink:href="#M"/><use transform="matrix(0.010850694444444444,0,0,0.010850694444444444,26.7578125,0)" xlink:href="#L"/><use transform="matrix(0.010850694444444444,0,0,0.010850694444444444,40.13671875,0)" xlink:href="#M"/><use transform="matrix(0.010850694444444444,0,0,0.010850694444444444,53.515625,0)" xlink:href="#M"/><use transform="matrix(0.010850694444444444,0,0,0.010850694444444444,66.89453125,0)" xlink:href="#L"/><use transform="matrix(0.010850694444444444,0,0,0.010850694444444444,80.2734375,0)" xlink:href="#M"/><use transform="matrix(0.010850694444444444,0,0,0.010850694444444444,93.65234375,0)" xlink:href="#L"/></g><g id="c"><use transform="matrix(0.010850694444444444,0,0,0.010850694444444444,0,0)" xlink:href="#M"/><use transform="matrix(0.010850694444444444,0,0,0.010850694444444444,13.37890625,0)" xlink:href="#M"/><use transform="matrix(0.010850694444444444,0,0,0.010850694444444444,26.7578125,0)" xlink:href="#L"/><use transform="matrix(0.010850694444444444,0,0,0.010850694444444444,40.13671875,0)" xlink:href="#M"/><use transform="matrix(0.010850694444444444,0,0,0.010850694444444444,53.515625,0)" xlink:href="#M"/><use transform="matrix(0.010850694444444444,0,0,0.010850694444444444,66.89453125,0)" xlink:href="#M"/><use transform="matrix(0.010850694444444444,0,0,0.010850694444444444,80.2734375,0)" xlink:href="#M"/><use transform="matrix(0.010850694444444444,0,0,0.010850694444444444,93.65234375,0)" xlink:href="#M"/></g><g id="d"><use transform="matrix(0.010850694444444444,0,0,0.010850694444444444,0,0)" xlink:href="#M"/><use transform="matrix(0.010850694444444444,0,0,0.010850694444444444,13.37890625,0)" xlink:href="#M"/><use transform="matrix(0.010850694444444444,0,0,0.010850694444444444,26.7578125,0)" xlink:href="#L"/><use transform="matrix(0.010850694444444444,0,0,0.010850694444444444,40.13671875,0)" xlink:href="#L"/><use transform="matrix(0.010850694444444444,0,0,0.010850694444444444,53.515625,0)" xlink:href="#M"/><use transform="matrix(0.010850694444444444,0,0,0.010850694444444444,66.89453125,0)" xlink:href="#M"/><use transform="matrix(0.010850694444444444,0,0,0.010850694444444444,80.2734375,0)" xlink:href="#M"/><use transform="matrix(0.010850694444444444,0,0,0.010850694444444444,93.65234375,0)" xlink:href="#L"/></g><g id="e"><use transform="matrix(0.010850694444444444,0,0,0.010850694444444444,0,0)" xlink:href="#M"/><use transform="matrix(0.010850694444444444,0,0,0.010850694444444444,13.37890625,0)" xlink:href="#M"/><use transform="matrix(0.010850694444444444,0,0,0.010850694444444444,26.7578125,0)" xlink:href="#L"/><use transform="matrix(0.010850694444444444,0,0,0.010850694444444444,40.13671875,0)" xlink:href="#L"/><use transform="matrix(0.010850694444444444,0,0,0.010850694444444444,53.515625,0)" xlink:href="#M"/><use transform="matrix(0.010850694444444444,0,0,0.010850694444444444,66.89453125,0)" xlink:href="#M"/><use transform="matrix(0.010850694444444444,0,0,0.010850694444444444,80.2734375,0)" xlink:href="#M"/><use transform="matrix(0.010850694444444444,0,0,0.010850694444444444,93.65234375,0)" xlink:href="#M"/></g><g id="f"><use transform="matrix(0.010850694444444444,0,0,0.010850694444444444,0,0)" xlink:href="#L"/><use transform="matrix(0.010850694444444444,0,0,0.010850694444444444,13.37890625,0)" xlink:href="#L"/><use transform="matrix(0.010850694444444444,0,0,0.010850694444444444,26.7578125,0)" xlink:href="#L"/><use transform="matrix(0.010850694444444444,0,0,0.010850694444444444,40.13671875,0)" xlink:href="#M"/><use transform="matrix(0.010850694444444444,0,0,0.010850694444444444,53.515625,0)" xlink:href="#M"/><use transform="matrix(0.010850694444444444,0,0,0.010850694444444444,66.89453125,0)" xlink:href="#L"/><use transform="matrix(0.010850694444444444,0,0,0.010850694444444444,80.2734375,0)" xlink:href="#M"/><use transform="matrix(0.010850694444444444,0,0,0.010850694444444444,93.65234375,0)" xlink:href="#L"/></g><g id="g"><use transform="matrix(0.010850694444444444,0,0,0.010850694444444444,0,0)" xlink:href="#L"/><use transform="matrix(0.010850694444444444,0,0,0.010850694444444444,13.37890625,0)" xlink:href="#M"/><use transform="matrix(0.010850694444444444,0,0,0.010850694444444444,26.7578125,0)" xlink:href="#M"/><use transform="matrix(0.010850694444444444,0,0,0.010850694444444444,40.13671875,0)" xlink:href="#M"/><use transform="matrix(0.010850694444444444,0,0,0.010850694444444444,53.515625,0)" xlink:href="#M"/><use transform="matrix(0.010850694444444444,0,0,0.010850694444444444,66.89453125,0)" xlink:href="#L"/><use transform="matrix(0.010850694444444444,0,0,0.010850694444444444,80.2734375,0)" xlink:href="#M"/><use transform="matrix(0.010850694444444444,0,0,0.010850694444444444,93.65234375,0)" xlink:href="#L"/></g><g id="h"><use transform="matrix(0.010850694444444444,0,0,0.010850694444444444,0,0)" xlink:href="#L"/><use transform="matrix(0.010850694444444444,0,0,0.010850694444444444,13.37890625,0)" xlink:href="#M"/><use transform="matrix(0.010850694444444444,0,0,0.010850694444444444,26.7578125,0)" xlink:href="#M"/><use transform="matrix(0.010850694444444444,0,0,0.010850694444444444,40.13671875,0)" xlink:href="#M"/><use transform="matrix(0.010850694444444444,0,0,0.010850694444444444,53.515625,0)" xlink:href="#M"/><use transform="matrix(0.010850694444444444,0,0,0.010850694444444444,66.89453125,0)" xlink:href="#M"/><use transform="matrix(0.010850694444444444,0,0,0.010850694444444444,80.2734375,0)" xlink:href="#L"/><use transform="matrix(0.010850694444444444,0,0,0.010850694444444444,93.65234375,0)" xlink:href="#L"/></g><path d="M505-811c14 37 27 81 40 120h336v216h-77v-144H179v143h-76v-215h359c-9-32-23-78-35-106zm421 621H539c-6 82 21 198-23 244-32 34-116 24-176 33l-25-73c44-6 104-1 133-21 23-40 7-124 12-183H57v-72h403v-56l174-114H218v-72h543v71L539-289v27h387v72" id="N"/><use transform="matrix(0.031111111111111114,0,0,0.031111111111111114,0,0)" xlink:href="#N" id="i"/><path d="M934-682v74H680v108h-75v-108H377v108h-75v-108H47v-74h255v-122l75 3v119h228v-122l75 3v119h254zM727-148c16-62 10-158 14-231H402v483h-79v-483H86v-73h739c-7 121 3 247-22 352-21 88-145 78-255 84l-30-78c79-10 192 15 209-54" id="O"/><use transform="matrix(0.031111111111111114,0,0,0.031111111111111114,0,0)" xlink:href="#O" id="j"/><path d="M791-396c-158 8-335 13-485 30l-11-62c79-12 107-87 149-140 12-19 24-37 33-52H306v-67h246c-10-32-26-84-37-113l71-14c15 38 29 87 43 127h268v67H558c-33 56-82 131-126 176 102-7 211-11 314-15-24-30-51-64-73-87l52-40c55 59 119 138 162 209l-53 49c-12-23-27-47-43-68zM118-769c50 35 112 79 154 123l-38 68c-44-46-104-98-157-135zM72-549c52 32 123 84 166 124l-36 71c-51-49-110-99-171-138zm357 225c5 176-15 314-108 392-17 16-36 33-57 50l-52-44c80-60 132-118 144-244 4-41 6-94 5-157zM944-91c-8 63 0 155-60 167-56 9-168 22-174-38-11-115-1-244-3-365l69 3-1 315c-4 39 65 27 89 17 19-29 16-81 19-126zM535-325l72 3V80h-72v-405zM54 67c46-103 91-234 121-352l65 19C213-144 171-10 128 96" id="P"/><use transform="matrix(0.031111111111111114,0,0,0.031111111111111114,0,0)" xlink:href="#P" id="k"/><g id="l"><use transform="matrix(0.010850694444444444,0,0,0.010850694444444444,0,0)" xlink:href="#M"/><use transform="matrix(0.010850694444444444,0,0,0.010850694444444444,13.37890625,0)" xlink:href="#M"/><use transform="matrix(0.010850694444444444,0,0,0.010850694444444444,26.7578125,0)" xlink:href="#M"/><use transform="matrix(0.010850694444444444,0,0,0.010850694444444444,40.13671875,0)" xlink:href="#L"/><use transform="matrix(0.010850694444444444,0,0,0.010850694444444444,53.515625,0)" xlink:href="#M"/><use transform="matrix(0.010850694444444444,0,0,0.010850694444444444,66.89453125,0)" xlink:href="#L"/><use transform="matrix(0.010850694444444444,0,0,0.010850694444444444,80.2734375,0)" xlink:href="#M"/><use transform="matrix(0.010850694444444444,0,0,0.010850694444444444,93.65234375,0)" xlink:href="#M"/><use transform="matrix(0.010850694444444444,0,0,0.010850694444444444,107.03125,0)" xlink:href="#L"/><use transform="matrix(0.010850694444444444,0,0,0.010850694444444444,120.41015625,0)" xlink:href="#M"/><use transform="matrix(0.010850694444444444,0,0,0.010850694444444444,133.7890625,0)" xlink:href="#L"/></g><path d="M230-378c-48 48-98 91-154 134l-49-59c121-91 220-191 300-318H70v-70h296c19-37 36-76 51-117l79 17c-13 34-28 68-43 100h482v70H416c-21 36-43 71-67 104h465v494C824 88 720 80 627 93l-24-72c41-5 96 1 123-18 22-15 10-68 13-104H304V94h-74v-472zm509-73H304v112h435v-112zm0 285v-109H304v109h435" id="Q"/><use transform="matrix(0.031111111111111114,0,0,0.031111111111111114,0,0)" xlink:href="#Q" id="m"/><path d="M852-568c-19 164-49 287-114 400C796-86 866-21 950 42l-47 66C820 45 752-19 693-101 630-19 557 44 469 109l-50-62c95-65 168-127 232-212-49-81-81-169-102-274-11 22-23 41-36 61l-44-58c61-104 114-231 142-367l71 10c-12 55-27 107-45 156h293v69h-78zm-351-15H61v-72h199c-14-43-29-92-45-133l71-14c18 45 35 99 51 147h164v72zm110 15c-4 11-8 20-13 29 17 120 47 216 97 304 50-97 73-200 89-333H611zM40-320c55-61 117-154 157-231l59 34c-44 84-106 172-166 240zm319-231c54 61 108 142 154 211l-51 48c-43-76-100-157-156-220zM256-161c-38-45-78-93-116-133l51-46c35 37 70 77 104 117 25-45 44-93 59-144l61 27c-19 61-43 119-74 172 41 49 78 95 117 144l-50 53-107-135C239-20 166 44 78 109L33 49c90-62 162-125 223-210" id="R"/><use transform="matrix(0.031111111111111114,0,0,0.031111111111111114,0,0)" xlink:href="#R" id="n"/><path d="M17-343c96-131 181-289 232-463l79 13c-25 77-50 145-80 214V90h-72v-528c-30 51-63 101-100 148zm596-462c22 48 44 113 62 166h241v71H332v-71h265c-14-49-36-102-54-146zm5 780c54-148 107-327 141-494l79 16c-37 160-89 333-142 478h238v71H304v-71h314zM460-513c45 115 88 260 111 397l-70 28c-22-141-66-287-111-405" id="S"/><use transform="matrix(0.031111111111111114,0,0,0.031111111111111114,0,0)" xlink:href="#S" id="o"/><g id="p"><use transform="matrix(0.010850694444444444,0,0,0.010850694444444444,0,0)" xlink:href="#M"/><use transform="matrix(0.010850694444444444,0,0,0.010850694444444444,13.37890625,0)" xlink:href="#L"/><use transform="matrix(0.010850694444444444,0,0,0.010850694444444444,26.7578125,0)" xlink:href="#M"/><use transform="matrix(0.010850694444444444,0,0,0.010850694444444444,40.13671875,0)" xlink:href="#M"/><use transform="matrix(0.010850694444444444,0,0,0.010850694444444444,53.515625,0)" xlink:href="#M"/><use transform="matrix(0.010850694444444444,0,0,0.010850694444444444,66.89453125,0)" xlink:href="#M"/><use transform="matrix(0.010850694444444444,0,0,0.010850694444444444,80.2734375,0)" xlink:href="#M"/></g><g id="q"><use transform="matrix(0.010850694444444444,0,0,0.010850694444444444,0,0)" xlink:href="#M"/><use transform="matrix(0.010850694444444444,0,0,0.010850694444444444,13.37890625,0)" xlink:href="#L"/><use transform="matrix(0.010850694444444444,0,0,0.010850694444444444,26.7578125,0)" xlink:href="#L"/><use transform="matrix(0.010850694444444444,0,0,0.010850694444444444,40.13671875,0)" xlink:href="#M"/><use transform="matrix(0.010850694444444444,0,0,0.010850694444444444,53.515625,0)" xlink:href="#M"/><use transform="matrix(0.010850694444444444,0,0,0.010850694444444444,66.89453125,0)" xlink:href="#M"/><use transform="matrix(0.010850694444444444,0,0,0.010850694444444444,80.2734375,0)" xlink:href="#L"/></g><g id="r"><use transform="matrix(0.010850694444444444,0,0,0.010850694444444444,0,0)" xlink:href="#M"/><use transform="matrix(0.010850694444444444,0,0,0.010850694444444444,13.37890625,0)" xlink:href="#L"/><use transform="matrix(0.010850694444444444,0,0,0.010850694444444444,26.7578125,0)" xlink:href="#L"/><use transform="matrix(0.010850694444444444,0,0,0.010850694444444444,40.13671875,0)" xlink:href="#M"/><use transform="matrix(0.010850694444444444,0,0,0.010850694444444444,53.515625,0)" xlink:href="#M"/><use transform="matrix(0.010850694444444444,0,0,0.010850694444444444,66.89453125,0)" xlink:href="#M"/><use transform="matrix(0.010850694444444444,0,0,0.010850694444444444,80.2734375,0)" xlink:href="#M"/></g><g id="s"><use transform="matrix(0.010850694444444444,0,0,0.010850694444444444,0,0)" xlink:href="#M"/><use transform="matrix(0.010850694444444444,0,0,0.010850694444444444,13.37890625,0)" xlink:href="#L"/><use transform="matrix(0.010850694444444444,0,0,0.010850694444444444,26.7578125,0)" xlink:href="#M"/><use transform="matrix(0.010850694444444444,0,0,0.010850694444444444,40.13671875,0)" xlink:href="#L"/><use transform="matrix(0.010850694444444444,0,0,0.010850694444444444,53.515625,0)" xlink:href="#M"/><use transform="matrix(0.010850694444444444,0,0,0.010850694444444444,66.89453125,0)" xlink:href="#M"/><use transform="matrix(0.010850694444444444,0,0,0.010850694444444444,80.2734375,0)" xlink:href="#M"/><use transform="matrix(0.010850694444444444,0,0,0.010850694444444444,93.65234375,0)" xlink:href="#L"/><use transform="matrix(0.010850694444444444,0,0,0.010850694444444444,107.03125,0)" xlink:href="#M"/><use transform="matrix(0.010850694444444444,0,0,0.010850694444444444,120.41015625,0)" xlink:href="#L"/><use transform="matrix(0.010850694444444444,0,0,0.010850694444444444,133.7890625,0)" xlink:href="#M"/><use transform="matrix(0.010850694444444444,0,0,0.010850694444444444,147.16796875,0)" xlink:href="#M"/><use transform="matrix(0.010850694444444444,0,0,0.010850694444444444,160.546875,0)" xlink:href="#M"/><use transform="matrix(0.010850694444444444,0,0,0.010850694444444444,173.92578125,0)" xlink:href="#M"/><use transform="matrix(0.010850694444444444,0,0,0.010850694444444444,187.3046875,0)" xlink:href="#L"/><use transform="matrix(0.010850694444444444,0,0,0.010850694444444444,200.68359375,0)" xlink:href="#L"/></g><path d="M802-55c5-80 12-173 15-254H472l31-324 72 5-23 249h164l30-299H446v-71h382l-36 370h102c-9 129-8 269-24 391-11 81-117 68-201 77l-26-73 114-8c37-3 41-26 45-63zM70-729h349v72H283c-19 77-41 141-72 207h182V32H142v-357c-21 33-45 67-72 102l-48-55c80-95 156-234 185-379H70v-72zm255 351H209v340h116v-340zm443 259H426v-71h342v71" id="T"/><use transform="matrix(0.031111111111111114,0,0,0.031111111111111114,0,0)" xlink:href="#T" id="t"/><use transform="matrix(0.031111111111111114,0,0,0.031111111111111114,0,0)" xlink:href="#S" id="u"/><path d="M147-573v-920h203v1012c-18 236 56 346 266 346 147 0 240-59 261-190 4-31 6-82 6-154v-1014h202v920c-4 268-7 369-127 485C878-11 767 29 616 29c-229 0-384-97-440-277-20-65-29-174-29-325" id="U"/><path d="M700-1171v444h445v170H700v444H532v-444H88v-170h444v-444h168" id="V"/><path d="M616-1315L403-551h426zm-122-178h245L1196 0H987L877-389H354L246 0H37" id="W"/><path d="M512-817c-121 1-221 29-305 74v-750h756v170H391v367c52-19 108-31 174-31 306-4 504 201 504 508 0 316-212 508-532 508-154 0-286-20-394-64v-205c109 59 223 97 375 99 219 2 348-121 348-338 0-215-137-340-354-338" id="X"/><g id="v"><use transform="matrix(0.013020833333333334,0,0,0.013020833333333334,0,0)" xlink:href="#U"/><use transform="matrix(0.013020833333333334,0,0,0.013020833333333334,16.0546875,0)" xlink:href="#V"/><use transform="matrix(0.013020833333333334,0,0,0.013020833333333334,32.109375,0)" xlink:href="#M"/><use transform="matrix(0.013020833333333334,0,0,0.013020833333333334,48.1640625,0)" xlink:href="#M"/><use transform="matrix(0.013020833333333334,0,0,0.013020833333333334,64.21875,0)" xlink:href="#W"/><use transform="matrix(0.013020833333333334,0,0,0.013020833333333334,80.2734375,0)" xlink:href="#X"/></g><path d="M563-1520c272-5 493 161 486 422-5 184-82 278-189 404-156 183-266 291-487 524h686V0H152v-170c181-191 381-399 520-561 68-80 112-147 135-197s35-102 35-155c2-166-108-271-275-267-164 4-280 61-403 133v-204c119-56 242-96 399-99" id="Y"/><g id="w"><use transform="matrix(0.013020833333333334,0,0,0.013020833333333334,0,0)" xlink:href="#U"/><use transform="matrix(0.013020833333333334,0,0,0.013020833333333334,16.0546875,0)" xlink:href="#V"/><use transform="matrix(0.013020833333333334,0,0,0.013020833333333334,32.109375,0)" xlink:href="#M"/><use transform="matrix(0.013020833333333334,0,0,0.013020833333333334,48.1640625,0)" xlink:href="#M"/><use transform="matrix(0.013020833333333334,0,0,0.013020833333333334,64.21875,0)" xlink:href="#Y"/><use transform="matrix(0.013020833333333334,0,0,0.013020833333333334,80.2734375,0)" xlink:href="#M"/></g><path d="M1044-1120c-1 183-111 281-268 321 181 46 302 172 303 387 1 289-218 445-522 441-155-2-297-31-420-74v-201c118 61 239 103 398 105 208 2 343-93 344-291 1-181-141-287-330-283H395v-166h154c169 2 295-74 295-231 0-161-111-239-279-238-146 2-264 35-383 80v-186c132-34 244-61 383-64 268-6 481 146 479 400" id="Z"/><g id="x"><use transform="matrix(0.013020833333333334,0,0,0.013020833333333334,0,0)" xlink:href="#U"/><use transform="matrix(0.013020833333333334,0,0,0.013020833333333334,16.0546875,0)" xlink:href="#V"/><use transform="matrix(0.013020833333333334,0,0,0.013020833333333334,32.109375,0)" xlink:href="#M"/><use transform="matrix(0.013020833333333334,0,0,0.013020833333333334,48.1640625,0)" xlink:href="#M"/><use transform="matrix(0.013020833333333334,0,0,0.013020833333333334,64.21875,0)" xlink:href="#Z"/><use transform="matrix(0.013020833333333334,0,0,0.013020833333333334,80.2734375,0)" xlink:href="#L"/></g><g id="y"><use transform="matrix(0.013020833333333334,0,0,0.013020833333333334,0,0)" xlink:href="#U"/><use transform="matrix(0.013020833333333334,0,0,0.013020833333333334,16.0546875,0)" xlink:href="#V"/><use transform="matrix(0.013020833333333334,0,0,0.013020833333333334,32.109375,0)" xlink:href="#M"/><use transform="matrix(0.013020833333333334,0,0,0.013020833333333334,48.1640625,0)" xlink:href="#M"/><use transform="matrix(0.013020833333333334,0,0,0.013020833333333334,64.21875,0)" xlink:href="#Z"/><use transform="matrix(0.013020833333333334,0,0,0.013020833333333334,80.2734375,0)" xlink:href="#M"/></g><path d="M735-1309L264-520h471v-789zm-33-184h234v973h199v164H936V0H735v-356H102v-191" id="aa"/><g id="z"><use transform="matrix(0.013020833333333334,0,0,0.013020833333333334,0,0)" xlink:href="#U"/><use transform="matrix(0.013020833333333334,0,0,0.013020833333333334,16.0546875,0)" xlink:href="#V"/><use transform="matrix(0.013020833333333334,0,0,0.013020833333333334,32.109375,0)" xlink:href="#X"/><use transform="matrix(0.013020833333333334,0,0,0.013020833333333334,48.1640625,0)" xlink:href="#L"/><use transform="matrix(0.013020833333333334,0,0,0.013020833333333334,64.21875,0)" xlink:href="#aa"/><use transform="matrix(0.013020833333333334,0,0,0.013020833333333334,80.2734375,0)" xlink:href="#Z"/></g><path d="M358-390h129v64H329v79h158v63H329V0h-84v-184H88v-63h157v-79H88v-64h128L18-694h99l169 283h7l168-283h95" id="ab"/><use transform="matrix(0.02666666666666667,0,0,0.02666666666666667,0,0)" xlink:href="#ab" id="A"/><path d="M506-814c13 30 33 87 43 121h325v199h-74v-130H183v129h-74v-198h359c-10-34-27-79-39-108zm371 512c-92-71-212-138-325-187l32-64c112 50 230 118 327 183zM69-361c113-50 232-120 324-191l38 63c-96 69-215 140-328 192zM532-16h378v70H74v-70h378v-211H180v-70h624v70H532v211" id="ac"/><use transform="matrix(0.02666666666666667,0,0,0.02666666666666667,0,0)" xlink:href="#ac" id="B"/><path d="M849-654c-48 81-92 150-160 210 69 45 155 80 260 107l-28 67c-116-32-204-71-288-128-80 58-167 101-275 140l-33-62c100-35 177-71 251-123-37-33-71-71-104-115-24 34-50 66-77 95l-54-46c78-83 144-192 189-307l73 19c-11 27-21 51-34 77h280v66zM273-484c33 34 66 74 96 111l-48 47c-21-32-45-62-69-90V88h-69v-471c-30 83-64 158-111 229l-58-47c69-108 122-214 158-352H60v-71h123v-180l69 4v176h105v71H252v87zm261-170c-7 14-15 25-23 38 35 49 73 92 120 129 54-49 94-102 133-167H534zM427-263h408V95h-70V39H497v56h-70v-358zm70 66v171h268v-171H497" id="ad"/><use transform="matrix(0.02666666666666667,0,0,0.02666666666666667,0,0)" xlink:href="#ad" id="C"/><path d="M273-612l-172 33v-73l203-42h59V0h-90v-612" id="ae"/><use transform="matrix(0.02666666666666667,0,0,0.02666666666666667,0,0)" xlink:href="#ae" id="D"/><path d="M522-347C520-144 483 9 287 10 91 9 53-144 53-347s39-356 234-357c196 1 233 154 235 357zm-377 0c0 145 3 282 142 282 140 0 144-136 144-282s-4-281-144-281c-139 0-142 136-142 281" id="af"/><use transform="matrix(0.02666666666666667,0,0,0.02666666666666667,0,0)" xlink:href="#af" id="E"/><path d="M798-669H170v-76h628v76zM765-14c90 0 77-83 87-158l75 24c-13 84-5 185-85 200-89 16-267 34-280-60-4-16-6-36-6-61v-336H389c4 199-45 328-157 414-35 29-79 60-132 93L44 37c168-84 277-185 265-442H89v-75h801v75H637v318c-14 82 53 73 128 73" id="ag"/><use transform="matrix(0.02666666666666667,0,0,0.02666666666666667,0,0)" xlink:href="#ag" id="F"/><use transform="matrix(0.031111111111111114,0,0,0.031111111111111114,0,0)" xlink:href="#N" id="G"/><path d="M760-501c-26-44-58-92-86-134h-72c-26 51-54 99-85 142l-61-37c68-79 110-175 146-278l70 14c-12 32-23 61-37 91h282v68H752c18 27 46 71 61 97zm-426-3c-18-44-42-90-63-131h-55c-34 55-73 106-114 154l-61-44c77-76 142-177 188-281l72 13c-13 30-28 62-44 90h248v68H346c16 30 37 71 51 100zM25-208c93-82 175-191 231-307l70 18c-18 37-37 72-56 107V99h-72v-381c-37 48-77 90-122 132zm900-113H778c-3 116 12 248-6 353-13 74-120 63-206 71l-26-77c69-11 165 20 165-73v-274H321v-72h384v-103l73 3v100h147v72zM529-67c-40-67-96-134-147-189l54-51c50 53 105 119 149 179" id="ah"/><use transform="matrix(0.031111111111111114,0,0,0.031111111111111114,0,0)" xlink:href="#ah" id="H"/><use transform="matrix(0.031111111111111114,0,0,0.031111111111111114,0,0)" xlink:href="#ab" id="I"/><g id="J"><use transform="matrix(0.031111111111111114,0,0,0.031111111111111114,0,0)" xlink:href="#ae"/><use transform="matrix(0.031111111111111114,0,0,0.031111111111111114,17.88888888888889,0)" xlink:href="#af"/><use transform="matrix(0.031111111111111114,0,0,0.031111111111111114,35.77777777777778,0)" xlink:href="#af"/></g><use transform="matrix(0.031111111111111114,0,0,0.031111111111111114,0,0)" xlink:href="#ag" id="K"/></defs></g></svg>