<svg xmlns="http://www.w3.org/2000/svg" xmlns:xlink="http://www.w3.org/1999/xlink" xmlns:lucid="lucid" width="920" height="620"><g transform="translate(-380 -80)" lucid:page-tab-id="0_0"><path d="M480 240l80 60-80 60-80-60z" stroke="#000" stroke-width="2" fill="#ffeca9"/><use xlink:href="#a" transform="matrix(1,0,0,1,405,245) translate(46.86666666666667 32.60000000000001)"/><use xlink:href="#b" transform="matrix(1,0,0,1,405,245) translate(31.266666666666666 63.08888888888889)"/><use xlink:href="#c" transform="matrix(1,0,0,1,405,245) translate(53.13333333333333 63.08888888888889)"/><use xlink:href="#d" transform="matrix(1,0,0,1,405,245) translate(75 63.08888888888889)"/><use xlink:href="#e" transform="matrix(1,0,0,1,405,245) translate(96.86666666666666 63.08888888888889)"/><use xlink:href="#f" transform="matrix(1,0,0,1,405,245) translate(62.22222222222222 93.57777777777777)"/><path d="M720 240l80 60-80 60-80-60z" stroke="#000" stroke-width="2" fill="#ffeca9"/><use xlink:href="#a" transform="matrix(1,0,0,1,645,245) translate(46.86666666666667 32.60000000000001)"/><use xlink:href="#b" transform="matrix(1,0,0,1,645,245) translate(31.266666666666666 63.08888888888889)"/><use xlink:href="#c" transform="matrix(1,0,0,1,645,245) translate(53.13333333333333 63.08888888888889)"/><use xlink:href="#d" transform="matrix(1,0,0,1,645,245) translate(75 63.08888888888889)"/><use xlink:href="#e" transform="matrix(1,0,0,1,645,245) translate(96.86666666666666 63.08888888888889)"/><use xlink:href="#g" transform="matrix(1,0,0,1,645,245) translate(62.22222222222222 93.57777777777777)"/><path d="M528 100c17.67 0 32 17.9 32 40s-14.33 40-32 40h-96c-17.67 0-32-17.9-32-40s14.33-40 32-40z" stroke="#000" stroke-width="2" fill="#c7e8ac"/><use xlink:href="#h" transform="matrix(1,0,0,1,405,105) translate(53.13333333333333 43.02083333333333)"/><use xlink:href="#i" transform="matrix(1,0,0,1,405,105) translate(75 43.02083333333333)"/><path d="M480 182v54.93" stroke="#000" stroke-width="2" fill="none"/><path d="M481 182.03h-2V181h2z"/><path d="M469.82 219.57L480 236.8l10.18-17.23" stroke="#000" stroke-width="2" fill="none"/><path d="M960 240l80 60-80 60-80-60z" stroke="#000" stroke-width="2" fill="#ffeca9"/><use xlink:href="#a" transform="matrix(1,0,0,1,885,245) translate(46.86666666666667 32.60000000000001)"/><use xlink:href="#b" transform="matrix(1,0,0,1,885,245) translate(31.266666666666666 63.08888888888889)"/><use xlink:href="#c" transform="matrix(1,0,0,1,885,245) translate(53.13333333333333 63.08888888888889)"/><use xlink:href="#d" transform="matrix(1,0,0,1,885,245) translate(75 63.08888888888889)"/><use xlink:href="#e" transform="matrix(1,0,0,1,885,245) translate(96.86666666666666 63.08888888888889)"/><use xlink:href="#j" transform="matrix(1,0,0,1,885,245) translate(62.22222222222222 93.57777777777777)"/><path d="M1120 440h160v80h-160z" stroke="#000" stroke-width="2" fill="#c1e4f7"/><use xlink:href="#k" transform="matrix(1,0,0,1,1125,445) translate(3.74444444444444 43.02083333333333)"/><use xlink:href="#l" transform="matrix(1,0,0,1,1125,445) translate(67.05555555555556 43.02083333333333)"/><use xlink:href="#m" transform="matrix(1,0,0,1,1125,445) translate(88.92222222222222 43.02083333333333)"/><use xlink:href="#n" transform="matrix(1,0,0,1,1125,445) translate(110.78888888888889 43.02083333333333)"/><path d="M528 600c17.67 0 32 17.9 32 40s-14.33 40-32 40h-96c-17.67 0-32-17.9-32-40s14.33-40 32-40z" stroke="#000" stroke-width="2" fill="#f9d2de"/><use xlink:href="#o" transform="matrix(1,0,0,1,405,605) translate(53.13333333333333 43.02083333333333)"/><use xlink:href="#p" transform="matrix(1,0,0,1,405,605) translate(75 43.02083333333333)"/><path d="M880 440h160v80H880z" stroke="#000" stroke-width="2" fill="#c1e4f7"/><use xlink:href="#k" transform="matrix(1,0,0,1,885,445) translate(14.677777777777777 43.02083333333333)"/><use xlink:href="#m" transform="matrix(1,0,0,1,885,445) translate(77.9888888888889 43.02083333333333)"/><use xlink:href="#n" transform="matrix(1,0,0,1,885,445) translate(99.85555555555555 43.02083333333333)"/><path d="M400 440h160v80H400z" stroke="#000" stroke-width="2" fill="#c1e4f7"/><use xlink:href="#k" transform="matrix(1,0,0,1,405,445) translate(14.677777777777777 43.02083333333333)"/><use xlink:href="#q" transform="matrix(1,0,0,1,405,445) translate(77.9888888888889 43.02083333333333)"/><use xlink:href="#r" transform="matrix(1,0,0,1,405,445) translate(99.85555555555555 43.02083333333333)"/><path d="M640 440h160v80H640z" stroke="#000" stroke-width="2" fill="#c1e4f7"/><use xlink:href="#k" transform="matrix(1,0,0,1,645,445) translate(14.677777777777777 43.02083333333333)"/><use xlink:href="#s" transform="matrix(1,0,0,1,645,445) translate(77.9888888888889 43.02083333333333)"/><use xlink:href="#t" transform="matrix(1,0,0,1,645,445) translate(99.85555555555555 43.02083333333333)"/><path d="M480 362.25v74.93" stroke="#000" stroke-width="2" fill="none"/><path d="M481 362.28h-2v-1.78l1 .75 1-.75z"/><path d="M469.82 419.82L480 437.04l10.18-17.22" stroke="#000" stroke-width="2" fill="none"/><use xlink:href="#u" transform="matrix(1,0,0,1,488,356.47111111111116) translate(0 18.666666666666668)"/><path d="M562.67 300h73.85" stroke="#000" stroke-width="2" fill="none"/><path d="M562.7 301h-2.37l1.34-1-1.34-1h2.36z"/><path d="M619.15 310.18L636.37 300l-17.22-10.18" stroke="#000" stroke-width="2" fill="none"/><use xlink:href="#v" transform="matrix(1,0,0,1,561.9199999999998,271.60888888888894) translate(0 18.666666666666668)"/><path d="M720 362.25v74.93" stroke="#000" stroke-width="2" fill="none"/><path d="M721 362.28h-2v-1.78l1 .75 1-.75z"/><path d="M709.82 419.82L720 437.04l10.18-17.22" stroke="#000" stroke-width="2" fill="none"/><g><use xlink:href="#u" transform="matrix(1,0,0,1,728,356.47111111111116) translate(0 18.666666666666668)"/></g><path d="M802.67 300h73.85" stroke="#000" stroke-width="2" fill="none"/><path d="M802.7 301h-2.37l1.34-1-1.34-1h2.36z"/><path d="M859.15 310.18L876.37 300l-17.22-10.18" stroke="#000" stroke-width="2" fill="none"/><g><use xlink:href="#v" transform="matrix(1,0,0,1,801.92,271.60888888888894) translate(0 18.666666666666668)"/></g><path d="M960 362.25v74.93" stroke="#000" stroke-width="2" fill="none"/><path d="M961 362.28h-2v-1.78l1 .75 1-.75z"/><path d="M949.82 419.82L960 437.04l10.18-17.22" stroke="#000" stroke-width="2" fill="none"/><g><use xlink:href="#u" transform="matrix(1,0,0,1,968,356.47111111111116) translate(0 18.666666666666668)"/></g><path d="M1042.67 300H1200v137.18" stroke="#000" stroke-width="2" fill="none"/><path d="M1042.7 301h-2.37l1.34-1-1.34-1h2.36z"/><path d="M1189.82 419.82l10.18 17.22 10.18-17.22" stroke="#000" stroke-width="2" fill="none"/><g><use xlink:href="#v" transform="matrix(1,0,0,1,1043.2469274620282,271.60888888888894) translate(0 18.666666666666668)"/></g><path d="M480 522v75.18" stroke="#000" stroke-width="2" fill="none"/><path d="M481 522.03h-2V521h2z"/><path d="M469.82 579.82L480 597.04l10.18-17.22M1200 522v50.67H481.82" stroke="#000" stroke-width="2" fill="none"/><path d="M1201 522.03h-2V521h2z"/><path d="M499.18 562.5l-17.22 10.17 17.22 10.18M720 522v47.85" stroke="#000" stroke-width="2" fill="none"/><path d="M721 522.03h-2V521h2z"/><path d="M709.82 552.5L720 569.7l10.18-17.2M960 522v48.85" stroke="#000" stroke-width="2" fill="none"/><path d="M961 522.03h-2V521h2z"/><path d="M949.82 553.5L960 570.7l10.18-17.2" stroke="#000" stroke-width="2" fill="none"/><defs><path d="M421-150C420-33 339 5 216 6 161 5 103 1 59-11v-74c96 24 327 62 277-101-19-63-134-57-191-85-50-25-78-60-77-133 3-100 80-148 194-146 44 0 106 6 136 18l-6 73c-70-22-243-54-243 57 0 98 119 80 181 110 57 27 92 61 91 142" id="w"/><path d="M452-10c-39 12-91 20-143 20C128 13 59-87 59-270s69-283 250-280c52-1 105 8 141 20v79c-41-15-84-24-140-24-130-5-159 76-159 206 0 129 30 209 160 203 51 0 104-7 141-23v79" id="x"/><path d="M558-270c0 183-68 280-249 280S59-87 59-270s69-280 250-280 249 97 249 280zm-407 0c0 129 28 207 158 207 132 0 158-77 158-207s-28-208-158-208c-131 0-158 78-158 208" id="y"/><path d="M177-442c27-72 83-111 182-108l-3 78c-102-3-155 42-179 119V0H91v-540h86v98" id="z"/><path d="M304-550c173 0 234 116 211 289l-366 23c-2 119 53 175 173 172 59 0 130-16 169-35v79C444 0 379 10 309 10 128 13 59-87 59-270c0-181 66-280 245-280zm131 227c3-99-30-156-131-156-116 0-154 65-155 177" id="A"/><g id="a"><use transform="matrix(0.022222222222222223,0,0,0.022222222222222223,0,0)" xlink:href="#w"/><use transform="matrix(0.022222222222222223,0,0,0.022222222222222223,10.644444444444446,0)" xlink:href="#x"/><use transform="matrix(0.022222222222222223,0,0,0.022222222222222223,21.68888888888889,0)" xlink:href="#y"/><use transform="matrix(0.022222222222222223,0,0,0.022222222222222223,35.422222222222224,0)" xlink:href="#z"/><use transform="matrix(0.022222222222222223,0,0,0.022222222222222223,43.422222222222224,0)" xlink:href="#A"/></g><path d="M525-488C569-227 743-83 937 26l-52 72C714-3 567-151 496-329 422-136 271-11 111 98L55 26c147-86 285-195 357-354 23-50 35-103 38-160H90v-76h360v-235l81 4v231h373v76H525" id="B"/><use transform="matrix(0.022222222222222223,0,0,0.022222222222222223,0,0)" xlink:href="#B" id="b"/><path d="M918-351H542c-3 118 11 251-6 359-13 81-140 61-229 74L283 5c54-7 126 2 161-23 13-12 15-29 15-55v-278H64v-73h395v-240H145v-74h693v74H542v240h376v73" id="C"/><use transform="matrix(0.022222222222222223,0,0,0.022222222222222223,0,0)" xlink:href="#C" id="c"/><path d="M742-529c-22-43-52-87-79-126h-73c-19 29-39 58-62 86l-63-33c57-63 92-131 128-211l76 13c-13 29-27 56-42 83h288v62H739c17 24 43 64 56 89zm-420 2c-17-45-39-89-62-128h-36c-33 50-70 96-109 138l-58-43c69-70 128-157 171-251l79 14c-14 28-27 54-44 80h230v62H335c17 29 34 65 50 97zm602 166v64H48v-64h399v-89H139v-60h308v-62l78 5v57h307v60H525v89h399zM393 34c-49-50-114-96-174-134l36-51H94v-65h544v-62l78 3v59h161v65H716c-5 77 17 177-32 213-41 30-121 31-190 38l-24-71c69-14 168 16 168-78v-102H268c57 35 118 76 167 118" id="D"/><use transform="matrix(0.022222222222222223,0,0,0.022222222222222223,0,0)" xlink:href="#D" id="d"/><use transform="matrix(0.022222222222222223,0,0,0.022222222222222223,0,0)" xlink:href="#C" id="e"/><path d="M284-704c166 0 228 110 229 282C511-158 406 9 143 12l1-75c167-2 259-87 278-236h-4c-28 29-86 59-148 57-141-2-213-76-213-219 0-151 76-243 227-243zM141-461c-2 95 47 149 132 151 100 2 154-47 156-138 1-108-43-181-145-182-100 0-143 66-143 169" id="E"/><path d="M522-347C520-144 483 9 287 10 91 9 53-144 53-347s39-356 234-357c196 1 233 154 235 357zm-377 0c0 145 3 282 142 282 140 0 144-136 144-282s-4-281-144-281c-139 0-142 136-142 281" id="F"/><g id="f"><use transform="matrix(0.022222222222222223,0,0,0.022222222222222223,0,0)" xlink:href="#E"/><use transform="matrix(0.022222222222222223,0,0,0.022222222222222223,12.777777777777779,0)" xlink:href="#F"/></g><path d="M435-616H54v-78h458v88L227 0h-92" id="G"/><g id="g"><use transform="matrix(0.022222222222222223,0,0,0.022222222222222223,0,0)" xlink:href="#G"/><use transform="matrix(0.022222222222222223,0,0,0.022222222222222223,12.777777777777779,0)" xlink:href="#F"/></g><path d="M933-308H709V98h-80v-406H360c-5 215-98 319-219 424L84 60c108-93 193-178 198-368H48v-73h236v-281H100v-73h780v73H709v281h224v73zm-304-73v-281H363v281h266" id="H"/><use transform="matrix(0.022222222222222223,0,0,0.022222222222222223,0,0)" xlink:href="#H" id="h"/><path d="M839-437c-137 9-294 8-423 25l-15-69c48-17 57-47 85-89 48-71 90-159 126-241l68 28c-46 101-103 206-165 290 89-4 201-10 290-15-27-51-62-113-92-156l58-33c57 82 117 185 159 281l-63 44c-8-21-19-44-28-65zM385-619c-1 187-28 344-84 473 40 35 84 79 117 115l-45 68C342-1 302-43 263-79 217-7 165 48 101 113L51 63C116 0 167-53 212-126c-40-36-86-76-128-104 25-100 44-207 59-316H53v-73h100c6-60 13-121 17-182l69 5c-5 61-11 120-18 177h164zm-173 73c-15 101-30 194-53 286 28 19 59 44 87 67 44-98 56-222 70-353H212zm238 237h420V99h-73V41H522v57h-72v-407zm72 70v211h275v-211H522" id="I"/><use transform="matrix(0.022222222222222223,0,0,0.022222222222222223,0,0)" xlink:href="#I" id="i"/><path d="M513-228C510-79 438 10 287 10 121 10 57-96 57-269c3-264 108-432 372-435l-1 76c-164 4-260 84-278 233h3c29-28 87-59 149-57 136 1 214 80 211 224zM298-383c-100-2-153 49-155 139 0 119 48 179 143 179 99-1 146-59 145-163 2-95-47-153-133-155" id="J"/><g id="j"><use transform="matrix(0.022222222222222223,0,0,0.022222222222222223,0,0)" xlink:href="#J"/><use transform="matrix(0.022222222222222223,0,0,0.022222222222222223,12.777777777777779,0)" xlink:href="#F"/></g><path d="M177-443c26-68 76-109 175-107 172-3 225 110 223 280 0 166-55 280-223 280-100 1-148-36-175-104v294H91v-740h86v97zm-4 173c-1 126 42 208 168 207 119 1 145-90 144-207 1-118-24-210-144-208-128-1-169 81-168 208" id="K"/><path d="M186-690c0 43-12 50-51 51-41-1-51-7-52-51 1-45 10-49 52-51 40 2 51 7 51 51zM91-540h86V0H91v-540" id="L"/><path d="M177-463c28-60 88-86 173-87 122-1 182 56 181 176V0h-87v-342c2-81-22-133-103-131-93-2-143 35-164 108V0H91v-540h86v77" id="M"/><path d="M181-170c-2 67 9 109 78 104 24 0 39-2 59-6V1c-21 2-37 5-61 5C135 13 95-44 95-165v-303H15v-72h80v-128h86v128h134v72H181v298" id="N"/><path d="M151-281c0 204 64 340 154 481h-82C133 68 65-73 65-274c0-208 70-350 161-486h82c-92 146-157 274-157 479" id="O"/><path d="M77-760h100l-23 296h-54" id="P"/><g id="k"><use transform="matrix(0.022222222222222223,0,0,0.022222222222222223,0,0)" xlink:href="#K"/><use transform="matrix(0.022222222222222223,0,0,0.022222222222222223,14.111111111111112,0)" xlink:href="#z"/><use transform="matrix(0.022222222222222223,0,0,0.022222222222222223,22.533333333333335,0)" xlink:href="#L"/><use transform="matrix(0.022222222222222223,0,0,0.022222222222222223,28.48888888888889,0)" xlink:href="#M"/><use transform="matrix(0.022222222222222223,0,0,0.022222222222222223,42.22222222222223,0)" xlink:href="#N"/><use transform="matrix(0.022222222222222223,0,0,0.022222222222222223,49.711111111111116,0)" xlink:href="#O"/><use transform="matrix(0.022222222222222223,0,0,0.022222222222222223,57.688888888888904,0)" xlink:href="#P"/></g><path d="M594-661c-35 64-73 125-114 182l51 3v576h-77v-544C354-315 240-208 103-109l-56-63c197-133 343-288 456-489H99v-76h790v76H594zm279 547c-89-103-197-208-303-293l50-56c105 84 219 182 309 281" id="Q"/><use transform="matrix(0.022222222222222223,0,0,0.022222222222222223,0,0)" xlink:href="#Q" id="l"/><path d="M834-424c-50 112-106 202-186 282C729-80 828-25 946 23l-44 73C785 40 684-18 592-92 491-8 380 47 243 105l-42-70C332-15 439-66 535-141c-90-85-152-177-201-299C309-206 212-53 95 93L32 47c146-167 246-360 241-676 1-16 1-30 2-43H107v-73h649v74c-32 64-70 121-111 176h189v71zM344-613c52 179 128 313 247 423 69-66 119-141 162-234H551v-63c43-56 79-120 114-185H347" id="R"/><use transform="matrix(0.022222222222222223,0,0,0.022222222222222223,0,0)" xlink:href="#R" id="m"/><path d="M849-654c-48 81-92 150-160 210 69 45 155 80 260 107l-28 67c-116-32-204-71-288-128-80 58-167 101-275 140l-33-62c100-35 177-71 251-123-37-33-71-71-104-115-24 34-50 66-77 95l-54-46c78-83 144-192 189-307l73 19c-11 27-21 51-34 77h280v66zM273-484c33 34 66 74 96 111l-48 47c-21-32-45-62-69-90V88h-69v-471c-30 83-64 158-111 229l-58-47c69-108 122-214 158-352H60v-71h123v-180l69 4v176h105v71H252v87zm261-170c-7 14-15 25-23 38 35 49 73 92 120 129 54-49 94-102 133-167H534zM427-263h408V95h-70V39H497v56h-70v-358zm70 66v171h268v-171H497" id="S"/><path d="M294-286c0 208-70 350-161 486H50C142 54 207-74 207-279c0-203-64-340-153-481h82c90 132 158 273 158 474" id="T"/><g id="n"><use transform="matrix(0.022222222222222223,0,0,0.022222222222222223,0,0)" xlink:href="#S"/><use transform="matrix(0.022222222222222223,0,0,0.022222222222222223,21.866666666666667,0)" xlink:href="#P"/><use transform="matrix(0.022222222222222223,0,0,0.022222222222222223,27.48888888888889,0)" xlink:href="#T"/></g><path d="M685-594v142h207v70H411v-70h199v-142H393v-71h217v-137l75 3v134h248v71H685zM246-445c-58 5-122 5-174 15l-15-70c39-14 43-44 69-78 41-66 83-147 115-223l62 26c-41 91-93 191-146 269 40-2 90-5 129-7 15-26 30-53 44-81l58 27c-55 107-116 213-184 305l175-25 2 70c-93 13-197 26-285 44l-16-72c57-17 75-73 110-113 19-27 37-56 56-87zm187 171h431v376h-75V36H507v66h-74v-376zm74 68v174h282v-174H507zM42-28c118-16 252-39 361-65 1 25 3 49 4 75C298 4 166 27 50 43" id="U"/><use transform="matrix(0.022222222222222223,0,0,0.022222222222222223,0,0)" xlink:href="#U" id="o"/><path d="M569-262C666-158 795-69 949-8l-38 69C754-15 631-94 529-208V99h-75v-306C353-98 228-10 75 61L32-9c152-61 281-152 382-253H148v-268h306v-103H78v-71h376v-100l75 3v97h375v71H529v103h305v268H569zm-347-64h232v-139H222v139zm307-139v139h231v-139H529" id="V"/><use transform="matrix(0.022222222222222223,0,0,0.022222222222222223,0,0)" xlink:href="#V" id="p"/><path d="M23-337c107-125 186-287 241-463l74 14c-25 79-54 154-87 224V96h-74v-520c-31 49-62 95-98 138zm480-241c2-65 3-156 4-222l77 3-4 219h326v74H578c-5 285-97 457-247 602l-64-51C411-85 492-240 499-504H312v-74h191zm226-212c45 47 92 103 130 157l-55 53c-36-57-83-122-129-169zM691-64C676 13 756 1 820-5c47-16 32-95 41-153l71 24c-8 80-1 178-72 195-25 7-61 11-96 11-93 3-148-19-148-116v-417l75 3v394" id="W"/><use transform="matrix(0.022222222222222223,0,0,0.022222222222222223,0,0)" xlink:href="#W" id="q"/><path d="M818-708c-91 11-193 18-291 25v100h362v63H591c98 80 222 132 360 174l-31 66c-163-56-289-111-393-215v156h-71v-155C356-396 227-336 83-278l-38-66c132-44 249-96 343-176H97v-63h359v-96c-97 7-197 9-293 12l-2-64c221-5 446-19 649-43zM672-194h163c-14 80-7 191-49 241-31 37-116 25-181 32l-28-65c40-2 83-3 122-7 55-7 42-87 56-137H585l27-117H419C384-58 279 45 117 110L70 49C213-7 315-84 347-247H213v-64h485" id="X"/><g id="r"><use transform="matrix(0.022222222222222223,0,0,0.022222222222222223,0,0)" xlink:href="#X"/><use transform="matrix(0.022222222222222223,0,0,0.022222222222222223,21.866666666666667,0)" xlink:href="#P"/><use transform="matrix(0.022222222222222223,0,0,0.022222222222222223,27.48888888888889,0)" xlink:href="#T"/></g><path d="M902 78C643 27 450-72 351-284H230V-6c74-22 167-53 240-76l4 77C370 26 244 60 146 95l-28-73c22-14 36-14 36-42v-688h284c-9-31-22-69-34-95l77-13c11 29 30 75 39 108h270v424H435c31 55 69 101 112 138 91-41 186-94 263-149l43 60c-71 49-158 96-240 135C705-47 805-21 934 4zM230-641v113h483v-113H230zm483 291v-112H230v112h483" id="Y"/><use transform="matrix(0.022222222222222223,0,0,0.022222222222222223,0,0)" xlink:href="#Y" id="s"/><path d="M422-554c-19 160-37 276-92 388 45 38 95 83 133 122l-52 72c-34-40-80-86-122-124C234-20 174 34 96 98L39 43c79-62 140-111 194-189-43-36-91-75-133-106 23-95 45-193 60-298H58v-75h113c8-59 14-119 19-181l72 6c-6 61-12 117-19 175h179v71zm475-108c-59 66-113 125-183 179v92h225v74H714c-3 112 12 240-6 341-12 68-105 62-184 69l-24-78c64-8 139 12 139-75v-257H425v-74h214v-119c58-46 112-96 162-151H466v-75h431v74zM232-550c-15 95-31 177-54 265 32 21 64 45 95 71 46-98 64-199 82-336H232" id="Z"/><g id="t"><use transform="matrix(0.022222222222222223,0,0,0.022222222222222223,0,0)" xlink:href="#Z"/><use transform="matrix(0.022222222222222223,0,0,0.022222222222222223,21.866666666666667,0)" xlink:href="#P"/><use transform="matrix(0.022222222222222223,0,0,0.022222222222222223,27.48888888888889,0)" xlink:href="#T"/></g><path d="M780-415H180v-343h600v343zM255-697v79h450v-79H255zm450 221v-80H255v80h450zM530 10c132 7 272 5 403-2l-18 67c-218 1-488 32-617-73-21-17-40-37-58-61-34 71-77 122-136 172L43 65c91-75 155-167 181-305l74 10c-8 35-17 69-28 100C314-60 367-20 456 0v-276H68v-63h836v63H530v104h303v61H530V10" id="aa"/><use transform="matrix(0.017777777777777778,0,0,0.017777777777777778,0,0)" xlink:href="#aa" id="u"/><path d="M455-553C349-467 228-398 91-336l-40-69c174-70 316-156 433-271H106v-70h771v70H582c-27 31-57 61-88 90l32 2v248h-71v-217zm440 215c-93-72-218-140-332-191l31-62c111 49 237 114 334 177zm-705 38h604V91h-73V34H260v57h-70v-391zm70 73v190h461v-190H260" id="ab"/><use transform="matrix(0.017777777777777778,0,0,0.017777777777777778,0,0)" xlink:href="#ab" id="v"/></defs></g></svg>