<svg xmlns="http://www.w3.org/2000/svg" xmlns:xlink="http://www.w3.org/1999/xlink" xmlns:lucid="lucid" width="1256.25" height="780"><g transform="translate(-178.24986559649244 -180)" lucid:page-tab-id="0_0"><path d="M420 420v80h160v-80zM420 460h160" stroke="#000" stroke-width="2" fill="#7ab648"/><use xlink:href="#a" transform="matrix(1,0,0,1,436,420) translate(3.794921875 27.69314236111111)"/><use xlink:href="#b" transform="matrix(1,0,0,1,436,460) translate(17.173828125 27.69314236111111)"/><path d="M420 500h160v40H420z" stroke="#000" stroke-width="2" fill="#c7e8ac"/><use xlink:href="#c" transform="matrix(1,0,0,1,425,505) translate(48.2421875 22.50217013888889)"/><path d="M280 420h120v80H280z" fill="none"/><path d="M400 500c-2.76 0-5-2.24-5-5v-30c0-2.76-2.24-5-5-5 2.76 0 5-2.24 5-5v-30c0-2.76 2.24-5 5-5" stroke="#000" stroke-width="2" fill="none"/><use xlink:href="#d" transform="matrix(1,0,0,1,285,425) translate(-12.03125 42.693142361111114)"/><path d="M680 420v80h160v-80zM680 460h160" stroke="#000" stroke-width="2" fill="#7ab648"/><use xlink:href="#e" transform="matrix(1,0,0,1,696,420) translate(3.794921875 27.69314236111111)"/><use xlink:href="#f" transform="matrix(1,0,0,1,696,460) translate(17.173828125 27.69314236111111)"/><path d="M680 500h160v40H680z" stroke="#000" stroke-width="2" fill="#a3d977"/><use xlink:href="#g" transform="matrix(1,0,0,1,685,505) translate(28.173828125 22.50217013888889)"/><path d="M640 880h240v60H640z" fill="none"/><use xlink:href="#h" transform="matrix(1,0,0,1,640,880) translate(23.671875 39.231770833333336)"/><path d="M220 280h160v40H220z" stroke="#000" stroke-width="2" fill="#c1e4f7"/><use xlink:href="#i" transform="matrix(1,0,0,1,225,285) translate(61.62109375 22.50217013888889)"/><path d="M220 240h160v40H220z" stroke="#000" stroke-width="2" fill="#c1e4f7"/><use xlink:href="#j" transform="matrix(1,0,0,1,225,245) translate(41.552734375 22.50217013888889)"/><path d="M220 360h160v60H220z" fill="none"/><use xlink:href="#k" transform="matrix(1,0,0,1,220,360) translate(53.33333333333333 35.333333333333336)"/><use xlink:href="#l" transform="matrix(1,0,0,1,220,360) translate(80 35.333333333333336)"/><path d="M382 260l120.7 1.42 41.64 2.56 29.7 3.1 23.08 3.38 18.75 3.56 15.64 3.66 13.32 3.7 11.5 3.74 10.03 3.73 8.87 3.72 7.9 3.72 7.07 3.7 6.4 3.68 5.8 3.68 5.3 3.68 4.85 3.7 4.47 3.68 4.13 3.72 3.83 3.75 3.55 3.77 3.3 3.84 3.1 3.9 2.88 3.96 2.7 4.05 2.5 4.15 2.35 4.26 2.18 4.4 2.02 4.55 1.87 4.7 1.7 4.92 1.55 5.13 1.4 5.4 1.2 5.66 1 6 .76 5.97" stroke="#000" stroke-width="2" fill="none"/><path d="M382.04 259l-.02 2H381v-2z"/><path d="M759.83 415.77l-5.38-14 9.26-.5z" stroke="#000" stroke-width="2"/><path d="M382 300.02l4.48.1 5.37.33 5.27.56 5.16.77 5.07.97 4.97 1.17 4.86 1.38 4.77 1.55 4.66 1.74 4.56 1.92 4.44 2.08 4.33 2.28 4.22 2.44 4.1 2.6 3.97 2.78 3.84 2.93 3.7 3.1 3.6 3.23 3.43 3.38 3.28 3.54 3.14 3.66 3 3.8 2.83 3.92 2.67 4.04 2.5 4.17 2.34 4.3 2.17 4.4 2 4.5 1.8 4.62 1.62 4.72 1.44 4.83 1.23 4.93 1.05 5.03.8 4.8" stroke="#000" stroke-width="2" fill="none"/><path d="M382.05 299.02l-.04 2-1-.02v-2z"/><path d="M499.77 415.77l-5.65-13.9 9.24-.66z" stroke="#000" stroke-width="2"/><path d="M582 479.1l.7-.03 1.65-.1 1.6-.17 1.58-.24 1.54-.3 1.53-.36 1.5-.44 1.52-.5 1.5-.57 1.53-.66 1.53-.74 1.57-.84 1.6-.94 1.63-1.07 1.7-1.2 1.77-1.38 1.85-1.58 1.97-1.84 2.12-2.14 2.3-2.53 2.55-3.07 2.9-3.83 3.5-5 4.58-7.2 8.87-15.5 16.63-29.54 5.4-8.5 4.3-6.2 3.75-4.88 3.37-4.05 3.12-3.43 2.93-2.96 2.8-2.58 2.67-2.28.6-.48 3.9-2.92 3.58-2.33 3.3-1.85 3.05-1.47 2.87-1.16 2.7-.9 2.57-.65 2.46-.47 2.37-.3 2.3-.14 2.23.03 2.2.15 2.15.3 2.14.42 2.12.58 2.12.73 2.14.9 2.16 1.05 2.17 1.26 2.22 1.48 2.24 1.7 2.28 2 2.3 2.28 2.33 2.64 2.34 3 2.34 3.45 2.3 3.9 2.18 4.37 2.06 4.85 1.86 5.3 1.6 5.7 1 4.74" stroke="#000" stroke-width="2" fill="none"/><path d="M582.05 480.1H581v-2h1z"/><path d="M759.7 415.78l-6-13.76 9.23-.9z" stroke="#000" stroke-width="2"/><path d="M860 420h80v120h-80z" fill="none"/><path d="M860 540c4.14 0 7.5-3.36 7.5-7.5v-45c0-4.14 3.36-7.5 7.5-7.5-4.14 0-7.5-3.36-7.5-7.5v-45c0-4.14-3.36-7.5-7.5-7.5" stroke="#000" stroke-width="2" fill="none"/><use xlink:href="#m" transform="matrix(1,0,0,1,887.5,425) translate(0 62.693142361111114)"/><path d="M680 540v340h160V540zM680 582.5h160M680 625h160M680 667.5h160M680 710h160M680 752.5h160M680 795h160M680 837.5h160" stroke="#000" stroke-width="2" fill="#c7e8ac"/><use xlink:href="#n" transform="matrix(1,0,0,1,696,540) translate(17.173828125 29.19314236111111)"/><use xlink:href="#o" transform="matrix(1,0,0,1,696,583) translate(-16.2734375 29.19314236111111)"/><use xlink:href="#p" transform="matrix(1,0,0,1,696,626) translate(-9.583984375 29.19314236111111)"/><use xlink:href="#q" transform="matrix(1,0,0,1,696,669) translate(-2.89453125 29.19314236111111)"/><use xlink:href="#r" transform="matrix(1,0,0,1,696,712) translate(10.484375 29.19314236111111)"/><use xlink:href="#s" transform="matrix(1,0,0,1,696,755) translate(43.931640625 29.19314236111111)"/><use xlink:href="#t" transform="matrix(1,0,0,1,696,798) translate(17.173828125 29.19314236111111)"/><use xlink:href="#s" transform="matrix(1,0,0,1,696,841) translate(43.931640625 29.19314236111111)"/><path d="M420 621.6v80h160v-80zM420 661.6h160" stroke="#000" stroke-width="2" fill="#7ab648"/><use xlink:href="#e" transform="matrix(1,0,0,1,436,621.5999999999999) translate(3.794921875 27.69314236111111)"/><use xlink:href="#f" transform="matrix(1,0,0,1,436,661.5999999999999) translate(17.173828125 27.69314236111111)"/><path d="M420 700h160v40H420z" stroke="#000" stroke-width="2" fill="#c7e8ac"/><use xlink:href="#u" transform="matrix(1,0,0,1,425,705) translate(48.2421875 22.50217013888889)"/><path d="M280 621.6h120v80H280z" fill="none"/><path d="M400 701.6c-2.76 0-5-2.24-5-5v-30c0-2.76-2.24-5-5-5 2.76 0 5-2.24 5-5v-30c0-2.76 2.24-5 5-5" stroke="#000" stroke-width="2" fill="none"/><use xlink:href="#v" transform="matrix(1,0,0,1,285,626.5999999999999) translate(-12.03125 42.693142361111114)"/><path d="M500 701.6V700" stroke="#000" stroke-width="2" fill="none"/><path d="M501 702.6h-2v-1.03h2zM501 700.03h-2V699h2z"/><path d="M220 320h160v40H220z" stroke="#000" stroke-width="2" fill="#c1e4f7"/><use xlink:href="#w" transform="matrix(1,0,0,1,225,325) translate(68.310546875 22.50217013888889)"/><path d="M218 340.02l-.96.02-1.78.1-1.64.18-1.5.23-1.4.26-1.3.32-1.2.33-1.15.37-1.07.4-1 .43-.97.45-.9.47-.88.5-.83.53-.8.56-.77.58-.73.6-.72.65-.7.67-.65.7-.65.76-.63.8-.6.83-.6.9-.58.94-.56 1.02-.54 1.08-.52 1.17-.5 1.26-.48 1.36-.44 1.48-.42 1.62-.37 1.77-.33 1.96-.28 2.16-.2 2.4-.1 2.7v3.04l.14 3.44.33 3.92.57 4.48.87 5.16 1.27 5.96 1.78 6.9 2.4 7.98 3.23 9.2 4.17 10.53 5.28 11.86 6.47 13.02 7.63 13.87 8.62 14.22 9.3 14 9.6 13.24 9.6 12.1 9.25 10.73 8.76 9.33 8.16 8 7.5 6.78 6.93 5.72 6.33 4.8 5.8 4.05 5.32 3.4 4.1 2.37 11.33 6 8.93 4.14 7.38 3 6.37 2.22 5.67 1.67 5.2 1.23 4.92.92 4.75.65 4.75.4 4.87.17 5.22-.08 5.92-.4 7.47-.88 12.96-2.2 4.27-.85 25.78-4.6 9.46-.95 6.46-.22 4.84.16 3.82.38 3.1.53 2.6.62 2.23.67 1.93.74 1.7.8 1.5.82 1.37.86 1.24.9 1.12.96 1.04 1 .97 1.05.9 1.12.83 1.2.1.15" stroke="#000" stroke-width="2" fill="none"/><path d="M219 341l-1 .02-.05-2L219 339z"/><path d="M497.23 617.46l-7.9-12.75 9-2.2z" stroke="#000" stroke-width="2"/><path d="M582 683.3h.67l1.56-.1 1.5-.16 1.4-.2 1.35-.26 1.3-.3 1.25-.35 1.2-.4 1.18-.43 1.15-.48 1.12-.53 1.1-.6 1.1-.6 1.06-.7 1.06-.73 1.05-.8 1.06-.88 1.07-.97 1.06-1.04 1.08-1.16 1.1-1.26 1.1-1.4 1.13-1.55 1.16-1.74 1.17-1.97 1.23-2.23 1.26-2.55 1.32-2.96 1.38-3.5 1.45-4.16 1.54-5.1 1.64-6.4 1.78-8.45 2.03-12.1 2.67-21.67 8.5-82 2.65-15.75 2.47-11.68 2.36-9.27 2.3-7.65 2.25-6.46 2.2-5.56 2.17-4.85 1.16-2.4 4.53-8.57 4.67-7.92 4.76-7.26 4.78-6.6 4.74-5.96 4.66-5.3 4.52-4.7 4.35-4.1 4.14-3.56 3.9-3.07 3.7-2.6 3.46-2.22 3.22-1.86 3-1.54 2.8-1.28 2.6-1.04 2.4-.83 2.24-.66 2.1-.5 1.94-.4 1.83-.26 1.7-.18 1.6-.08h1.52l1.44.05 1.35.1 1.3.2 1.23.2 1.17.28 1.12.33 1.08.36 1.04.4 1 .43.98.5.94.5.9.58.9.63.88.66.85.7.82.77.82.82.8.88.8.96.76 1.04.76 1.13.74 1.23.73 1.34.7 1.46.7 1.6.66 1.78.62 1.97.1.33" stroke="#000" stroke-width="2" fill="none"/><path d="M582.05 684.3l-1.05.03v-2l1-.02z"/><path d="M759.6 415.8l-6.37-13.6 9.2-1.14z" stroke="#000" stroke-width="2"/><path d="M220 200h160v40H220z" stroke="#000" stroke-width="2" fill="#c1e4f7"/><use xlink:href="#x" transform="matrix(1,0,0,1,225,205) translate(48.2421875 22.50217013888889)"/><path d="M1060 420v80h160v-80zM1060 460h160" stroke="#000" stroke-width="2" fill="#7ab648"/><use xlink:href="#e" transform="matrix(1,0,0,1,1076,420) translate(3.794921875 27.69314236111111)"/><use xlink:href="#f" transform="matrix(1,0,0,1,1076,460) translate(17.173828125 27.69314236111111)"/><path d="M1060 500h160v40h-160z" stroke="#000" stroke-width="2" fill="#a3d977"/><use xlink:href="#g" transform="matrix(1,0,0,1,1065,504.9999999999999) translate(28.173828125 22.50217013888889)"/><path d="M1020 880h240v60h-240z" fill="none"/><use xlink:href="#y" transform="matrix(1,0,0,1,1020,880) translate(31.69921875 39.231770833333336)"/><path d="M1240 420h80v120h-80z" fill="none"/><path d="M1240 540c4.14 0 7.5-3.36 7.5-7.5v-45c0-4.14 3.36-7.5 7.5-7.5-4.14 0-7.5-3.36-7.5-7.5v-45c0-4.14-3.36-7.5-7.5-7.5" stroke="#000" stroke-width="2" fill="none"/><use xlink:href="#m" transform="matrix(1,0,0,1,1267.5,424.99999999999994) translate(0 62.693142361111114)"/><path d="M1060 540v340h160V540zM1060 582.5h160M1060 625h160M1060 667.5h160M1060 710h160M1060 752.5h160M1060 795h160M1060 837.5h160" stroke="#000" stroke-width="2" fill="#c7e8ac"/><use xlink:href="#n" transform="matrix(1,0,0,1,1076,540) translate(17.173828125 29.19314236111111)"/><use xlink:href="#o" transform="matrix(1,0,0,1,1076,583) translate(-16.2734375 29.19314236111111)"/><use xlink:href="#p" transform="matrix(1,0,0,1,1076,626) translate(-9.583984375 29.19314236111111)"/><use xlink:href="#q" transform="matrix(1,0,0,1,1076,669) translate(-2.89453125 29.19314236111111)"/><use xlink:href="#r" transform="matrix(1,0,0,1,1076,712) translate(10.484375 29.19314236111111)"/><use xlink:href="#s" transform="matrix(1,0,0,1,1076,755) translate(43.931640625 29.19314236111111)"/><use xlink:href="#t" transform="matrix(1,0,0,1,1076,798) translate(17.173828125 29.19314236111111)"/><use xlink:href="#s" transform="matrix(1,0,0,1,1076,841) translate(43.931640625 29.19314236111111)"/><path d="M382 219.98l69.32-1.6 354.42-18.9 47.73.95 35.68 2.2 28.34 2.97 23.3 3.43 19.68 3.74 16.9 3.96 14.72 4.1 12.97 4.2 11.56 4.3 10.38 4.36 9.4 4.4 8.55 4.48 7.83 4.52 7.2 4.57 6.68 4.63 6.2 4.7 5.77 4.78 5.4 4.86 5.07 4.96 4.77 5.08 4.5 5.2 4.23 5.35 4 5.5 3.8 5.72 3.57 5.9 3.4 6.17 3.18 6.43 3 6.73 2.8 7.1 2.6 7.5 2.4 7.93 2.18 8.5 1.93 9.06 1.65 9.77 1.34 10.57.96 11.5.04.9" stroke="#000" stroke-width="2" fill="none"/><path d="M382.06 220.98L381 221v-2l1-.02z"/><path d="M1139.9 415.77l-5.06-14.12 9.27-.28z" stroke="#000" stroke-width="2"/><path d="M1058 479.3l-3.07-.1-3.52-.3-3.06-.5-2.7-.58-2.43-.68-2.15-.76-1.94-.82-1.76-.88-1.62-.93-1.47-.97-1.37-1.03-1.25-1.07-1.17-1.13-1.08-1.18-1-1.24-.93-1.3-.86-1.4-.8-1.45-.7-1.55-.66-1.65-.56-1.77-.48-1.88-.4-2.04-.27-2.2-.15-2.36v-2.57l.16-2.77.36-3 .6-3.2.84-3.44 1.15-3.65 1.46-3.84 1.8-3.96 2.15-4.04 2.5-4.04 2.77-3.97 3.05-3.83 3.28-3.62 3.44-3.37 2.53-2.23 3.34-2.66 3.62-2.57 3.87-2.44 4.07-2.28 4.24-2.07 4.35-1.83 4.37-1.57 4.33-1.3 4.23-1 4.08-.75 3.88-.5 3.66-.25 3.44-.05 3.2.12 2.97.28 2.77.4 2.56.54 2.38.62 2.2.7 2.06.8 1.9.84 1.78.92 1.66.98 1.55 1.03 1.46 1.1 1.4 1.13 1.28 1.2 1.22 1.27 1.14 1.34 1.1 1.4 1 1.5.96 1.57.9 1.67.83 1.8.4.95" stroke="#000" stroke-width="2" fill="none"/><path d="M1059 478.33v2l-1.06-.03.06-2z"/><path d="M1139.44 415.8l-7.03-13.24 9.14-1.6z" stroke="#000" stroke-width="2"/><path d="M842 479.3l1.47-.02 2.5-.16 2.5-.26 2.6-.38 2.62-.5 2.7-.64 2.8-.78 2.9-.95 3.05-1.12 3.22-1.36 3.43-1.6 3.68-1.94 4-2.3 4.4-2.8 4.94-3.44 5.7-4.33 6.8-5.64 8.8-7.94 14.14-13.9 44.46-45.48 9.22-8.3 7.2-6 6.1-4.6 5.3-3.7 4.76-3.03 4.34-2.5 3.03-1.6 3.97-1.92 4-1.74 4.05-1.55 4.06-1.38 4.1-1.2 4.14-1 4.16-.85 4.16-.66 4.18-.48 4.18-.3 4.17-.14 4.15.05 4.12.2 4.1.4 4.03.55 3.98.7 3.9.9 3.83 1 3.74 1.18 3.64 1.3 3.52 1.45 3.4 1.57 3.3 1.67 3.16 1.78 3.02 1.87 2.9 1.96 2.75 2.04 2.6 2.12 2.5 2.2 2.34 2.24 2.2 2.3 2.1 2.36 1.94 2.4 1.82 2.45 1.7 2.5 1.57 2.53 1.45 2.58 1.34 2.62 1.22 2.66 1.1 2.7 1 2.76.87 2.8.55 2.07" stroke="#000" stroke-width="2" fill="none"/><path d="M842.05 480.3l-1.05.03v-2l1-.02z"/><path d="M1139.6 415.8l-6.38-13.6 9.2-1.14z" stroke="#000" stroke-width="2"/><defs><path fill="#3e4349" d="M616-991c-93 0-161 39-212 109-92 126-92 520 0 646 52 70 119 109 212 109 94 0 161-39 213-109 93-126 92-520 0-646-52-70-119-109-213-109zM137-559c0-353 146-588 479-588s480 235 480 588c0 355-145 588-480 588-334 0-479-234-479-588" id="z"/><path fill="#3e4349" d="M850-236c87-126 87-521 0-646-49-70-112-109-201-109s-154 38-203 109c-89 127-89 518 0 645 49 71 114 110 203 110s152-39 201-109zM676 29c-146 0-244-69-299-170V0H193v-1556h184v579c53-101 154-170 301-170 297 0 434 260 434 584 0 329-136 592-436 592" id="A"/><path fill="#3e4349" d="M1233 403v80H0v-80h1233" id="B"/><path fill="#3e4349" d="M915-1147c102 0 174 26 240 70v188c-71-55-140-88-254-88-243 0-354 165-354 420V0H362v-1120h185v219c55-146 178-246 368-246" id="C"/><path fill="#3e4349" d="M651-1147c298 0 466 229 461 541v90H315c-4 242 129 392 365 389 156-2 268-51 389-113v183C949-8 828 27 678 29c-351 3-555-232-555-588 0-338 200-588 528-588zm277 487c-4-201-91-331-285-331-193 0-305 144-321 332" id="D"/><path fill="#3e4349" d="M494-1120c-16-286 77-439 348-436h221v153H854c-136 2-174 46-176 184v99h385v143H678V0H494v-977H195v-143h299" id="E"/><path fill="#3e4349" d="M748-127c144 0 233-46 313-121v191C974-6 875 28 748 29c-351 3-553-232-553-588 0-357 202-591 553-588 129 2 222 35 313 86v193c-88-76-165-123-313-123-245 0-359 174-359 432 0 257 115 432 359 432" id="F"/><path fill="#3e4349" d="M711-1147c253 0 340 178 340 453V0H866v-694c-1-183-51-293-219-293-189 0-268 148-268 354V0H195v-1120h184v168c60-118 165-195 332-195" id="G"/><path fill="#3e4349" d="M807 0C529-4 430-92 430-369v-608H131v-143h299v-318h184v318h418v143H614v608c2 165 49 222 211 222h207V0H807" id="H"/><g id="a"><use transform="matrix(0.010850694444444444,0,0,0.010850694444444444,0,0)" xlink:href="#z"/><use transform="matrix(0.010850694444444444,0,0,0.010850694444444444,13.37890625,0)" xlink:href="#A"/><use transform="matrix(0.010850694444444444,0,0,0.010850694444444444,26.7578125,0)" xlink:href="#B"/><use transform="matrix(0.010850694444444444,0,0,0.010850694444444444,40.13671875,0)" xlink:href="#C"/><use transform="matrix(0.010850694444444444,0,0,0.010850694444444444,53.515625,0)" xlink:href="#D"/><use transform="matrix(0.010850694444444444,0,0,0.010850694444444444,66.89453125,0)" xlink:href="#E"/><use transform="matrix(0.010850694444444444,0,0,0.010850694444444444,80.2734375,0)" xlink:href="#F"/><use transform="matrix(0.010850694444444444,0,0,0.010850694444444444,93.65234375,0)" xlink:href="#G"/><use transform="matrix(0.010850694444444444,0,0,0.010850694444444444,107.03125,0)" xlink:href="#H"/></g><path fill="#3e4349" d="M1153-1120C1010-750 884-433 741-52c-66 176-110 283-133 322-55 94-138 156-276 156H184V272c97 0 188 7 236-47 29-33 70-112 117-243L104-1120h195l332 876 327-876h195" id="I"/><path fill="#3e4349" d="M674 29c-147 0-246-68-299-170v567H190v-1546h185v143c55-101 152-170 299-170 300 0 434 263 434 592 0 325-137 584-434 584zm174-265c87-125 87-521 0-646-48-70-112-109-201-109s-154 38-203 109c-89 127-89 518 0 645 49 71 114 110 203 110s153-39 201-109" id="J"/><g id="b"><use transform="matrix(0.010850694444444444,0,0,0.010850694444444444,0,0)" xlink:href="#z"/><use transform="matrix(0.010850694444444444,0,0,0.010850694444444444,13.37890625,0)" xlink:href="#A"/><use transform="matrix(0.010850694444444444,0,0,0.010850694444444444,26.7578125,0)" xlink:href="#B"/><use transform="matrix(0.010850694444444444,0,0,0.010850694444444444,40.13671875,0)" xlink:href="#H"/><use transform="matrix(0.010850694444444444,0,0,0.010850694444444444,53.515625,0)" xlink:href="#I"/><use transform="matrix(0.010850694444444444,0,0,0.010850694444444444,66.89453125,0)" xlink:href="#J"/><use transform="matrix(0.010850694444444444,0,0,0.010850694444444444,80.2734375,0)" xlink:href="#D"/></g><path fill="#3e4349" d="M1044-1120c-1 183-111 281-268 321 181 46 302 172 303 387 1 289-218 445-522 441-155-2-297-31-420-74v-201c118 61 239 103 398 105 208 2 343-93 344-291 1-181-141-287-330-283H395v-166h154c169 2 295-74 295-231 0-161-111-239-279-238-146 2-264 35-383 80v-186c132-34 244-61 383-64 268-6 481 146 479 400" id="K"/><path fill="#3e4349" d="M489-305h252V0H489v-305" id="L"/><path fill="#3e4349" d="M270-170h314v-1141l-338 76v-184l336-74h202v1323h310V0H270v-170" id="M"/><path fill="#3e4349" d="M735-1309L264-520h471v-789zm-33-184h234v973h199v164H936V0H735v-356H102v-191" id="N"/><g id="c"><use transform="matrix(0.010850694444444444,0,0,0.010850694444444444,0,0)" xlink:href="#K"/><use transform="matrix(0.010850694444444444,0,0,0.010850694444444444,13.37890625,0)" xlink:href="#L"/><use transform="matrix(0.010850694444444444,0,0,0.010850694444444444,26.7578125,0)" xlink:href="#M"/><use transform="matrix(0.010850694444444444,0,0,0.010850694444444444,40.13671875,0)" xlink:href="#N"/></g><path d="M930-1047c0-180-114-280-297-280H399v561h234c182 2 297-102 297-281zm211 0c0 308-189 448-508 447H399V0H197v-1493h436c317-2 508 140 508 446" id="O"/><path d="M1153-1120C1010-750 884-433 741-52c-66 176-110 283-133 322-55 94-138 156-276 156H184V272c97 0 188 7 236-47 29-33 70-112 117-243L104-1120h195l332 876 327-876h195" id="P"/><path d="M838-276c84-151 84-788 0-939-51-91-119-141-222-141-102 0-169 50-220 141-84 151-84 788 0 939 51 91 118 141 220 141 103 0 171-50 222-141zm278-469c0 260-42 454-124 582S785 29 616 29 322-35 240-162 117-484 117-745s41-455 123-583 208-192 376-192c169 0 294 64 376 192s124 322 124 583" id="Q"/><path d="M850-236c87-126 87-521 0-646-49-70-112-109-201-109s-154 38-203 109c-89 127-89 518 0 645 49 71 114 110 203 110s152-39 201-109zM676 29c-146 0-244-69-299-170V0H193v-1556h184v579c53-101 154-170 301-170 297 0 434 260 434 584 0 329-136 592-436 592" id="R"/><path d="M420 270c135-3 180-101 180-250v-997H283v-143h501V20c2 243-112 405-344 406H186V270h234zm180-1826h184v233H600v-233" id="S"/><path d="M651-1147c298 0 466 229 461 541v90H315c-4 242 129 392 365 389 156-2 268-51 389-113v183C949-8 828 27 678 29c-351 3-555-232-555-588 0-338 200-588 528-588zm277 487c-4-201-91-331-285-331-193 0-305 144-321 332" id="T"/><path d="M748-127c144 0 233-46 313-121v191C974-6 875 28 748 29c-351 3-553-232-553-588 0-357 202-591 553-588 129 2 222 35 313 86v193c-88-76-165-123-313-123-245 0-359 174-359 432 0 257 115 432 359 432" id="U"/><path d="M807 0C529-4 430-92 430-369v-608H131v-143h299v-318h184v318h418v143H614v608c2 165 49 222 211 222h207V0H807" id="V"/><g id="d"><use transform="matrix(0.010850694444444444,0,0,0.010850694444444444,0,0)" xlink:href="#O"/><use transform="matrix(0.010850694444444444,0,0,0.010850694444444444,13.37890625,0)" xlink:href="#P"/><use transform="matrix(0.010850694444444444,0,0,0.010850694444444444,26.7578125,0)" xlink:href="#Q"/><use transform="matrix(0.010850694444444444,0,0,0.010850694444444444,40.13671875,0)" xlink:href="#R"/><use transform="matrix(0.010850694444444444,0,0,0.010850694444444444,53.515625,0)" xlink:href="#S"/><use transform="matrix(0.010850694444444444,0,0,0.010850694444444444,66.89453125,0)" xlink:href="#T"/><use transform="matrix(0.010850694444444444,0,0,0.010850694444444444,80.2734375,0)" xlink:href="#U"/><use transform="matrix(0.010850694444444444,0,0,0.010850694444444444,93.65234375,0)" xlink:href="#V"/></g><g id="e"><use transform="matrix(0.010850694444444444,0,0,0.010850694444444444,0,0)" xlink:href="#z"/><use transform="matrix(0.010850694444444444,0,0,0.010850694444444444,13.37890625,0)" xlink:href="#A"/><use transform="matrix(0.010850694444444444,0,0,0.010850694444444444,26.7578125,0)" xlink:href="#B"/><use transform="matrix(0.010850694444444444,0,0,0.010850694444444444,40.13671875,0)" xlink:href="#C"/><use transform="matrix(0.010850694444444444,0,0,0.010850694444444444,53.515625,0)" xlink:href="#D"/><use transform="matrix(0.010850694444444444,0,0,0.010850694444444444,66.89453125,0)" xlink:href="#E"/><use transform="matrix(0.010850694444444444,0,0,0.010850694444444444,80.2734375,0)" xlink:href="#F"/><use transform="matrix(0.010850694444444444,0,0,0.010850694444444444,93.65234375,0)" xlink:href="#G"/><use transform="matrix(0.010850694444444444,0,0,0.010850694444444444,107.03125,0)" xlink:href="#H"/></g><g id="f"><use transform="matrix(0.010850694444444444,0,0,0.010850694444444444,0,0)" xlink:href="#z"/><use transform="matrix(0.010850694444444444,0,0,0.010850694444444444,13.37890625,0)" xlink:href="#A"/><use transform="matrix(0.010850694444444444,0,0,0.010850694444444444,26.7578125,0)" xlink:href="#B"/><use transform="matrix(0.010850694444444444,0,0,0.010850694444444444,40.13671875,0)" xlink:href="#H"/><use transform="matrix(0.010850694444444444,0,0,0.010850694444444444,53.515625,0)" xlink:href="#I"/><use transform="matrix(0.010850694444444444,0,0,0.010850694444444444,66.89453125,0)" xlink:href="#J"/><use transform="matrix(0.010850694444444444,0,0,0.010850694444444444,80.2734375,0)" xlink:href="#D"/></g><path fill="#3e4349" d="M637-1147c132 1 237 25 336 66v180c-92-53-190-92-322-92-145 0-248 35-248 164 0 50 15 87 46 112 23 30 197 67 303 86 166 30 278 123 278 307 0 239-191 356-446 353-140-2-251-31-371-70v-190c114 58 228 103 375 106 145 3 253-56 256-188 3-87-90-149-253-179-210-38-374-93-374-319 0-232 173-338 420-336" id="W"/><path fill="#3e4349" d="M256-1120h471v977h365V0H178v-143h365v-834H256v-143zm287-436h184v233H543v-233" id="X"/><path fill="#3e4349" d="M227-1122h813v168L397-150h643V0H203v-170l643-805H227v-147" id="Y"/><g id="g"><use transform="matrix(0.010850694444444444,0,0,0.010850694444444444,0,0)" xlink:href="#z"/><use transform="matrix(0.010850694444444444,0,0,0.010850694444444444,13.37890625,0)" xlink:href="#A"/><use transform="matrix(0.010850694444444444,0,0,0.010850694444444444,26.7578125,0)" xlink:href="#B"/><use transform="matrix(0.010850694444444444,0,0,0.010850694444444444,40.13671875,0)" xlink:href="#W"/><use transform="matrix(0.010850694444444444,0,0,0.010850694444444444,53.515625,0)" xlink:href="#X"/><use transform="matrix(0.010850694444444444,0,0,0.010850694444444444,66.89453125,0)" xlink:href="#Y"/><use transform="matrix(0.010850694444444444,0,0,0.010850694444444444,80.2734375,0)" xlink:href="#D"/></g><path d="M233-1493h879v170H436v440h613v170H436V0H233v-1493" id="Z"/><path d="M801 0C570 0 455-164 455-406v-1017H160v-144h479v1161c0 147 46 250 180 250h215V0H801" id="aa"/><path d="M616-991c-93 0-161 39-212 109-92 126-92 520 0 646 52 70 119 109 212 109 94 0 161-39 213-109 93-126 92-520 0-646-52-70-119-109-213-109zM137-559c0-353 146-588 479-588s480 235 480 588c0 355-145 588-480 588-334 0-479-234-479-588" id="ab"/><path d="M547-125c229-2 340-186 327-438H641c-189 0-321 55-324 225-3 137 91 215 230 213zm-332-944c167-71 431-115 615-37 106 45 186 120 213 246 11 49 16 123 16 221V0H874v-166C800-42 695 26 508 29c-220 3-378-138-375-355 4-274 199-382 494-381h247c6-204-80-285-282-284-149 1-272 46-377 106v-184" id="ac"/><path d="M1233 403v80H0v-80h1233" id="ad"/><path d="M47-1493h1139v170H719V0H516v-1323H47v-170" id="ae"/><path d="M674 29c-147 0-246-68-299-170v567H190v-1546h185v143c55-101 152-170 299-170 300 0 434 263 434 592 0 325-137 584-434 584zm174-265c87-125 87-521 0-646-48-70-112-109-201-109s-154 38-203 109c-89 127-89 518 0 645 49 71 114 110 203 110s153-39 201-109" id="af"/><g id="h"><use transform="matrix(0.013020833333333334,0,0,0.013020833333333334,0,0)" xlink:href="#O"/><use transform="matrix(0.013020833333333334,0,0,0.013020833333333334,16.0546875,0)" xlink:href="#P"/><use transform="matrix(0.013020833333333334,0,0,0.013020833333333334,32.109375,0)" xlink:href="#Z"/><use transform="matrix(0.013020833333333334,0,0,0.013020833333333334,48.1640625,0)" xlink:href="#aa"/><use transform="matrix(0.013020833333333334,0,0,0.013020833333333334,64.21875,0)" xlink:href="#ab"/><use transform="matrix(0.013020833333333334,0,0,0.013020833333333334,80.2734375,0)" xlink:href="#ac"/><use transform="matrix(0.013020833333333334,0,0,0.013020833333333334,96.328125,0)" xlink:href="#V"/><use transform="matrix(0.013020833333333334,0,0,0.013020833333333334,112.3828125,0)" xlink:href="#ad"/><use transform="matrix(0.013020833333333334,0,0,0.013020833333333334,128.4375,0)" xlink:href="#ae"/><use transform="matrix(0.013020833333333334,0,0,0.013020833333333334,144.4921875,0)" xlink:href="#P"/><use transform="matrix(0.013020833333333334,0,0,0.013020833333333334,160.546875,0)" xlink:href="#af"/><use transform="matrix(0.013020833333333334,0,0,0.013020833333333334,176.6015625,0)" xlink:href="#T"/></g><g id="i"><use transform="matrix(0.010850694444444444,0,0,0.010850694444444444,0,0)" xlink:href="#J"/><use transform="matrix(0.010850694444444444,0,0,0.010850694444444444,13.37890625,0)" xlink:href="#X"/></g><path fill="#3e4349" d="M801 0C570 0 455-164 455-406v-1017H160v-144h479v1161c0 147 46 250 180 250h215V0H801" id="ag"/><path fill="#3e4349" d="M547-125c229-2 340-186 327-438H641c-189 0-321 55-324 225-3 137 91 215 230 213zm-332-944c167-71 431-115 615-37 106 45 186 120 213 246 11 49 16 123 16 221V0H874v-166C800-42 695 26 508 29c-220 3-378-138-375-355 4-274 199-382 494-381h247c6-204-80-285-282-284-149 1-272 46-377 106v-184" id="ah"/><g id="j"><use transform="matrix(0.010850694444444444,0,0,0.010850694444444444,0,0)" xlink:href="#E"/><use transform="matrix(0.010850694444444444,0,0,0.010850694444444444,13.37890625,0)" xlink:href="#ag"/><use transform="matrix(0.010850694444444444,0,0,0.010850694444444444,26.7578125,0)" xlink:href="#z"/><use transform="matrix(0.010850694444444444,0,0,0.010850694444444444,40.13671875,0)" xlink:href="#ah"/><use transform="matrix(0.010850694444444444,0,0,0.010850694444444444,53.515625,0)" xlink:href="#H"/></g><path d="M144-258c24 12 30 25 44 36 10 1 15-20 3-24-7-5-22-10-44-16zm147 22l-19 22H34l6 10h89v123c3 6 17-1 18-7v-116h60v116c3 6 16-1 18-6v-110h88c9-1 7-10-1-13-6-4-13-10-21-19zM91-178c-19 45-33 60-69 86l1 3c34-12 61-36 79-66 3-5 21-8 6-13-5-2-10-5-17-10zm155 1l-3 3c26 23 44 43 54 60 6 11 11 17 15 17 12-2 12-23 1-32-7-9-29-25-67-48zM181 17c24 13 94 32 119 33 7-9 16-15 27-18v-4c-43-2-84-9-124-22 23-13 44-30 65-50 4-6 32-5 18-14-6-4-11-9-17-17l-13 11H52c2 14 22 10 38 10 21 25 47 46 76 63-40 16-82 28-148 40 60 3 119-16 163-32zM97-54h159c-23 23-47 41-71 54-32-13-61-28-88-54" id="ai"/><use transform="matrix(0.07407407407407408,0,0,0.07407407407407408,0,0)" xlink:href="#ai" id="k"/><path d="M270-161c11-22-7-71 14-79-3-9-15-10-20-19l-11 12H94l-20-9c8 27 2 64 4 97 3 4 19 2 17-9h162c-3 11 4 11 13 7zM95-178v-26h162v26H95zm0-36v-23h162v23H95zm208 48l-16 18H26l6 10h289c8 1 10-9 2-11-8-5-15-11-20-17zm-30 69c0-8 25-13 8-21-5-3-10-6-15-12l-10 12H89l-19-9c8 30 2 70 4 106 4 4 20-1 17-12h74v28H55l5 10h105v30H21l5 9h294c11 0 10-7 2-11-9-4-15-12-20-18l-16 20H181V5h106c8 1 10-9 2-11-8-5-14-9-18-15L256-5h-75v-28h76c-3 11 6 8 13 5 8-16 3-47 3-69zM91-42v-29h74v29H91zm90-29h76v29h-76v-29zM91-81v-27h74v27H91zm90-27h76v27h-76v-27" id="aj"/><use transform="matrix(0.07407407407407408,0,0,0.07407407407407408,0,0)" xlink:href="#aj" id="l"/><path d="M616-170l351-1323h209L739 0H494L57-1493h209" id="ak"/><path d="M915-1147c102 0 174 26 240 70v188c-71-55-140-88-254-88-243 0-354 165-354 420V0H362v-1120h185v219c55-146 178-246 368-246" id="al"/><g id="m"><use transform="matrix(0.010850694444444444,0,0,0.010850694444444444,0,0)" xlink:href="#O"/><use transform="matrix(0.010850694444444444,0,0,0.010850694444444444,13.37890625,0)" xlink:href="#P"/><use transform="matrix(0.010850694444444444,0,0,0.010850694444444444,26.7578125,0)" xlink:href="#ak"/><use transform="matrix(0.010850694444444444,0,0,0.010850694444444444,40.13671875,0)" xlink:href="#ac"/><use transform="matrix(0.010850694444444444,0,0,0.010850694444444444,53.515625,0)" xlink:href="#al"/><use transform="matrix(0.010850694444444444,0,0,0.010850694444444444,66.89453125,0)" xlink:href="#Q"/><use transform="matrix(0.010850694444444444,0,0,0.010850694444444444,80.2734375,0)" xlink:href="#R"/><use transform="matrix(0.010850694444444444,0,0,0.010850694444444444,93.65234375,0)" xlink:href="#S"/><use transform="matrix(0.010850694444444444,0,0,0.010850694444444444,107.03125,0)" xlink:href="#T"/><use transform="matrix(0.010850694444444444,0,0,0.010850694444444444,120.41015625,0)" xlink:href="#U"/><use transform="matrix(0.010850694444444444,0,0,0.010850694444444444,133.7890625,0)" xlink:href="#V"/></g><path d="M711-1147c253 0 340 178 340 453V0H866v-694c-1-183-51-293-219-293-189 0-268 148-268 354V0H195v-1120h184v168c60-118 165-195 332-195" id="am"/><path d="M471-1147c112 0 171 55 205 141 41-85 99-141 213-141 90 0 154 35 191 105s55 200 55 393V0H967v-641c0-158-12-256-27-295-31-81-176-72-206 4-17 42-29 138-29 291V0H537v-641c0-160-10-259-29-296s-53-56-102-56-83 20-102 61-28 138-28 291V0H109v-1120h167v96c38-70 97-123 195-123" id="an"/><g id="n"><use transform="matrix(0.010850694444444444,0,0,0.010850694444444444,0,0)" xlink:href="#V"/><use transform="matrix(0.010850694444444444,0,0,0.010850694444444444,13.37890625,0)" xlink:href="#af"/><use transform="matrix(0.010850694444444444,0,0,0.010850694444444444,26.7578125,0)" xlink:href="#ad"/><use transform="matrix(0.010850694444444444,0,0,0.010850694444444444,40.13671875,0)" xlink:href="#am"/><use transform="matrix(0.010850694444444444,0,0,0.010850694444444444,53.515625,0)" xlink:href="#ac"/><use transform="matrix(0.010850694444444444,0,0,0.010850694444444444,66.89453125,0)" xlink:href="#an"/><use transform="matrix(0.010850694444444444,0,0,0.010850694444444444,80.2734375,0)" xlink:href="#T"/></g><path d="M637-1147c132 1 237 25 336 66v180c-92-53-190-92-322-92-145 0-248 35-248 164 0 50 15 87 46 112 23 30 197 67 303 86 166 30 278 123 278 307 0 239-191 356-446 353-140-2-251-31-371-70v-190c114 58 228 103 375 106 145 3 253-56 256-188 3-87-90-149-253-179-210-38-374-93-374-319 0-232 173-338 420-336" id="ao"/><path d="M256-1120h471v977h365V0H178v-143h365v-834H256v-143zm287-436h184v233H543v-233" id="ap"/><path d="M227-1122h813v168L397-150h643V0H203v-170l643-805H227v-147" id="aq"/><g id="o"><use transform="matrix(0.010850694444444444,0,0,0.010850694444444444,0,0)" xlink:href="#V"/><use transform="matrix(0.010850694444444444,0,0,0.010850694444444444,13.37890625,0)" xlink:href="#af"/><use transform="matrix(0.010850694444444444,0,0,0.010850694444444444,26.7578125,0)" xlink:href="#ad"/><use transform="matrix(0.010850694444444444,0,0,0.010850694444444444,40.13671875,0)" xlink:href="#R"/><use transform="matrix(0.010850694444444444,0,0,0.010850694444444444,53.515625,0)" xlink:href="#ac"/><use transform="matrix(0.010850694444444444,0,0,0.010850694444444444,66.89453125,0)" xlink:href="#ao"/><use transform="matrix(0.010850694444444444,0,0,0.010850694444444444,80.2734375,0)" xlink:href="#ap"/><use transform="matrix(0.010850694444444444,0,0,0.010850694444444444,93.65234375,0)" xlink:href="#U"/><use transform="matrix(0.010850694444444444,0,0,0.010850694444444444,107.03125,0)" xlink:href="#ao"/><use transform="matrix(0.010850694444444444,0,0,0.010850694444444444,120.41015625,0)" xlink:href="#ap"/><use transform="matrix(0.010850694444444444,0,0,0.010850694444444444,133.7890625,0)" xlink:href="#aq"/><use transform="matrix(0.010850694444444444,0,0,0.010850694444444444,147.16796875,0)" xlink:href="#T"/></g><g id="p"><use transform="matrix(0.010850694444444444,0,0,0.010850694444444444,0,0)" xlink:href="#V"/><use transform="matrix(0.010850694444444444,0,0,0.010850694444444444,13.37890625,0)" xlink:href="#af"/><use transform="matrix(0.010850694444444444,0,0,0.010850694444444444,26.7578125,0)" xlink:href="#ad"/><use transform="matrix(0.010850694444444444,0,0,0.010850694444444444,40.13671875,0)" xlink:href="#ap"/><use transform="matrix(0.010850694444444444,0,0,0.010850694444444444,53.515625,0)" xlink:href="#V"/><use transform="matrix(0.010850694444444444,0,0,0.010850694444444444,66.89453125,0)" xlink:href="#T"/><use transform="matrix(0.010850694444444444,0,0,0.010850694444444444,80.2734375,0)" xlink:href="#an"/><use transform="matrix(0.010850694444444444,0,0,0.010850694444444444,93.65234375,0)" xlink:href="#ao"/><use transform="matrix(0.010850694444444444,0,0,0.010850694444444444,107.03125,0)" xlink:href="#ap"/><use transform="matrix(0.010850694444444444,0,0,0.010850694444444444,120.41015625,0)" xlink:href="#aq"/><use transform="matrix(0.010850694444444444,0,0,0.010850694444444444,133.7890625,0)" xlink:href="#T"/></g><path d="M559-1147c146 0 246 68 299 170v-579h184V0H858v-141C803-40 706 29 559 29c-300 0-436-264-436-592 0-325 139-584 436-584zM385-882c-81 129-87 521 0 646 49 70 112 109 201 109s152-39 202-110c89-127 83-514 0-645-88-139-315-140-403 0" id="ar"/><g id="q"><use transform="matrix(0.010850694444444444,0,0,0.010850694444444444,0,0)" xlink:href="#V"/><use transform="matrix(0.010850694444444444,0,0,0.010850694444444444,13.37890625,0)" xlink:href="#af"/><use transform="matrix(0.010850694444444444,0,0,0.010850694444444444,26.7578125,0)" xlink:href="#ad"/><use transform="matrix(0.010850694444444444,0,0,0.010850694444444444,40.13671875,0)" xlink:href="#ar"/><use transform="matrix(0.010850694444444444,0,0,0.010850694444444444,53.515625,0)" xlink:href="#T"/><use transform="matrix(0.010850694444444444,0,0,0.010850694444444444,66.89453125,0)" xlink:href="#ac"/><use transform="matrix(0.010850694444444444,0,0,0.010850694444444444,80.2734375,0)" xlink:href="#aa"/><use transform="matrix(0.010850694444444444,0,0,0.010850694444444444,93.65234375,0)" xlink:href="#aa"/><use transform="matrix(0.010850694444444444,0,0,0.010850694444444444,107.03125,0)" xlink:href="#ab"/><use transform="matrix(0.010850694444444444,0,0,0.010850694444444444,120.41015625,0)" xlink:href="#U"/></g><g id="r"><use transform="matrix(0.010850694444444444,0,0,0.010850694444444444,0,0)" xlink:href="#V"/><use transform="matrix(0.010850694444444444,0,0,0.010850694444444444,13.37890625,0)" xlink:href="#af"/><use transform="matrix(0.010850694444444444,0,0,0.010850694444444444,26.7578125,0)" xlink:href="#ad"/><use transform="matrix(0.010850694444444444,0,0,0.010850694444444444,40.13671875,0)" xlink:href="#af"/><use transform="matrix(0.010850694444444444,0,0,0.010850694444444444,53.515625,0)" xlink:href="#al"/><use transform="matrix(0.010850694444444444,0,0,0.010850694444444444,66.89453125,0)" xlink:href="#ap"/><use transform="matrix(0.010850694444444444,0,0,0.010850694444444444,80.2734375,0)" xlink:href="#am"/><use transform="matrix(0.010850694444444444,0,0,0.010850694444444444,93.65234375,0)" xlink:href="#V"/></g><path d="M489-305h252V0H489v-305" id="as"/><g id="s"><use transform="matrix(0.010850694444444444,0,0,0.010850694444444444,0,0)" xlink:href="#as"/><use transform="matrix(0.010850694444444444,0,0,0.010850694444444444,13.37890625,0)" xlink:href="#as"/><use transform="matrix(0.010850694444444444,0,0,0.010850694444444444,26.7578125,0)" xlink:href="#as"/></g><g id="t"><use transform="matrix(0.010850694444444444,0,0,0.010850694444444444,0,0)" xlink:href="#V"/><use transform="matrix(0.010850694444444444,0,0,0.010850694444444444,13.37890625,0)" xlink:href="#af"/><use transform="matrix(0.010850694444444444,0,0,0.010850694444444444,26.7578125,0)" xlink:href="#ad"/><use transform="matrix(0.010850694444444444,0,0,0.010850694444444444,40.13671875,0)" xlink:href="#R"/><use transform="matrix(0.010850694444444444,0,0,0.010850694444444444,53.515625,0)" xlink:href="#ac"/><use transform="matrix(0.010850694444444444,0,0,0.010850694444444444,66.89453125,0)" xlink:href="#ao"/><use transform="matrix(0.010850694444444444,0,0,0.010850694444444444,80.2734375,0)" xlink:href="#T"/></g><path fill="#3e4349" d="M563-1520c272-5 493 161 486 422-5 184-82 278-189 404-156 183-266 291-487 524h686V0H152v-170c181-191 381-399 520-561 68-80 112-147 135-197s35-102 35-155c2-166-108-271-275-267-164 4-280 61-403 133v-204c119-56 242-96 399-99" id="at"/><path fill="#3e4349" d="M139-1493h940v86L545 0H334l520-1323H139v-170" id="au"/><g id="u"><use transform="matrix(0.010850694444444444,0,0,0.010850694444444444,0,0)" xlink:href="#at"/><use transform="matrix(0.010850694444444444,0,0,0.010850694444444444,13.37890625,0)" xlink:href="#L"/><use transform="matrix(0.010850694444444444,0,0,0.010850694444444444,26.7578125,0)" xlink:href="#au"/><use transform="matrix(0.010850694444444444,0,0,0.010850694444444444,40.13671875,0)" xlink:href="#M"/></g><g id="v"><use transform="matrix(0.010850694444444444,0,0,0.010850694444444444,0,0)" xlink:href="#O"/><use transform="matrix(0.010850694444444444,0,0,0.010850694444444444,13.37890625,0)" xlink:href="#P"/><use transform="matrix(0.010850694444444444,0,0,0.010850694444444444,26.7578125,0)" xlink:href="#Q"/><use transform="matrix(0.010850694444444444,0,0,0.010850694444444444,40.13671875,0)" xlink:href="#R"/><use transform="matrix(0.010850694444444444,0,0,0.010850694444444444,53.515625,0)" xlink:href="#S"/><use transform="matrix(0.010850694444444444,0,0,0.010850694444444444,66.89453125,0)" xlink:href="#T"/><use transform="matrix(0.010850694444444444,0,0,0.010850694444444444,80.2734375,0)" xlink:href="#U"/><use transform="matrix(0.010850694444444444,0,0,0.010850694444444444,93.65234375,0)" xlink:href="#V"/></g><use transform="matrix(0.010850694444444444,0,0,0.010850694444444444,0,0)" xlink:href="#D" id="w"/><g id="x"><use transform="matrix(0.010850694444444444,0,0,0.010850694444444444,0,0)" xlink:href="#H"/><use transform="matrix(0.010850694444444444,0,0,0.010850694444444444,13.37890625,0)" xlink:href="#I"/><use transform="matrix(0.010850694444444444,0,0,0.010850694444444444,26.7578125,0)" xlink:href="#J"/><use transform="matrix(0.010850694444444444,0,0,0.010850694444444444,40.13671875,0)" xlink:href="#D"/></g><g id="y"><use transform="matrix(0.013020833333333334,0,0,0.013020833333333334,0,0)" xlink:href="#O"/><use transform="matrix(0.013020833333333334,0,0,0.013020833333333334,16.0546875,0)" xlink:href="#P"/><use transform="matrix(0.013020833333333334,0,0,0.013020833333333334,32.109375,0)" xlink:href="#ae"/><use transform="matrix(0.013020833333333334,0,0,0.013020833333333334,48.1640625,0)" xlink:href="#P"/><use transform="matrix(0.013020833333333334,0,0,0.013020833333333334,64.21875,0)" xlink:href="#af"/><use transform="matrix(0.013020833333333334,0,0,0.013020833333333334,80.2734375,0)" xlink:href="#T"/><use transform="matrix(0.013020833333333334,0,0,0.013020833333333334,96.328125,0)" xlink:href="#ad"/><use transform="matrix(0.013020833333333334,0,0,0.013020833333333334,112.3828125,0)" xlink:href="#ae"/><use transform="matrix(0.013020833333333334,0,0,0.013020833333333334,128.4375,0)" xlink:href="#P"/><use transform="matrix(0.013020833333333334,0,0,0.013020833333333334,144.4921875,0)" xlink:href="#af"/><use transform="matrix(0.013020833333333334,0,0,0.013020833333333334,160.546875,0)" xlink:href="#T"/></g></defs></g></svg>