<svg xmlns="http://www.w3.org/2000/svg" xmlns:xlink="http://www.w3.org/1999/xlink" xmlns:lucid="lucid" width="1096.53" height="920"><g transform="translate(-160 0)" lucid:page-tab-id="0_0"><path d="M400 300v80h160v-80zM400 340h160" stroke="#000" stroke-width="2" fill="#7ab648"/><use xlink:href="#a" transform="matrix(1,0,0,1,416,300) translate(3.794921875 27.69314236111111)"/><use xlink:href="#b" transform="matrix(1,0,0,1,416,340) translate(17.173828125 27.69314236111111)"/><path d="M400 380h160v40H400z" stroke="#000" stroke-width="2" fill="#a3d977"/><use xlink:href="#c" transform="matrix(1,0,0,1,405,385) translate(28.173828125 22.50217013888889)"/><path d="M360 660h240v60H360z" fill="none"/><use xlink:href="#d" transform="matrix(1,0,0,1,360,660) translate(23.671875 39.231770833333336)"/><path d="M400 420v240h160V420zM400 460h160M400 500h160M400 540h160M400 580h160M400 620h160" stroke="#000" stroke-width="2" fill="#c7e8ac"/><use xlink:href="#e" transform="matrix(1,0,0,1,416,420) translate(17.173828125 27.69314236111111)"/><use xlink:href="#f" transform="matrix(1,0,0,1,416,460) translate(43.931640625 27.69314236111111)"/><use xlink:href="#g" transform="matrix(1,0,0,1,416,500) translate(17.173828125 27.69314236111111)"/><use xlink:href="#f" transform="matrix(1,0,0,1,416,540) translate(43.931640625 27.69314236111111)"/><use xlink:href="#h" transform="matrix(1,0,0,1,416,580) translate(17.173828125 27.69314236111111)"/><use xlink:href="#i" transform="matrix(1,0,0,1,416,620) translate(23.86328125 27.69314236111111)"/><path d="M960 240v80h160v-80zM960 280h160" stroke="#000" stroke-width="2" fill="#7ab648"/><use xlink:href="#a" transform="matrix(1,0,0,1,976,240) translate(3.794921875 27.69314236111111)"/><use xlink:href="#b" transform="matrix(1,0,0,1,976,280) translate(17.173828125 27.69314236111111)"/><path d="M960 320h160v40H960z" stroke="#000" stroke-width="2" fill="#a3d977"/><use xlink:href="#c" transform="matrix(1,0,0,1,965,324.9999999999999) translate(28.173828125 22.50217013888889)"/><path d="M920 600h240v60H920z" fill="none"/><use xlink:href="#j" transform="matrix(1,0,0,1,920,600) translate(31.69921875 39.231770833333336)"/><path d="M960 360v240h160V360zM960 400h160M960 440h160M960 480h160M960 520h160M960 560h160" stroke="#000" stroke-width="2" fill="#c7e8ac"/><use xlink:href="#e" transform="matrix(1,0,0,1,976,360) translate(17.173828125 27.69314236111111)"/><use xlink:href="#f" transform="matrix(1,0,0,1,976,400) translate(43.931640625 27.69314236111111)"/><use xlink:href="#g" transform="matrix(1,0,0,1,976,440) translate(17.173828125 27.69314236111111)"/><use xlink:href="#f" transform="matrix(1,0,0,1,976,480) translate(43.931640625 27.69314236111111)"/><use xlink:href="#k" transform="matrix(1,0,0,1,976,520) translate(17.173828125 27.69314236111111)"/><use xlink:href="#f" transform="matrix(1,0,0,1,976,560) translate(43.931640625 27.69314236111111)"/><path d="M700 480v80h160v-80zM700 520h160" stroke="#000" stroke-width="2" fill="#7ab648"/><use xlink:href="#a" transform="matrix(1,0,0,1,716,480) translate(3.794921875 27.69314236111111)"/><use xlink:href="#b" transform="matrix(1,0,0,1,716,520) translate(17.173828125 27.69314236111111)"/><path d="M700 560h160v40H700z" stroke="#000" stroke-width="2" fill="#a3d977"/><use xlink:href="#c" transform="matrix(1,0,0,1,705,564.9999999999999) translate(28.173828125 22.50217013888889)"/><path d="M660 840h240v60H660z" fill="none"/><use xlink:href="#l" transform="matrix(1,0,0,1,660,840) translate(-16.46484375 39.231770833333336)"/><path d="M700 600v240h160V600zM700 640h160M700 680h160M700 720h160M700 760h160M700 800h160" stroke="#000" stroke-width="2" fill="#c7e8ac"/><use xlink:href="#e" transform="matrix(1,0,0,1,716,600) translate(17.173828125 27.69314236111111)"/><use xlink:href="#f" transform="matrix(1,0,0,1,716,640) translate(43.931640625 27.69314236111111)"/><use xlink:href="#g" transform="matrix(1,0,0,1,716,680) translate(17.173828125 27.69314236111111)"/><use xlink:href="#f" transform="matrix(1,0,0,1,716,720) translate(43.931640625 27.69314236111111)"/><use xlink:href="#h" transform="matrix(1,0,0,1,716,760) translate(17.173828125 27.69314236111111)"/><use xlink:href="#i" transform="matrix(1,0,0,1,716,800) translate(23.86328125 27.69314236111111)"/><path d="M180 180v120h160V180zM180 220h160M180 260h160" stroke="#000" stroke-width="2" fill="#c1e4f7"/><use xlink:href="#m" transform="matrix(1,0,0,1,196,180) translate(37.2421875 27.69314236111111)"/><use xlink:href="#n" transform="matrix(1,0,0,1,196,220) translate(23.86328125 27.69314236111111)"/><use xlink:href="#o" transform="matrix(1,0,0,1,196,260) translate(30.552734375 27.69314236111111)"/><path d="M342 278.57l5.22-.1 8.13-.53 11.98-1.28 61.5-8.73 7.1-.45 5.33-.12 4.2.1 3.47.2 2.92.3 2.5.38 2.2.4 1.9.46 1.73.48 1.54.5 1.4.52 1.27.54 1.16.55 1.08.55 1 .58.94.6.87.6.82.62.78.64.73.65.7.68.65.7.63.72.6.76.56.8.55.8.4.7" stroke="#000" stroke-width="2" fill="none"/><path d="M342.05 279.57l-1.05.02v-2l1-.03z"/><path d="M479.27 295.85L471.54 283l9.03-2.1z" stroke="#000" stroke-width="2"/><path d="M342 201.1l21.02-.44 26.13-1.66 32.02-3.4 41.43-6.16L523 177.8l285.47-65.02 32.28-4.8 23.86-2.54 18.78-1.2 15.34-.33 12.87.28 11 .68 9.57 1 8.43 1.24 7.5 1.43 6.73 1.58 6.1 1.7 5.55 1.8 5.1 1.9 4.72 2 4.38 2.05 4.08 2.13 3.82 2.2 3.6 2.3 3.4 2.35 3.22 2.44 3.06 2.54 2.92 2.63 2.78 2.73 2.68 2.85 2.56 2.98 2.47 3.1 2.37 3.28 2.3 3.44 2.2 3.64 2.1 3.85 2.05 4.1 1.94 4.4 1.87 4.7 1.78 5.1 1.67 5.53 1.54 6.02 1.4 6.6 1.23 7.32 1.02 8.12.56 6.62" stroke="#000" stroke-width="2" fill="none"/><path d="M342.06 202.1l-1.06.03v-2l1-.02z"/><path d="M1039.88 235.77l-5.17-14.1 9.27-.33z" stroke="#000" stroke-width="2"/><path d="M342 240.02l57.2 1.16 47.97 3 40.02 4.17 33.74 4.96 28.75 5.48 24.7 5.8 21.44 5.96 18.73 6.08 16.48 6.12 14.6 6.14L658.7 295l11.68 6.1 10.52 6.07 9.52 6.04 8.66 6.02 7.9 6 7.24 5.98 6.64 6 6.13 5.98 5.64 6 5.24 6.06 4.83 6.1 4.48 6.17 4.16 6.26 3.85 6.35 3.56 6.48 3.3 6.6 3 6.8 2.77 6.96 2.5 7.2 2.25 7.43 1.98 7.73 1.7 8.05 1.44 8.42 1.1 8.85.5 5.9" stroke="#000" stroke-width="2" fill="none"/><path d="M342.05 239.02l-.04 2-1-.02v-2z"/><path d="M779.87 475.77l-5.2-14.07 9.25-.38z" stroke="#000" stroke-width="2"/><path d="M562 358.75l7-.14 8.62-.54 9.34-.98 10.2-1.5 11.24-2.16 12.53-2.95 14.12-3.95 16.18-5.27 18.92-7.05 22.8-9.6 28.9-13.64 41.25-21.65 161.65-91.73 16.55-7.8 11.78-4.98 9.03-3.38 7.23-2.35 5.95-1.67 5.03-1.18 4.32-.82 3.75-.56 3.32-.35 2.94-.2 2.67-.06 2.42.05 2.2.13 2.04.22 1.9.27 1.74.34 1.65.38 1.54.44 1.46.47 1.4.52 1.3.55 1.28.6 1.22.64 1.18.68 1.14.72 1.1.77 1.07.8 1.05.88 1.03.93 1 1 1 1.05.97 1.13.97 1.22.95 1.32.95 1.42.93 1.54.93 1.7.92 1.84.9 2.05.9 2.26.9 2.53.85 2.85.83 3.24.78 3.7.74 4.28.47 3.75" stroke="#000" stroke-width="2" fill="none"/><path d="M562.05 359.75l-1.05.03v-2l1-.03z"/><path d="M1039.83 235.77l-5.4-14 9.26-.5z" stroke="#000" stroke-width="2"/><path d="M300 20h260v60H300z" stroke="#000" stroke-width="2" fill="#d1bcd2"/><use xlink:href="#p" transform="matrix(1,0,0,1,305,25) translate(11.279296875 33.127170138888886)"/><use xlink:href="#q" transform="matrix(1,0,0,1,305,25) translate(64.794921875 33.127170138888886)"/><path d="M1140.13 545.52l.3.7-.3.72-.7.3-.7-.3-.3-.7.3-.72.7-.3zm7.83-1.54l.3.7-.3.7-.7.3-.7-.3-.3-.7.3-.7.7-.3zm7.7-2.15l.28.7-.3.72-.7.3-.7-.3-.3-.7.3-.72.7-.3zm7.48-2.72l.3.7-.3.72-.7.3-.7-.3-.3-.7.3-.7.7-.3zm7.27-3.3l.3.7-.3.72-.7.3-.7-.3-.3-.7.3-.72.7-.3zm7-3.85l.3.7-.3.7-.7.3-.72-.3-.3-.7.3-.7.7-.3zm6.67-4.37l.3.7-.3.7-.7.3-.72-.3-.3-.7.3-.7.7-.3zm6.32-4.87l.28.72-.3.7-.7.3-.7-.3-.3-.7.3-.7.7-.3zm5.94-5.3l.3.7-.3.7-.7.3-.72-.3-.3-.7.3-.7.7-.3zm5.6-5.7l.28.7-.3.7-.7.3-.7-.3-.3-.7.3-.7.7-.3zm5.18-6.07l.3.7-.3.72-.7.3-.72-.3-.3-.7.3-.72.7-.3zm4.83-6.34l.3.7-.3.7-.7.3-.7-.3-.3-.7.3-.7.7-.3zm4.43-6.65l.3.7-.3.7-.7.3-.72-.3-.3-.7.3-.7.7-.3zm4.08-6.86l.3.7-.3.7-.7.3-.7-.3-.3-.7.3-.7.7-.3zm3.74-7.06l.3.7-.3.72-.7.3-.7-.3-.3-.7.3-.72.7-.3zm3.4-7.22l.3.7-.3.72-.7.3-.7-.3-.3-.7.3-.72.7-.3zm3.07-7.36l.3.7-.3.7-.7.3-.7-.3-.3-.7.3-.7.7-.3zm2.76-7.5l.3.7-.3.72-.7.3-.72-.3-.28-.7.3-.72.7-.3zm2.44-7.6l.3.7-.3.72-.7.3-.7-.3-.3-.7.3-.7.7-.3zm2.16-7.68l.3.7-.3.72-.7.3-.72-.3-.28-.7.3-.72.7-.3zm1.88-7.75l.3.7-.3.7-.7.3-.7-.3-.3-.7.3-.7.7-.3zm1.63-7.8l.3.7-.3.7-.7.3-.7-.3-.3-.7.3-.7.7-.3zm1.4-7.87l.3.7-.3.7-.7.3-.72-.3-.28-.7.3-.7.7-.3zm1.1-7.9l.3.7-.3.7-.7.3-.7-.3-.3-.7.3-.7.7-.3zm.87-7.94l.3.7-.3.7-.7.3-.72-.3-.3-.7.3-.7.7-.3zm.66-7.95l.3.7-.3.7-.7.3-.72-.3-.3-.7.3-.7.7-.3zm.45-7.97l.3.7-.3.7-.7.3-.7-.3-.3-.7.3-.7.7-.3zm.16-7.98l.3.7-.3.7-.7.3-.7-.3-.3-.7.3-.7.7-.3zm0-7.98l.3.7-.3.7-.7.3-.7-.3-.3-.7.3-.7.7-.3zm-.2-7.98l.28.7-.3.72-.7.3-.7-.3-.3-.7.3-.72.7-.3zm-.47-7.96l.28.7-.3.7-.7.3-.7-.3-.3-.7.3-.7.7-.3zm-.6-7.96l.3.7-.3.7-.7.3-.7-.3-.3-.7.3-.7.7-.3zm-.88-7.94l.3.7-.3.72-.7.3-.7-.3-.3-.7.3-.72.7-.3zm-1.02-7.9l.3.7-.3.7-.7.3-.72-.3-.3-.7.3-.7.7-.3zm-1.22-7.9l.3.7-.3.72-.7.3-.72-.3-.3-.7.3-.72.7-.3zm-1.46-7.84l.3.7-.3.7-.7.3-.7-.3-.3-.7.3-.7.7-.3zm-1.55-7.83l.3.7-.3.7-.7.3-.72-.3-.3-.7.3-.7.7-.3zm-1.88-7.76l.3.7-.3.7-.7.3-.72-.3-.3-.7.3-.7.7-.3zm-2-7.73l.3.7-.3.7-.7.3-.7-.3-.3-.7.3-.7.7-.3zm-2.18-7.67l.3.7-.3.7-.7.3-.72-.3-.3-.7.3-.7.7-.3zm-2.4-7.6l.3.7-.3.7-.7.3-.72-.3-.3-.7.3-.7.7-.3zm-2.52-7.6l.3.72-.3.7-.7.3-.7-.3-.3-.7.3-.72.7-.3zm-2.82-7.45l.3.7-.3.7-.7.3-.72-.3-.3-.7.3-.7.7-.3zm-2.94-7.42l.3.7-.3.7-.7.3-.7-.3-.3-.7.3-.7.7-.3zm-3.14-7.34l.3.7-.3.7-.7.3-.7-.3-.3-.7.3-.7.7-.3zm-3.36-7.24l.3.7-.3.7-.7.3-.7-.3-.3-.7.3-.7.7-.3zm-3.48-7.18l.3.7-.3.72-.7.3-.72-.3-.3-.7.3-.72.7-.3zm-3.75-7.05l.3.7-.3.7-.7.3-.7-.3-.3-.7.3-.7.7-.3zm-3.9-6.96l.3.7-.3.7-.7.3-.72-.3-.3-.7.3-.7.7-.3zm-4.07-6.87l.3.7-.3.7-.7.3-.7-.3-.3-.7.3-.7.7-.3zm-4.32-6.7l.3.7-.3.7-.7.3-.7-.3-.3-.7.3-.7.7-.3zm-4.48-6.6l.3.7-.3.7-.7.3-.7-.3-.3-.7.3-.7.7-.3zm-4.65-6.5l.3.72-.3.7-.7.3-.7-.3-.3-.7.3-.72.7-.3zm-4.86-6.32l.3.7-.3.72-.7.3-.7-.3-.3-.7.3-.72.7-.3zm-5.07-6.16l.3.7-.3.7-.7.3-.7-.3-.3-.7.3-.7.7-.3zm-5.23-6.03l.3.7-.3.7-.7.3-.7-.3-.3-.7.3-.7.7-.3zm-5.4-5.88l.3.7-.3.7-.7.3-.7-.3-.3-.7.3-.7.7-.3zm-5.62-5.68l.3.7-.3.72-.7.3-.7-.3-.3-.7.3-.72.7-.3zm-5.8-5.48l.3.7-.3.7-.7.3-.7-.3-.3-.7.3-.7.7-.3zm-5.92-5.34l.3.7-.3.7-.7.3-.72-.3-.3-.7.3-.7.7-.3zm-6.16-5.1l.3.72-.3.7-.7.3-.7-.3-.3-.7.3-.7.7-.3zm-6.3-4.9l.3.7-.3.72-.7.3-.7-.3-.3-.7.3-.72.7-.3zm-6.4-4.74l.3.7-.3.7-.7.3-.72-.3-.3-.7.3-.7.7-.3zm-6.56-4.56l.3.7-.3.72-.7.3-.7-.3-.3-.7.3-.72.7-.3zm-6.7-4.33l.3.7-.3.72-.7.28-.72-.3-.3-.7.3-.7.7-.3zm-6.78-4.2l.3.7-.3.7-.7.3-.72-.3-.3-.7.3-.7.7-.3zm-6.92-4l.3.7-.3.72-.7.28-.7-.3-.3-.7.3-.7.7-.3zm-7-3.83l.3.7-.3.72-.7.3-.7-.3-.3-.7.3-.72.7-.3zm-7.07-3.7l.3.7-.3.72-.7.3-.7-.3-.3-.7.3-.7.7-.3zm-7.18-3.48l.3.7-.3.72-.7.3-.72-.3-.3-.7.3-.72.7-.3zm-7.23-3.4l.3.7-.3.72-.7.3-.7-.3-.3-.7.3-.7.7-.3zm-7.32-3.17l.3.7-.3.7-.7.3-.7-.3-.3-.7.3-.7.7-.3zm-7.36-3.1l.28.7-.3.7-.7.3-.7-.3-.3-.7.3-.7.7-.3zm-7.43-2.93l.3.7-.3.72-.7.28-.72-.3-.3-.7.3-.7.7-.3zm-7.5-2.78l.3.7-.3.7-.7.3-.7-.3-.3-.7.3-.7.7-.3zm-7.48-2.75l.28.7-.3.7-.7.3-.7-.3-.3-.7.3-.7.7-.3zM1030 87l.3.7-.3.7-.7.3-.72-.3-.3-.7.3-.7.7-.3zm-7.6-2.48l.3.7-.3.72-.7.3-.7-.3-.3-.7.3-.72.7-.3zm-7.62-2.33l.3.7-.3.7-.7.3-.72-.3-.3-.7.3-.7.7-.3zm-7.7-2.15l.3.7-.3.7-.7.3-.7-.3-.3-.7.3-.7.7-.3zm-7.68-2.15l.3.7-.3.72-.7.3-.7-.3-.3-.7.3-.72.7-.3zm-7.72-2.03l.3.7-.3.72-.7.28-.7-.3-.3-.7.3-.7.7-.3zm-7.77-1.82l.3.7-.3.72-.7.3-.7-.3-.3-.7.3-.72.7-.3zm-7.76-1.82l.3.7-.3.72-.7.3-.7-.3-.3-.7.3-.72.7-.3zm-7.77-1.82l.3.72-.3.7-.7.3-.72-.3-.3-.7.3-.7.7-.3zm-7.83-1.53l.3.7-.3.7-.7.3-.7-.3-.3-.7.3-.7.7-.3zm-7.84-1.5l.3.7-.3.72-.7.28-.72-.3-.3-.7.3-.7.7-.3zm-7.84-1.48l.3.7-.3.7-.7.3-.72-.3-.3-.7.3-.7.7-.3zm-7.84-1.5l.3.7-.3.7-.7.3-.72-.3-.3-.7.3-.7.7-.3zm-7.9-1.25l.3.7-.3.7-.7.3-.7-.3-.3-.7.3-.7.7-.3zM921.25 62l.3.7-.3.7-.7.3-.72-.3-.3-.7.3-.7.7-.3zm-7.9-1.17l.3.7-.3.7-.7.3-.7-.3-.3-.7.3-.7.7-.3zm-7.9-1.17l.3.7-.3.72-.7.3-.7-.3-.3-.7.3-.72.7-.3zm-7.9-1.16l.3.7-.3.72-.7.3-.7-.3-.3-.7.3-.72.7-.3zm-7.92-.86l.3.7-.3.7-.7.3-.72-.3-.3-.7.3-.7.7-.3zm-7.94-.83l.3.72-.3.7-.7.3-.72-.3-.3-.7.3-.7.7-.3zm-7.94-.82l.3.7-.3.72-.7.3-.72-.3-.3-.7.3-.72.7-.3zm-7.94-.83l.3.7-.3.72-.7.3-.7-.3-.3-.7.3-.72.7-.3zm-7.94-.83l.3.7-.3.72-.7.3-.7-.3-.3-.7.3-.72.7-.3zm-7.94-.82l.3.7-.3.7-.7.3-.7-.3-.3-.7.3-.7.7-.3zm-7.96-.5l.3.7-.3.7-.7.3-.72-.3-.3-.7.3-.7.7-.3zm-7.97-.5l.3.7-.3.7-.7.3-.72-.3-.3-.7.3-.7.7-.3zm-7.97-.5l.3.7-.3.72-.7.3-.72-.3-.28-.7.3-.72.7-.3zm-7.97-.5l.3.72-.3.7-.7.3-.7-.3-.3-.7.3-.7.7-.3zm-7.97-.5l.3.72-.3.7-.7.3-.72-.3-.3-.7.3-.7.7-.3zm-7.97-.48l.3.7-.3.72-.7.3-.72-.3-.28-.7.3-.72.7-.3zm-7.97-.5l.3.72-.3.7-.7.3-.7-.3-.3-.7.3-.7.7-.3zm-7.97-.32l.28.7-.3.7-.7.3-.7-.3-.3-.7.3-.7.7-.3zm-8-.02l.3.7-.3.72-.7.3-.7-.3-.3-.7.3-.72.7-.3zm-7.97 0l.3.7-.3.7-.7.3-.72-.3-.28-.7.3-.7.7-.3zm-7.98-.03l.3.7-.3.72-.7.3-.72-.3-.3-.7.3-.72.7-.3zm-8 0l.3.7-.3.7-.7.3-.7-.3-.3-.7.3-.7.7-.3zm-7.97-.03l.3.7-.3.72-.7.3-.7-.3-.3-.7.3-.72.7-.3zm-7.98 0l.3.7-.3.7-.7.3-.7-.3-.3-.7.3-.7.7-.3zm-7.98-.02l.3.7-.3.7-.7.3-.7-.3-.3-.7.3-.7.7-.3zm-7.98-.02l.3.7-.3.72-.7.3-.7-.3-.3-.7.3-.72.7-.3zm-7.98 0l.3.7-.3.7-.7.3-.72-.3-.3-.7.3-.7.7-.3zm-7.98-.03l.3.7-.3.72-.7.3-.72-.3-.3-.7.3-.72.7-.3zm-7.98 0l.3.7-.3.7-.7.3-.72-.3-.3-.7.3-.7.7-.3zm-8-.03l.3.7-.3.72-.7.3-.7-.3-.3-.7.3-.72.7-.3zm-7.97 0l.3.7-.3.7-.7.3-.7-.3-.3-.7.3-.7.7-.3zm-7.98-.02l.3.7-.3.7-.7.3-.7-.3-.3-.7.3-.7.7-.3zm-7.98-.02l.3.7-.3.7-.7.3-.7-.3-.3-.7.3-.7.7-.3zm-7.98 0l.28.7-.3.7-.7.3-.7-.3-.3-.7.3-.7.7-.3zm-8-.03l.3.7-.3.72-.7.3-.7-.3-.3-.7.3-.72.7-.3zm-7.97 0l.3.7-.3.7-.7.3-.72-.3-.28-.7.3-.7.7-.3zm-8-.03l.3.7-.3.72-.7.3-.7-.3-.3-.7.3-.72.7-.3zm-7.97 0l.3.7-.3.7-.7.3-.7-.3-.3-.7.3-.7.7-.3zm-7.98-.03l.3.7-.3.7-.7.3-.7-.3-.3-.7.3-.7.7-.3zm-7.98-.02l.3.7-.3.7-.7.3-.7-.3-.3-.7.3-.7.7-.3zm-7.98 0l.3.7-.3.7-.7.3-.72-.3-.3-.7.3-.7.7-.3zm-7.98-.03l.3.7-.3.72-.7.3-.72-.3-.3-.7.3-.72.7-.3zm-7.98 0l.3.7-.3.7-.7.3-.72-.3-.3-.7.3-.7.7-.3zm-8-.03l.3.7-.3.72-.7.3-.7-.3-.3-.7.3-.72.7-.3zm-7.97 0l.3.7-.3.7-.7.3-.72-.3-.3-.7.3-.7.7-.3zm-8-.03l.3.7-.3.7-.7.3-.7-.3-.3-.7.3-.7.7-.3z"/><path d="M562.03 49v2H561v-2zM1138.8 550.93l-14.57-3.5 13.86-5.74z"/><path d="M1139.92 552.22l-18.92-4.54 17.98-7.44zm-12.47-5.05l10.26 2.46-.5-6.5z"/><use xlink:href="#r" transform="matrix(1,0,0,1,910.398822076852,22.21850308795882) translate(0 28.878038194444446)"/><path d="M588.25 602.15l.3.7-.3.72-.7.3-.7-.3-.3-.7.3-.72.7-.3zm8.04-.2l.3.7-.3.7-.7.3-.72-.3-.3-.7.3-.7.7-.3zm8.02-.5l.3.7-.3.7-.7.3-.7-.3-.3-.7.3-.7.7-.3zm8.04-.5l.3.7-.3.7-.7.3-.72-.3-.3-.7.3-.7.7-.3zm8.03-.5l.28.7-.3.7-.7.3-.7-.3-.3-.7.3-.7.7-.3zm8-.78l.3.7-.3.72-.7.28-.72-.3-.3-.7.3-.7.7-.3zm8-.83l.3.7-.3.7-.7.3-.72-.3-.3-.7.3-.7.7-.3zm8-.84l.3.7-.3.7-.7.3-.7-.3-.3-.7.3-.7.7-.3zm7.97-1.14l.3.7-.3.72-.7.3-.72-.3-.3-.7.3-.72.7-.3zm23.8-3.96l.3.7-.3.72-.7.3-.7-.3-.3-.7.3-.72.7-.3zm7.9-1.5l.3.7-.3.7-.7.3-.7-.3-.3-.7.3-.7.7-.3zm7.85-1.8l.3.7-.3.7-.7.3-.7-.3-.3-.7.3-.7.7-.3zm7.83-1.84l.3.7-.3.7-.7.3-.7-.3-.3-.7.3-.7.7-.3zm7.77-2.1l.3.72-.3.7-.7.3-.7-.3-.3-.7.3-.7.7-.3zm7.68-2.4l.3.72-.3.7-.7.3-.7-.3-.3-.7.3-.7.7-.3zm7.68-2.4l.3.7-.3.72-.7.3-.7-.3-.3-.7.3-.7.7-.3zm7.68-2.4l.3.7-.3.72-.7.3-.7-.3-.3-.7.3-.72.7-.3zm7.68-2.4l.3.7-.3.7-.7.3-.7-.3-.3-.7.3-.7.7-.3zm7.68-2.4l.3.7-.3.7-.7.3-.7-.3-.3-.7.3-.7.7-.3zm7.68-2.4l.3.7-.3.7-.7.3-.72-.3-.3-.7.3-.7.7-.3zm7.68-2.4l.3.7-.3.7-.7.3-.72-.3-.3-.7.3-.7.7-.3zm7.68-2.4l.3.7-.3.7-.7.3-.72-.3-.3-.7.3-.7.7-.3zm7.68-2.4l.3.7-.3.7-.7.3-.72-.3-.3-.7.3-.7.7-.3zm7.68-2.42l.3.7-.3.72-.7.3-.72-.3-.3-.7.3-.72.7-.3zm7.68-2.4l.3.7-.3.72-.7.3-.72-.3-.3-.7.3-.72.7-.3zm7.72-2.26l.3.7-.3.7-.7.3-.72-.3-.3-.7.3-.7.7-.3zm7.75-2.18l.3.7-.3.72-.7.3-.72-.3-.3-.7.3-.72.7-.3zm7.74-2.17l.3.7-.3.72-.7.3-.7-.3-.3-.7.3-.72.7-.3zm7.82-1.92l.3.7-.3.72-.7.3-.7-.3-.3-.7.3-.7.7-.3zm7.84-1.83l.3.7-.3.7-.7.3-.72-.3-.3-.7.3-.7.7-.3zm7.85-1.75l.3.7-.3.72-.7.3-.7-.3-.3-.7.3-.72.7-.3zm7.92-1.5l.3.7-.3.7-.7.3-.72-.3-.3-.7.3-.7.7-.3zm7.9-1.5l.3.7-.3.7-.7.3-.7-.3-.3-.7.3-.7.7-.3zm7.95-1.23l.3.7-.3.7-.7.3-.7-.3-.3-.7.3-.7.7-.3zm7.96-1.18l.3.7-.3.7-.7.3-.7-.3-.3-.7.3-.7.7-.3zm7.98-1.08l.3.7-.3.7-.7.3-.7-.3-.3-.7.3-.7.7-.3zm8-.84l.3.7-.3.72-.7.3-.7-.3-.3-.7.3-.72.7-.3zm8-.84l.3.7-.3.72-.7.3-.7-.3-.3-.7.3-.72.7-.3zm8.03-.7l.3.7-.3.72-.7.3-.72-.3-.28-.7.3-.72.7-.3zm8.03-.5l.3.7-.3.72-.7.3-.72-.3-.3-.7.3-.72.7-.3zm8.03-.5l.28.7-.3.7-.7.3-.7-.3-.3-.7.3-.7.7-.3zm8.02-.5l.3.7-.3.72-.7.3-.7-.3-.3-.7.3-.7.7-.3zm8.05-.16l.3.7-.3.72-.7.3-.72-.3-.3-.7.3-.72.7-.3zm8.04-.16l.3.7-.3.72-.7.3-.7-.3-.3-.7.3-.72.7-.3zm8.06-.16l.3.7-.3.7-.7.3-.72-.3-.3-.7.3-.7.7-.3zm8.04-.16l.3.7-.3.7-.7.3-.7-.3-.3-.7.3-.7.7-.3z"/><path d="M959 537.8l-1 .02-.05-2 1.05-.02zM578.6 607.68l-14.36-4.35 14.16-4.92z"/><path d="M579.62 609.03L561 603.4l18.38-6.4zm-12.15-5.77l10.1 3.06-.14-6.52z"/><use xlink:href="#s" transform="matrix(1,0,0,1,654.153637282603,577.7133521978317) translate(0 28.878038194444446)"/><path d="M580.2 641.72l.3.7-.3.7-.7.3-.7-.3-.3-.7.3-.7.7-.3zm7.95-.36l.3.7-.3.72-.7.3-.72-.3-.3-.7.3-.72.7-.3zm7.94-.5l.28.7-.3.72-.7.3-.7-.3-.3-.7.3-.7.7-.3zm7.92-.55l.3.7-.3.72-.7.3-.7-.3-.3-.7.3-.7.7-.3zm7.9-.82l.3.7-.3.7-.7.3-.7-.3-.3-.7.3-.7.7-.3zm7.92-.85l.3.7-.3.72-.7.3-.72-.3-.3-.7.3-.72.7-.3zm7.87-1.16l.3.7-.3.72-.7.28-.7-.3-.3-.7.3-.7.7-.3zm7.87-1.2l.3.72-.3.7-.7.3-.72-.3-.3-.7.3-.72.7-.3zm7.8-1.48l.3.7-.3.7-.7.3-.7-.3-.3-.7.3-.7.7-.3zm23.24-5.4l.3.7-.3.7-.4.18v-1.77zm7.67-2.15l.3.7-.3.7-.7.3-.7-.3-.3-.7.3-.7.7-.3zm7.58-2.43l.3.7-.3.72-.7.3-.72-.3-.3-.7.3-.72.7-.3zm7.54-2.53l.28.7-.3.7-.7.3-.7-.3-.3-.7.3-.7.7-.3zm7.44-2.78l.3.7-.3.7-.7.3-.7-.3-.3-.7.3-.7.7-.3zm7.4-2.93l.3.7-.3.7-.7.3-.72-.3-.3-.7.3-.7.7-.3zm7.32-3.1l.3.7-.3.72-.7.3-.7-.3-.3-.7.3-.72.7-.3zm7.2-3.38l.3.7-.3.72-.7.3-.72-.3-.3-.7.3-.72.7-.3zm7.1-3.6l.28.7-.3.7-.7.3-.7-.3-.3-.7.3-.7.7-.3zm7.07-3.6l.3.7-.3.7-.7.3-.7-.3-.3-.7.3-.7.7-.3zm7.1-3.62l.3.7-.3.7-.7.3-.72-.3-.28-.7.3-.7.7-.3zm7.08-3.6l.3.7-.3.7-.7.3-.7-.3-.3-.7.3-.7.7-.3zm7.1-3.6l.3.7-.3.7-.7.3-.7-.3-.3-.7.3-.7.7-.3zm7.1-3.62l.28.7-.3.7-.7.3-.7-.3-.3-.7.3-.7.7-.3zm7.08-3.6l.3.7-.3.7-.7.3-.72-.3-.3-.7.3-.7.7-.3zm7.1-3.62l.28.7-.3.72-.7.3-.7-.3-.3-.7.3-.72.7-.3zm7.07-3.6l.3.7-.3.7-.7.3-.7-.3-.3-.7.3-.7.7-.3zm7.1-3.6l.3.7-.3.72-.7.3-.7-.3-.3-.7.3-.7.7-.3zm7.2-3.4l.3.72-.3.7-.7.3-.72-.3-.3-.7.3-.7.7-.3zm7.2-3.38l.28.7-.3.7-.7.3-.7-.3-.3-.7.3-.7.7-.3zm7.26-3.2l.3.7-.3.7-.7.3-.7-.3-.3-.7.3-.7.7-.3zm7.35-3.1l.3.72-.3.7-.7.3-.72-.3-.3-.7.3-.7.7-.3zm7.4-2.85l.3.7-.3.7-.7.3-.7-.3-.3-.7.3-.7.7-.3zm7.47-2.78l.3.7-.3.72-.7.3-.72-.3-.3-.7.3-.72.7-.3zm7.56-2.47l.3.7-.3.72-.7.3-.72-.3-.3-.7.3-.72.7-.3zm7.6-2.36l.28.7-.3.7-.7.3-.7-.3-.3-.7.3-.7.7-.3zm7.65-2.14l.3.7-.3.7-.7.3-.7-.3-.3-.7.3-.7.7-.3zm7.7-1.94l.3.7-.3.72-.7.3-.7-.3-.3-.7.3-.72.7-.3zm7.76-1.8l.28.7-.3.7-.7.3-.7-.3-.3-.7.3-.7.7-.3zm7.8-1.53l.3.7-.3.72-.7.3-.72-.3-.3-.7.3-.7.7-.3zm7.8-1.45l.3.7-.3.7-.7.3-.7-.3-.3-.7.3-.7.7-.3zm7.88-1.16l.3.7-.3.7-.7.3-.7-.3-.3-.7.3-.7.7-.3zm7.87-1.12l.3.7-.3.7-.7.3-.7-.3-.3-.7.3-.7.7-.3zm7.9-.83l.3.7-.3.7-.7.3-.7-.3-.3-.7.3-.7.7-.3zm7.93-.82l.3.7-.3.7-.7.3-.72-.3-.3-.7.3-.7.7-.3zm7.93-.5l.3.7-.3.7-.7.3-.7-.3-.3-.7.3-.7.7-.3zm7.95-.5l.3.7-.3.72-.7.3-.7-.3-.3-.7.3-.72.7-.3zm7.95-.3l.3.72-.3.7-.7.3-.72-.3-.3-.7.3-.7.7-.3zm7.95-.15l.3.7-.3.7-.7.3-.7-.3-.3-.7.3-.7.7-.3zm7.95-.16l.3.7-.3.7-.7.3-.7-.3-.3-.7.3-.7.7-.3z"/><path d="M959 537.8l-1 .02-.05-2 1.05-.02zM578.6 647.08l-14.36-4.34 14.16-4.93z"/><path d="M579.62 648.44L561 642.8l18.38-6.38zm-12.15-5.77l10.1 3.06-.14-6.52z"/><use xlink:href="#t" transform="matrix(1,0,0,1,647.4628741606795,614.3132008602034) translate(0 28.878038194444446)"/><path d="M562 520.47l2.98-.06 4.33-.26 4.77-.5 5.27-.78 5.9-1.13 6.7-1.58 7.74-2.17 9.17-2.98 11.25-4.2 14.76-6.22 23.62-11.2 61.36-30.58 9.35-3.95 6.42-2.4 4.85-1.58 3.84-1.08 3.16-.75 2.64-.5 2.26-.34 1.97-.2 1.73-.1 1.54-.04 1.38.03 1.25.07 1.15.12 1.05.14.97.2.9.2.86.24.8.26.74.28.72.3.67.3.64.35.63.36.6.38.57.42.56.42.55.45.53.47.52.5.5.54.5.6.5.6.47.67.47.7.46.78.46.83.46.9.44 1 .32.82" stroke="#000" stroke-width="2" fill="none"/><path d="M562.05 521.47l-1.05.03v-2l1-.03z"/><path d="M779.52 475.8l-6.7-13.42L782 461z" stroke="#000" stroke-width="2"/><defs><path d="M616-991c-93 0-161 39-212 109-92 126-92 520 0 646 52 70 119 109 212 109 94 0 161-39 213-109 93-126 92-520 0-646-52-70-119-109-213-109zM137-559c0-353 146-588 479-588s480 235 480 588c0 355-145 588-480 588-334 0-479-234-479-588" id="u"/><path d="M850-236c87-126 87-521 0-646-49-70-112-109-201-109s-154 38-203 109c-89 127-89 518 0 645 49 71 114 110 203 110s152-39 201-109zM676 29c-146 0-244-69-299-170V0H193v-1556h184v579c53-101 154-170 301-170 297 0 434 260 434 584 0 329-136 592-436 592" id="v"/><path d="M1233 403v80H0v-80h1233" id="w"/><path d="M915-1147c102 0 174 26 240 70v188c-71-55-140-88-254-88-243 0-354 165-354 420V0H362v-1120h185v219c55-146 178-246 368-246" id="x"/><path d="M651-1147c298 0 466 229 461 541v90H315c-4 242 129 392 365 389 156-2 268-51 389-113v183C949-8 828 27 678 29c-351 3-555-232-555-588 0-338 200-588 528-588zm277 487c-4-201-91-331-285-331-193 0-305 144-321 332" id="y"/><path d="M494-1120c-16-286 77-439 348-436h221v153H854c-136 2-174 46-176 184v99h385v143H678V0H494v-977H195v-143h299" id="z"/><path d="M748-127c144 0 233-46 313-121v191C974-6 875 28 748 29c-351 3-553-232-553-588 0-357 202-591 553-588 129 2 222 35 313 86v193c-88-76-165-123-313-123-245 0-359 174-359 432 0 257 115 432 359 432" id="A"/><path d="M711-1147c253 0 340 178 340 453V0H866v-694c-1-183-51-293-219-293-189 0-268 148-268 354V0H195v-1120h184v168c60-118 165-195 332-195" id="B"/><path d="M807 0C529-4 430-92 430-369v-608H131v-143h299v-318h184v318h418v143H614v608c2 165 49 222 211 222h207V0H807" id="C"/><g id="a"><use transform="matrix(0.010850694444444444,0,0,0.010850694444444444,0,0)" xlink:href="#u"/><use transform="matrix(0.010850694444444444,0,0,0.010850694444444444,13.37890625,0)" xlink:href="#v"/><use transform="matrix(0.010850694444444444,0,0,0.010850694444444444,26.7578125,0)" xlink:href="#w"/><use transform="matrix(0.010850694444444444,0,0,0.010850694444444444,40.13671875,0)" xlink:href="#x"/><use transform="matrix(0.010850694444444444,0,0,0.010850694444444444,53.515625,0)" xlink:href="#y"/><use transform="matrix(0.010850694444444444,0,0,0.010850694444444444,66.89453125,0)" xlink:href="#z"/><use transform="matrix(0.010850694444444444,0,0,0.010850694444444444,80.2734375,0)" xlink:href="#A"/><use transform="matrix(0.010850694444444444,0,0,0.010850694444444444,93.65234375,0)" xlink:href="#B"/><use transform="matrix(0.010850694444444444,0,0,0.010850694444444444,107.03125,0)" xlink:href="#C"/></g><path d="M1153-1120C1010-750 884-433 741-52c-66 176-110 283-133 322-55 94-138 156-276 156H184V272c97 0 188 7 236-47 29-33 70-112 117-243L104-1120h195l332 876 327-876h195" id="D"/><path d="M674 29c-147 0-246-68-299-170v567H190v-1546h185v143c55-101 152-170 299-170 300 0 434 263 434 592 0 325-137 584-434 584zm174-265c87-125 87-521 0-646-48-70-112-109-201-109s-154 38-203 109c-89 127-89 518 0 645 49 71 114 110 203 110s153-39 201-109" id="E"/><g id="b"><use transform="matrix(0.010850694444444444,0,0,0.010850694444444444,0,0)" xlink:href="#u"/><use transform="matrix(0.010850694444444444,0,0,0.010850694444444444,13.37890625,0)" xlink:href="#v"/><use transform="matrix(0.010850694444444444,0,0,0.010850694444444444,26.7578125,0)" xlink:href="#w"/><use transform="matrix(0.010850694444444444,0,0,0.010850694444444444,40.13671875,0)" xlink:href="#C"/><use transform="matrix(0.010850694444444444,0,0,0.010850694444444444,53.515625,0)" xlink:href="#D"/><use transform="matrix(0.010850694444444444,0,0,0.010850694444444444,66.89453125,0)" xlink:href="#E"/><use transform="matrix(0.010850694444444444,0,0,0.010850694444444444,80.2734375,0)" xlink:href="#y"/></g><path d="M637-1147c132 1 237 25 336 66v180c-92-53-190-92-322-92-145 0-248 35-248 164 0 50 15 87 46 112 23 30 197 67 303 86 166 30 278 123 278 307 0 239-191 356-446 353-140-2-251-31-371-70v-190c114 58 228 103 375 106 145 3 253-56 256-188 3-87-90-149-253-179-210-38-374-93-374-319 0-232 173-338 420-336" id="F"/><path d="M256-1120h471v977h365V0H178v-143h365v-834H256v-143zm287-436h184v233H543v-233" id="G"/><path d="M227-1122h813v168L397-150h643V0H203v-170l643-805H227v-147" id="H"/><g id="c"><use transform="matrix(0.010850694444444444,0,0,0.010850694444444444,0,0)" xlink:href="#u"/><use transform="matrix(0.010850694444444444,0,0,0.010850694444444444,13.37890625,0)" xlink:href="#v"/><use transform="matrix(0.010850694444444444,0,0,0.010850694444444444,26.7578125,0)" xlink:href="#w"/><use transform="matrix(0.010850694444444444,0,0,0.010850694444444444,40.13671875,0)" xlink:href="#F"/><use transform="matrix(0.010850694444444444,0,0,0.010850694444444444,53.515625,0)" xlink:href="#G"/><use transform="matrix(0.010850694444444444,0,0,0.010850694444444444,66.89453125,0)" xlink:href="#H"/><use transform="matrix(0.010850694444444444,0,0,0.010850694444444444,80.2734375,0)" xlink:href="#y"/></g><path d="M930-1047c0-180-114-280-297-280H399v561h234c182 2 297-102 297-281zm211 0c0 308-189 448-508 447H399V0H197v-1493h436c317-2 508 140 508 446" id="I"/><path d="M233-1493h879v170H436v440h613v170H436V0H233v-1493" id="J"/><path d="M801 0C570 0 455-164 455-406v-1017H160v-144h479v1161c0 147 46 250 180 250h215V0H801" id="K"/><path d="M547-125c229-2 340-186 327-438H641c-189 0-321 55-324 225-3 137 91 215 230 213zm-332-944c167-71 431-115 615-37 106 45 186 120 213 246 11 49 16 123 16 221V0H874v-166C800-42 695 26 508 29c-220 3-378-138-375-355 4-274 199-382 494-381h247c6-204-80-285-282-284-149 1-272 46-377 106v-184" id="L"/><path d="M47-1493h1139v170H719V0H516v-1323H47v-170" id="M"/><g id="d"><use transform="matrix(0.013020833333333334,0,0,0.013020833333333334,0,0)" xlink:href="#I"/><use transform="matrix(0.013020833333333334,0,0,0.013020833333333334,16.0546875,0)" xlink:href="#D"/><use transform="matrix(0.013020833333333334,0,0,0.013020833333333334,32.109375,0)" xlink:href="#J"/><use transform="matrix(0.013020833333333334,0,0,0.013020833333333334,48.1640625,0)" xlink:href="#K"/><use transform="matrix(0.013020833333333334,0,0,0.013020833333333334,64.21875,0)" xlink:href="#u"/><use transform="matrix(0.013020833333333334,0,0,0.013020833333333334,80.2734375,0)" xlink:href="#L"/><use transform="matrix(0.013020833333333334,0,0,0.013020833333333334,96.328125,0)" xlink:href="#C"/><use transform="matrix(0.013020833333333334,0,0,0.013020833333333334,112.3828125,0)" xlink:href="#w"/><use transform="matrix(0.013020833333333334,0,0,0.013020833333333334,128.4375,0)" xlink:href="#M"/><use transform="matrix(0.013020833333333334,0,0,0.013020833333333334,144.4921875,0)" xlink:href="#D"/><use transform="matrix(0.013020833333333334,0,0,0.013020833333333334,160.546875,0)" xlink:href="#E"/><use transform="matrix(0.013020833333333334,0,0,0.013020833333333334,176.6015625,0)" xlink:href="#y"/></g><path d="M471-1147c112 0 171 55 205 141 41-85 99-141 213-141 90 0 154 35 191 105s55 200 55 393V0H967v-641c0-158-12-256-27-295-31-81-176-72-206 4-17 42-29 138-29 291V0H537v-641c0-160-10-259-29-296s-53-56-102-56-83 20-102 61-28 138-28 291V0H109v-1120h167v96c38-70 97-123 195-123" id="N"/><g id="e"><use transform="matrix(0.010850694444444444,0,0,0.010850694444444444,0,0)" xlink:href="#C"/><use transform="matrix(0.010850694444444444,0,0,0.010850694444444444,13.37890625,0)" xlink:href="#E"/><use transform="matrix(0.010850694444444444,0,0,0.010850694444444444,26.7578125,0)" xlink:href="#w"/><use transform="matrix(0.010850694444444444,0,0,0.010850694444444444,40.13671875,0)" xlink:href="#B"/><use transform="matrix(0.010850694444444444,0,0,0.010850694444444444,53.515625,0)" xlink:href="#L"/><use transform="matrix(0.010850694444444444,0,0,0.010850694444444444,66.89453125,0)" xlink:href="#N"/><use transform="matrix(0.010850694444444444,0,0,0.010850694444444444,80.2734375,0)" xlink:href="#y"/></g><path d="M489-305h252V0H489v-305" id="O"/><g id="f"><use transform="matrix(0.010850694444444444,0,0,0.010850694444444444,0,0)" xlink:href="#O"/><use transform="matrix(0.010850694444444444,0,0,0.010850694444444444,13.37890625,0)" xlink:href="#O"/><use transform="matrix(0.010850694444444444,0,0,0.010850694444444444,26.7578125,0)" xlink:href="#O"/></g><g id="g"><use transform="matrix(0.010850694444444444,0,0,0.010850694444444444,0,0)" xlink:href="#C"/><use transform="matrix(0.010850694444444444,0,0,0.010850694444444444,13.37890625,0)" xlink:href="#E"/><use transform="matrix(0.010850694444444444,0,0,0.010850694444444444,26.7578125,0)" xlink:href="#w"/><use transform="matrix(0.010850694444444444,0,0,0.010850694444444444,40.13671875,0)" xlink:href="#v"/><use transform="matrix(0.010850694444444444,0,0,0.010850694444444444,53.515625,0)" xlink:href="#L"/><use transform="matrix(0.010850694444444444,0,0,0.010850694444444444,66.89453125,0)" xlink:href="#F"/><use transform="matrix(0.010850694444444444,0,0,0.010850694444444444,80.2734375,0)" xlink:href="#y"/></g><g id="h"><use transform="matrix(0.010850694444444444,0,0,0.010850694444444444,0,0)" xlink:href="#C"/><use transform="matrix(0.010850694444444444,0,0,0.010850694444444444,13.37890625,0)" xlink:href="#E"/><use transform="matrix(0.010850694444444444,0,0,0.010850694444444444,26.7578125,0)" xlink:href="#w"/><use transform="matrix(0.010850694444444444,0,0,0.010850694444444444,40.13671875,0)" xlink:href="#G"/><use transform="matrix(0.010850694444444444,0,0,0.010850694444444444,53.515625,0)" xlink:href="#B"/><use transform="matrix(0.010850694444444444,0,0,0.010850694444444444,66.89453125,0)" xlink:href="#G"/><use transform="matrix(0.010850694444444444,0,0,0.010850694444444444,80.2734375,0)" xlink:href="#C"/></g><path d="M0-1120h182l195 905 160-578h157l162 578 195-905h182L971 0H795L616-614 438 0H262" id="P"/><g id="i"><use transform="matrix(0.010850694444444444,0,0,0.010850694444444444,0,0)" xlink:href="#C"/><use transform="matrix(0.010850694444444444,0,0,0.010850694444444444,13.37890625,0)" xlink:href="#E"/><use transform="matrix(0.010850694444444444,0,0,0.010850694444444444,26.7578125,0)" xlink:href="#w"/><use transform="matrix(0.010850694444444444,0,0,0.010850694444444444,40.13671875,0)" xlink:href="#B"/><use transform="matrix(0.010850694444444444,0,0,0.010850694444444444,53.515625,0)" xlink:href="#y"/><use transform="matrix(0.010850694444444444,0,0,0.010850694444444444,66.89453125,0)" xlink:href="#P"/></g><g id="j"><use transform="matrix(0.013020833333333334,0,0,0.013020833333333334,0,0)" xlink:href="#I"/><use transform="matrix(0.013020833333333334,0,0,0.013020833333333334,16.0546875,0)" xlink:href="#D"/><use transform="matrix(0.013020833333333334,0,0,0.013020833333333334,32.109375,0)" xlink:href="#M"/><use transform="matrix(0.013020833333333334,0,0,0.013020833333333334,48.1640625,0)" xlink:href="#D"/><use transform="matrix(0.013020833333333334,0,0,0.013020833333333334,64.21875,0)" xlink:href="#E"/><use transform="matrix(0.013020833333333334,0,0,0.013020833333333334,80.2734375,0)" xlink:href="#y"/><use transform="matrix(0.013020833333333334,0,0,0.013020833333333334,96.328125,0)" xlink:href="#w"/><use transform="matrix(0.013020833333333334,0,0,0.013020833333333334,112.3828125,0)" xlink:href="#M"/><use transform="matrix(0.013020833333333334,0,0,0.013020833333333334,128.4375,0)" xlink:href="#D"/><use transform="matrix(0.013020833333333334,0,0,0.013020833333333334,144.4921875,0)" xlink:href="#E"/><use transform="matrix(0.013020833333333334,0,0,0.013020833333333334,160.546875,0)" xlink:href="#y"/></g><g id="k"><use transform="matrix(0.010850694444444444,0,0,0.010850694444444444,0,0)" xlink:href="#C"/><use transform="matrix(0.010850694444444444,0,0,0.010850694444444444,13.37890625,0)" xlink:href="#E"/><use transform="matrix(0.010850694444444444,0,0,0.010850694444444444,26.7578125,0)" xlink:href="#w"/><use transform="matrix(0.010850694444444444,0,0,0.010850694444444444,40.13671875,0)" xlink:href="#A"/><use transform="matrix(0.010850694444444444,0,0,0.010850694444444444,53.515625,0)" xlink:href="#L"/><use transform="matrix(0.010850694444444444,0,0,0.010850694444444444,66.89453125,0)" xlink:href="#K"/><use transform="matrix(0.010850694444444444,0,0,0.010850694444444444,80.2734375,0)" xlink:href="#K"/></g><path d="M934-430c0-206-112-282-326-283H369v547h239c220-2 326-58 326-264zm-53-684c0-168-96-213-277-213H369v450h235c186-1 277-59 277-237zm256 704C1133-113 928 1 608 0H166v-1493h442c280-3 477 118 477 379 0 189-93 290-262 315 190 26 317 174 314 389" id="Q"/><path d="M838-276c84-151 84-788 0-939-51-91-119-141-222-141-102 0-169 50-220 141-84 151-84 788 0 939 51 91 118 141 220 141 103 0 171-50 222-141zm278-469c0 260-42 454-124 582S785 29 616 29 322-35 240-162 117-484 117-745s41-455 123-583 208-192 376-192c169 0 294 64 376 192s124 322 124 583" id="R"/><path d="M420 270c135-3 180-101 180-250v-997H283v-143h501V20c2 243-112 405-344 406H186V270h234zm180-1826h184v233H600v-233" id="S"/><g id="l"><use transform="matrix(0.013020833333333334,0,0,0.013020833333333334,0,0)" xlink:href="#I"/><use transform="matrix(0.013020833333333334,0,0,0.013020833333333334,16.0546875,0)" xlink:href="#D"/><use transform="matrix(0.013020833333333334,0,0,0.013020833333333334,32.109375,0)" xlink:href="#Q"/><use transform="matrix(0.013020833333333334,0,0,0.013020833333333334,48.1640625,0)" xlink:href="#L"/><use transform="matrix(0.013020833333333334,0,0,0.013020833333333334,64.21875,0)" xlink:href="#F"/><use transform="matrix(0.013020833333333334,0,0,0.013020833333333334,80.2734375,0)" xlink:href="#y"/><use transform="matrix(0.013020833333333334,0,0,0.013020833333333334,96.328125,0)" xlink:href="#R"/><use transform="matrix(0.013020833333333334,0,0,0.013020833333333334,112.3828125,0)" xlink:href="#v"/><use transform="matrix(0.013020833333333334,0,0,0.013020833333333334,128.4375,0)" xlink:href="#S"/><use transform="matrix(0.013020833333333334,0,0,0.013020833333333334,144.4921875,0)" xlink:href="#y"/><use transform="matrix(0.013020833333333334,0,0,0.013020833333333334,160.546875,0)" xlink:href="#A"/><use transform="matrix(0.013020833333333334,0,0,0.013020833333333334,176.6015625,0)" xlink:href="#C"/><use transform="matrix(0.013020833333333334,0,0,0.013020833333333334,192.65625,0)" xlink:href="#w"/><use transform="matrix(0.013020833333333334,0,0,0.013020833333333334,208.7109375,0)" xlink:href="#M"/><use transform="matrix(0.013020833333333334,0,0,0.013020833333333334,224.765625,0)" xlink:href="#D"/><use transform="matrix(0.013020833333333334,0,0,0.013020833333333334,240.8203125,0)" xlink:href="#E"/><use transform="matrix(0.013020833333333334,0,0,0.013020833333333334,256.875,0)" xlink:href="#y"/></g><g id="m"><use transform="matrix(0.010850694444444444,0,0,0.010850694444444444,0,0)" xlink:href="#C"/><use transform="matrix(0.010850694444444444,0,0,0.010850694444444444,13.37890625,0)" xlink:href="#D"/><use transform="matrix(0.010850694444444444,0,0,0.010850694444444444,26.7578125,0)" xlink:href="#E"/><use transform="matrix(0.010850694444444444,0,0,0.010850694444444444,40.13671875,0)" xlink:href="#y"/></g><g id="n"><use transform="matrix(0.010850694444444444,0,0,0.010850694444444444,0,0)" xlink:href="#u"/><use transform="matrix(0.010850694444444444,0,0,0.010850694444444444,13.37890625,0)" xlink:href="#v"/><use transform="matrix(0.010850694444444444,0,0,0.010850694444444444,26.7578125,0)" xlink:href="#S"/><use transform="matrix(0.010850694444444444,0,0,0.010850694444444444,40.13671875,0)" xlink:href="#y"/><use transform="matrix(0.010850694444444444,0,0,0.010850694444444444,53.515625,0)" xlink:href="#A"/><use transform="matrix(0.010850694444444444,0,0,0.010850694444444444,66.89453125,0)" xlink:href="#C"/></g><g id="o"><use transform="matrix(0.010850694444444444,0,0,0.010850694444444444,0,0)" xlink:href="#z"/><use transform="matrix(0.010850694444444444,0,0,0.010850694444444444,13.37890625,0)" xlink:href="#K"/><use transform="matrix(0.010850694444444444,0,0,0.010850694444444444,26.7578125,0)" xlink:href="#u"/><use transform="matrix(0.010850694444444444,0,0,0.010850694444444444,40.13671875,0)" xlink:href="#L"/><use transform="matrix(0.010850694444444444,0,0,0.010850694444444444,53.515625,0)" xlink:href="#C"/></g><path d="M88-961v-182l1057 418v166L88-141v-183l850-317" id="T"/><g id="p"><use transform="matrix(0.010850694444444444,0,0,0.010850694444444444,0,0)" xlink:href="#T"/><use transform="matrix(0.010850694444444444,0,0,0.010850694444444444,13.37890625,0)" xlink:href="#T"/><use transform="matrix(0.010850694444444444,0,0,0.010850694444444444,26.7578125,0)" xlink:href="#T"/></g><path d="M426-643c0-377 131-645 299-911h160c-153 264-264 539-264 911 0 371 112 648 264 913H725C557 0 426-263 426-643" id="U"/><path d="M702-1493v555H528v-555h174" id="V"/><path d="M1044-1120c-1 183-111 281-268 321 181 46 302 172 303 387 1 289-218 445-522 441-155-2-297-31-420-74v-201c118 61 239 103 398 105 208 2 343-93 344-291 1-181-141-287-330-283H395v-166h154c169 2 295-74 295-231 0-161-111-239-279-238-146 2-264 35-383 80v-186c132-34 244-61 383-64 268-6 481 146 479 400" id="W"/><path d="M270-170h314v-1141l-338 76v-184l336-74h202v1323h310V0H270v-170" id="X"/><path d="M735-1309L264-520h471v-789zm-33-184h234v973h199v164H936V0H735v-356H102v-191" id="Y"/><path d="M612-643c0-370-112-648-264-911h160c168 267 299 533 299 911 0 379-131 646-299 913H348C499 3 612-272 612-643" id="Z"/><g id="q"><use transform="matrix(0.010850694444444444,0,0,0.010850694444444444,0,0)" xlink:href="#z"/><use transform="matrix(0.010850694444444444,0,0,0.010850694444444444,13.37890625,0)" xlink:href="#K"/><use transform="matrix(0.010850694444444444,0,0,0.010850694444444444,26.7578125,0)" xlink:href="#u"/><use transform="matrix(0.010850694444444444,0,0,0.010850694444444444,40.13671875,0)" xlink:href="#L"/><use transform="matrix(0.010850694444444444,0,0,0.010850694444444444,53.515625,0)" xlink:href="#C"/><use transform="matrix(0.010850694444444444,0,0,0.010850694444444444,66.89453125,0)" xlink:href="#U"/><use transform="matrix(0.010850694444444444,0,0,0.010850694444444444,80.2734375,0)" xlink:href="#V"/><use transform="matrix(0.010850694444444444,0,0,0.010850694444444444,93.65234375,0)" xlink:href="#W"/><use transform="matrix(0.010850694444444444,0,0,0.010850694444444444,107.03125,0)" xlink:href="#O"/><use transform="matrix(0.010850694444444444,0,0,0.010850694444444444,120.41015625,0)" xlink:href="#X"/><use transform="matrix(0.010850694444444444,0,0,0.010850694444444444,133.7890625,0)" xlink:href="#Y"/><use transform="matrix(0.010850694444444444,0,0,0.010850694444444444,147.16796875,0)" xlink:href="#V"/><use transform="matrix(0.010850694444444444,0,0,0.010850694444444444,160.546875,0)" xlink:href="#Z"/></g><use transform="matrix(0.015190972222222224,0,0,0.015190972222222224,0,0)" xlink:href="#X" id="r"/><use transform="matrix(0.015190972222222224,0,0,0.015190972222222224,0,0)" xlink:href="#W" id="s"/><path d="M563-1520c272-5 493 161 486 422-5 184-82 278-189 404-156 183-266 291-487 524h686V0H152v-170c181-191 381-399 520-561 68-80 112-147 135-197s35-102 35-155c2-166-108-271-275-267-164 4-280 61-403 133v-204c119-56 242-96 399-99" id="aa"/><use transform="matrix(0.015190972222222224,0,0,0.015190972222222224,0,0)" xlink:href="#aa" id="t"/></defs></g></svg>