<svg xmlns="http://www.w3.org/2000/svg" xmlns:xlink="http://www.w3.org/1999/xlink" xmlns:lucid="lucid" width="440" height="160"><g transform="translate(-460 -280)" lucid:page-tab-id="0_0"><path d="M480 300h160v80H480z" stroke="#000" stroke-width="2" fill="#c7e8ac"/><use xlink:href="#a" transform="matrix(1,0,0,1,485,305) translate(21.666666666666657 41.020833333333336)"/><use xlink:href="#b" transform="matrix(1,0,0,1,485,305) translate(48.33333333333333 41.020833333333336)"/><use xlink:href="#c" transform="matrix(1,0,0,1,485,305) translate(75 41.020833333333336)"/><use xlink:href="#d" transform="matrix(1,0,0,1,485,305) translate(101.66666666666667 41.020833333333336)"/><path d="M720 300h160v80H720z" stroke="#000" stroke-width="2" fill="#c7e8ac"/><use xlink:href="#a" transform="matrix(1,0,0,1,725,305) translate(21.666666666666657 41.020833333333336)"/><use xlink:href="#b" transform="matrix(1,0,0,1,725,305) translate(48.33333333333333 41.020833333333336)"/><use xlink:href="#c" transform="matrix(1,0,0,1,725,305) translate(75 41.020833333333336)"/><use xlink:href="#d" transform="matrix(1,0,0,1,725,305) translate(101.66666666666667 41.020833333333336)"/><path d="M480 380h160v40H480z" stroke="#000" stroke-width="2" fill="#a3d977"/><g><use xlink:href="#e" transform="matrix(1,0,0,1,485,385) translate(65 23.208333333333336)"/></g><path d="M720 380h160v40H720z" stroke="#000" stroke-width="2" fill="#a3d977"/><g><use xlink:href="#f" transform="matrix(1,0,0,1,725,385) translate(-1.6666666666666998 21.333333333333336)"/></g><defs><path d="M23 54C99 34 155-3 182-75h137c10 0 11-9 2-11-10-6-18-12-23-19l-18 20h-95c13-31 3-121 14-155l-29-8c8 7 8 143-4 163H23l6 10h134C131-4 101 16 22 51zM199-49l-1 4c39 24 69 53 89 84 5 7 20 11 19-3-15-43-53-53-107-85zM82-226c30 15 36 34 54 46 11-1 9-20 0-27-8-6-25-15-52-23zm-23 66c31 16 39 34 56 48 12-1 10-20 0-28-10-7-27-16-55-25" id="g"/><use transform="matrix(0.07407407407407408,0,0,0.07407407407407408,0,0)" xlink:href="#g" id="a"/><path d="M117-203c-2-18 2-30 7-40l-27-8c4 11 3 32 3 48H32l5 10h147c8 1 10-9 2-11-8-5-16-11-20-17l-16 18h-33zm-32 80c26-18-3-49-26-62 12 19 19 37 19 55 0 4 3 7 7 7zm63-68c-8 36-12 48-28 76H19l6 10h166c9 1 11-9 2-11-9-5-15-11-20-18l-17 19h-31c14-14 27-32 37-55 4-2 18-6 4-11-5-2-12-5-18-10zm24 145c-1-8 24-13 8-21-5-3-10-7-15-12l-11 9c-36-2-84 7-107-9 11 35-2 91 6 129 12-1 16-10 14-25h88c1 5-2 14 3 14 4-2 12-4 14-7v-78zM67 15v-75h88v75H67zm253-57c-2-43-21-57-55-84 20-34 35-61 44-82 3-6 28-10 10-16-4-3-10-9-16-16-12 18-52 8-80 10l-20-10c11 88 1 196 4 291 2 7 15-1 17-4v-268h68c-11 35-23 67-35 95 28 26 44 43 44 84 0 30-11 39-47 33v4c16 6 27 13 33 25 21-13 35-25 33-62" id="h"/><use transform="matrix(0.07407407407407408,0,0,0.07407407407407408,0,0)" xlink:href="#h" id="b"/><path d="M81-156c1-5 9-14-2-14 11-18 23-39 35-64 4-5 19-7 5-13-6-3-13-8-20-15-17 65-45 113-81 158l3 3c15-13 29-28 44-47l2 202c5-2 14-2 14-8v-202zm196-99l-15 15H143l5 10h144c8 1 11-9 3-10-7-4-14-10-18-15zm32 41l-17 18H115l6 10h206c8 0 10-10 1-11-8-5-14-11-19-17zm-32 51l-15 15H143l5 10h144c8 1 11-9 3-10-7-4-14-10-18-15zm0 47l-15 15H143l5 9h144c9 1 11-8 3-10-7-4-14-9-18-14zm21 86c0-9 26-15 7-22-5-3-11-7-17-13l-11 11H157l-21-11c11 32-3 86 7 119 8-3 18-4 15-18h122c-3 13 6 11 15 8 8-18 3-50 3-74zM158 26v-71h122v71H158" id="i"/><use transform="matrix(0.07407407407407408,0,0,0.07407407407407408,0,0)" xlink:href="#i" id="c"/><path d="M147-218l37-32c-7-4-20-6-28-12-4 17-9 32-15 44-26 1-51 1-64-11 10 49 1 114 4 170 0 10 9 2 14 1 6-2 3-9 4-16h154c1 6-3 17 3 18 5-2 14-2 15-7v-133c-1-10 21-15 4-22-5-3-11-8-17-14l-11 14H147zM99-83v-38h154v38H99zm0-47v-35h154v35H99zm0-44v-34h154v34H99zM70-37C63-14 51 4 32 18c-12 8-12 21 2 22 25-6 36-40 40-77h-4zm59 50c1-23-3-52 7-61-6-4-18-4-27-9 4 24 0 45 2 70 3 37 17 33 71 33 51 0 66 4 82-18-11-6-10-26-11-47h-3c-3 19-2 42-15 46-17-2-117 15-106-14zm63-22c7 14 22 8 20-9-7-19-22-30-44-44 6 20 19 27 24 53zm125 47c16-6 11-28-1-42-8-11-21-23-40-37 13 29 24 35 32 70 2 5 5 9 9 9" id="j"/><use transform="matrix(0.07407407407407408,0,0,0.07407407407407408,0,0)" xlink:href="#j" id="d"/><path d="M110-14l48 5v9H32v-9l48-5v-192l-48 17v-10l69-39h9v224" id="k"/><path d="M45-37c13 0 21 8 21 21C67-2 57 4 45 5 33 4 23-2 24-16c0-13 8-21 21-21" id="l"/><g id="e"><use transform="matrix(0.07407407407407408,0,0,0.07407407407407408,0,0)" xlink:href="#k"/><use transform="matrix(0.07407407407407408,0,0,0.07407407407407408,13.333333333333336,0)" xlink:href="#l"/></g><path d="M90-239c59 0 76 52 76 120S152 4 89 4C31 4 14-51 14-119c0-67 17-120 76-120zM89-10c45-6 45-58 45-109 0-50 0-101-45-106-45 4-43 57-43 106 0 50-2 104 43 109" id="m"/><g id="f"><use transform="matrix(0.07407407407407408,0,0,0.07407407407407408,0,0)" xlink:href="#k"/><use transform="matrix(0.07407407407407408,0,0,0.07407407407407408,13.333333333333336,0)" xlink:href="#m"/><use transform="matrix(0.07407407407407408,0,0,0.07407407407407408,26.66666666666667,0)" xlink:href="#m"/><use transform="matrix(0.07407407407407408,0,0,0.07407407407407408,40.00000000000001,0)" xlink:href="#m"/><use transform="matrix(0.07407407407407408,0,0,0.07407407407407408,53.33333333333334,0)" xlink:href="#m"/><use transform="matrix(0.07407407407407408,0,0,0.07407407407407408,66.66666666666669,0)" xlink:href="#m"/><use transform="matrix(0.07407407407407408,0,0,0.07407407407407408,80.00000000000003,0)" xlink:href="#m"/><use transform="matrix(0.07407407407407408,0,0,0.07407407407407408,93.33333333333339,0)" xlink:href="#m"/><use transform="matrix(0.07407407407407408,0,0,0.07407407407407408,106.66666666666671,0)" xlink:href="#m"/><use transform="matrix(0.07407407407407408,0,0,0.07407407407407408,120.00000000000004,0)" xlink:href="#m"/><use transform="matrix(0.07407407407407408,0,0,0.07407407407407408,133.3333333333334,0)" xlink:href="#m"/><use transform="matrix(0.07407407407407408,0,0,0.07407407407407408,146.66666666666674,0)" xlink:href="#l"/></g></defs></g></svg>