<svg xmlns="http://www.w3.org/2000/svg" xmlns:xlink="http://www.w3.org/1999/xlink" xmlns:lucid="lucid" width="613.67" height="412"><g transform="translate(-315 -239)" lucid:page-tab-id="0_0"><path d="M350 260h80v20h-80z" fill="none"/><use xlink:href="#a" transform="matrix(1,0,0,1,350,260) translate(4 14.4)"/><use xlink:href="#b" transform="matrix(1,0,0,1,350,260) translate(22 14.4)"/><use xlink:href="#c" transform="matrix(1,0,0,1,350,260) translate(40 14.4)"/><use xlink:href="#d" transform="matrix(1,0,0,1,350,260) translate(58 14.4)"/><path d="M340 280h100v60H340z" stroke="#000" stroke-width="2" fill="#c7e8ac"/><use xlink:href="#e" transform="matrix(1,0,0,1,345,285) translate(27 30.025)"/><path d="M560 280h100v60H560z" stroke="#000" stroke-width="2" fill="#b2d6ef"/><use xlink:href="#f" transform="matrix(1,0,0,1,565,285) translate(35.5 30.025)"/><path d="M442 310h98.5" stroke="#000" stroke-width="2" fill="none"/><path d="M442.03 311H441v-2h1.03z"/><path d="M555.76 310l-14.26 4.64v-9.28z" stroke="#000" stroke-width="2"/><path d="M570 260h80v20h-80z" fill="none"/><use xlink:href="#a" transform="matrix(1,0,0,1,570,260) translate(4 14.4)"/><use xlink:href="#b" transform="matrix(1,0,0,1,570,260) translate(22 14.4)"/><use xlink:href="#g" transform="matrix(1,0,0,1,570,260) translate(40 14.4)"/><use xlink:href="#h" transform="matrix(1,0,0,1,570,260) translate(58 14.4)"/><path d="M780 280h100v60H780z" stroke="#000" stroke-width="2" fill="#ffdba9"/><use xlink:href="#i" transform="matrix(1,0,0,1,785,285) translate(29.525 30.025)"/><path d="M662 310h98.5" stroke="#000" stroke-width="2" fill="none"/><path d="M662.03 311H661v-2h1.03z"/><path d="M775.76 310l-14.26 4.64v-9.28z" stroke="#000" stroke-width="2"/><path d="M790 260h80v20h-80z" fill="none"/><use xlink:href="#j" transform="matrix(1,0,0,1,790,260) translate(13 14.4)"/><use xlink:href="#g" transform="matrix(1,0,0,1,790,260) translate(31 14.4)"/><use xlink:href="#h" transform="matrix(1,0,0,1,790,260) translate(49 14.4)"/><path d="M780 400h100v60H780z" stroke="#000" stroke-width="2" fill="#ffdba9"/><use xlink:href="#k" transform="matrix(1,0,0,1,785,405) translate(23.05 30.025)"/><path d="M662 310.04l2.5.1 3.27.4 3.13.68 3.03.9 3 1.2 3 1.48 3.1 1.85 3.2 2.33 3.45 2.95 3.78 3.84 4.35 5.22 5.37 7.67 8.14 14.1L720 370l4.76 8.8 3.73 5.67 3.2 4.05 2.9 3.1 2.75 2.5 2.73 2.06 2.8 1.76 2.95 1.53 3.27 1.36 3.8 1.2 4.7 1.07 2.95.4" stroke="#000" stroke-width="2" fill="none"/><path d="M662.07 309.04l-.1 2-.97-.04v-2z"/><path d="M775.77 404.4l-14.5 3.8.53-9.27z" stroke="#000" stroke-width="2" fill="#fff"/><path d="M780 380h100v20H780z" fill="none"/><use xlink:href="#l" transform="matrix(1,0,0,1,780,380) translate(5 14.4)"/><use xlink:href="#m" transform="matrix(1,0,0,1,780,380) translate(23 14.4)"/><use xlink:href="#n" transform="matrix(1,0,0,1,780,380) translate(41 14.4)"/><use xlink:href="#g" transform="matrix(1,0,0,1,780,380) translate(59 14.4)"/><use xlink:href="#h" transform="matrix(1,0,0,1,780,380) translate(77 14.4)"/><path d="M340 400h100v60H340z" stroke="#000" stroke-width="2" fill="#c7e8ac"/><use xlink:href="#o" transform="matrix(1,0,0,1,345,405) translate(31.5 30.025)"/><path d="M560 400h100v60H560z" stroke="#000" stroke-width="2" fill="#c1e4f7"/><use xlink:href="#p" transform="matrix(1,0,0,1,565,405) translate(29.525 30.025)"/><path d="M335 500h110v20H335z" fill="none"/><use xlink:href="#q" transform="matrix(1,0,0,1,335,500) translate(3.8444444444444414 17.06666666666667)"/><use xlink:href="#r" transform="matrix(1,0,0,1,335,500) translate(9.770370370370369 17.06666666666667)"/><use xlink:href="#s" transform="matrix(1,0,0,1,335,500) translate(70.15555555555557 17.06666666666667)"/><use xlink:href="#d" transform="matrix(1,0,0,1,335,500) translate(88.15555555555557 17.06666666666667)"/><path d="M570 380h80v20h-80z" fill="none"/><use xlink:href="#t" transform="matrix(1,0,0,1,570,380) translate(6.524999999999999 14.4)"/><use xlink:href="#g" transform="matrix(1,0,0,1,570,380) translate(37.475 14.4)"/><use xlink:href="#h" transform="matrix(1,0,0,1,570,380) translate(55.475 14.4)"/><path d="M442 430h98.5" stroke="#000" stroke-width="2" fill="none"/><path d="M442.03 431H441v-2h1.03z"/><path d="M555.76 430l-14.26 4.64v-9.28z" stroke="#000" stroke-width="2"/><path d="M662 430h98.5" stroke="#000" stroke-width="2" fill="none"/><path d="M662.03 431H661v-2h1.03z"/><path d="M775.76 430l-14.26 4.64v-9.28z" stroke="#000" stroke-width="2" fill="#fff"/><path d="M481 620h80.5M481.03 620H480" stroke="#000" stroke-width="2" fill="none"/><path d="M576.76 620l-14.26 4.64v-9.28z" stroke="#000" stroke-width="2"/><use xlink:href="#u" transform="matrix(1,0,0,1,505.3314035349755,594.4000000000001) translate(0 14.4)"/><use xlink:href="#h" transform="matrix(1,0,0,1,505.3314035349755,594.4000000000001) translate(18 14.4)"/><path d="M641 620h80.5M641.03 620H640" stroke="#000" stroke-width="2" fill="none"/><path d="M736.76 620l-14.26 4.64v-9.28z" stroke="#000" stroke-width="2" fill="#fff"/><use xlink:href="#v" transform="matrix(1,0,0,1,666.7167197261525,594.4000000000001) translate(0 14.4)"/><use xlink:href="#w" transform="matrix(1,0,0,1,666.7167197261525,594.4000000000001) translate(18 14.4)"/><path d="M662 429.98l1.34-.03 2.23-.14 2.13-.22 2.06-.3 2-.4 1.92-.45 1.9-.53 1.85-.6 1.83-.7 1.83-.78 1.8-.87 1.83-.96 1.84-1.1 1.87-1.2 1.9-1.35 1.98-1.52 2.06-1.73 2.17-2 2.32-2.3 2.53-2.76 2.87-3.4 3.42-4.4 4.7-6.66 19.9-29.95 3.43-4.42 2.87-3.38 2.53-2.75 2.32-2.32 2.17-2 2.06-1.72 1.97-1.52 1.9-1.34 1.88-1.2 1.84-1.08 1.83-.97 1.8-.86 1.84-.77.17-.07" stroke="#000" stroke-width="2" fill="none"/><path d="M662.05 430.98L661 431v-2l1-.02z"/><path d="M775.82 338.45l-13.2 7.15-1.67-9.12z" stroke="#000" stroke-width="2"/><path d="M560 520h100v60H560z" stroke="#000" stroke-width="2" fill="#c1e4f7"/><use xlink:href="#x" transform="matrix(1,0,0,1,565,525) translate(22.025 30.025)"/><path d="M340 520h100v60H340z" stroke="#000" stroke-width="2" fill="#c7e8ac"/><use xlink:href="#y" transform="matrix(1,0,0,1,345,525) translate(23.525 30.025)"/><path d="M442 550h98.5" stroke="#000" stroke-width="2" fill="none"/><path d="M442.03 551H441v-2h1.03z"/><path d="M555.76 550l-14.26 4.64v-9.28z" stroke="#000" stroke-width="2"/><path d="M662 549.98h.02l1-.06 1-.1.96-.15.96-.2.97-.2.97-.28.96-.32.97-.36.98-.4 1-.48 1-.53 1.04-.6 1.06-.66 1.1-.76 1.13-.87 1.2-.96 1.22-1.1 1.3-1.3 1.37-1.45 1.45-1.7 1.56-1.98 1.7-2.33 1.85-2.8 2.03-3.35 2.28-4.14 2.6-5.23 3.02-6.83 3.7-9.4 5-14.37 10.74-36.4 14.5-49.88 5-14.37 3.7-9.4 3.03-6.84 2.6-5.24 2.27-4.15 2.03-3.35 1.85-2.78 1.7-2.33 1.55-1.97 1.46-1.7 1.38-1.46 1.3-1.26 1.23-1.1.44-.36" stroke="#000" stroke-width="2" fill="none"/><path d="M662.05 550.98L661 551v-2l1-.02z"/><path d="M776 339.05l-11.6 9.52-3.4-8.63z" stroke="#000" stroke-width="2"/><path d="M610 518v-38.5" stroke="#000" stroke-width="2" fill="none"/><path d="M611 519h-2v-1.03h2z"/><path d="M610 464.24l4.64 14.26h-9.28z" stroke="#000" stroke-width="2" fill="#fff"/><path d="M350 380h80v20h-80z" fill="none"/><g><use xlink:href="#t" transform="matrix(1,0,0,1,350,380) translate(6.524999999999999 14.4)"/><use xlink:href="#c" transform="matrix(1,0,0,1,350,380) translate(37.475 14.4)"/><use xlink:href="#d" transform="matrix(1,0,0,1,350,380) translate(55.475 14.4)"/></g><path d="M555 500h110v20H555z" fill="none"/><g><use xlink:href="#q" transform="matrix(1,0,0,1,555,500) translate(3.8444444444444414 17.06666666666667)"/><use xlink:href="#r" transform="matrix(1,0,0,1,555,500) translate(9.770370370370369 17.06666666666667)"/><use xlink:href="#z" transform="matrix(1,0,0,1,555,500) translate(70.15555555555557 17.06666666666667)"/><use xlink:href="#h" transform="matrix(1,0,0,1,555,500) translate(88.15555555555557 17.06666666666667)"/></g><path d="M882 309.95l19.7-1.03 6.98-1.4 3.42-1.2 1.95-1.02 1.23-.87.82-.78.58-.72.4-.7.3-.67.2-.7.08-.76v-.84l-.16-.97-.24-.85-.6-1.45-.9-1.55-1.37-1.73-2.1-2-3.36-2.4-5.67-3-4.42-1.6" stroke="#000" stroke-width="2" fill="none"/><path d="M882.08 310.94L881 311v-2l.97-.05z"/><path d="M884.13 279.83l14.98-.84-2.36 8.95z" stroke="#000" stroke-width="2"/><path d="M882 310.02h.2l1.2.08 1.13.12 1.1.16 1.1.2 1.07.26 1.06.3 1.04.34 1.03.38 1.02.43 1 .47 1.03.52 1 .58 1.02.64 1 .7 1.03.78 1.03.85 1.03.93 1.04 1.02 1.05 1.13 1.06 1.23 1.08 1.37 1.1 1.5 1.08 1.65 1.1 1.83 1.12 2.03 1.1 2.23 1.1 2.47 1.1 2.73 1.03 3 1 3.3.92 3.6.82 3.9.7 4.2.56 4.42.4 4.63.2 4.76v4.8l-.2 4.76-.4 4.63-.56 4.43-.7 4.18-.83 3.9-.94 3.6-1 3.3-1.04 3-1.07 2.73-1.1 2.46-1.1 2.23-1.12 2-1.1 1.84-1.1 1.66-1.1 1.5-1.07 1.36-1.07 1.23-1.06 1.12-1.05 1.02-1.04.93-.96.8" stroke="#000" stroke-width="2" fill="none"/><path d="M882.05 309.02l-.04 2-1-.02v-2z"/><path d="M884.05 431.24l11.9-9.14 3.1 8.74z" stroke="#000" stroke-width="2" fill="#fff"/><path d="M830 398v-38.5" stroke="#000" stroke-width="2" fill="none"/><path d="M831 399h-2v-1.03h2z"/><path d="M830 344.24l4.64 14.26h-9.28z" stroke="#000" stroke-width="2"/><defs><path d="M159-138c30 10 8-48 28-48-3-9-15-10-21-20l-11 13h-35v-24h64c8 1 9-8 2-9-7-4-12-9-16-14l-14 14h-36c-5-13 11-24 0-27-8-2-15-3-20-5 2 6 3 17 3 32H29l5 9h69v24c-24 1-47 1-59-10 10 21-2 58 7 79 7-4 17-4 14-18h30c-19 36-44 56-76 74l2 4c36-15 61-33 82-62 1 18-2 38 1 54 5-3 13-3 16-9v-48c20 8 22 26 39 37 7 0 9-7 9-15-7-13-27-17-48-26v-9h39v4zm-94-14v-32h38v32H65zm55-32h39v32h-39v-32zm112-28c6-10 7-27 19-33-3-7-15-7-22-14-9 47-24 83-50 112l1 3c14-13 26-26 35-41 9 27 16 47 28 59-16 19-53 40-90 51l1 3c38-11 71-24 96-45 11 11 26 21 45 32 11-9 21-16 33-9v-4c-28-7-48-16-68-29 13-15 26-40 39-76 11-1 41 4 27-11-8-4-15-8-21-16l-18 18h-55zm-13 23c3-4 5-9 8-14h54c-9 29-18 51-30 67-13-9-21-27-32-53zM115 32c0-24-3-53 7-66-4-5-17-4-26-8 6 19 2 50 3 74H22l5 9h294c9 1 10-8 2-10-8-5-15-11-20-17l-16 18H187V-8h96c7 1 6-8 2-11-8-3-15-8-20-15l-16 16h-62v-36h119c8 1 10-9 2-11-8-5-15-11-20-17l-16 18H40l5 10h125v86h-55" id="A"/><use transform="matrix(0.05,0,0,0.05,0,0)" xlink:href="#A" id="a"/><path d="M48-245c15 16 22 30 30 44 8 0 11-16 4-22-3-5-13-13-32-25zm85 45c21-2 32-27 50-37-4-6-14-7-20-14-7 22-17 36-30 51zm28 76c23-21-14-36-39-44v-13h69c9 1 9-8 2-10-7-4-13-10-17-15l-15 15h-39c1-20-4-48 6-59-5-5-20-4-25-8 4 12 3 47 3 67H29l5 10h63c-18 38-42 60-74 80l2 4c36-16 60-36 81-66v54l-4-2c-2 10-7 22-14 36H21l5 10h57C75-49 64-30 50-8c11 11 21-5 24-14 16 5 30 10 41 17-22 30-50 45-96 56v3c51-7 83-23 108-51 20 12 22 21 36 28 4-1 7-4 7-10-6-15-18-19-35-29 9-13 18-27 31-57 13-1 52 3 35-11-7-6-16-11-20-17l-16 18h-59c4-9 11-19 19-23-1-5-12-5-17-9 23-1 12-36 14-58 16 11 20 16 31 34 2 4 4 7 8 7zm-14 59c-10 25-18 42-25 51-11-5-27-9-45-13l23-38h47zm109 33c22-41 35-79 43-143 11 0 38 2 24-11-8-3-15-8-20-15l-16 16h-57c6-13 11-29 17-47 3-4 20-8 5-14-7-2-13-6-21-12-11 65-27 112-58 155l3 3c14-15 25-31 35-49 3 44 13 84 28 119-24 37-52 60-99 81l1 3c47-15 82-35 105-70 10 17 27 38 49 62 13-6 20-11 32-3l1-4c-35-21-54-41-72-71zm-7-14c-12-28-28-69-32-114 3-5 6-9 9-15h55c-6 58-16 92-32 129" id="B"/><use transform="matrix(0.05,0,0,0.05,0,0)" xlink:href="#B" id="b"/><path d="M151-256c18 14 23 31 33 44 11 0 14-21 4-28-5-6-16-14-34-21zM33-156c16-3 16-20 19-43h240c-7 16-13 30-19 39 17 3 21-31 46-31 10-1 10-10 3-14s-13-9-19-16l-13 13H52v-16h-4c6 23-42 55-15 68zm64-11c24 14 32 29 44 44 11 0 13-20 3-27-8-5-22-13-44-21zm-19 46c26 15 34 30 48 44 12 0 13-19 3-26-9-6-24-13-48-21zM34 54C105 37 159 9 187-51c20 51 58 78 103 97 9-9 21-14 37-14l1-3C262 16 221-5 193-53h117c12 0 13-9 3-12-10-6-17-13-23-20l-19 22h-80c10-21 2-87 14-108-6-4-20-4-29-9 9 11 4 101-4 117H33l5 10h130C137 9 107 23 33 51" id="C"/><use transform="matrix(0.05,0,0,0.05,0,0)" xlink:href="#C" id="c"/><path d="M81-160c1-5 9-14-2-14 10-17 21-37 31-60 3-5 19-7 5-13-6-3-13-8-20-15-16 65-43 113-77 158l3 3c15-13 29-30 44-50l2 205c5-2 14-2 14-8v-206zm118 7C182-42 160-24 96 47l1 2c76-59 94-82 120-196 5-2 16-9 5-13-4-3-8-7-12-14-7 13-29 11-50 11 5-16 10-36 15-58h57c9 1 10-8 2-10-8-5-14-10-18-16l-16 17h-86c3 14 27 8 43 9-13 78-27 115-66 157l1 2c16-12 31-26 42-43 17 16 22 34 32 48 4 0 7-4 7-11 0-23-15-28-37-41 8-15 14-26 21-44h42zm65-24c-2-11 16-15 1-20-6 0-14-1-21-4 8 55 1 122 3 182 5 2 15-1 17-7v-151zm53-53c-1-7 16-11 1-14-6-1-13-3-20-6 8 82 3 180 3 268 0 11-26 6-36 4v4c15 4 24 12 27 25 12-1 26-16 25-33v-248" id="D"/><use transform="matrix(0.05,0,0,0.05,0,0)" xlink:href="#D" id="d"/><path d="M110-14l48 5v9H32v-9l48-5v-192l-48 17v-10l69-39h9v224" id="E"/><path d="M90-239c59 0 76 52 76 120S152 4 89 4C31 4 14-51 14-119c0-67 17-120 76-120zM89-10c45-6 45-58 45-109 0-50 0-101-45-106-45 4-43 57-43 106 0 50-2 104 43 109" id="F"/><path d="M24-231c66-21 156 2 128 81C132-92 78-66 39-27h121V0H16v-26l59-54c26-25 47-47 47-97 0-48-47-57-81-37l-6 29H24v-46" id="G"/><path d="M142-52V0h-30v-52H7v-23l115-162h20v160h32v25h-32zm-30-25l-1-119L27-77h85" id="H"/><g id="e"><use transform="matrix(0.05,0,0,0.05,0,0)" xlink:href="#E"/><use transform="matrix(0.05,0,0,0.05,9,0)" xlink:href="#F"/><use transform="matrix(0.05,0,0,0.05,18,0)" xlink:href="#G"/><use transform="matrix(0.05,0,0,0.05,27,0)" xlink:href="#H"/></g><path d="M47-200c-23 0-25-39 0-38 13 0 18 7 20 19-1 11-8 19-20 19zM65-12l28 4v8H8v-8l28-4v-141l-24-4v-8h53v153" id="I"/><path d="M125-118c4-37-41-34-68-26v132l23 4v8H8C5-13 21-9 28-12v-141c-7-3-23 1-20-12h47l2 13c31-23 98-29 98 31v109c7 3 23-1 20 12h-72v-8l22-4v-106" id="J"/><path d="M54-38c-1 25 24 26 44 20v12C71 10 25 9 25-35v-115H4c-2-14 14-10 21-15l18-38h11v38h38v15H54v112" id="K"/><g id="f"><use transform="matrix(0.05,0,0,0.05,0,0)" xlink:href="#I"/><use transform="matrix(0.05,0,0,0.05,5,0)" xlink:href="#J"/><use transform="matrix(0.05,0,0,0.05,14,0)" xlink:href="#K"/></g><path d="M77-239c22 17 28 35 43 47 10 1 14-17 5-24-5-5-20-13-45-25zm132 48c24-8 42-22 62-34 7 0 6-6 0-8-5-3-11-8-17-14-11 21-30 41-48 52zm-26 9c2-24-5-59 6-72-3-8-23-4-28-8 6 16 3 55 4 80H29l5 9h131l1 77c5-3 14-3 17-9v-68h132c10 0 10-7 2-11-9-4-17-11-22-17l-18 19h-94zm-57 17c-30 42-47 46-103 71l2 2c49-15 86-31 112-50 3-1 19-4 6-10-5-2-11-7-17-13zm72 7l-1 5c40 14 70 30 91 48 5 8 20 11 20-3-19-27-55-30-110-50zM21 54c82-18 120-37 151-96h143c9 0 11-9 2-11-9-5-17-12-22-18l-18 19H176c-2-14 23-29 6-33-7-2-15-4-23-8 3 14 2 30-3 41H29l5 10h119C128 12 91 29 18 50zm166-82l-3 4c46 20 82 42 106 68 5 10 21 13 22-3-21-36-63-43-125-69" id="L"/><use transform="matrix(0.05,0,0,0.05,0,0)" xlink:href="#L" id="g"/><path d="M19-54c44-29 60-46 68-98h53v82c2 7 10-1 14-1 6-22 0-55 2-81h50c8 0 10-8 2-11-8-5-15-9-19-15-8 8-13 19-33 16v-71c16-3 43 7 49-6-6-7-22-14-25-22l-17 18H27l6 10h40l-2 71H21l5 10h44c-7 48-19 64-53 95zm121-108H88l1-71h51v71zm102 60c10-37-8-100 8-130-2-7-20-4-23-8l2 143zm64-132c0-7 15-12 1-15-6-1-13-2-20-5 7 47 1 113 3 166-4 11-29 4-41 3v4c22 3 29 13 37 24 10-1 20-15 20-31v-146zM187-38c-7-18 16-31 0-36-7-1-14-4-22-7 5 10 4 28 4 43H60l6 10h103v63H19l6 9h301c11 0 10-8 1-11-10-6-17-12-22-19l-18 21H187v-63h95c10 0 10-8 2-12-9-4-15-11-20-17l-17 19h-60" id="M"/><use transform="matrix(0.05,0,0,0.05,0,0)" xlink:href="#M" id="h"/><path d="M161-154L85 37C75 66 49 86 8 75V39c18-2 6 24 29 21 30-4 38-32 47-58L21-153c-7-3-20 0-17-12h77v8l-26 4 45 116 43-116-26-4v-8h62v8" id="N"/><path d="M166-85c3 67-44 102-111 85l1 64 29 4v9H6v-9l21-4v-217c-7-3-22 1-19-12h46l1 9c11-8 26-14 45-14 47 2 64 36 66 85zM56-13c53 14 83-14 78-72 7-53-33-79-78-60v132" id="O"/><path d="M84-170c49 0 66 33 63 87H46c-8 60 38 80 95 63v10C128-2 108 4 88 4 34 4 14-29 14-84c-1-54 22-86 70-86zm33 73c12-57-57-82-69-24-1 7-2 15-2 24h71" id="P"/><g id="i"><use transform="matrix(0.05,0,0,0.05,0,0)" xlink:href="#K"/><use transform="matrix(0.05,0,0,0.05,5,0)" xlink:href="#N"/><use transform="matrix(0.05,0,0,0.05,14,0)" xlink:href="#O"/><use transform="matrix(0.05,0,0,0.05,23,0)" xlink:href="#P"/></g><path d="M268-251l-18 19H71l6 10h210c11 1 10-9 2-11-9-5-16-11-21-18zm49 216c-5 42 7 69-45 63-38-4-51 5-51-25v-137h102c10 0 10-9 1-12-10-6-17-12-22-19l-18 21H23l6 10h91C123-20 90 15 18 50l1 3c81-27 122-74 118-187h66V3c-5 44 29 42 69 41 47-2 49 3 62-19-14-8-11-38-14-60h-3" id="Q"/><use transform="matrix(0.05,0,0,0.05,0,0)" xlink:href="#Q" id="j"/><path d="M90-170c52 0 76 32 76 87 0 54-24 87-77 87-51 0-75-34-75-87 0-54 24-87 76-87zM89-10c39 0 46-35 46-73 0-39-7-73-46-73-39 1-44 34-44 73s6 72 44 73" id="R"/><path d="M53-14c58 12 82-15 82-73 0-52-35-77-82-58v131zM89 4C64 4 42-2 24-9v-229l-24-4v-8h53l-1 94c48-33 114-4 114 69 0 57-23 91-77 91" id="S"/><path d="M50-238c28 0 22 38 0 38-10-2-19-7-19-19s7-18 19-19zM3 58c24 15 35-10 35-42v-169l-25-4v-8h54V7c4 51-28 81-77 66V38C3 36-1 51 3 58" id="T"/><path d="M45-84c0 64 52 80 104 63 1 25-30 25-55 25-56 0-80-32-80-88 0-76 62-98 131-80v46h-10c-5-15-4-31-23-35-47-10-67 21-67 69" id="U"/><g id="k"><use transform="matrix(0.05,0,0,0.05,0,0)" xlink:href="#R"/><use transform="matrix(0.05,0,0,0.05,9,0)" xlink:href="#S"/><use transform="matrix(0.05,0,0,0.05,18,0)" xlink:href="#T"/><use transform="matrix(0.05,0,0,0.05,23,0)" xlink:href="#P"/><use transform="matrix(0.05,0,0,0.05,30.950000000000003,0)" xlink:href="#U"/><use transform="matrix(0.05,0,0,0.05,38.9,0)" xlink:href="#K"/></g><path d="M18-9c52-17 85-35 115-73h90c7 25 57 62 77 69 12-8 23-13 36-13v-4c-52-10-75-20-107-52h95c7 1 11-9 2-11-8-5-15-10-20-16l-16 17h-44v-115h66c10 1 10-9 2-11-9-5-15-11-20-18l-17 19h-31c-2-17 2-27 7-35-5-4-18-4-26-9 3 10 2 30 2 44H117c-2-17 3-27 7-37l-27-8c4 10 3 30 3 45H32l5 10h63v115H17l5 10h89C86-48 56-30 17-13zm99-83v-32h112v32H117zm0-42v-31h112v31H117zm0-40v-33h112v33H117zm64 143c-2-16 3-26 7-34-5-4-18-4-26-9 4 9 3 29 3 43H92l5 10h68v52H33l5 9h268c11 1 12-9 3-11-9-5-16-11-21-18l-16 20h-91v-52h66c8 1 10-9 2-11-8-5-15-11-20-17l-16 18h-32" id="V"/><use transform="matrix(0.05,0,0,0.05,0,0)" xlink:href="#V" id="l"/><path d="M162 22c2-26-21-81-41-109 7-23 16-56 25-98 1-7 26-8 14-18-5-4-11-11-16-19l-16 14H18c3 3 2 10 10 9 38 49 58 80 75 117C83-23 65 8 18 44l3 3C65 20 93-7 112-62c10 24 20 55 31 93 2 5 6 8 10 8 8 0 9-8 9-17zM31-199h99c-8 43-14 75-20 95-20-29-47-60-79-95zM255 51c10 9 28-13 28-31v-183c17-2 45 6 53-5-6-9-23-14-27-24-9 6-10 20-26 19 2-26-6-64 8-75-6-6-20-2-29-8 5 20 2 57 3 83H154l5 10h106V20c-4 11-31 5-41 2v4c16 4 27 13 31 25zM202-53c7 15 21 8 19-9-3-25-19-39-38-59 4 26 16 34 19 68" id="W"/><use transform="matrix(0.05,0,0,0.05,0,0)" xlink:href="#W" id="m"/><path d="M177-184l63-35c-3-10-13-11-17-22-16 18-59 9-91 11 6-5 9-16 22-15 5-2 6-7-2-8-6-1-12-4-19-10-31 52-54 66-110 96l2 4c15-5 28-10 40-16 5 20-2 56 4 76 7-2 19-1 16-13h75C123-93 84-80 34-70l3 6c49-8 83-18 118-33 5 5 9 10 13 15-43 27-91 47-143 59l1 4c62-9 99-22 152-46 4 6 5 13 7 21C135-12 80 11 19 25l2 4C89 17 130 3 188-24c-2 24 5 48-14 49-11 0-24-1-41-5l-1 4c20 4 33 17 42 31 23-15 32-30 32-64 0-48-14-66-46-91 14-6 22-19 45-16 16 74 50 117 97 148 8-8 19-12 32-12l1-3c-43-14-71-36-94-68 21-7 38-18 53-31 8 0 8-6 0-8-5-2-11-6-18-10-10 23-18 31-37 46-11-17-20-37-28-62h66c-2 12 9 6 15 4 7-10 2-33 3-48 1-10 24-15 6-23-5-3-11-7-17-13l-11 12h-96zm-92 58v-48h85v48H85zm103 0v-48h89v48h-89zM78-186c15-11 29-19 45-35h84c-9 11-21 24-35 37-31-1-67 3-94-2" id="X"/><use transform="matrix(0.05,0,0,0.05,0,0)" xlink:href="#X" id="n"/><path d="M13-81c0-71 46-101 114-85l-1-72-28-4v-8h57v238c8 3 24-2 21 12h-47l-2-12C80 23 13-1 13-81zm77-74c-37 1-44 33-45 74 0 38 9 66 45 66 14 0 27-3 36-7v-130c-10-1-24-3-36-3" id="Y"/><path d="M141-152c28 39 5 97-54 97-9 0-20-2-27-3L49-35c29 22 130-14 124 52-4 45-38 57-88 61C21 83-8 26 45-2 33-6 22-15 21-31l28-31c-19-9-28-26-28-51-2-51 53-65 100-52l38-20 7 8zM85 64c35 0 61-11 61-42 0-35-57-17-89-21-9 8-16 19-17 34 0 25 19 29 45 29zM52-113c1 26 7 46 35 44 28-1 34-16 35-44 0-26-6-43-34-43s-36 17-36 43" id="Z"/><g id="o"><use transform="matrix(0.05,0,0,0.05,0,0)" xlink:href="#Y"/><use transform="matrix(0.05,0,0,0.05,9,0)" xlink:href="#R"/><use transform="matrix(0.05,0,0,0.05,18,0)" xlink:href="#Z"/></g><path d="M75-17c87 13 134-18 134-103 0-78-51-106-134-100v203zm171-102C246 5 139 7 10 0v-9l31-5v-208l-31-4v-10h107c82 0 129 35 129 117" id="aa"/><g id="p"><use transform="matrix(0.05,0,0,0.05,0,0)" xlink:href="#aa"/><use transform="matrix(0.05,0,0,0.05,12.950000000000001,0)" xlink:href="#R"/><use transform="matrix(0.05,0,0,0.05,21.950000000000003,0)" xlink:href="#Z"/></g><path d="M185-189c-5-48-123-54-124 2 14 75 158 14 163 119 3 78-121 87-175 55-17-10-28-26-33-46l33-7c5 56 141 63 141-1 0-78-155-14-162-118-5-82 145-84 179-34 5 7 8 16 11 25" id="ab"/><path d="M24 0v-261h32V0H24" id="ac"/><path d="M100-194c63 0 86 42 84 106H49c0 40 14 67 53 68 26 1 43-12 49-29l28 8c-11 28-37 45-77 45C44 4 14-33 15-96c1-61 26-98 85-98zm52 81c6-60-76-77-97-28-3 7-6 17-6 28h103" id="ad"/><path d="M84 4C-5 8 30-112 23-190h32v120c0 31 7 50 39 49 72-2 45-101 50-169h31l1 190h-30c-1-10 1-25-2-33-11 22-28 36-60 37" id="ae"/><path d="M59-47c-2 24 18 29 38 22v24C64 9 27 4 27-40v-127H5v-23h24l9-43h21v43h35v23H59v120" id="af"/><path d="M106-169C34-169 62-67 57 0H25v-261h32l-1 103c12-21 28-36 61-36 89 0 53 116 60 194h-32v-121c2-32-8-49-39-48" id="ag"/><g id="r"><use transform="matrix(0.05925925925925927,0,0,0.05925925925925927,0,0)" xlink:href="#ab"/><use transform="matrix(0.05925925925925927,0,0,0.05925925925925927,14.222222222222225,0)" xlink:href="#ac"/><use transform="matrix(0.05925925925925927,0,0,0.05925925925925927,18.903703703703705,0)" xlink:href="#ad"/><use transform="matrix(0.05925925925925927,0,0,0.05925925925925927,30.75555555555556,0)" xlink:href="#ae"/><use transform="matrix(0.05925925925925927,0,0,0.05925925925925927,42.607407407407415,0)" xlink:href="#af"/><use transform="matrix(0.05925925925925927,0,0,0.05925925925925927,48.53333333333334,0)" xlink:href="#ag"/></g><use transform="matrix(0.05,0,0,0.05,0,0)" xlink:href="#C" id="s"/><g id="t"><use transform="matrix(0.05,0,0,0.05,0,0)" xlink:href="#aa"/><use transform="matrix(0.05,0,0,0.05,12.950000000000001,0)" xlink:href="#R"/><use transform="matrix(0.05,0,0,0.05,21.950000000000003,0)" xlink:href="#Z"/></g><use transform="matrix(0.05,0,0,0.05,0,0)" xlink:href="#L" id="u"/><path d="M41-140c25-25 32-66 54-100-4-5-15-6-22-12-9 43-25 88-52 111 5 8 7 15 8 22 19-11 35-10 60-23-14 32-38 73-67 86 5 8 9 16 10 23 31-18 55-20 97-45l-3-4C95-69 68-59 44-54c37-34 58-76 84-129 2 0 4-1 4-3-4-6-16-8-23-14-4 18-10 34-17 50-19 5-36 8-51 10zM34 44C62 15 92 7 136-33l-3-2C87-8 64 7 18 17c5 5 9 21 16 27zm125-270c0-7 15-12 1-15-6-1-13-3-20-6 8 85 1 184 3 275-4 12-4 19 11 22 5 1 6-10 9-12h165c8-1 8-9 0-13-5-3-11-10-18-18l-18 21h-41V-96c30 31 35 39 52 85 5 12 20 8 17-7-6-35-36-56-69-82v-19h70c11 1 12-9 3-11-9-5-16-11-21-18l-16 19h-36c3-40-7-95 7-122l-26-8c7 36 1 88 3 130h-73l6 10h62c-22 66-26 70-67 132l2 1c32-30 51-55 70-96V28h-76v-254zm62 68c-6-26-22-49-47-68 18 27 29 53 29 79 0 4 2 7 7 7 6 0 12-10 11-18zm43 20c22-17 42-51 64-79-6-5-17-6-25-13-8 31-21 61-42 90" id="ah"/><use transform="matrix(0.05,0,0,0.05,0,0)" xlink:href="#ah" id="v"/><path d="M183-130c0-18-1-38 6-44 0-1 0-1-2-2 22-10 36-34 68-39 19-12-12-18-17-30l-14 13H73l5 10h146l-45 44c-5-1-11-2-16-4 4 11 3 35 3 52h-36c3 12 21 9 36 9v36h-48l6 10h42v33h-66l6 9h60v53c-3 11-34 5-45 4v4c19 4 28 13 34 25 12-1 28-16 28-33v-53h63c9 1 9-8 2-10-7-4-13-9-17-14l-15 15h-33v-33c16-3 43 7 49-6-5-6-17-10-20-17-7 7-12 16-29 13v-36c13-2 37 5 41-5-5-6-18-11-21-18-7 4-8 15-20 14zm-69-14C91-56 69-30 18 26l1 2c62-50 83-81 111-164 4-4 16-8 7-14-4-2-8-7-12-13l-13 10H32l5 9h77zm133 30c26-11 45-31 70-44-7-4-13-9-20-17-12 23-32 42-51 56-4-15-7-31-10-49h-4c10 90 24 146 71 188 9-7 20-11 33-11V6c-51-18-73-66-89-120" id="ai"/><use transform="matrix(0.05,0,0,0.05,0,0)" xlink:href="#ai" id="w"/><path d="M178-68c0 79-95 82-154 59v-54h12c1 35 22 52 60 52 50 0 69-58 33-82-39-24-105-21-105-85 0-67 86-66 142-53v49h-12l-6-29c-31-27-121-7-89 42 28 43 119 24 119 101" id="aj"/><path d="M65-12l28 4v8H7v-8l28-4v-226l-28-4v-8h58v238" id="ak"/><path d="M124-13C89 8 26 15 26-45v-108c-8-3-24 2-21-12h50v118c-3 37 42 32 69 25v-131l-25-4v-8h54v153c8 3 24-2 21 12h-48" id="al"/><path d="M126-119c3-38-42-31-69-25v132l23 4v8H7v-8l21-4v-226l-24-4v-8h53l-1 98c31-22 99-31 99 31v109c7 3 23-1 20 12h-71v-8l22-4v-107" id="am"/><g id="x"><use transform="matrix(0.05,0,0,0.05,0,0)" xlink:href="#aj"/><use transform="matrix(0.05,0,0,0.05,10,0)" xlink:href="#ak"/><use transform="matrix(0.05,0,0,0.05,15,0)" xlink:href="#P"/><use transform="matrix(0.05,0,0,0.05,22.95,0)" xlink:href="#al"/><use transform="matrix(0.05,0,0,0.05,31.950000000000003,0)" xlink:href="#K"/><use transform="matrix(0.05,0,0,0.05,36.95,0)" xlink:href="#am"/></g><path d="M41-130c7 48 86 23 86 84 0 56-69 57-112 41v-40c20 0 9 29 31 31 35 19 77-26 41-50-27-18-72-13-72-59 0-50 58-52 100-41v36c-19 1-8-25-28-25-21-7-50-1-46 23" id="an"/><g id="y"><use transform="matrix(0.05,0,0,0.05,0,0)" xlink:href="#an"/><use transform="matrix(0.05,0,0,0.05,7,0)" xlink:href="#ak"/><use transform="matrix(0.05,0,0,0.05,12,0)" xlink:href="#P"/><use transform="matrix(0.05,0,0,0.05,19.95,0)" xlink:href="#al"/><use transform="matrix(0.05,0,0,0.05,28.950000000000003,0)" xlink:href="#K"/><use transform="matrix(0.05,0,0,0.05,33.95,0)" xlink:href="#am"/></g><use transform="matrix(0.05,0,0,0.05,0,0)" xlink:href="#L" id="z"/></defs></g></svg>