<svg xmlns="http://www.w3.org/2000/svg" xmlns:xlink="http://www.w3.org/1999/xlink" xmlns:lucid="lucid" width="260" height="259"><g transform="translate(-840 -160)" lucid:page-tab-id="0_0"><path d="M961 355h118v44H961z" fill="none"/><use xlink:href="#a" transform="matrix(1,0,0,1,961,355) translate(5.666666666666657 27.333333333333336)"/><use xlink:href="#b" transform="matrix(1,0,0,1,961,355) translate(32.33333333333333 27.333333333333336)"/><use xlink:href="#c" transform="matrix(1,0,0,1,961,355) translate(59 27.333333333333336)"/><use xlink:href="#d" transform="matrix(1,0,0,1,961,355) translate(85.66666666666667 27.333333333333336)"/><path d="M960 260h120v80H960z" stroke="#000" stroke-width="2" fill="#c1e4f7"/><use xlink:href="#e" transform="matrix(1,0,0,1,965,265) translate(48.33333333333333 41.020833333333336)"/><path d="M860 180h80v42h-80z" stroke="#000" stroke-width="2" fill="#c7e8ac"/><use xlink:href="#f" transform="matrix(1,0,0,1,865,185) translate(29.11111111111111 23.333333333333336)"/><path d="M942 201.03l6.73.2 7.52.73 7.15 1.14 6.65 1.5 6.1 1.77 5.5 2 4.95 2.16 4.42 2.26 3.93 2.34 3.5 2.4 3.1 2.43 2.78 2.47 2.47 2.5 2.2 2.5 1.94 2.56 1.73 2.58 1.53 2.63 1.34 2.7 1.16 2.74.08.24" stroke="#000" stroke-width="2" fill="none"/><path d="M942.06 200.03l-.07 2-1-.03v-2z"/><path d="M1019.43 255.8l-7.05-13.22 9.12-1.62z" stroke="#000" stroke-width="2"/><path d="M860 222h80v44h-80z" fill="none"/><g><use xlink:href="#g" transform="matrix(1,0,0,1,860,222) translate(13.333333333333329 27.333333333333336)"/><use xlink:href="#h" transform="matrix(1,0,0,1,860,222) translate(40 27.333333333333336)"/></g><defs><path d="M159-138c30 10 8-48 28-48-3-9-15-10-21-20l-11 13h-35v-24h64c8 1 9-8 2-9-7-4-12-9-16-14l-14 14h-36c-5-13 11-24 0-27-8-2-15-3-20-5 2 6 3 17 3 32H29l5 9h69v24c-24 1-47 1-59-10 10 21-2 58 7 79 7-4 17-4 14-18h30c-19 36-44 56-76 74l2 4c36-15 61-33 82-62 1 18-2 38 1 54 5-3 13-3 16-9v-48c20 8 22 26 39 37 7 0 9-7 9-15-7-13-27-17-48-26v-9h39v4zm-94-14v-32h38v32H65zm55-32h39v32h-39v-32zm112-28c6-10 7-27 19-33-3-7-15-7-22-14-9 47-24 83-50 112l1 3c14-13 26-26 35-41 9 27 16 47 28 59-16 19-53 40-90 51l1 3c38-11 71-24 96-45 11 11 26 21 45 32 11-9 21-16 33-9v-4c-28-7-48-16-68-29 13-15 26-40 39-76 11-1 41 4 27-11-8-4-15-8-21-16l-18 18h-55zm-13 23c3-4 5-9 8-14h54c-9 29-18 51-30 67-13-9-21-27-32-53zM115 32c0-24-3-53 7-66-4-5-17-4-26-8 6 19 2 50 3 74H22l5 9h294c9 1 10-8 2-10-8-5-15-11-20-17l-16 18H187V-8h96c7 1 6-8 2-11-8-3-15-8-20-15l-16 16h-62v-36h119c8 1 10-9 2-11-8-5-15-11-20-17l-16 18H40l5 10h125v86h-55" id="i"/><use transform="matrix(0.07407407407407408,0,0,0.07407407407407408,0,0)" xlink:href="#i" id="a"/><path d="M48-245c15 16 22 30 30 44 8 0 11-16 4-22-3-5-13-13-32-25zm85 45c21-2 32-27 50-37-4-6-14-7-20-14-7 22-17 36-30 51zm28 76c23-21-14-36-39-44v-13h69c9 1 9-8 2-10-7-4-13-10-17-15l-15 15h-39c1-20-4-48 6-59-5-5-20-4-25-8 4 12 3 47 3 67H29l5 10h63c-18 38-42 60-74 80l2 4c36-16 60-36 81-66v54l-4-2c-2 10-7 22-14 36H21l5 10h57C75-49 64-30 50-8c11 11 21-5 24-14 16 5 30 10 41 17-22 30-50 45-96 56v3c51-7 83-23 108-51 20 12 22 21 36 28 4-1 7-4 7-10-6-15-18-19-35-29 9-13 18-27 31-57 13-1 52 3 35-11-7-6-16-11-20-17l-16 18h-59c4-9 11-19 19-23-1-5-12-5-17-9 23-1 12-36 14-58 16 11 20 16 31 34 2 4 4 7 8 7zm-14 59c-10 25-18 42-25 51-11-5-27-9-45-13l23-38h47zm109 33c22-41 35-79 43-143 11 0 38 2 24-11-8-3-15-8-20-15l-16 16h-57c6-13 11-29 17-47 3-4 20-8 5-14-7-2-13-6-21-12-11 65-27 112-58 155l3 3c14-15 25-31 35-49 3 44 13 84 28 119-24 37-52 60-99 81l1 3c47-15 82-35 105-70 10 17 27 38 49 62 13-6 20-11 32-3l1-4c-35-21-54-41-72-71zm-7-14c-12-28-28-69-32-114 3-5 6-9 9-15h55c-6 58-16 92-32 129" id="j"/><use transform="matrix(0.07407407407407408,0,0,0.07407407407407408,0,0)" xlink:href="#j" id="b"/><path d="M162 22c2-26-21-81-41-109 7-23 16-56 25-98 1-7 26-8 14-18-5-4-11-11-16-19l-16 14H18c3 3 2 10 10 9 38 49 58 80 75 117C83-23 65 8 18 44l3 3C65 20 93-7 112-62c10 24 20 55 31 93 2 5 6 8 10 8 8 0 9-8 9-17zM31-199h99c-8 43-14 75-20 95-20-29-47-60-79-95zM255 51c10 9 28-13 28-31v-183c17-2 45 6 53-5-6-9-23-14-27-24-9 6-10 20-26 19 2-26-6-64 8-75-6-6-20-2-29-8 5 20 2 57 3 83H154l5 10h106V20c-4 11-31 5-41 2v4c16 4 27 13 31 25zM202-53c7 15 21 8 19-9-3-25-19-39-38-59 4 26 16 34 19 68" id="k"/><use transform="matrix(0.07407407407407408,0,0,0.07407407407407408,0,0)" xlink:href="#k" id="c"/><path d="M177-184l63-35c-3-10-13-11-17-22-16 18-59 9-91 11 6-5 9-16 22-15 5-2 6-7-2-8-6-1-12-4-19-10-31 52-54 66-110 96l2 4c15-5 28-10 40-16 5 20-2 56 4 76 7-2 19-1 16-13h75C123-93 84-80 34-70l3 6c49-8 83-18 118-33 5 5 9 10 13 15-43 27-91 47-143 59l1 4c62-9 99-22 152-46 4 6 5 13 7 21C135-12 80 11 19 25l2 4C89 17 130 3 188-24c-2 24 5 48-14 49-11 0-24-1-41-5l-1 4c20 4 33 17 42 31 23-15 32-30 32-64 0-48-14-66-46-91 14-6 22-19 45-16 16 74 50 117 97 148 8-8 19-12 32-12l1-3c-43-14-71-36-94-68 21-7 38-18 53-31 8 0 8-6 0-8-5-2-11-6-18-10-10 23-18 31-37 46-11-17-20-37-28-62h66c-2 12 9 6 15 4 7-10 2-33 3-48 1-10 24-15 6-23-5-3-11-7-17-13l-11 12h-96zm-92 58v-48h85v48H85zm103 0v-48h89v48h-89zM78-186c15-11 29-19 45-35h84c-9 11-21 24-35 37-31-1-67 3-94-2" id="l"/><use transform="matrix(0.07407407407407408,0,0,0.07407407407407408,0,0)" xlink:href="#l" id="d"/><path d="M110-14l48 5v9H32v-9l48-5v-192l-48 17v-10l69-39h9v224" id="m"/><use transform="matrix(0.07407407407407408,0,0,0.07407407407407408,0,0)" xlink:href="#m" id="e"/><path d="M32-163c41-10 102-14 102 39v112c8 3 24-2 21 12h-45l-4-17C83 13 3 13 13-46c-2-50 45-50 92-51 4-36-5-70-42-56-6 2-12 4-16 6-4 7 0 23-15 20v-36zM42-47c0 41 41 33 63 22v-59c-34 1-63-1-63 37" id="n"/><use transform="matrix(0.07407407407407408,0,0,0.07407407407407408,0,0)" xlink:href="#n" id="f"/><path d="M144-258c24 12 30 25 44 36 10 1 15-20 3-24-7-5-22-10-44-16zm147 22l-19 22H34l6 10h89v123c3 6 17-1 18-7v-116h60v116c3 6 16-1 18-6v-110h88c9-1 7-10-1-13-6-4-13-10-21-19zM91-178c-19 45-33 60-69 86l1 3c34-12 61-36 79-66 3-5 21-8 6-13-5-2-10-5-17-10zm155 1l-3 3c26 23 44 43 54 60 6 11 11 17 15 17 12-2 12-23 1-32-7-9-29-25-67-48zM181 17c24 13 94 32 119 33 7-9 16-15 27-18v-4c-43-2-84-9-124-22 23-13 44-30 65-50 4-6 32-5 18-14-6-4-11-9-17-17l-13 11H52c2 14 22 10 38 10 21 25 47 46 76 63-40 16-82 28-148 40 60 3 119-16 163-32zM97-54h159c-23 23-47 41-71 54-32-13-61-28-88-54" id="o"/><use transform="matrix(0.07407407407407408,0,0,0.07407407407407408,0,0)" xlink:href="#o" id="g"/><path d="M270-161c11-22-7-71 14-79-3-9-15-10-20-19l-11 12H94l-20-9c8 27 2 64 4 97 3 4 19 2 17-9h162c-3 11 4 11 13 7zM95-178v-26h162v26H95zm0-36v-23h162v23H95zm208 48l-16 18H26l6 10h289c8 1 10-9 2-11-8-5-15-11-20-17zm-30 69c0-8 25-13 8-21-5-3-10-6-15-12l-10 12H89l-19-9c8 30 2 70 4 106 4 4 20-1 17-12h74v28H55l5 10h105v30H21l5 9h294c11 0 10-7 2-11-9-4-15-12-20-18l-16 20H181V5h106c8 1 10-9 2-11-8-5-14-9-18-15L256-5h-75v-28h76c-3 11 6 8 13 5 8-16 3-47 3-69zM91-42v-29h74v29H91zm90-29h76v29h-76v-29zM91-81v-27h74v27H91zm90-27h76v27h-76v-27" id="p"/><use transform="matrix(0.07407407407407408,0,0,0.07407407407407408,0,0)" xlink:href="#p" id="h"/></defs></g></svg>